<?xml version="1.0" encoding="utf-8"?>
<!-- Generator: Adobe Illustrator 25.4.1, SVG Export Plug-In . SVG Version: 6.00 Build 0)  -->
<svg version="1.1" id="Capa_1" xmlns="http://www.w3.org/2000/svg" xmlns:xlink="http://www.w3.org/1999/xlink" x="0px" y="0px"
	 viewBox="0 0 1920 1080" style="enable-background:new 0 0 1920 1080;" xml:space="preserve">
<style type="text/css">
	.st0{fill:#F5F0DC;stroke:#1A1A1A;stroke-width:3.5;stroke-linejoin:round;}
	.st1{fill:#8C3131;stroke:#1A1A1A;stroke-width:2.5;stroke-linejoin:round;}
	.st2{opacity:0.5;stroke:#B8A882;stroke-width:6;stroke-linecap:round;enable-background:new    ;}
	.st3{opacity:0.6;stroke:#8A7550;stroke-width:2;stroke-linecap:round;enable-background:new    ;}
	.st4{fill:none;stroke:#D4C9A8;stroke-width:1.2;stroke-linecap:round;}
	.st5{opacity:0.55;enable-background:new    ;}
	.st6{opacity:0.45;enable-background:new    ;}
</style>
<g>
	<path class="st0" d="M458,153.03c0-32.87,16.44-50.95,49.31-54.24c164.37-16.44,336.96-14.79,517.76,4.93V942
		c-180.81-16.44-353.39-18.08-517.76-4.93c-32.87-3.29-49.31-19.72-49.31-49.31V153.03z"/>
	<path class="st0" d="M1598.46,153.03c0-32.87-16.44-50.95-49.31-54.24c-164.37-16.44-336.96-14.79-517.76,4.93V942
		c180.81-16.44,353.39-18.08,517.76-4.93c32.87-3.29,49.31-19.72,49.31-49.31V153.03z"/>
	<path class="st1" d="M427.18,149.18c0-29.59,16.44-46.02,49.31-49.31h29.59c-32.87,3.29-49.31,21.37-49.31,54.24v734.73
		c0,32.87,16.44,49.31,49.31,49.31H476.5c-27.23,0-49.31-22.08-49.31-49.31V149.18z"/>
	<path class="st1" d="M1626.82,149.18c0-29.59-16.44-46.02-49.31-49.31h-29.59c32.87,3.29,49.31,21.37,49.31,54.24v734.73
		c0,32.87-16.44,49.31-49.31,49.31h29.59c27.23,0,49.31-22.08,49.31-49.31V149.18z"/>
	<path class="st2" d="M1028.73,103.56v838.28"/>
	<path class="st3" d="M1028.73,103.56v838.28"/>
	<path class="st4" d="M994.96,222.06"/>
	<path class="st4" d="M531.44,226.99"/>
	<path class="st4" d="M994.96,283.7"/>
	<path class="st4" d="M531.44,288.63"/>
	<path class="st4" d="M1523.96,226.99"/>
	<path class="st4" d="M1060.44,222.06"/>
	<path class="st4" d="M1523.96,288.63"/>
	<path class="st4" d="M1060.44,283.7"/>
	<path class="st4" d="M1523.96,350.27"/>
	<path class="st4" d="M1060.44,345.34"/>
	<g class="st5">
	</g>
	<g class="st5">
	</g>
	<g class="st6">
	</g>
</g>
</svg>
