<?xml version="1.0" encoding="utf-8"?>
<!-- Generator: Adobe Illustrator 25.4.1, SVG Export Plug-In . SVG Version: 6.00 Build 0)  -->
<svg version="1.1" id="Capa_1" xmlns="http://www.w3.org/2000/svg" xmlns:xlink="http://www.w3.org/1999/xlink" x="0px" y="0px"
	 viewBox="0 0 806.06 1013.47" style="enable-background:new 0 0 806.06 1013.47;" xml:space="preserve">
<style type="text/css">
	.st0{fill:#130F0C;}
	.st1{fill:#C8B087;}
	.st2{fill:#A82928;}
	.st3{fill:#A12524;}
	.st4{fill:#B13633;}
	.st5{fill:#761A17;}
	.st6{fill:#37130E;}
	.st7{fill:#902321;}
	.st8{fill:#DBCAA6;}
	.st9{fill:#84201E;}
	.st10{fill:#766544;}
</style>
<g>
	<path class="st0" d="M806.06,874.77c-0.52-2.35-0.35-4.7-0.08-7.06c-0.13-20.86-0.32-41.72-0.36-62.58
		c-0.03-12.74,0.19-25.48,0.29-38.22c-0.17-26.43-0.41-52.85-0.51-79.27c-0.18-45.72-0.28-91.43-0.4-137.14
		c0-1.16,0.15-2.31,0.23-3.47c-0.56-9.67-0.4-19.35-0.16-29.03c-0.56-19.95-0.75-39.9-0.19-59.84c-0.38-5.69-0.54-11.37,0.08-17.05
		c-0.46-7.99-0.77-15.98-0.13-23.98c-0.67-8.99-0.6-17.99-0.11-26.99c-0.55-9.31-0.57-18.62-0.18-27.93
		c-0.48-8.34-0.43-16.68-0.06-25.02c-0.46-8.98-0.44-17.97-0.05-26.96c-0.46-8.66-0.48-17.32-0.06-25.98
		c-0.49-8.66-0.46-17.31-0.08-25.97c0.01-1.01,0.01-2.01,0.02-3.01c-0.08-12.35-0.17-24.7-0.25-37.05
		c-0.54-17.6-0.64-35.21-0.14-52.81c-0.3-4.35-0.51-8.7,0.05-13.05c-0.55-3.66-0.64-7.31-0.13-10.98
		c-0.59-5.34-0.62-10.68-0.06-16.03c-0.61-8.97-0.58-17.96-0.28-26.94c-0.55-10.99-0.55-21.99-0.25-32.98
		c-0.06-5.03-0.13-10.06-0.19-15.09c-0.54-1.26-0.65-2.53-0.12-3.82c-0.31-10.15-1.55-20.08-7.15-28.93
		c-2.16-2.33-4.31-4.65-6.47-6.98c-8.09-5.93-17.41-8.33-27.16-9.52c-5.58-0.22-11.15-0.44-16.72-0.66c-1.4-0.01-2.8-0.02-4.2-0.03
		c-1.38-0.01-2.76-0.01-4.14-0.02c-1.12,0-2.25-0.01-3.38-0.01c-24.52,0.41-49.05,0.39-73.58-0.01c-0.66,0-1.33,0-2-0.01
		c-16.89,0.31-33.78,0.58-50.66,0.04c-1.72-0.01-3.43-0.03-5.14-0.04c-15.81,0.08-31.61,0.18-47.42,0.24c-0.43,0-0.87-0.38-1.3-0.59
		l-0.09,0.01c-0.89,0.95-1.94,0.6-2.98,0.36c-0.73,0-1.46,0-2.18-0.01c-9.39,0.41-18.77,0.47-28.15,0.01l-3,0.03
		c-7.33,0.42-14.66,0.42-21.99-0.01h-3c-7.53,0.47-15.07,0.39-22.6,0.01c-1.18,0-2.35-0.01-3.53-0.02c-0.48,0-0.97,0.01-1.45,0.01
		c-1.15,0.09-2.31,0.26-3.46,0.26c-33.79,0.02-67.57,0.02-101.36,0.02c-94.87,0.02-189.74,0.06-284.61,0
		c-5.56,0-10.9,2.81-16.23,2.03C47.01,0.93,36.22,3.45,26.01,9.5H26c-2.5,1.99-5.01,3.97-7.52,5.95c-1.56,1.87-3.11,3.74-4.67,5.62
		c-3.28,6.35-8.04,11.89-9.52,19.26c-0.4,2.04,0.36,4.25-0.89,6.11c0.14,2.39-0.12,4.73-0.92,7c-0.04,6-0.08,11.99-0.12,17.98
		c0.48,2,0.46,4,0.04,6c0,1.33-0.01,2.66-0.02,3.99c0.41,8,0.41,15.99-0.05,23.98c0.43,2.34,0.43,4.68-0.04,7.02
		c0,0.65-0.01,1.31-0.01,1.97c0.41,1.34,0.4,2.68,0,4.02c-0.01,2-0.01,4-0.02,6.01c0.1,1.48,0.28,2.96,0.27,4.44
		c-0.13,36.02-0.24,72.03-0.48,108.04c-0.05,7.12,0.56,14.25-0.38,21.35c0.44,14.67,0.48,29.35-0.11,44.02
		c0.42,3.33,0.43,6.65-0.11,9.97c0.46,6.99,0.45,13.99,0.02,20.98c0,1-0.01,2-0.01,3c0.08,19.87,0.2,39.74,0.2,59.61
		c0,9.44-0.24,18.88-0.38,28.31c0.44,6,0.43,12,0.05,18c-0.01,7.32-0.03,14.64-0.04,21.97c0.44,2.34,0.37,4.67-0.06,7
		c0.42,7.62,0.37,15.23-0.02,22.85c0.01,0.71,0.02,1.41,0.03,2.12c0.39,6,0.38,12-0.05,18.01c-0.06,11.32-0.11,22.64-0.17,33.96
		c0.32,8.66,0.46,17.32-0.15,25.98c0.56,8.99,0.44,17.98,0.08,26.97c0.47,8,0.42,15.99-0.13,23.99c0.51,5.98,0.49,11.96-0.1,17.94
		C0.8,655,1.03,667.09,0.9,679.16c-0.11,10.59,0.56,21.18-0.36,31.76c0.32,7.32,0.44,14.64-0.08,21.96c0.44,2.34,0.45,4.67-0.01,7
		c-0.05,24.1-0.1,48.19-0.14,72.29c0.02,0.52,0.04,1.05,0.06,1.57c-0.03,3.71-0.06,7.41-0.09,11.12c0.4,4.31,0.46,8.63-0.04,12.94
		c-0.02,8.99-0.04,17.98-0.06,26.97c0.47,7.66,0.42,15.33-0.01,22.99c0.33,11.32,0.37,22.65-0.11,33.97c0.39,2,0.4,4-0.03,5.99
		c0.47,4.33,0.47,8.66,0,12.99c0.4,1.67,0.39,3.34-0.03,5c0.35,5.94,0.69,11.89,1.04,17.83c1.87,8.6,4.11,17.03,8.77,24.68
		c7.42,12.16,18.51,19.11,31.82,23.07c0.28,0.09,0.57,0.18,0.85,0.28c2.05,0,4.09,0.03,5.99,0.94c0.67,0.06,1.34,0.11,2,0.17
		c1,0.05,2.01,0.09,3.01,0.14c2.67-0.32,5.34-0.55,7.99,0.16c15.64,0.17,31.29,0.33,46.93,0.49c0.7-0.01,1.39-0.01,2.08-0.02
		c2.98-0.55,5.95-0.53,8.93-0.01c1.02-0.48,2.03-0.48,3.05,0c1.32-0.46,2.63-0.47,3.94,0c2.69-0.59,5.37-0.6,8.06-0.01
		c0.97-0.44,1.95-0.44,2.92,0.01c1.37-0.52,2.73-0.52,4.09,0.01c1.15-0.12,2.29-0.34,3.44-0.34c45.15-0.01,90.31-0.01,135.46,0.01
		c0.99,0,1.97,0.21,2.95,0.31c1.01-0.48,2.03-0.48,3.05-0.01c1.81-0.12,3.62-0.34,5.43-0.34c36.02-0.02,72.04-0.02,108.06,0
		c1.81,0,3.62,0.23,5.43,0.36c4.01-0.64,8.02-0.46,12.03,0.02c9.97-0.59,19.94-0.59,29.91-0.01c5.68-0.61,11.37-0.56,17.05,0
		c18.96-0.46,37.93-0.64,56.89,0.01c1.7-0.5,3.4-0.52,5.09,0.01c7.97-0.6,15.94-0.64,23.91-0.05c8.69-0.54,17.37-0.58,26.05,0.04
		c6.97-0.56,13.94-0.5,20.91,0.01c1.35-0.51,2.7-0.51,4.05-0.01c7.33-0.62,14.66-0.58,21.99-0.02c6.34-0.62,12.69-0.58,19.03,0.01
		c1.81-0.12,3.62-0.34,5.43-0.34c22.39-0.03,44.79-0.06,67.19-0.02c15.08,0.03,30.16,0.16,45.24,0.25c6-0.93,12.01-1.87,18.01-2.81
		c3.17-0.71,5.87-2.47,8.72-3.9c0.75-1.08,1.76-1.77,3.04-2.06c2.68-3.09,5.37-6.19,8.05-9.28c0.98-2.21,1.96-4.41,2.94-6.61
		c0.44-1.67,0.87-3.33,1.3-5c0.42-4.33,0.84-8.66,1.26-13c0-8.29,0.01-16.59,0.01-24.88c-0.01-9.36-0.02-18.72-0.02-28.07
		c-0.42-3.99-0.47-7.99-0.05-11.98c-0.27-2.2-0.83-4.43,0.7-6.44c-0.04-1.59,0.09-3.16,0.96-4.56c0.35-5,0.71-9.99,1.07-14.99
		C805.62,878.1,805.64,876.43,806.06,874.77z M798.06,877.63c0,0.32-0.01,0.63-0.02,0.94v0.12c-0.01,0.4-0.02,0.81-0.04,1.21
		c-0.02,0.44-0.04,0.87-0.07,1.3c-0.02,0.34-0.05,0.68-0.08,1.02c-0.05,0.68-0.12,1.35-0.21,2.01c-0.04,0.36-0.09,0.71-0.15,1.07
		c-0.04,0.3-0.09,0.6-0.15,0.89c-0.08,0.46-0.17,0.91-0.26,1.35c-0.1,0.44-0.21,0.87-0.32,1.3c-0.09,0.34-0.19,0.69-0.3,1.04
		c-0.05,0.17-0.11,0.34-0.16,0.51c-0.09,0.27-0.17,0.53-0.27,0.79c-0.09,0.26-0.19,0.53-0.3,0.79c-0.08,0.21-0.17,0.42-0.26,0.63
		c-0.04,0.11-0.09,0.22-0.14,0.33c-0.05,0.12-0.1,0.23-0.16,0.35c-0.02,0.05-0.04,0.1-0.07,0.15c-0.13,0.28-0.26,0.55-0.4,0.83
		c-0.14,0.29-0.3,0.58-0.46,0.86c-0.16,0.28-0.33,0.56-0.5,0.84c-0.17,0.28-0.35,0.56-0.54,0.84c-0.18,0.28-0.37,0.55-0.58,0.83
		c-0.27,0.36-0.55,0.72-0.84,1.08h0.01c2.76,0.13,6.39-0.3,2.59,4.04c-5.02,9.87-13.69,13.84-24.12,13.9
		c-39.29,0.22-78.58,0.19-117.88,0.19c-199.96,0.01-399.93,0-599.9,0c-0.67,0-1.33-0.03-2-0.05c-13.37,1.67-24.52,7.17-29.47,20.38
		c-5.48,14.65-5.03,29.21,4.37,42.58c4.68,1.6,7.48,4.58,7.17,9.82c0.58,0.42,1.17,0.84,1.76,1.26h0.01
		c0.15-0.09,0.31-0.17,0.46-0.24c0.57-0.27,1.14-0.45,1.71-0.55c0.11-0.02,0.22-0.04,0.34-0.05c0.11-0.02,0.22-0.03,0.34-0.04
		c0.11-0.02,0.23-0.03,0.34-0.03c0.18-0.01,0.35-0.02,0.53-0.02c1.87,0,3.74,0.54,5.61,0.93c87.74,2.14,175.49,0.47,263.23,0.99
		c13.48,0.08,26.97,0.02,40.45,0.02c136.45,0,272.89,0.01,409.34,0.02c1.36,0,2.74,0.1,4.1,0.18c0.46,0.03,0.92,0.06,1.37,0.08
		c0.27-0.05,0.55-0.1,0.82-0.15c0.55-0.09,1.1-0.19,1.65-0.29c0.24-0.04,0.47-0.08,0.71-0.13c0.04,0,0.08-0.01,0.12-0.02
		c0.33-0.06,0.66-0.12,0.99-0.19c0.14-0.03,0.29-0.06,0.43-0.09s0.28-0.06,0.42-0.09c0.66-0.14,1.3-0.3,1.94-0.48
		c0.24-0.07,0.48-0.14,0.72-0.22c0.66-0.2,1.3-0.43,1.93-0.71c0.18-0.07,0.35-0.15,0.53-0.23c0.83-0.39,1.63-0.84,2.4-1.38
		c5.93-4.13,9.33-9.62,9.27-17.14c-0.11-15.1-0.04-30.21-0.02-45.31c0-2.52,7.41-9.8,9.84-9.54c2.07,0.23,1.27,2.05,1.27,3.17
		c0.04,8.47-0.05,16.93-0.1,25.39c0.05,7.49-0.17,15,0.23,22.47c0.42,7.93-1.44,14.8-7.33,20.34c0.08,0.91,0.17,1.81,0.25,2.73
		c0.61-0.21,1.22-0.43,1.83-0.65c0.11-1.17,0.49-2.2,1.73-2.52c0.28-0.07,0.93,0.35,1.02,0.66c0.36,1.17-0.31,1.73-1.41,1.9
		c-5.17,11.24-15.38,14.68-26.24,14.91c-27.81,0.59-55.63,0.23-83.45,0.23c-204.55,0.01-409.1,0.02-613.64-0.04
		c-8.79,0-17.72,0.78-26.33-1.55c-14.61-3.96-23.91-13.61-29.2-27.65c-4.18-11.07-4.99-22.29-2.99-33.83
		c-1.69-2.85-2.35-5.92-1.82-9.22c1.15-7.1,0.69-14.27,0.7-21.4c0.1-64.59-0.44-129.18,0.32-193.76
		c1.3-109.67-0.14-219.35,1.01-329.02c1.16-110.18,0.28-220.35,0.9-330.52c0-0.66,0.01-1.32,0.04-1.97
		c0.01-0.58,0.04-1.16,0.07-1.74c0,0,0-0.01,0-0.02c0.04-0.72,0.09-1.44,0.15-2.16c0.11-1.3,0.27-2.59,0.47-3.87
		c0.09-0.64,0.2-1.28,0.32-1.91c0.12-0.63,0.25-1.26,0.4-1.89c0.13-0.59,0.28-1.17,0.44-1.74c0.04-0.2,0.1-0.39,0.16-0.59
		c0.11-0.39,0.22-0.78,0.34-1.16c0.31-1,0.66-1.98,1.04-2.96c0.24-0.6,0.49-1.2,0.75-1.79c0.14-0.3,0.27-0.59,0.41-0.89
		c0.28-0.59,0.58-1.17,0.89-1.75c0.47-0.87,0.98-1.73,1.51-2.57c0.36-0.56,0.73-1.12,1.13-1.67c0.19-0.28,0.39-0.56,0.6-0.83
		c0.13-0.38,0.29-0.74,0.48-1.08c0.11-0.22,0.23-0.44,0.35-0.64c0.12-0.2,0.24-0.39,0.37-0.58c0.21-0.3,0.43-0.59,0.67-0.87
		c0.19-0.23,0.39-0.46,0.6-0.69c0.24-0.26,0.49-0.51,0.75-0.75c0.84-0.81,1.76-1.56,2.66-2.31c0.57-0.69,1.16-1.33,1.76-1.94
		c0.07-0.08,0.14-0.15,0.21-0.21c0.13-0.14,0.26-0.26,0.39-0.38c0.36-0.34,0.72-0.66,1.09-0.96c0.2-0.16,0.39-0.32,0.59-0.48
		c0.44-0.35,0.89-0.68,1.34-1c0.23-0.16,0.46-0.31,0.69-0.47c0.23-0.15,0.46-0.3,0.7-0.44c0.31-0.19,0.63-0.37,0.95-0.55
		c0.93-0.53,1.88-0.99,2.86-1.42c0.47-0.19,0.95-0.39,1.43-0.57c0.02-0.01,0.04-0.01,0.06-0.02c0.38-0.14,0.76-0.28,1.16-0.41
		c0.04-0.02,0.08-0.03,0.12-0.04c0.14-0.05,0.29-0.09,0.43-0.14c0.3-0.1,0.61-0.19,0.93-0.28c0.26-0.08,0.51-0.15,0.77-0.22
		c0.79-0.22,1.59-0.41,2.4-0.58c0.29-0.07,0.58-0.13,0.87-0.18c0.84-0.18,1.69-0.32,2.55-0.45c0.33-0.06,0.67-0.1,1.01-0.15
		c0.34-0.05,0.68-0.1,1.02-0.14c8.04-1.83,8.73-1.14,9.07,9.05h3.48c0.08-1.6,0.34-3.23,0.21-4.82c-0.26-3.19,1.01-4.54,4.2-3.94
		c1.75-1.53,3.85-1.4,5.95-1.28C110.23,7.89,149,8.62,187.76,8.57c91.2-0.13,182.39-0.01,273.59,0.02c1.99,0,3.97,0.21,5.96,0.33
		c0.96,0,1.92-0.01,2.88-0.01c8.36-0.56,16.73-0.59,25.1,0.06c7.29-0.57,14.58-0.51,21.87-0.04c7.4-0.36,14.81-0.52,22.21-0.42
		c2.86,0.04,5.72,0.11,8.58,0.23c0.01,0,0.01,0,0.01,0c1.43,0.06,2.87,0.13,4.3,0.21h0.01c0.14-0.03,0.28-0.05,0.42-0.08
		c0.19-0.04,0.39-0.07,0.58-0.09h0.01c0.22-0.04,0.44-0.06,0.66-0.08c0.21-0.02,0.42-0.04,0.63-0.05c0.42-0.03,0.86-0.04,1.29-0.03
		c0.23,0,0.45,0.01,0.68,0.02s0.46,0.03,0.69,0.06c0.23,0.02,0.47,0.05,0.7,0.09c0.4,0.05,0.81,0.12,1.21,0.21
		c2.04-0.57,4.08-0.56,6.13-0.04c20.61-0.57,41.22-0.51,61.83-0.04c18.03-0.59,36.06-0.58,54.09,0.05h2.88
		c2.04-0.54,4.08-0.53,6.12-0.02h0.01c2.96-0.49,5.9-0.49,8.85,0.02c1.72-0.49,3.43-0.49,5.14,0.01c19.25-0.15,38.5-1.34,57.74,1.16
		c5.43,0.7,10.96,1.17,15.88,3.22c11.01,4.6,15.59,14.03,16.39,25.38c1.76,24.93,0.64,49.91,0.94,74.86
		c0.28,22.98,0,45.96,0.27,68.93c1.06,89.39,0.26,178.79,1.01,268.18c0.83,99.39,0.22,198.77,1.08,298.15
		c0.36,42.12,0.1,84.23,0.56,126.34C798.07,876.02,798.07,876.83,798.06,877.63z M777.64,936.84v33.77
		C774.19,959.37,774.86,948.1,777.64,936.84z M770.49,934.1c0.26,0.42,0.26,0.83,0.15,1.23c-0.04,0.15-0.1,0.31-0.17,0.46
		c-0.07,0.15-0.14,0.31-0.22,0.47c-0.08,0.15-0.15,0.31-0.22,0.46c-0.27,1.41-0.54,2.81-0.81,4.21c-0.02,1.22-0.04,2.44-0.06,3.67
		c-0.34,2.45,0.19,5.02-0.9,7.38c0.04,1.07,0.08,2.14,0.11,3.21c0.77,2.76,0.66,5.58,0.6,8.39c0.01,1.07,0.01,2.14,0.02,3.21
		c1.49,1.97,1.24,4.41,1.79,6.64c0.13,1.04,0.26,2.09,0.39,3.14c2.28,3.86,0.98,6.16-3.13,7.33c-4.7,1.34-9.5,1.57-14.34,1.57
		c-133.54,0.02-267.08,0.02-400.62,0.03c-96.07,0.01-192.15,0.02-288.23,0.03c-9.19,0-17.07-2.59-22.1-10.96
		c-2-2.7-4.04-5.38-4.24-8.93c-0.58-1.71-1.17-3.42-1.76-5.13c-0.81-2.03-0.47-4.04,0.09-6.05c-1.31-2.03-1.33-4.27-1.03-6.56
		c-0.45-1.59,0.52-2.9,0.87-4.33c0.27-1.62,0.54-3.23,0.82-4.85c-0.06-1.64,0.85-2.84,1.81-4.02c0.84-2.24,0.88-5.06,4.1-5.53
		c-0.6-1.18,0-1.89,0.97-2.45c2.29-3.02,5.72-2.38,8.73-2.38c185.66,0.03,371.33,0.13,556.99,0.21
		c51.29,0.03,102.58,0.02,153.86,0.02c1.17,0,2.34-0.02,3.5-0.08c6.29-0.32,6.29-0.32,3.87,5.53c-0.12,0.93-0.23,1.86-0.34,2.79
		c-0.02,0.13-0.02,0.29-0.03,0.44c0.01,0.01,0.01,0.02,0,0.03c0.01,0.06,0.01,0.12-0.01,0.17c0,0.08-0.01,0.15-0.04,0.21
		c-0.02,0.05-0.04,0.09-0.08,0.11c-0.09,0.1-0.25,0.14-0.52,0.08C770.38,933.94,770.44,934.02,770.49,934.1z M37.06,980.61
		c-0.14-0.02-0.27-0.05-0.41-0.08c-0.01,0.01-0.02,0-0.03-0.01c-0.13-0.02-0.25-0.05-0.36-0.1c-0.34-0.12-0.66-0.26-0.95-0.43
		c0,0,0,0.01-0.01,0c-0.3-0.18-0.57-0.38-0.83-0.59c-0.13-0.1-0.26-0.22-0.39-0.34c-0.25-0.24-0.48-0.49-0.71-0.75
		c-0.01-0.01,0-0.01,0-0.01c-0.23-0.26-0.44-0.53-0.65-0.81c-0.42-0.55-0.81-1.12-1.19-1.66c-8.19-11.46-10.01-29.93-0.82-42.34
		c0.74-1,1.8-1.79,2.71-2.67v-0.01c0.01-0.04,0.02-0.07,0.03-0.11c0.08-0.08,0.15-0.16,0.23-0.24c-0.06,0.09-0.13,0.19-0.19,0.29
		c-0.02,0.02-0.05,0.04-0.07,0.07c-0.23,0.92-0.46,1.83-0.67,2.75c-0.22,0.92-0.43,1.84-0.63,2.76c-0.19,0.89-0.37,1.78-0.54,2.68
		c-0.09,0.46-0.17,0.93-0.25,1.39c-0.09,0.52-0.18,1.05-0.26,1.57c-0.15,0.89-0.27,1.78-0.38,2.67c-0.05,0.31-0.08,0.63-0.12,0.94
		c-0.04,0.37-0.08,0.75-0.12,1.14c-0.05,0.47-0.09,0.94-0.12,1.42c-0.01,0.09-0.02,0.19-0.03,0.29c-0.03,0.46-0.06,0.92-0.08,1.37
		c-0.02,0.32-0.04,0.64-0.05,0.97c-0.01,0.31-0.02,0.62-0.03,0.94c-0.01,0.48-0.02,0.96-0.02,1.44c-0.02,8.92,2.21,16.97,6.91,24.46
		c0.12,0.19,0.23,0.39,0.33,0.59c0.09,0.17,0.18,0.35,0.26,0.53c0.29,0.64,0.54,1.3,0.84,1.93h0.03c0.34,0.34,0.68,0.67,1.02,1
		c0.08,0.07,0.16,0.15,0.25,0.22c-0.1-0.06-0.2-0.12-0.29-0.17c-0.34-0.34-0.67-0.68-1-1.02c0-0.01-0.01-0.02-0.01-0.03
		C37.96,980.7,37.49,980.68,37.06,980.61z"/>
	<path class="st1" d="M770.78,973.43c-4.93,1.73-9.99,2.29-15.21,2.29c-155.84-0.03-311.68,0-467.52,0
		c-73.93,0-147.85-0.02-221.78-0.07c-9.7-0.01-18.95-1.5-25.98-9.21c-0.4-0.44-1.18-0.54-1.78-0.8c-0.58-1.71-1.17-3.42-1.76-5.13
		c16.82,9.63,35.31,7.92,53.55,7.92c44.12,0.01,88.24,0.05,132.35-0.01c147.21-0.22,294.41,0.44,441.61-0.35
		c27.97-0.15,55.94,0.26,83.91,0.35c6.98,0.02,13.95-0.17,20.82-1.63C770.48,968.76,770.23,971.2,770.78,973.43z"/>
	<path class="st1" d="M768.97,963.58c-9.33,2.12-18.82,1.73-28.28,1.74c-43.96,0.04-87.93,0.02-131.89,0.03
		c-88.28,0.01-176.55,0.07-264.83,0.01c-63.62-0.04-127.24-0.51-190.86-0.26c-30.48,0.12-60.95-0.34-91.42-0.35
		c-5.95-0.01-11.52-1.44-16.57-4.66c0.49-2.13,0-4.47,1.36-6.42c7.75,3.02,15.87,2.92,23.99,2.92
		c86.11-0.01,172.23-0.02,258.34-0.01c142.41,0.01,284.82,0.03,427.23,0.04c4.16,0,8.35,0.14,12.33-1.43
		C769.14,957.95,769.03,960.77,768.97,963.58z"/>
	<path class="st1" d="M770.03,936.72c-0.27,1.41-0.54,2.81-0.81,4.21c-5.25,1.11-10.57,1.04-15.88,1.04
		c-227.69-0.03-455.37-0.07-683.06-0.14c-4.62-0.01-9.34,0.74-13.84-1.07c7.21-2.25,15.03-2.46,22.15-2.59
		c69.06-1.29,138.16,0.73,207.23-1.45c6.5-0.21,12.86,1.2,19.37,1.12c8.64-0.1,17.24-0.79,25.86-1.03
		c10.29-0.29,20.57,0.13,30.87,0.79c13.71,0.88,27.44-0.42,41.22-0.18c44.38,0.81,88.78,0.52,133.17,0.25
		C614.21,937.21,692.12,939.02,770.03,936.72z"/>
	<path class="st1" d="M769.16,944.6c-0.34,2.45,0.19,5.02-0.9,7.38c-4.57,0.78-9.13,1.55-13.82,1.55
		c-81.29-0.01-162.57,0.07-243.86,0.07c-148.58,0-297.17-0.03-445.75-0.08c-6.03-0.01-11.94-0.91-17.4-3.74v-6.84
		c8.23,2.61,16.72,2.52,25.23,2.52c173.89-0.04,347.78,0.07,521.67-0.14C652.61,945.25,710.89,946.3,769.16,944.6z"/>
	<path class="st2" d="M559.14,9c2.04-0.58,4.08-0.56,6.12-0.04c0.37,1.49,1.54,1.55,2.74,1.5c17.92-0.71,35.78,1.61,53.7,1
		c2.16-0.07,4.41,0.03,5.39-2.54c18.03-0.59,36.06-0.58,54.09,0.05c0.96,2.16,1.92,2.15,2.88,0c2.04-0.54,4.08-0.53,6.12-0.02
		c2.95,2.4,5.9,2.36,8.86,0.02c1.71-0.5,3.43-0.5,5.14,0.01c1.15,2.62,3.49,1.44,5.26,1.43c16.27-0.03,32.52,0.25,48.72,1.98
		c22.44,2.41,32.74,15,32.81,36.69c0.21,66.86-0.17,133.73,0.33,200.58c0.09,11.84,0.56,23.74,0.65,35.6
		c0.7,98.12-0.28,196.25,0.88,294.38c1.04,88.25,0.23,176.51,0.23,264.77c0,10.99,0.07,21.98-0.02,32.97
		c-0.12,13.22-7.73,23.08-19.67,24.09c-6.58,0.56-13.2,1.26-19.85,1.26c-221.21-0.01-442.41,0-663.62-0.03
		c-4.47,0-8.99-0.61-13.37-0.64c-5.92-0.03-6.19-2.61-6.16-7.2c0.67-88.72-1.05-177.44,0.98-266.15c0.27-11.6-0.96-23.23-0.82-34.84
		c0.27-22.94-0.18-45.88,0.38-68.83c0.27-11.09,0.18-22.4-0.34-33.62c-1.03-22.05,0.76-44.09,0.95-66.14
		c0.03-3.54-1.6-6.91-0.96-10.36c2.41-13,0.54-26.1,0.49-39.11c-0.03-7.98-0.26-16.11-0.42-24.13c-0.24-12.6-0.82-25.23,0.66-37.86
		c0.82-7.04-0.31-14.23-0.67-21.35c-0.6-11.79-0.26-23.64-0.12-35.46c0.07-5.28,1.88-10.57,0.68-15.84
		c-1.29-5.63-1.54-11.5-0.41-16.83c1.61-7.66,0.37-15.23,0.23-22.65c-0.19-9.51,0.1-19.08-0.29-28.62
		c-0.61-14.82,0.64-29.71,0.69-44.57c0.14-39.72,0.06-79.45,0.07-119.17C110.23,7.88,149,8.62,187.76,8.56
		c91.2-0.13,182.39-0.01,273.59,0.02c1.99,0,3.97,0.21,5.96,0.32c0.96,2.18,1.92,2.18,2.88,0c8.37-0.57,16.74-0.59,25.1,0.06
		c0.29,1.79,1.48,2.48,3.15,2.48c4.95,0.01,9.91,0.07,14.85-0.06c1.63-0.04,3.3-0.52,3.87-2.47c11.7-0.57,23.4-0.63,35.1,0.02
		C554.54,10.79,556.8,13.52,559.14,9z"/>
	<path class="st3" d="M25.23,21.35c6.06-7.31,14.35-9.9,23.33-11.03c-0.33,19.45,0.77,38.89,0.8,58.33
		c0.03,22.1,0.06,44.19-0.61,66.3c-0.72,24.06,0.25,48.2,0.42,72.28c0.69,94.21,0.26,188.43,0.35,282.65c0,3.37-1.13,6.54-1.02,9.86
		c0.29,8.7,0.89,17.4,0.91,26.1c0.08,52.71,0.03,105.43,0.04,158.14c0,17.22-0.56,34.44-0.86,51.66
		c-0.99,57.21,1.26,114.45-1.24,171.66c-8.19-0.48-15.59,2.25-22.87,5.53c0.55-76.45-1.21-152.92,0.97-229.36
		c0.36-12.55-1.11-25.09-0.75-37.59c0.31-10.69,0.39-21.44,0.45-32.09c0.97-158.93-0.83-317.87,1.25-476.79
		c0.09-6.57-0.28-13.13-0.17-19.73C26.76,87,26.49,56.7,26.46,26.4C26.46,24.66,27.12,22.67,25.23,21.35z"/>
	<path class="st4" d="M71.48,9.33c-0.01,39.72,0.07,79.45-0.07,119.17c-0.05,14.86-1.3,29.75-0.69,44.57
		c0.39,9.54,0.11,19.11,0.29,28.62c0.15,7.43,1.38,14.99-0.23,22.65c-1.12,5.33-0.87,11.2,0.41,16.83
		c1.2,5.27-0.61,10.55-0.68,15.84c-0.15,11.82-0.48,23.67,0.12,35.46c0.36,7.12,1.5,14.31,0.67,21.35
		c-1.48,12.63-0.9,25.26-0.66,37.86c0.15,8.03,0.38,16.15,0.42,24.13c0.05,13,1.92,26.1-0.49,39.11c-0.64,3.44,0.99,6.81,0.96,10.36
		c-0.19,22.05-1.98,44.1-0.95,66.14c0.52,11.22,0.61,22.53,0.34,33.62c-0.55,22.95-0.11,45.89-0.38,68.83
		c-0.14,11.61,1.09,23.24,0.82,34.84c-2.03,88.71-0.31,177.44-0.98,266.15c-0.03,4.6,0.23,7.18,6.16,7.2
		c4.38,0.02,8.9,0.63,13.37,0.64c221.21,0.02,442.41,0.02,663.62,0.03c6.64,0,13.27-0.7,19.85-1.26
		c11.93-1.01,19.55-10.87,19.67-24.09c0.1-10.99,0.02-21.98,0.02-32.97c0-88.26,0.81-176.53-0.23-264.77
		c-1.16-98.13-0.18-196.26-0.88-294.38c-0.08-11.86-0.56-23.76-0.65-35.6c-0.5-66.86-0.12-133.72-0.33-200.58
		c-0.07-21.69-10.37-34.29-32.81-36.69c-16.21-1.74-32.45-2.01-48.72-1.98c-1.77,0-4.11,1.19-5.26-1.43
		c19.25-0.15,38.5-1.34,57.74,1.16c5.43,0.7,10.96,1.18,15.88,3.23c11.02,4.59,15.59,14.02,16.39,25.37
		c1.76,24.93,0.64,49.91,0.94,74.87c0.27,22.97,0,45.95,0.27,68.92c1.06,89.39,0.26,178.79,1,268.18
		c0.83,99.38,0.22,198.77,1.08,298.15c0.36,42.11,0.1,84.23,0.56,126.34c0.09,8.5-0.63,16.62-6.27,23.51
		c-0.61,0.55-1.21,1.1-1.82,1.65c-4.44,2.55-9.2,4.39-13.97,6.23c-2.99,0.12-5.99,0.35-8.98,0.35c-220.91-0.01-441.81-0.06-662.72,0
		c-13.28,0-26.61-1.1-39.85,0.94c0.01-215.75,0.04-431.49-0.04-647.24c0-9.15,1.09-18.24,0.95-27.37
		c-0.24-15.78,0.57-31.56-0.68-47.37c-0.74-9.3,0.58-18.74,0.71-28.12c0.19-13.41-0.23-26.82-0.08-40.24
		c0.39-35.63,0.19-71.27,0.23-106.91C67.27,9.08,69.38,9.21,71.48,9.33z"/>
	<path class="st5" d="M7.7,932.49c1.15-7.1,0.69-14.27,0.7-21.4c0.1-64.59-0.44-129.18,0.33-193.76
		c1.3-109.68-0.14-219.36,1.01-329.02c1.16-110.18,0.28-220.35,0.9-330.52c0.06-10.55,2.15-20.76,8.73-29.5
		c1.06,2.86,1.17,5.82,1.14,8.83c-0.65,91.34,0.42,182.67-0.8,274.02c-1.49,111.13,0.99,222.29-1.24,333.43
		c-0.18,8.74,0.18,17.48,0.15,26.22c-0.24,70.24-0.14,140.48-0.14,210.72c0,9.99-0.02,19.97,0.02,29.96
		c0.01,1.71-0.65,3.87,2.07,4.34c-2.75,3.43-5.46,6.89-8.25,10.28C10.64,928.12,10.95,931.58,7.7,932.49z"/>
	<path class="st5" d="M47.36,907.31c2.5-57.21,0.25-114.45,1.24-171.66c0.3-17.22,0.86-34.43,0.86-51.66
		c0-52.71,0.05-105.43-0.04-158.14c-0.01-8.7-0.62-17.4-0.91-26.1c-0.11-3.32,1.02-6.49,1.02-9.86
		c-0.09-94.22,0.33-188.44-0.35-282.65c-0.18-24.09-1.14-48.23-0.42-72.28c0.66-22.11,0.64-44.21,0.61-66.3
		c-0.03-19.44-1.14-38.88-0.8-58.33c8.04-1.83,8.73-1.14,9.07,9.05c-0.06,1.5-0.16,2.99-0.16,4.49
		c-0.03,220.71-0.03,441.43-0.13,662.14c-0.01,14.12-0.43,28.26-0.57,42.36c-0.6,57.7-0.27,115.42-0.22,173.13
		c0.01,6.4,0.18,6.41-6.22,6.16C49.34,907.62,48.35,907.43,47.36,907.31z"/>
	<path class="st6" d="M47.36,907.31c0.99,0.12,1.97,0.31,2.96,0.35c6.4,0.25,6.22,0.24,6.22-6.16
		c-0.05-57.71-0.38-115.42,0.22-173.13c0.15-14.11,0.57-28.25,0.57-42.36c0.1-220.71,0.1-441.43,0.13-662.14
		c0-1.5,0.1-2.99,0.16-4.49c1.16,0,2.32,0,3.49,0c0.1,1.99,0.3,3.98,0.28,5.97c-0.37,36.92-0.52,73.86-0.59,110.78
		c-0.47,254.01-0.3,508.01-0.34,762.02c0,2.5,0,4.99-0.01,7.49c-0.02,3.18,1.31,3.91,4,2.24c13.24-2.04,26.57-0.93,39.85-0.94
		c220.91-0.06,441.81-0.01,662.72,0c2.99,0,5.99-0.23,8.98-0.34c0.05,1.01,0.09,2.01,0.14,3.02c-2.93,1.75-6.18,1.09-9.29,1.09
		c-159.33,0.05-318.67-0.11-478,0.15c-79.8,0.13-159.6-1.34-239.39,1.07c-1.18-0.64-2.39-1.16-3.79-1.06
		c-13.24,0.97-23.94,6.2-30.79,18.08c-2.33,4.05-3.51,8.54-5.35,12.77c-1.69-2.86-2.35-5.92-1.82-9.22c3.25-0.9,2.94-4.37,4.62-6.41
		c2.79-3.39,5.51-6.85,8.25-10.28c1.26-1.04,3.12-1.29,3.93-2.95C31.77,909.57,39.18,906.83,47.36,907.31z"/>
	<path class="st7" d="M9.53,941.71c1.84-4.23,3.02-8.73,5.35-12.77c6.85-11.89,17.55-17.12,30.79-18.08c1.4-0.1,2.6,0.42,3.79,1.05
		c0.34,1.62,0.69,3.25,1.03,4.88c-13.37,1.68-24.52,7.18-29.47,20.38c-5.48,14.65-5.03,29.2,4.36,42.58
		c1.6,3.85,4.06,7.07,7.17,9.82c0.59,0.42,1.18,0.84,1.76,1.25c3.23,3.99,7.93,5.34,12.53,6.71c7.49,2.23,15.22,1.12,22.83,1.12
		c182.69,0.07,365.38,0.05,548.07,0.03c49.46-0.01,98.92,0.05,148.38-0.16c8.15-0.04,16.24-1.46,22.09-8.26
		c0.61-0.22,1.22-0.44,1.83-0.67c0.45,0.01,0.9,0.03,1.35,0.04c-5.18,11.24-15.38,14.69-26.25,14.91
		c-27.8,0.59-55.63,0.23-83.45,0.23c-204.55,0.01-409.1,0.02-613.64-0.04c-8.79,0-17.71,0.78-26.33-1.55
		c-14.61-3.96-23.9-13.61-29.2-27.65C8.34,964.47,7.53,953.25,9.53,941.71z"/>
	<path class="st7" d="M24.5,912.85c-0.8,1.65-2.66,1.91-3.93,2.95c-2.72-0.47-2.07-2.63-2.07-4.34c-0.04-9.99-0.02-19.97-0.02-29.96
		c0-70.24-0.09-140.48,0.14-210.72c0.03-8.74-0.33-17.48-0.15-26.22c2.23-111.14-0.25-222.3,1.24-333.43
		c1.22-91.34,0.15-182.68,0.8-274.02c0.02-3.01-0.08-5.97-1.14-8.83c1.1-3.04,3.51-4.96,5.87-6.93c1.89,1.32,1.23,3.31,1.23,5.05
		c0.03,30.3,0.3,60.6-0.2,90.89c-0.11,6.6,0.25,13.16,0.17,19.73c-2.07,158.93-0.28,317.87-1.25,476.79
		c-0.07,10.64-0.14,21.4-0.45,32.09c-0.37,12.5,1.1,25.04,0.75,37.59C23.28,759.93,25.05,836.39,24.5,912.85z"/>
	<path class="st8" d="M771.16,976.57c2.28,3.86,0.98,6.16-3.13,7.33c-4.69,1.34-9.5,1.57-14.33,1.57
		c-133.54,0.01-267.08,0.02-400.62,0.03c-96.08,0.01-192.15,0.02-288.23,0.03c-9.19,0-17.07-2.6-22.1-10.97
		c11.17,3.72,22.65,4.36,34.37,4.35c159.68-0.15,319.36-0.13,479.03-0.14c66.6-0.01,133.2,0,199.81,0.01
		C761.14,978.78,766.29,978.62,771.16,976.57z"/>
	<path class="st9" d="M50.48,916.78c-0.34-1.63-0.69-3.25-1.03-4.88c79.79-2.41,159.59-0.94,239.39-1.07
		c159.33-0.26,318.67-0.1,478-0.15c3.11,0,6.36,0.66,9.29-1.09c5.61-0.95,11.09-2.19,15.13-6.69c1.05,0.09,2.01-1.4,3.12-0.16
		c-5.02,9.86-13.69,13.83-24.12,13.89c-39.29,0.22-78.59,0.19-117.88,0.19c-199.97,0.01-399.94,0-599.9,0
		C51.81,916.83,51.14,916.8,50.48,916.78z"/>
	<path class="st1" d="M44.38,926.72c2.29-3.03,5.71-2.38,8.72-2.38c185.67,0.03,371.33,0.13,557,0.21
		c51.29,0.02,102.58,0.01,153.86,0.02c1.16,0,2.33-0.02,3.49-0.08c6.29-0.32,6.29-0.33,3.87,5.53c-4.78,0.62-9.58,0.68-14.4,0.68
		c-229.54-0.02-459.08-0.03-688.62,0.08C60.01,930.78,52.1,929.56,44.38,926.72z"/>
	<path class="st9" d="M64.45,907.86c-2.69,1.68-4.02,0.95-4-2.24c0.02-2.5,0.01-4.99,0.01-7.49c0.04-254.01-0.13-508.01,0.34-762.02
		c0.07-36.92,0.22-73.85,0.59-110.78c0.02-1.99-0.18-3.98-0.28-5.97c0.08-1.61,0.34-3.23,0.21-4.82c-0.26-3.19,1-4.54,4.2-3.94
		c-0.04,35.64,0.16,71.28-0.23,106.91c-0.15,13.42,0.27,26.83,0.08,40.24c-0.13,9.38-1.45,18.83-0.71,28.12
		c1.25,15.81,0.44,31.58,0.68,47.37c0.14,9.12-0.95,18.21-0.95,27.37C64.49,476.37,64.46,692.12,64.45,907.86z"/>
	<path class="st10" d="M769.22,940.93c-0.02,1.22-0.04,2.44-0.06,3.67c-58.27,1.7-116.55,0.65-174.83,0.72
		c-173.89,0.21-347.78,0.1-521.67,0.14c-8.51,0-17,0.09-25.23-2.52c-3.12-1.86-5.94-4.42-9.93-4.22c-0.06-1.64,0.85-2.84,1.81-4.02
		c3.1,1.9,6.2,3.81,9.97,4.09c2.15,1.51,4.64,1.78,7.16,1.97c4.5,1.81,9.22,1.06,13.84,1.07c227.69,0.07,455.37,0.11,683.06,0.14
		C758.65,941.97,763.97,942.04,769.22,940.93z"/>
	<path class="st5" d="M43.65,990.82c87.74,2.15,175.49,0.47,263.23,1c13.48,0.08,26.97,0.02,40.45,0.02
		c136.45,0,272.89,0,409.34,0.02c1.82,0,3.65,0.17,5.47,0.25c-0.02,0.83-0.04,1.67-0.06,2.5c-1.67,1.68-3.79,0.94-5.7,0.94
		c-45.13,0.04-90.26,0.03-135.39,0.04c-182.35,0.01-364.7,0.03-547.05-0.01c-8.05,0-16.11-0.44-24.14-1.08
		C47.5,994.31,44.14,994.6,43.65,990.82z"/>
	<path class="st8" d="M770.64,935.33c-0.04,0.15-0.1,0.31-0.17,0.46c-0.07,0.15-0.14,0.31-0.22,0.47c-0.08,0.15-0.15,0.31-0.22,0.46
		c-77.9,2.3-155.82,0.49-233.72,0.95c-44.39,0.27-88.79,0.56-133.17-0.25c-13.78-0.24-27.51,1.06-41.22,0.18
		c-10.3-0.66-20.58-1.08-30.87-0.79c-8.62,0.24-17.22,0.93-25.86,1.03c-6.51,0.08-12.87-1.33-19.37-1.12
		c-69.07,2.18-138.17,0.16-207.23,1.45c-7.12,0.13-14.94,0.34-22.15,2.59c-2.52-0.19-5.01-0.46-7.16-1.97
		c3.55-3.04,7.85-1.78,11.88-2.04c1.88-0.11,4.23,0.64,4.46-2.46c4.32-0.11,8.64-0.33,12.96-0.33
		c177.79-0.03,355.59-0.03,533.38-0.06c52.73-0.01,105.46-0.08,158.2-0.12h0.09c0.02,0.02,0.04,0.05,0.06,0.07
		c0.07,0.09,0.13,0.17,0.18,0.25C770.75,934.52,770.75,934.93,770.64,935.33z"/>
	<path class="st6" d="M43.65,990.82c0.5,3.78,3.86,3.48,6.15,3.67c8.02,0.64,16.09,1.08,24.14,1.08
		c182.35,0.05,364.7,0.02,547.05,0.01c45.13,0,90.26,0.01,135.39-0.04c1.91,0,4.03,0.74,5.7-0.94c1.01,0,2.02-0.01,3.02-0.01
		c1.02,1.24,2,1.23,2.93-0.09c4.58-0.42,9.17-0.79,13.08-3.64c2.78-0.1,4.52-2.33,6.85-3.35c0.08,0.91,0.16,1.82,0.25,2.74
		c-5.85,6.8-13.94,8.23-22.09,8.26c-49.46,0.22-98.92,0.16-148.38,0.16c-182.69,0.02-365.38,0.05-548.07-0.03
		c-7.61,0-15.34,1.11-22.83-1.12c-4.6-1.37-9.3-2.72-12.53-6.71C37.42,989.1,40.53,990.17,43.65,990.82z"/>
	<path class="st10" d="M768.99,966.79c-6.87,1.46-13.84,1.65-20.82,1.63c-27.97-0.09-55.94-0.5-83.91-0.35
		c-147.2,0.79-294.4,0.13-441.61,0.35c-44.11,0.06-88.23,0.02-132.35,0.01c-18.24,0-36.73,1.71-53.55-7.92
		c-0.81-2.03-0.47-4.04,0.09-6.05c3.42,0.91,4.59,5.12,8.28,5.63c5.05,3.22,10.62,4.65,16.57,4.66c30.47,0.01,60.94,0.47,91.42,0.35
		c63.62-0.25,127.24,0.22,190.86,0.26c88.28,0.06,176.55,0,264.83-0.01c43.96-0.01,87.93,0.01,131.89-0.03
		c9.46-0.01,18.95,0.38,28.28-1.74C768.98,964.65,768.98,965.72,768.99,966.79z"/>
	<path class="st10" d="M768.37,955.19c-3.98,1.57-8.17,1.43-12.33,1.43c-142.41-0.01-284.82-0.03-427.23-0.04
		c-86.11-0.01-172.23,0-258.34,0.01c-8.12,0-16.24,0.1-23.99-2.92c-3.56-1.92-7.11-3.84-10.67-5.77c-0.45-1.59,0.52-2.9,0.87-4.33
		c3.76,1.77,6.41,5.46,10.75,6.21c5.46,2.83,11.37,3.73,17.4,3.74c148.58,0.05,297.17,0.08,445.75,0.08
		c81.29,0,162.57-0.08,243.86-0.07c4.69,0,9.25-0.77,13.82-1.55C768.3,953.05,768.34,954.12,768.37,955.19z"/>
	<path class="st10" d="M771.17,976.57c-4.88,2.05-10.03,2.22-15.21,2.22c-66.6-0.01-133.2-0.02-199.8-0.02
		c-159.68,0.02-319.36,0-479.04,0.15c-11.71,0.01-23.2-0.64-34.37-4.35c-2-2.7-4.04-5.38-4.24-8.93c0.6,0.26,1.38,0.36,1.78,0.8
		c7.03,7.71,16.28,9.2,25.98,9.21c73.93,0.05,147.85,0.07,221.78,0.07c155.84,0,311.68-0.03,467.52,0c5.22,0,10.28-0.56,15.21-2.29
		C770.91,974.47,771.04,975.52,771.17,976.57z"/>
	<path class="st10" d="M770.24,933.77c-52.76,0.04-105.52,0.12-158.29,0.13c-177.79,0.03-355.59,0.03-533.38,0.05
		c-4.32,0-8.64,0.22-12.96,0.33c-1.79-0.16-3.59-0.46-5.38-0.45c-6.07,0.04-11.66-1.56-16.84-4.67c-0.6-1.18,0-1.89,0.97-2.44
		c7.72,2.84,15.63,4.06,23.93,4.06c229.54-0.11,459.08-0.1,688.62-0.08c4.82,0,9.62-0.06,14.4-0.68c-0.11,0.93-0.23,1.86-0.34,2.79
		c-0.29,0.33-0.57,0.66-0.86,0.99L770.24,933.77z"/>
	<path class="st9" d="M765.1,994.6c-1.01,0.01-2.02,0.01-3.02,0.01c0.02-0.84,0.04-1.67,0.06-2.5c4.39-0.78,8.89-1.34,12.66-3.97
		c5.93-4.14,9.33-9.63,9.27-17.14c-0.12-15.1-0.04-30.21-0.03-45.31c0-2.52,7.42-9.8,9.84-9.53c2.07,0.23,1.27,2.05,1.28,3.17
		c0.03,8.46-0.05,16.93-0.1,25.39c-3.45-0.23-3.05,2.24-2.98,4.36c0.36,10.59-0.06,21.05-3.86,31.17c-1.08,2.89-1.73,5.64-5.12,6.6
		c-2.04,0.58-2.07,2.32-2,4.03c-3.9,2.85-8.5,3.22-13.08,3.64C767.02,993.4,766.04,993.42,765.1,994.6z"/>
	<path class="st10" d="M38.49,980.66c-3.65,0.33-5.35-2.57-6.96-4.83c-8.19-11.46-10.01-29.93-0.83-42.34
		c0.77-1.04,1.85-1.84,2.79-2.75l-0.04-0.04c-1.88,7.36-3.31,14.73-3.33,22.44c-0.02,8.93,2.21,16.98,6.9,24.46
		c0.6,0.95,0.96,2.05,1.44,3.09L38.49,980.66z"/>
	<path class="st3" d="M781.11,990.87c-0.07-1.71-0.04-3.45,2-4.03c3.39-0.96,4.03-3.71,5.12-6.6c3.8-10.12,4.22-20.58,3.86-31.17
		c-0.07-2.12-0.47-4.59,2.98-4.36c0.05,7.49-0.18,15,0.22,22.47c0.42,7.93-1.43,14.8-7.32,20.34
		C785.63,988.53,783.89,990.77,781.11,990.87z"/>
	<path class="st4" d="M627.1,8.92c-0.98,2.57-3.23,2.47-5.39,2.54c-17.92,0.6-35.78-1.71-53.7-1c-1.2,0.05-2.38-0.01-2.74-1.5
		C585.87,8.39,606.48,8.44,627.1,8.92z"/>
	<path class="st1" d="M43.4,929.16c5.18,3.12,10.77,4.72,16.84,4.67c1.79-0.01,3.58,0.29,5.38,0.45c-0.23,3.09-2.58,2.34-4.46,2.46
		c-4.03,0.25-8.33-1-11.88,2.04c-3.77-0.28-6.87-2.2-9.97-4.1C40.14,932.46,40.18,929.63,43.4,929.16z"/>
	<path class="st1" d="M777.63,970.6c-3.45-11.24-2.78-22.51,0-33.77C777.63,948.09,777.63,959.35,777.63,970.6z"/>
	<path class="st1" d="M47.43,942.94v6.84c-4.34-0.75-6.99-4.44-10.75-6.21c0.27-1.62,0.54-3.23,0.82-4.85
		C41.49,938.52,44.31,941.08,47.43,942.94z"/>
	<path class="st1" d="M46.48,953.67c-1.36,1.95-0.87,4.29-1.36,6.42c-3.69-0.51-4.86-4.72-8.28-5.63c-1.31-2.03-1.33-4.27-1.03-6.56
		C39.37,949.83,42.92,951.75,46.48,953.67z"/>
	<path class="st4" d="M517.16,8.92c-0.56,1.95-2.24,2.43-3.87,2.47c-4.95,0.13-9.9,0.07-14.85,0.06c-1.68,0-2.86-0.7-3.15-2.48
		C502.57,8.4,509.86,8.46,517.16,8.92z"/>
	<path class="st6" d="M32.54,989.57c-3.11-2.75-5.57-5.97-7.17-9.82C30.06,981.35,32.85,984.32,32.54,989.57z"/>
	<path class="st6" d="M794.38,902.75c-1.11-1.24-2.07,0.25-3.12,0.16c-0.43-0.85-0.86-1.7-1.29-2.55c0.61-0.55,1.21-1.1,1.82-1.65
		C794.54,898.83,798.17,898.41,794.38,902.75z"/>
	<path class="st4" d="M699.05,8.97c-2.96,2.33-5.91,2.38-8.86-0.02C693.14,8.46,696.1,8.45,699.05,8.97z"/>
	<path class="st4" d="M559.14,9c-2.33,4.52-4.6,1.8-6.88-0.06C554.56,8.5,556.85,8.49,559.14,9z"/>
	<path class="st6" d="M791.38,989.63c-0.45-0.01-0.9-0.03-1.35-0.04c0.11-1.16,0.5-2.19,1.74-2.52c0.28-0.07,0.93,0.35,1.02,0.66
		C793.15,988.91,792.47,989.46,791.38,989.63z"/>
	<path class="st4" d="M470.18,8.91c-0.96,2.18-1.92,2.18-2.88,0C468.26,8.91,469.22,8.91,470.18,8.91z"/>
	<path class="st4" d="M684.07,8.97c-0.96,2.15-1.92,2.16-2.88,0C682.15,8.97,683.11,8.97,684.07,8.97z"/>
	<path class="st10" d="M39.46,981.7c0.1,0.06,0.19,0.12,0.29,0.18c-0.08-0.07-0.17-0.15-0.25-0.22
		C39.5,981.66,39.46,981.7,39.46,981.7z"/>
	<path class="st10" d="M38.46,980.69c0.33,0.34,0.67,0.68,1,1.01c0,0,0.04-0.04,0.04-0.04c-0.34-0.33-0.68-0.67-1.01-1
		C38.49,980.66,38.46,980.69,38.46,980.69z"/>
	<path class="st1" d="M770.12,933.8c0.29-0.33,0.57-0.66,0.86-0.99C770.91,933.33,771.17,934.12,770.12,933.8z"/>
	<path class="st10" d="M33.49,930.74c0.06-0.1,0.12-0.19,0.18-0.29c-0.07,0.08-0.15,0.17-0.22,0.25
		C33.45,930.7,33.49,930.74,33.49,930.74z"/>
	<path class="st0" d="M789.96,900.36c0.43,0.85,0.86,1.7,1.29,2.55c-4.04,4.5-9.51,5.75-15.13,6.69c-0.04-1.01-0.09-2.01-0.13-3.02
		C780.76,904.75,785.52,902.91,789.96,900.36z"/>
	<path class="st5" d="M765.1,994.6c0.94-1.18,1.92-1.19,2.93-0.09C767.09,995.83,766.12,995.83,765.1,994.6z"/>
</g>
</svg>
