<?xml version="1.0" encoding="utf-8"?>
<!-- Generator: Adobe Illustrator 25.4.1, SVG Export Plug-In . SVG Version: 6.00 Build 0)  -->
<svg version="1.1" id="Capa_1" xmlns="http://www.w3.org/2000/svg" xmlns:xlink="http://www.w3.org/1999/xlink" x="0px" y="0px"
	 viewBox="0 0 807.8 738.6" style="enable-background:new 0 0 807.8 738.6;" xml:space="preserve">
<style type="text/css">
	.st0{fill:#100E0D;}
	.st1{fill:#FFFFFF;}
	.st2{fill:#DA8321;}
	.st3{fill:#DA8421;}
	.st4{fill:#DA8422;}
	.st5{fill:#D88221;}
	.st6{fill:#AB5F16;}
	.st7{fill:#9F5C1D;}
	.st8{fill:#A05916;}
	.st9{fill:#0A0904;}
	.st10{fill:#BFCE46;}
</style>
<g>
	<path class="st0" d="M770.2,217.1c-1.4-1.7-2-3.1-1.8-5.3c0.6-6.8,0.9-13.6,1.2-19.5c-0.6-20.2-1.7-39.2-9.5-57.2
		c-5-11.6-14.9-15.9-26.9-12.1c-3.3,1.1-6.5,2.6-9.5,4.4c-17.9,10.6-32,25.4-44.4,41.9c-2,2.6-3.6,3.4-6.9,3
		c-25.2-3.1-50.2-2-74.8,4.8c-3,0.8-4.4,0.3-6.2-2c-9.7-12.3-20.4-23.8-32.7-33.6c-7.3-5.8-14.8-11.5-24.2-13.5
		c-9.3-2-17.1,0.6-23.1,8.2c-5.8,7.4-8.6,16.1-10.8,25c-6.2,24.6-7.7,49.6-5.1,74.9c0.3,2.5,0.9,5.1-0.5,7.8
		c-12.7,24-18.9,49.7-18.4,76.9c0.1,3.4-1,4.6-4.2,5.1c-11.3,1.9-22.6,1.1-33.8-0.7c-22.4-3.6-44.2-10-66.4-14.4
		c-41-8.2-82.1-11.1-123.7-4.5c-34.2,5.5-66.3,16.2-93.6,38.3c-2.5,2.1-4.3,0.8-6.3-0.1c-20.9-10.1-36.8-25.6-48.8-45.2
		c-20-32.7-22.6-68.3-16.2-105.1c3.9-22.6,10.4-44.7,12.9-67.6c3.8-34.6-1.4-67.1-21.6-96.2C66.3,17.6,55.4,6.9,40.2,1.8
		C19.2-5.2-0.4,9,0,31.1c0.2,8.4,2.7,16.4,6.7,23.8c15.9,29.1,18.7,59.8,11.7,91.9c-4.3,19.8-9.2,39.5-11.3,59.7
		c-4.6,43.6,3.2,84.8,24.3,123.3c17.5,31.8,41.9,57,73.5,75.1c7,4,7.1,3.8,4.8,11.3c-0.9,3-1.7,6.1-2.4,9.2
		c-6.4,28.4-6.3,57.1-3.7,86c0.2,1.9,0.8,3.9-0.4,5.8c-9.4,14.8-20,29-36.8,35.4c-16.2,6.2-25.9,17.3-31.3,33.1
		c-9.1,26.2-17.2,52.8-21.5,80.2c-1.7,10.8-1.5,21.8,5.7,31c8.9,11.3,21.2,14.1,34.5,11.4c13.9-2.7,23.6-13.2,25.3-27.4
		c1.3-10.2,5-19.1,10.4-27.7c2.8-4.5,6.5-7.3,11.8-8.4c10.9-2.1,22-3.7,32.5-7.5c3-1.1,3.7-0.5,3.5,2.6c-0.6,7.9,1.8,15.1,6.1,21.7
		c13.5,20.8,28.7,40.5,45.3,59c3.6,4.1,7.3,8.5,12.4,10.8c18.9,8.3,38.5,9.4,58.1,3.5c14.9-4.5,20.6-17.3,15.2-31.2
		c-3.1-8-9.3-14.1-17.4-16.1c-7.9-2-10.7-6.8-12.3-13.6c-0.5-2.2-1.4-4.4-2.2-6.6c-2.7-7.7-1-14.2,4.9-20
		c7.6-7.5,15.4-14.8,21.2-23.9c1.6-2.5,3.3-1.4,5.1-0.7c27.9,10.1,56.8,15.2,86.4,17.3c29.1,2,57.9,0.2,86.6-4.8
		c6.7-1.2,6.7-1,4.8,5.7c-5,17.8-10,35.6-11.9,54c-1.8,17.4,4.5,30.6,17.7,36.4c16.3,7.2,33.5,7.8,50.4,3.3
		c19.8-5.4,24.3-26.7,9.1-40.4c-2.4-2.2-2.1-3.3-0.5-5.5c9.2-12.6,18.4-25.3,27.5-38c1.8-2.5,3-2.7,5.4-0.7
		c9.1,7.8,18.3,15.5,27.5,23.2c18.3,15.5,35.5,32.3,54.6,46.8c20.9,15.7,50.3,14,69.4-3.7c10.1-9.3,14.7-20.5,9.6-34.2
		c-4.3-11.6-13.7-17.1-25.2-19.7c-1.9-0.4-3.7-0.6-4.9-2.7c-14.9-27.5-30.4-54.7-46.5-81.5c-1.6-2.6-0.9-4,0.8-6
		c11.1-12,21.4-24.6,30.5-38.3c16.9-25.5,30.9-52.5,38.1-82.5c0.6-2.5,1.9-3.5,4.1-4.2c14.9-5.3,29.1-12.2,42.2-21.3
		c23.5-16.3,42.1-36.6,50.8-64.2C817.1,308.2,805.4,260.1,770.2,217.1z M95.1,389.1L95.1,389.1L95.1,389.1c-0.3-0.2-0.7-0.5-1-0.7
		c-0.7-0.5-1.4-1-2.1-1.4c-2.1-1.5-4.1-2.9-6.1-4.5c-0.7-0.5-1.3-1-2-1.5c-0.4-0.3-0.7-0.6-1.1-0.9c-2-1.6-4-3.2-5.8-5
		c-0.6-0.6-1.3-1.1-1.9-1.7c-0.4-0.4-0.8-0.8-1.2-1.1c-0.4-0.4-0.8-0.8-1.2-1.1c-0.6-0.6-1.1-1.1-1.7-1.7c0,0,0,0,0,0
		c-1.1-1.1-2.2-2.3-3.3-3.5c-0.5-0.6-1.1-1.2-1.6-1.8v0h0v0c-1.9-1.9-3.7-3.9-5.5-5.9c-1.8-2-3.5-4-5.2-6.1
		c-3.4-4.2-6.5-8.5-9.4-12.9c-0.7-1.1-1.5-2.2-2.2-3.4c-0.7-1.1-1.4-2.3-2.1-3.4c-0.7-1.1-1.4-2.3-2-3.4c0,0,0,0,0,0
		c-0.7-1.2-1.3-2.3-1.9-3.5c-0.6-1-1.1-2.1-1.6-3.1c-0.5-1-1.1-2.1-1.6-3.2c-0.2-0.4-0.4-0.9-0.6-1.3c-1.1-2.3-2.1-4.6-3.1-6.9
		c-0.4-0.9-0.4-1.9-0.6-2.9c-5.5-9.6-8-20.3-10.9-30.9c-0.8-3-1.3-6.1-1.9-9.2c-3.5-17.6-4.5-35.3-3.2-53.1
		c0.4-5.3,1.4-10.5,2.2-15.8c0.5-11.2,3.8-22,6-32.9c0.7-3.4,1.5-6.7,2.3-10.1v0c3.7-17.1,5.9-34.4,5.1-52c0,0,0,0,0,0v0
		c-0.4-4.4-1-8.8-1.9-13.1c-0.1-0.7-0.3-1.4-0.4-2c0-0.2-0.1-0.5-0.2-0.8c-0.2-0.9-0.4-1.9-0.6-2.8c-0.2-0.7-0.3-1.4-0.5-2.1
		c-0.1-0.5-0.2-1-0.4-1.4c-0.4-1.5-0.8-2.9-1.2-4.4c-0.4-1.4-0.8-2.9-1.3-4.3c0,0,0,0,0,0c-0.4-1.4-0.9-2.9-1.4-4.3c0,0,0,0,0,0
		C17,58.4,11.1,48.5,8.5,37.3c-3.3-14,3.5-26,15.9-28.8c0.2-0.1,0.5-0.1,0.8-0.2c0.5-0.1,1-0.2,1.5-0.2h0c1.8-0.2,3.5-0.3,5.2-0.2
		c0.2,0,0.5,0,0.8,0.1C32.8,8,33,8,33.2,8c0.3,0,0.5,0.1,0.8,0.1c0.3,0,0.6,0.1,0.8,0.1c0.5,0.1,1,0.2,1.5,0.3
		C36.9,8.7,37.5,8.8,38,9c0.3,0.1,0.5,0.2,0.8,0.3c0.5,0.2,0.9,0.3,1.3,0.5c0.4,0.1,0.7,0.3,1.1,0.5c0.4,0.2,0.8,0.3,1.1,0.5
		c0.1,0,0.1,0.1,0.2,0.1c0.4,0.2,0.7,0.4,1.1,0.6c0.8,0.4,1.5,0.9,2.3,1.3c0,0,0,0,0,0c0.8,0.4,1.5,0.9,2.2,1.4h0
		c0.7,0.5,1.4,1,2.2,1.5c0.6,0.4,1.2,0.8,1.8,1.3c0.2,0.2,0.4,0.3,0.7,0.5c0.1,0.1,0.3,0.2,0.4,0.3c0.4,0.3,0.8,0.6,1.2,0.9
		c0.2,0.2,0.4,0.3,0.6,0.5c0.3,0.2,0.6,0.5,0.9,0.8c0.1,0.1,0.2,0.2,0.3,0.2c0.2,0.2,0.4,0.3,0.6,0.5c0,0,0,0,0.1,0.1
		c0.6,0.5,1.1,1,1.7,1.5c0.6,0.6,1.2,1.2,1.8,1.8C65,29.1,69.1,34.7,72.5,41c8.9,13.6,14.3,28.5,15.8,44.8c0.1,0.4,0.2,0.8,0.3,1.2
		c0.2,0.8,0.4,1.6,0.5,2.4c0.2,0.8,0.3,1.6,0.4,2.4c0.1,0.4,0.1,0.8,0.2,1.2c0.1,0.8,0.2,1.6,0.3,2.4c0.1,1.1,0.2,2.1,0.3,3.1
		c0.1,1,0.1,2.1,0.2,3.1c0,0.4,0,0.7,0,1.1c0,0.4,0,0.8,0,1.1c0,0.9,0,1.9,0,2.9c0,3.8-0.3,7.7-0.6,11.5c-1.1,14-3.3,28-6.9,41.6
		c-0.6,2.7-1.3,5.4-1.9,8.1c-0.9,4.1-1.8,8.2-2.7,12.3c-0.5,2.7-1.1,5.5-1.6,8.2c0,0,0,0,0,0c-0.2,1.4-0.5,2.8-0.7,4.1
		c-0.2,1.1-0.6,2.2-1,3.3c-0.8,11.9-2.7,23.6-2.1,35.6c0.2,4.8,0.6,9.6,0.9,14.3v0c1.2,12,4.2,23.6,8.2,35c0.3,0.6,0.5,1.2,0.8,1.8
		c0.3,0.6,0.5,1.2,0.8,1.8c0.4,0.8,0.7,1.6,1.1,2.4c0.5,1,1,2.1,1.5,3.1c0.3,0.6,0.6,1.1,0.8,1.7c0.3,0.6,0.6,1.2,0.9,1.8
		c0.4,0.9,0.9,1.7,1.4,2.6c0.3,0.5,0.5,1,0.8,1.5c0.8,1.6,1.7,3.1,2.6,4.6c0.3,0.5,0.6,1,0.9,1.5c0.1,0.2,0.2,0.3,0.3,0.5
		c0.4,0.7,0.8,1.3,1.2,2c0.4,0.6,0.8,1.2,1.2,1.8c0.2,0.4,0.5,0.7,0.7,1.1c0.3,0.4,0.6,0.9,0.8,1.3c0.2,0.2,0.3,0.5,0.5,0.7
		c0.2,0.3,0.4,0.6,0.7,1c0.9,1.3,1.8,2.5,2.7,3.8c0.5,0.6,0.9,1.2,1.4,1.9c6.2,7.5,13.2,14.3,20.7,20.4c0,0,0,0,0,0
		c1.1,0.9,2.2,1.7,3.3,2.6h0c5.5,3.3,11,6.8,16.7,9.9c0.4,0.2,0.8,0.4,1,0.6c0.1,0,0.2,0.1,0.2,0.2c0.1,0.1,0.2,0.2,0.3,0.2
		c0,0,0,0,0.1,0.1c0,0,0.1,0.1,0.1,0.2c0,0.1,0.1,0.1,0.1,0.2c0.1,0.2,0.1,0.3,0.1,0.5c0,0.1,0,0.3-0.1,0.4c0,0.1-0.1,0.3-0.2,0.5
		c-0.1,0.2-0.2,0.3-0.4,0.5c-0.1,0.1-0.1,0.2-0.2,0.3c-0.1,0.1-0.2,0.2-0.3,0.3c-0.3,0.3-0.6,0.6-0.9,0.9s-0.6,0.6-0.9,0.9
		c-1.2,1.2-2.3,2.4-3.3,3.6c-1.1,1.2-2.2,2.5-3.2,3.7c-1,1.3-2,2.5-3,3.9c-0.5,0.6-1,1.3-1.5,2c-0.1,0.2-0.2,0.3-0.3,0.5
		c-0.4,0.6-0.9,1.2-1.3,1.8c-0.5,0.6-0.9,1.3-1.3,2c-0.3,0.5-0.7,1-1,1.5c-0.5,0.8-1,1.5-1.4,2.3c0,0,0,0,0,0.1
		c-0.4,0.7-0.8,1.4-1.2,2c0,0.1-0.1,0.1-0.1,0.2c-0.3,0.4-0.5,0.9-0.8,1.3c-0.4,0.7-0.8,1.4-1.2,2.1c-0.5,1-1,1.9-1.5,2.9
		c-1,1.9-2,3.9-2.9,5.9c-0.9,2-1.8,4-2.7,6c-0.2,0.4-0.3,0.7-0.5,1c-0.1,0.1-0.2,0.3-0.2,0.4c-0.1,0.1-0.2,0.2-0.3,0.3
		c-0.1,0.1-0.2,0.2-0.3,0.2c-0.1,0.1-0.2,0.1-0.3,0.2c-0.2,0.1-0.4,0.1-0.7,0.1c-0.1,0-0.2,0-0.3,0c-0.2,0-0.4-0.1-0.6-0.2
		c-0.1,0-0.2-0.1-0.3-0.1c-0.1-0.1-0.3-0.1-0.4-0.2c-0.2-0.1-0.3-0.2-0.5-0.3C106.2,396.2,100.2,393.4,95.1,389.1z M133.9,629.4
		c-10.4,3.8-21.2,5.7-32,7.5c-9.1,1.5-15.7,5.9-19.9,14.1c-4.2,8.1-9,15.7-9.5,25.3c-0.4,7.1-3.3,13.9-9,18.9
		c-0.4,0.3-0.7,1.2-1.4,0.6c-0.7-0.6,0-1.1,0.3-1.6c0.5-2.6,1.2-5.2,1-7.9c-0.1-1.2-0.2-2.4-1.8-2.5c-1.5,0-1.9,1.1-2,2.3
		c-0.3,2.5-0.5,4.9-1.5,7.3c-3.6,7.8-8.3,9.7-19,7c4-3.1,7.5-6.3,8.9-11.2c0.3-1.3,0.8-2.6,0.7-3.9c-0.2-1.8,0.7-4.8-1.8-5.1
		c-3.2-0.4-1.8,2.8-2.3,4.5c-0.5,1.9-0.9,4-1.8,5.7c-4.6,8.8-12.4,9.2-17.8,0.8c-5.4-8.6-5.1-18-3.5-27.5
		c4.7-26.9,12.6-52.9,21.9-78.5c4.3-11.8,11.7-20.7,24.3-25.3c14.1-5.1,24.7-15.5,33.7-27.3c1.4-1.8,2.8-3.7,4.5-6.1
		c2.1,8.3,4,16.1,6.1,23.8c5.3,20.4,15,39.1,22.6,58.6c1.8,4.5,2.8,9.2,3.4,14C138.4,626.4,137.3,628.2,133.9,629.4z M537.8,646
		c-10.2,14.4-21.5,27.9-30.9,42.9c-2.4,3.9-2.3,5.8,1.8,8.2c10.2,6,12.3,19,4.5,25.9c-0.2,0.2-0.6,0.6-0.6,0.6
		c-0.6-0.4-0.4-0.8,0-1.2c0.7-5.1,0.2-10-3.5-14c-1-1.1-2.3-2.3-3.9-1.2c-1.8,1.3-0.5,2.5,0.4,3.7c1.1,1.5,2.2,3.1,2.6,4.8
		c1.8,8.5-0.8,14.3-14.5,13.2c1.2-4,2.4-7.9,1.3-12.2c-0.8-3-2-5.7-4.6-7.5c-1.2-0.9-2.7-1.8-4-0.4c-1.5,1.6-0.2,2.7,0.9,3.7
		c3.9,3.6,4.5,7.9,2.9,12.8c-0.9,2.8-2.6,4.4-5.9,4.1c-6.5-0.5-13-1.2-19.2-3.1c-13.3-4.2-20.5-16.2-18.5-30.8
		c2.8-20.5,8.3-40.4,13.8-60.2c0.5-2,1.5-2.9,3.6-3.4c14.2-3.3,28.4-6.9,42.2-12c2.4-0.9,4-0.2,5.8,1.2c8.4,6.6,16.7,13.3,25.2,19.6
		C540,642.6,539.4,643.8,537.8,646z M797.4,342c-3.8,23.9-15.2,43.9-32,60.8c-19.2,19.3-42.5,31.7-68.2,40c-1.8,0.6-3.5,1.1-4.8,2.5
		c-1.3,1.5-1.7,3.5,0,4.3c4.2,1.9,2.4,4.7,1.5,7.3c-13.3,41-35.1,77.1-63.9,109c-1.9,2.1-3.1,2.7-4.5-0.3c-0.8-1.8-1.9-3.5-3-5.2
		c-1.2-1.8-2.9-2.9-5.1-1.6c-2,1.2-1.7,3.3-0.9,4.9c2.2,4.3,4.6,8.5,7.1,12.6c16.9,28.3,33.2,57,49.3,85.7c2.3,4.1,5,6.5,9.8,7.5
		c8.8,1.8,16.2,5.8,20.2,14.5c2.3,4.9,2.8,9.8,0.4,15.4c-1.5-2.6-2.6-4.8-4-6.9c-1.8-2.7-4-4.8-7-6.2c-1.8-0.8-3.8-1.6-4.8,0.6
		c-1,2.2,1.4,2.5,2.8,3.3c3.9,2,6.3,5.3,7.9,9.3c1.8,4.4,1,8-2.5,11.2c-2.6,2.4-5.2,4.6-8.7,5.7c-1.3-1.7-0.5-3.6-0.8-5.3
		c-0.9-6.4-5.6-11.9-11.2-13.4c-1.6-0.4-3.2-0.7-3.8,1c-0.8,1.9,0.8,2.5,2.3,3.1c5.5,2.3,8.2,6.5,8.4,12.4c0.1,3.7-1.5,5.7-5.2,6.7
		c-17,4.7-32,0.9-45.2-10.3c-28.8-24.4-56.6-50.2-86.3-73.6c-14.8-11.6-29.7-23.2-45.1-34c-2.6-1.8-5.3-3.5-7.9-5.2
		c-1.9-1.2-3.8-1.4-5.2,0.7c-1.3,2.1-0.4,3.8,1.4,5.1c3.7,2.6,7.3,5.2,11,7.8c0.7,0.5,1.5,0.8,1.4,2.2c-11.8,4-23.9,7.3-36.2,10
		c-36.3,8-73,11.3-110.2,8.2c-25.8-2.2-51-7.3-75.6-15.5c-3.3-1.1-4.1-2.2-2-5.4c5.3-8.2,8.6-17.2,11.4-26.5c0.7-2.2,1.6-4.9-1.5-6
		c-3.3-1.1-4.2,1.5-5,4c-7.3,23.6-21.9,42.4-39.2,59.3c-7.5,7.4-10.7,15.9-7.2,26.6c2.1,6.5,4.6,12.8,7,19.2
		c1.2,3.2,3.8,3.8,6.6,4.5c8.8,2.3,16.3,6.2,19.1,15.7c1.6,5.4,1.6,10.8-3.4,15.5c-0.4-3.1-0.6-5.8-1.1-8.4c-0.6-2.8-2-5.3-4.2-7.2
		c-1.4-1.3-3.1-3.3-5.1-1.1c-1.7,2,0.9,2.7,1.8,3.8c1.2,1.6,2.8,2.9,3.3,4.9c2.5,9.4,0.8,14.2-13.6,14.2c2.4-6.5,1.4-12.4-3.2-17.4
		c-0.9-1-2-1.8-3.1-2.5c-1.3-0.9-2.9-1.4-3.9,0.3c-0.9,1.5,0.5,2.3,1.5,3.2c5.2,4.5,6.8,10.2,4.3,15c-0.6,1.2-1,2.5-2.8,2.4
		c-16.1-0.5-32.1-0.8-43.8-14.8c-6.8-8.2-13.9-16.2-20.3-24.7c-8.4-11-16.9-21.8-24.3-33.6c-3.9-6.2-6.1-13-4.9-20.4
		c2-11.8-0.4-22.8-4.8-33.6c-0.9-2.1-1.5-4.4-2.2-6.6v0c-0.6-1.2-1.2-2.4-1.8-3.7c-0.4-0.9-0.9-1.8-1.3-2.8
		c-1.3-2.8-2.5-5.5-3.7-8.3c-0.7-1.6-1.4-3.3-2.1-4.9c-0.5-1.1-0.9-2.2-1.3-3.3c-0.9-2.2-1.7-4.4-2.5-6.7c-1.2-3.3-2.4-6.7-3.5-10.1
		c-0.7-2.2-1.4-4.5-2.1-6.8c-0.2-0.8-0.5-1.5-0.7-2.3c0-0.1,0-0.2-0.1-0.2c-0.2-0.7-0.4-1.3-0.6-2c-0.1-0.5-0.3-1-0.4-1.5
		c-0.1-0.5-0.3-1-0.4-1.6c-0.2-0.9-0.5-1.7-0.7-2.6c-0.6-2.3-1.1-4.6-1.6-6.9c-0.2-1.2-0.5-2.3-0.7-3.5c-2.8-13.9-4.4-28.1-4.6-42.7
		c-0.8-30.9,1.7-61.2,14.8-89.7c14.8-32.5,39.2-54.9,71.8-68.7c24-10.1,49.2-15.4,75.1-17.1h0c3.4-0.3,6.8-0.6,10.2-0.8
		c7.3-0.4,14.7-0.5,22-0.4c1,0,2,0,3,0.1c2.8,0.1,5.6,0.2,8.4,0.4c0.8,0,1.7,0.1,2.5,0.1c0.7,0,1.5,0.1,2.2,0.2c0.4,0,0.8,0,1.2,0.1
		c1.5,0.1,3,0.2,4.5,0.4c1,0.1,1.9,0.2,2.9,0.3c3.4,0.3,6.8,0.7,10.2,1.1c0.8,0.1,1.7,0.2,2.5,0.3c1,0.1,2.1,0.3,3.1,0.4
		c1,0.1,2.1,0.3,3.1,0.5c2,0.3,3.9,0.6,5.8,0.9c1,0.2,1.9,0.3,2.9,0.5c0.7,0.1,1.4,0.2,2.1,0.4c0.8,0.1,1.6,0.3,2.5,0.4
		c1,0.2,2.1,0.4,3.1,0.6c0.8,0.2,1.7,0.3,2.5,0.5c1.5,0.3,2.9,0.6,4.4,0.9c2.9,0.6,5.8,1.2,8.7,1.8c0.1,0,0.2,0,0.3,0.1
		c0.9,0.2,1.8,0.4,2.6,0.6c1.5,0.3,2.9,0.6,4.3,1c1.5,0.3,2.9,0.7,4.3,1c2.4,0.6,4.8,1.1,7.2,1.7c3.6,0.8,7.2,1.7,10.8,2.5
		c13.3,2.9,26.6,5.5,40.1,7.3c8.8-0.3,17.6,0.2,26.2-1.9c2.2-0.6,1.9,1.1,2.1,2.3c0.8,4.4,1.6,8.8,2.4,13.2c0.5,2.4,1.8,4.2,4.4,3.7
		c2.6-0.6,2.9-2.8,2.5-5.2c-1.1-6.9-2.7-13.7-1.7-20.7v0c-2-10.7-0.1-21.2,1.1-31.8c1.1-5.8,2.3-11.6,3.9-17.2
		c0.2-0.8,0.5-1.6,0.7-2.4c0.1-0.5,0.3-0.9,0.4-1.4c0.2-0.5,0.3-0.9,0.5-1.4c0.4-1.3,0.9-2.6,1.4-3.9l0,0c0.5-1.3,1-2.6,1.6-3.9
		c0.3-0.6,0.6-1.3,0.9-1.9l0,0c0.2-0.6,0.4-1.3,0.6-1.9c0.2-0.7,0.5-1.3,0.7-2c0.3-0.7,0.5-1.4,0.8-2.1c0.1-0.3,0.2-0.6,0.4-0.9
		c0.2-0.4,0.3-0.8,0.5-1.2c0.2-0.4,0.4-0.8,0.6-1.2c0.6-1.3,1.3-2.5,2-3.8c0,0,0,0,0,0c0.4-0.6,0.7-1.1,1.1-1.7
		c0.4-0.6,0.7-1.2,0.9-1.8c0.3-0.8,0.4-1.6,0.5-2.4c0-0.1,0-0.3,0-0.4c0-0.3,0-0.7,0-1c0-0.2,0-0.4,0-0.6c0-0.4-0.1-0.7-0.1-1.1
		c0,0,0-0.1,0-0.1c0-0.3-0.1-0.5-0.1-0.8c-1.8-15.7-2.3-31.5-0.7-47.2c0-0.2,0-0.4,0.1-0.6c0-0.2,0-0.4,0.1-0.6
		c0-0.4,0.1-0.8,0.1-1.2c0.1-0.8,0.2-1.6,0.3-2.3c0.2-1.6,0.4-3.1,0.6-4.7c0.3-2.2,0.7-4.5,1.1-6.7c0.1-0.8,0.3-1.5,0.4-2.2
		c0.2-0.7,0.3-1.5,0.5-2.2c0.3-1.3,0.6-2.7,0.9-4c0.6-2.6,1.3-5.2,2.2-7.8c0.2-0.7,0.5-1.4,0.7-2.2c0.2-0.7,0.5-1.5,0.8-2.2
		c1-2.7,2.1-5.4,3.2-8.1c2.7-6,6.2-9.8,10.5-11.2c0.3-0.1,0.7-0.2,1.1-0.3c0.2-0.1,0.5-0.1,0.8-0.2c0.3-0.1,0.7-0.1,1-0.2
		c0.5-0.1,1.1-0.1,1.6-0.1h0.1c0.3,0,0.7,0,1,0h0c0.3,0,0.7,0.1,1.1,0.1c1.5,0.2,3,0.6,4.6,1.1c0.4,0.1,0.8,0.3,1.2,0.5
		s0.8,0.4,1.2,0.5c0.5,0.2,0.9,0.5,1.4,0.7c0,0,0,0,0,0c0.3,0.1,0.5,0.3,0.8,0.4c16.8,9.2,29.7,22.9,41.9,37.1
		c4.2,4.9,7.9,10.2,11.9,15.4c2.1,0.6,3.8,0.8,5,0.2c0.2-0.1,0.3-0.2,0.4-0.3c0.1-0.1,0.2-0.3,0.3-0.4c0.1-0.1,0.2-0.3,0.2-0.5
		c0-0.1,0.1-0.1,0.1-0.2c0.1-0.2,0.1-0.4,0.1-0.6c0.1-0.7,0.1-1.7-0.2-2.8c-0.1-0.5-0.1-0.8,0-1.1c0-0.1,0-0.1,0.1-0.1
		c0-0.1,0.1-0.1,0.1-0.2c0,0,0.1-0.1,0.1-0.1c0,0,0.1-0.1,0.2-0.1c0.1,0,0.1-0.1,0.2-0.1c0.1-0.1,0.2-0.1,0.3-0.1
		c0.3-0.1,0.6-0.2,1-0.3c1-0.2,1.9-0.4,2.9-0.6c1-0.2,1.9-0.4,2.9-0.6h0c2.1-0.3,4.1-0.7,6.1-1c8.1-2.5,16.5-3.1,24.9-2.9
		c4.7-1,9.4-0.6,14.1,0.1c0.5,0,1-0.1,1.5-0.1c7.6-0.4,15.1,0.2,22.5,2.1h0c2.2-0.1,4.4,0.2,6.5,0.9c1.2,0.3,2.3,0.8,3.5,1.2
		c3.4-0.6,6.4,1.1,9.5,2.1c1.8,0.6,3.2,0.6,4.5,0.1c0.1-0.1,0.3-0.1,0.4-0.2c0.1,0,0.2-0.1,0.2-0.1c0.1-0.1,0.2-0.1,0.2-0.2
		c0.2-0.1,0.3-0.3,0.5-0.4c0.4-0.4,0.8-0.9,1.2-1.5c0,0,0,0,0,0c-0.2-0.2-0.4-0.4-0.7-0.6c-0.4-0.4-0.9-0.8-1.4-1.1
		c-1.2-0.9-2.4-1.6-3.7-2.2c0,0,0,0,0,0c-0.5-0.2-1-0.5-1.5-0.7c-0.5-0.2-1-0.4-1.6-0.6c-0.5-0.2-1.1-0.4-1.6-0.5
		c-0.5-0.2-1.1-0.4-1.6-0.5c-0.5-0.2-1.1-0.3-1.6-0.5c-0.8-0.2-1.6-0.5-2.5-0.8c-0.8-0.3-1.6-0.6-2.5-0.9c0.5-0.6,0.9-1.3,1.4-1.9
		c0.7-1,1.5-2,2.2-2.9c4.6-5.8,9.4-11.2,14.5-16.3c1.1-1.1,2.2-2.1,3.3-3.2c1.1-1,2.3-2.1,3.4-3.1c1.7-1.5,3.4-2.9,5.1-4.4
		c0.6-0.5,1.3-1.1,1.9-1.6c1.3-1.1,2.6-2.1,4-3c0.7-0.5,1.4-1,2.1-1.4c0,0,0,0,0,0c0.9-0.6,1.9-1.2,2.8-1.8c0.5-0.3,1-0.6,1.5-0.9
		c1-0.5,2-1.1,3-1.5c0.5-0.2,1-0.5,1.6-0.7c0.9-0.4,1.9-0.8,2.7-1.1c0.6-0.2,1.2-0.4,1.8-0.6c0.2-0.1,0.5-0.1,0.7-0.2
		c0.2,0,0.3-0.1,0.5-0.1c0.2,0,0.3-0.1,0.5-0.1c0.1,0,0.3-0.1,0.4-0.1s0.3-0.1,0.4-0.1c0.1,0,0.3-0.1,0.4-0.1c0.2,0,0.3-0.1,0.5-0.1
		c0.1,0,0.2,0,0.3,0c0.2,0,0.5-0.1,0.7-0.1c0.9-0.1,1.8,0,2.7,0.1c0.3,0.1,0.6,0.1,0.9,0.2c0.5,0.1,0.9,0.3,1.3,0.5
		c0.2,0.1,0.3,0.1,0.4,0.2c0.1,0.1,0.3,0.1,0.4,0.2c0.1,0.1,0.3,0.2,0.4,0.2c0.3,0.2,0.5,0.4,0.8,0.6c0.1,0.1,0.3,0.2,0.4,0.3
		c0.1,0.1,0.2,0.2,0.4,0.3c0.3,0.2,0.5,0.5,0.8,0.7c0.6,0.7,1.2,1.4,1.8,2.3c0.2,0.4,0.5,0.8,0.7,1.2c0.2,0.3,0.3,0.6,0.5,0.9
		c0.5,1,1.1,2,1.6,3.2c0.2,0.4,0.4,0.9,0.6,1.3c0.2,0.4,0.3,0.9,0.5,1.3c0.2,0.4,0.3,0.9,0.5,1.3c0.8,2.2,1.5,4.5,2.1,6.8v0
		c0.7,2.7,1.3,5.5,1.8,8.2v0c0.2,0.9,0.3,1.8,0.4,2.6c0.1,0.5,0.1,0.9,0.2,1.4c0.1,0.6,0.2,1.2,0.2,1.9c0.1,0.7,0.2,1.4,0.2,2.1
		c0.1,0.5,0.1,1,0.2,1.5c0.1,0.5,0.1,1.1,0.2,1.6c0.1,0.5,0.1,1.1,0.1,1.6c0.1,0.8,0.1,1.6,0.2,2.5c0,0.4,0.1,0.8,0.1,1.3
		c0.1,1.9,0.2,3.9,0.3,5.8c0.1,1.1,0.1,2.1,0.2,3.2c0.4,9.6-0.2,19.3-0.9,28.9c-0.1,0.8-0.1,1.6,0.1,2.4c0.1,0.3,0.1,0.6,0.2,0.9
		c0.1,0.4,0.2,0.8,0.4,1.2v0c0.5,1.1,1.2,2.1,2.1,3.1c20.9,23.5,32.4,51,35.6,82.2C800.7,316.4,800.3,329.2,797.4,342z"/>
	<path class="st1" d="M506.9,689c-2.4,3.9-2.3,5.8,1.8,8.2c10.2,6,12.3,19,4.5,25.9c-0.2,0.2-0.6,0.6-0.6,0.6
		c-0.6-0.4-0.4-0.8,0-1.2c0.7-5.1,0.2-10-3.5-14c-1-1.1-2.3-2.3-3.9-1.2c-1.8,1.3-0.5,2.5,0.4,3.7c1.1,1.5,2.2,3.1,2.6,4.8
		c1.8,8.5-0.8,14.3-14.5,13.2c1.2-4,2.4-7.9,1.3-12.2c-0.8-3-2-5.7-4.6-7.5c-1.2-0.9-2.7-1.8-4-0.4c-1.5,1.6-0.2,2.7,0.9,3.7
		c3.9,3.6,4.5,7.9,2.9,12.8c-0.9,2.8-2.6,4.4-5.9,4.1c-6.5-0.5-13-1.2-19.2-3.1c-13.3-4.2-20.5-16.2-18.5-30.8
		c2.8-20.5,8.3-40.4,13.8-60.2c0.5-2,1.5-2.9,3.6-3.4c14.2-3.3,28.4-6.9,42.2-12c2.4-0.9,4-0.2,5.8,1.2c8.4,6.6,16.7,13.3,25.2,19.6
		c2.7,2,2.1,3.2,0.5,5.5C527.6,660.4,516.3,673.9,506.9,689z"/>
	<path class="st1" d="M133.9,629.4c-10.4,3.8-21.2,5.7-32,7.5c-9.1,1.5-15.7,5.9-19.9,14.1c-4.2,8.1-9,15.7-9.5,25.3
		c-0.4,7.1-3.3,13.9-9,18.9c-0.4,0.3-0.7,1.2-1.4,0.6c-0.7-0.6,0-1.1,0.3-1.6c0.5-2.6,1.2-5.2,1-7.9c-0.1-1.2-0.2-2.4-1.8-2.5
		c-1.5,0-1.9,1.1-2,2.3c-0.3,2.5-0.5,4.9-1.5,7.3c-3.6,7.8-8.3,9.7-19,7c4-3.1,7.5-6.3,8.9-11.2c0.3-1.3,0.8-2.6,0.7-3.9
		c-0.2-1.8,0.7-4.8-1.8-5.1c-3.2-0.4-1.8,2.8-2.3,4.5c-0.5,1.9-0.9,4-1.8,5.7c-4.6,8.8-12.4,9.2-17.8,0.8c-5.4-8.6-5.1-18-3.5-27.5
		c4.7-26.9,12.6-52.9,21.9-78.5c4.3-11.8,11.7-20.7,24.3-25.3c14.1-5.1,24.7-15.5,33.7-27.3c1.4-1.8,2.8-3.7,4.5-6.1
		c2.1,8.3,4,16.1,6.1,23.8c5.3,20.4,15,39.1,22.6,58.6c1.8,4.5,2.8,9.2,3.4,14C138.4,626.4,137.3,628.2,133.9,629.4z"/>
	<path class="st1" d="M799.4,303.4c-3.2-31.2-14.7-58.7-35.6-82.2c-0.9-1-1.6-2.1-2.1-3.1c0.4,1.1,1.1,2.1,2.1,3.1
		C784.7,244.7,796.2,272.2,799.4,303.4c1.3,13,0.9,25.9-2,38.6c-4.2-1.5-8.3-3.1-11.8-6c0.9-2.2,1.7-4.5,2.3-6.7
		c-0.7,2.2-1.4,4.4-2.3,6.7c-5.7,11.1-14.1,19-26.5,21.6c-19.2,4-37.6-10.7-40.2-31.6c-2.1-16.3,2.3-30.5,13.2-42.8
		c-13.8-12.6-24.2-27.6-32-44.5c4.1-4.2,5.3-9,2.7-14.5c-0.2-0.4-0.3-0.8-0.5-1.2c0.1,0.4,0.3,0.9,0.5,1.2
		c2.6,5.5,1.4,10.3-2.7,14.5c-5.9,0.2-9-3.4-11.2-8.2c-6.1-12.7-13.2-24.8-21.6-36.2c-4.2-5.6-9.2-10.4-14.1-15.3
		c0.5,0,1-0.1,1.5-0.1c-0.5,0-1,0-1.5,0.1c-4.7-0.7-9.4-1.1-14.1-0.1c-8.4-0.1-16.8,0.4-24.9,2.9v0c8.1-2.5,16.5-3.1,24.9-2.9
		c15.1,15.2,24.1,33.4,26.3,54.8c0.3,3.2,0.2,6.3-3,8.4c0.9,19.5-5.6,36.6-17,52.1c-0.6-0.4-1.1-0.7-1.6-1.1
		c-1.1-0.9-2.3-1.8-3.4-2.6c1.2,0.8,2.3,1.7,3.4,2.6c0.5,0.4,1.1,0.7,1.6,1.1c15.5,17,18.7,35.4,9.6,55.1
		c-12.4,27-50.1,33.3-70.7,11.8c-0.6-0.6-1.2-1.1-1.8-1.7c-38.7,12.2-78.6-4.8-97.3-33.6c-1,7,0.6,13.9,1.7,20.7
		c0.4,2.4,0.1,4.6-2.5,5.2c-2.6,0.6-3.9-1.3-4.4-3.7c-0.8-4.4-1.6-8.8-2.4-13.2c-0.2-1.2,0.1-2.8-2.1-2.3
		c-8.6,2.1-17.5,1.6-26.2,1.9c-7.1,13.4-9.4,28-11,42.7c-2.4,21.1-7.8,41.2-20,58.9c-18,26-43.3,37.2-74.4,35.1
		c-34.4-2.3-61.2-18.6-77.8-48.7c-20.4-37.1-20.3-74.4,5-109.9c0.2-0.3,0.3-0.6,0.4-0.9h0c-25.9,1.8-51.1,7-75.1,17.1
		c-32.6,13.8-57,36.3-71.8,68.7c-13.1,28.6-15.6,58.9-14.8,89.7c4.7-8.5,10.3-16,18.1-22.2c19.5-15.3,49.5-14.5,69.7,6.6
		c26.8,27.9,30.9,75.9,8.6,107.4c-15.6,22-41.3,30.7-68.3,17.8c0.7,2.2,1.4,4.4,2.2,6.6c4.4,10.8,6.7,21.8,4.8,33.6
		c-1.2,7.4,1,14.2,4.9,20.4c7.3,11.7,15.9,22.6,24.3,33.6c6.5,8.5,13.5,16.5,20.3,24.7c11.7,14,27.7,14.3,43.8,14.8
		c1.7,0,2.2-1.3,2.8-2.4c2.5-4.8,0.9-10.5-4.3-15c-1-0.9-2.4-1.6-1.5-3.2c1-1.8,2.5-1.2,3.9-0.3c1.1,0.8,2.2,1.6,3.1,2.5
		c4.7,5.1,5.7,11,3.2,17.4c14.5,0.1,16.1-4.7,13.6-14.2c-0.5-2-2.1-3.3-3.3-4.9c-0.9-1.1-3.5-1.8-1.8-3.8c1.9-2.2,3.6-0.2,5.1,1.1
		c2.2,1.9,3.6,4.4,4.2,7.2c0.5,2.6,0.7,5.3,1.1,8.4c5-4.7,5-10.1,3.4-15.5c-2.8-9.4-10.3-13.4-19.1-15.7c-2.8-0.7-5.4-1.3-6.6-4.5
		c-2.4-6.4-4.9-12.7-7-19.2c-3.5-10.7-0.3-19.2,7.2-26.6c17.3-17,31.9-35.8,39.2-59.3c0.8-2.5,1.7-5.1,5-4c3.1,1,2.2,3.7,1.5,6
		c-2.7,9.3-6,18.4-11.4,26.5c-2.1,3.2-1.3,4.3,2,5.4c24.6,8.2,49.8,13.3,75.6,15.5c37.1,3.2,73.8-0.2,110.2-8.2
		c12.3-2.7,24.4-6,36.2-10c0.1-1.5-0.7-1.8-1.4-2.2c-3.7-2.6-7.3-5.2-11-7.8c-1.8-1.3-2.8-3-1.4-5.1c1.4-2.2,3.3-2,5.2-0.7
		c2.7,1.7,5.3,3.4,7.9,5.2c15.4,10.8,30.3,22.3,45.1,34c29.7,23.4,57.4,49.2,86.3,73.6c13.2,11.2,28.3,15,45.2,10.3
		c3.7-1,5.3-3.1,5.2-6.7c-0.2-5.9-2.9-10.1-8.4-12.4c-1.5-0.6-3-1.2-2.3-3.1c0.7-1.7,2.3-1.4,3.8-1c5.7,1.5,10.3,7,11.2,13.4
		c0.2,1.7-0.5,3.7,0.8,5.3c3.4-1.1,6.1-3.3,8.7-5.7c3.5-3.2,4.3-6.8,2.5-11.2c-1.6-4-4.1-7.2-7.9-9.3c-1.4-0.7-3.8-1.1-2.8-3.3
		c1-2.2,3-1.4,4.8-0.6c3,1.4,5.2,3.5,7,6.2c1.4,2.1,2.5,4.3,4,6.9c2.4-5.6,1.9-10.5-0.4-15.4c-4-8.7-11.4-12.7-20.2-14.5
		c-4.8-1-7.5-3.4-9.8-7.5c-16.1-28.8-32.3-57.5-49.3-85.7c-2.5-4.1-4.9-8.3-7.1-12.6c-0.8-1.6-1.1-3.7,0.9-4.9
		c2.2-1.3,3.9-0.2,5.1,1.6c1.1,1.6,2.2,3.4,3,5.2c1.4,3,2.6,2.4,4.5,0.3c28.9-31.9,50.6-68,63.9-109c0.8-2.6,2.7-5.4-1.5-7.3
		c-1.7-0.8-1.3-2.8,0-4.3c1.3-1.4,3-1.9,4.8-2.5c25.7-8.3,49-20.8,68.2-40c16.8-16.9,28.3-36.9,32-60.8
		C800.3,329.2,800.7,316.4,799.4,303.4z M728.8,382c-6.3,8.8-14.7,10.3-23.1,3.8c-2.5-1.9-3.5-1.5-5.6,0.4c-9.7,8.8-21.7,7.9-29.8-2
		c-0.5-0.6-1-1.3-1.4-2c-1.1-1.9-1.4-3.9,0.8-5.2c2-1.2,3.3,0,4.5,1.7c5.1,7,10.7,8.9,17.5,5.8c7.3-3.4,11.3-11.4,9.6-19
		c-0.4-1.7-1.6-1.9-2.7-2.5c-2.5-1.5-5.7-2.2-6.4-5.7c-3.2-2.8-3.2-5,0.4-6.5c5.7-2.4,11.7-2.4,17.6-1.3c3.2,0.6,4.7,3,3.7,6.4
		c0.7,2.9-1.4,4.9-3.2,5.6c-3.6,1.5-3.8,4.1-3.6,7.2c0.1,1.5,0.2,3.1-0.2,4.5c-1.6,4.8,0.9,7.5,4.7,9.5c4.4,2.2,8,0.6,11.3-2.5
		c0.6-0.6,1.1-1.3,1.6-1.9c1.4-1.9,2.1-5.6,5.2-3.5C733,376.9,730.4,379.8,728.8,382z"/>
	<path class="st2" d="M449.3,334.5c-7.1,13.4-9.4,28-11,42.7c-2.4,21.1-7.8,41.2-20,58.9c-18,26-43.3,37.2-74.4,35.1
		c-34.4-2.3-61.2-18.6-77.8-48.7c-20.4-37.1-20.3-74.4,5-109.9c0.2-0.3,0.3-0.6,0.4-0.9c3.4-0.3,6.8-0.6,10.2-0.8
		c7.3-0.4,14.7-0.5,22-0.4c1,0,2,0,3,0.1c2.8,0.1,5.6,0.2,8.4,0.4c0.8,0,1.7,0.1,2.5,0.1c0.7,0,1.5,0.1,2.2,0.2c0.4,0,0.8,0,1.2,0.1
		c1.5,0.1,3,0.2,4.5,0.4c1,0.1,1.9,0.2,2.9,0.3c3.4,0.3,6.8,0.7,10.2,1.1c0.8,0.1,1.7,0.2,2.5,0.3c1,0.1,2.1,0.3,3.1,0.4
		c1,0.1,2.1,0.3,3.1,0.5c2,0.3,3.9,0.6,5.8,0.9c1,0.2,1.9,0.3,2.9,0.5c0.7,0.1,1.4,0.2,2.1,0.4c0.8,0.1,1.6,0.3,2.5,0.4
		c1,0.2,2.1,0.4,3.1,0.6c0.8,0.2,1.7,0.3,2.5,0.5c1.5,0.3,2.9,0.6,4.4,0.9c2.9,0.6,5.8,1.2,8.7,1.8c0.1,0,0.2,0,0.3,0.1
		c0.9,0.2,1.8,0.4,2.6,0.6c1.5,0.3,2.9,0.6,4.3,1c1.5,0.3,2.9,0.7,4.4,1c2.4,0.6,4.8,1.1,7.2,1.7c3.6,0.8,7.2,1.7,10.8,2.5
		C422.4,330.1,435.8,332.7,449.3,334.5z"/>
	<path class="st3" d="M662.3,242.1c-6.5,0-11.1-2.6-14.6-8.4c-0.3-0.5-0.6-1-0.9-1.5s-0.6-1-0.8-1.5c-0.8-1.5-1.6-3.1-2.2-4.7
		c0,0,0,0,0,0c-1.2-2.6-2.2-5.3-3.3-8c-0.4-1.1-0.9-2.1-1.4-3.2c-0.5-1.1-0.9-2.1-1.5-3.1c0,0,0,0,0,0c-0.5-1-1-2.1-1.6-3.1
		c-1.3-2.3-2.6-4.5-4.1-6.6c-0.5-0.9-1.1-1.7-1.7-2.5c-0.6-0.8-1.2-1.6-1.8-2.4c-0.6-0.8-1.2-1.6-1.9-2.4c-1-1.1-1.9-2.3-3-3.4
		c-0.3-0.4-0.7-0.7-1-1.1c-0.4-0.4-0.8-0.8-1.2-1.2c-1.9-1.9-4-3.8-6.1-5.5c-0.1,0-0.1-0.1-0.2-0.1c-0.2-0.2-0.3-0.4-0.4-0.6v0
		c-0.2-0.3-0.3-0.6-0.5-0.9v0c-2,0.3-4.1,0.7-6.1,1c0.8,0.9,1.5,1.7,2.2,2.6c0.3,0.4,0.7,0.9,1.1,1.3c0.7,0.9,1.4,1.8,2.1,2.6
		c0.1,0.2,0.3,0.4,0.5,0.6c0.3,0.4,0.6,0.8,0.9,1.2c0.4,0.6,0.9,1.2,1.3,1.8c0.5,0.7,1,1.5,1.5,2.2s1,1.5,1.5,2.3
		c1,1.5,1.9,3.1,2.8,4.6c1.1,1.9,2.1,3.7,3,5.6c0.5,1,1,2,1.4,3c0.5,1,0.9,2,1.4,3c0.2,0.5,0.4,1,0.6,1.5c0.2,0.5,0.4,1,0.6,1.5
		c0.3,0.9,0.7,1.8,1,2.7c0.2,0.4,0.3,0.8,0.4,1.2c0.3,0.8,0.6,1.6,0.8,2.4c0.2,0.5,0.4,1.1,0.5,1.6c0.2,0.5,0.3,1.1,0.5,1.6
		c0.3,1.1,0.7,2.2,0.9,3.2c0.1,0.2,0.1,0.4,0.2,0.6c0.1,0.4,0.2,0.8,0.3,1.2c0.2,1,0.4,2,0.4,3c0,0.8-0.1,1.5-0.2,2.2
		c0,0.1,0,0.2-0.1,0.4c0,0,0,0.1,0,0.1c0,0.2-0.1,0.3-0.1,0.5c-0.1,0.6-0.3,1.1-0.5,1.6c0,0.1-0.1,0.2-0.2,0.4
		c-0.1,0.4-0.3,0.7-0.5,1c-0.1,0.2-0.2,0.3-0.3,0.5c0,0-0.1,0.1-0.1,0.1c-0.2,0.3-0.4,0.5-0.7,0.7l-0.4,0.3
		c-0.3,0.2-0.6,0.4-0.9,0.6c-0.2,0.1-0.3,0.2-0.5,0.2c-0.1,0-0.1,0.1-0.2,0.1c-0.1,0-0.3,0.1-0.4,0.2v0c0,0,0,0,0,0c0,0,0,0-0.1,0
		c-0.2,0.1-0.3,0.1-0.5,0.2c-4.2,1.3-7.8-0.3-10.5-3.8c-0.6-0.7-1.1-1.5-1.6-2.2c-2.1-3.3-3.7-6.9-5.2-10.5
		c-3.9-9.2-8.6-18-14.6-25.9c-2.4-3.2-3.2-6.4-2.6-10.2v0c-3.9-5.1-7.7-10.5-11.9-15.4c-12.3-14.3-25.1-28-41.9-37.1
		c-0.3-0.1-0.5-0.3-0.8-0.4c0,0,0,0,0,0c-0.5-0.2-1-0.5-1.4-0.7c-0.4-0.2-0.8-0.4-1.2-0.5c-0.4-0.2-0.8-0.3-1.2-0.5
		c-1.6-0.6-3.1-1-4.6-1.1c-0.3-0.1-0.7-0.1-1.1-0.1h0c-0.3,0-0.7,0-1,0h-0.1c-0.6,0-1.1,0-1.6,0.1c-0.3,0.1-0.7,0.1-1,0.2
		c-0.2,0.1-0.5,0.1-0.8,0.2c-0.4,0.1-0.7,0.2-1.1,0.3c-4.3,1.5-7.8,5.2-10.5,11.2c-1.2,2.7-2.3,5.4-3.2,8.1
		c-0.3,0.7-0.5,1.5-0.8,2.2c-0.2,0.7-0.5,1.4-0.7,2.2c-0.8,2.6-1.5,5.2-2.2,7.8c-0.3,1.3-0.6,2.7-0.9,4c-0.2,0.7-0.3,1.5-0.5,2.2
		c-0.2,0.8-0.3,1.5-0.4,2.2c-0.4,2.2-0.8,4.4-1.1,6.7c-0.2,1.6-0.4,3.1-0.6,4.7c-0.1,0.8-0.2,1.6-0.3,2.3c-0.1,0.4-0.1,0.8-0.1,1.2
		c0,0.2-0.1,0.4-0.1,0.6c0,0.2-0.1,0.4-0.1,0.6c-1.7,15.8-1.2,31.5,0.7,47.2c0,0.3,0.1,0.5,0.1,0.8c0,0,0,0.1,0,0.1
		c0,0.4,0.1,0.7,0.1,1.1c0,0.2,0,0.4,0,0.6c0,0.3,0,0.7,0,1c0,0.1,0,0.3,0,0.4c-0.1,0.8-0.2,1.6-0.5,2.4c-0.2,0.6-0.5,1.2-0.9,1.8
		c-0.4,0.6-0.8,1.1-1.1,1.7c0,0,0,0,0,0c-0.8,1.2-1.4,2.5-2,3.8c-0.2,0.4-0.4,0.8-0.6,1.2c-0.2,0.4-0.4,0.8-0.5,1.2
		c-0.1,0.3-0.2,0.6-0.4,0.9c-0.3,0.7-0.5,1.4-0.8,2.1c-0.2,0.6-0.5,1.3-0.7,2c-0.2,0.6-0.4,1.3-0.6,2c6.3,4.7,13.6,7.5,21.1,9.7
		c5.8,1.7,11.1,4.3,16.4,7.2c0.5,0.3,1,0.6,1.4,0.9c0.4,0.3,0.9,0.6,1.3,1c0.2,0.1,0.3,0.3,0.5,0.4c0.1,0,0.1,0.1,0.2,0.2
		c0.1,0.1,0.2,0.2,0.3,0.3c0.4,0.4,0.7,0.8,1,1.2c0.1,0.1,0.2,0.2,0.2,0.3c0.1,0.1,0.2,0.2,0.2,0.3c0.3,0.4,0.5,0.8,0.7,1.3
		c0.1,0.2,0.2,0.5,0.3,0.7c0.1,0.2,0.2,0.5,0.2,0.7c0.1,0.5,0.2,1,0.2,1.5c0,0.3,0,0.5,0,0.8c0,4.2-4.4,9-9.2,10
		c-10.6,2.2-21,1.9-31.4-1.5c-0.5-0.1-0.9-0.3-1.4-0.5c-0.7-0.2-1.4-0.5-2.1-0.8c-0.5-0.2-0.9-0.3-1.4-0.5c-1.2-0.4-2.4-0.8-3.6-1
		c-0.5-0.1-1-0.2-1.5-0.2c-0.9-0.1-1.9-0.1-2.9,0h0c-1.2,10.6-3.2,21.1-1.1,31.8c0,0,0,0,0,0c18.7,28.8,58.6,45.7,97.3,33.6
		c-15.3-20.3-12.7-44.4,1.4-61.2c0.8-0.9,1.6-1.8,2.5-2.7c0.5-0.5,1-1,1.5-1.5c1-0.9,2.1-1.8,3.2-2.6c0.6-0.4,1.1-0.8,1.7-1.2
		c0.3-0.2,0.7-0.4,1-0.6c1-0.6,2-1.2,3-1.7c0.7-0.4,1.4-0.7,2.1-1c0.7-0.3,1.4-0.6,2.1-0.9c0.3-0.1,0.7-0.3,1.1-0.4
		c0.7-0.3,1.4-0.5,2.2-0.7h0c0.7-0.2,1.4-0.4,2.2-0.6c7.7-1.9,15.8-1.6,23.5,1c0.6,0.2,1.2,0.4,1.7,0.6c1.7,0.7,3.4,1.4,5.1,2.3
		c0.3,0.2,0.6,0.3,0.9,0.5c0.5,0.3,1.1,0.6,1.6,1c0.4,0.3,0.8,0.5,1.2,0.8c1.2,0.8,2.3,1.7,3.4,2.6c0.5,0.4,1.1,0.7,1.6,1.1
		C656.7,278.7,663.2,261.6,662.3,242.1z M558.9,204.2c-0.7,0.3-1.3,0.7-2,1.1c-0.2,0.1-0.5,0.3-0.8,0.4c-0.6,0.3-1.2,0.7-1.8,1.1
		c-0.1,0-0.1,0-0.1,0.1c-0.7,0.4-1.3,0.8-1.9,1.2c-0.1,0.1-0.2,0.1-0.3,0.2c-0.5,0.3-0.9,0.6-1.4,0.9c0,0,0,0,0,0
		c-0.3,0.2-0.6,0.4-0.8,0.6c-0.4,0.3-0.8,0.6-1.2,0.9c-0.4,0.3-0.7,0.5-1.1,0.8c-0.4,0.3-0.7,0.5-1.1,0.8c-0.5,0.4-1,0.8-1.6,1.2
		c-0.5,0.4-0.9,0.8-1.3,1.1c-0.6,0.5-1.1,1-1.6,1.4c-0.3,0.3-0.7,0.7-1.1,1l-0.2,0.1c-0.2,0.1-0.3,0.2-0.5,0.3c-0.1,0-0.1,0-0.2,0.1
		c0,0,0,0-0.1,0c-0.1,0-0.2,0-0.3,0c-0.1,0-0.1,0-0.2,0c-0.1,0-0.2,0-0.2-0.1c-0.1,0-0.1,0-0.2-0.1c-0.2-0.1-0.4-0.2-0.7-0.5
		c-0.1-0.1-0.1-0.1-0.2-0.2s-0.1-0.2-0.2-0.2c0,0,0,0,0,0c-0.1-0.2-0.2-0.3-0.3-0.5c-0.1-0.2-0.2-0.4-0.2-0.6c0-0.1-0.1-0.2-0.1-0.3
		s0-0.2,0-0.3c0-0.1,0-0.2,0-0.4c0-0.1,0-0.1,0-0.2c0-0.1,0-0.2,0.1-0.3c0-0.1,0.1-0.2,0.1-0.2c0.1-0.4,0.4-0.7,0.6-1.1
		c0.1-0.1,0.2-0.2,0.2-0.3c0.2-0.3,0.5-0.5,0.7-0.8c0.2-0.2,0.3-0.4,0.5-0.6c0.1-0.1,0.1-0.1,0.2-0.2c0.3-0.4,0.7-0.7,1-1
		c0.3-0.3,0.7-0.6,1-0.9c0.2-0.2,0.5-0.4,0.7-0.6c0.3-0.3,0.7-0.6,1-0.9c0.3-0.2,0.5-0.4,0.8-0.6c0.2-0.2,0.4-0.3,0.7-0.5
		c0.2-0.2,0.4-0.3,0.7-0.5c0.2-0.2,0.4-0.3,0.7-0.5c0.3-0.2,0.7-0.4,1-0.6c0.8-0.5,1.5-0.9,2.3-1.3c0.2-0.1,0.5-0.3,0.8-0.4
		c0,0,0,0,0,0c0.5-0.2,1-0.5,1.4-0.7c0.3-0.2,0.7-0.3,1-0.5c0.2-0.1,0.3-0.2,0.4-0.3c0.1-0.1,0.3-0.2,0.4-0.2
		c0.1-0.1,0.2-0.1,0.3-0.2c0.2-0.1,0.3-0.3,0.5-0.4c0.1-0.1,0.2-0.2,0.2-0.2c0,0,0,0,0,0c0.1-0.2,0.3-0.3,0.4-0.5c0,0,0,0,0,0
		c0.1-0.2,0.2-0.4,0.3-0.5c0.1-0.2,0.1-0.4,0.2-0.5c0.2-1.2-0.3-2.6-1.2-4.4c-0.4-0.7-0.8-1.5-1.2-2.2c-0.8-1.4-1.5-2.9-2.3-4.3
		c-0.4-0.7-0.8-1.4-1.2-2.1c-0.4-0.8-0.8-1.5-1.3-2.2c-0.2-0.3-0.4-0.7-0.6-1c-0.2-0.3-0.4-0.6-0.6-1c-0.4-0.7-0.9-1.4-1.3-2.1
		c-0.2-0.4-0.4-0.7-0.7-1c-0.2-0.4-0.5-0.8-0.7-1.1c-0.3-0.5-0.7-1-1-1.5c-0.3-0.4-0.6-0.8-0.9-1.2c-0.2-0.3-0.5-0.7-0.7-1
		c0,0,0,0-0.1-0.1c-0.3-0.5-0.7-0.9-1.1-1.4c-0.9-1.1-1.8-2.2-2.8-3.3c-0.5-0.5-1-1.1-1.5-1.6s-1-1-1.6-1.6
		c-0.2-0.2-0.4-0.5-0.7-0.7c-0.1-0.1-0.2-0.2-0.3-0.3c-0.1-0.1-0.2-0.3-0.3-0.4c-0.1-0.1-0.1-0.2-0.2-0.3c-0.2-0.3-0.3-0.5-0.3-0.8
		c0-0.1,0-0.1,0-0.2c0-0.1,0-0.2,0-0.3c0-0.2,0-0.4,0.1-0.6c0-0.1,0.1-0.3,0.2-0.4c0.1-0.2,0.3-0.4,0.5-0.7h0
		c0.1-0.1,0.1-0.2,0.2-0.2c0.1-0.1,0.3-0.2,0.4-0.3c0,0,0.1,0,0.1-0.1c0.1-0.1,0.2-0.1,0.3-0.2c0.1,0,0.2-0.1,0.2-0.1
		c0.1,0,0.2,0,0.3-0.1c0,0,0,0,0.1,0c0.1,0,0.2,0,0.3,0c0.9,0,1.7,0.5,2.5,1.1c0.7,0.7,1.4,1.3,2.1,2c0.3,0.3,0.6,0.6,0.9,1
		c0.9,1,1.8,2,2.7,2.9c0.6,0.6,1.1,1.3,1.7,1.9c0.1,0.1,0.1,0.1,0.1,0.2c0.3,0.3,0.5,0.7,0.8,1s0.5,0.7,0.8,1c2.2,2.8,4.2,5.7,6,8.6
		c0.5,0.8,0.9,1.5,1.3,2.3c0.4,0.7,0.8,1.5,1.3,2.2c0,0,0.1,0.1,0.1,0.1c0.4,0.8,0.8,1.5,1.2,2.3c0.8,1.6,1.6,3.2,2.3,4.8
		c0.4,0.8,0.7,1.6,1.1,2.5c0.3,0.8,0.7,1.6,1,2.5c0.3,0.8,0.6,1.7,0.9,2.5c0,0.1,0.1,0.1,0.1,0.2c0,0.1,0,0.1,0,0.2
		c0,0.1,0,0.1,0,0.2c0,0.1,0,0.3,0,0.4C562.3,202,560.7,203.3,558.9,204.2z M630.3,259.3c-0.7,2.2-2.3,1.6-4.1,1.1
		c-6.6-2-13.1-1.7-19.4,1c-0.9,0.4-1.9,1-2.8,0.8c-0.1,0-0.3-0.1-0.4-0.2c-0.1-0.1-0.2-0.2-0.3-0.3c-0.1,0-0.1-0.1-0.1-0.2
		c-0.1-0.1-0.2-0.2-0.2-0.4c-0.2-0.4-0.3-0.8-0.3-1.2c0-0.1,0-0.2,0-0.3c0-0.1,0-0.2,0.1-0.3c0-0.1,0-0.1,0.1-0.2
		c0.1-0.3,0.3-0.5,0.5-0.8c0.1-0.1,0.1-0.1,0.2-0.2s0.1-0.1,0.2-0.2c0.2-0.2,0.4-0.3,0.6-0.5c0.1-0.1,0.3-0.2,0.4-0.3
		c0.1,0,0.1-0.1,0.2-0.1c4.1-2.5,8.7-3,13.4-2.9c3.2-0.2,6.3,0.3,9.3,1.1C629.5,255.9,631.1,257,630.3,259.3z"/>
	<path class="st4" d="M206.3,579.2c-15.6,22-41.3,30.7-68.3,17.8v0h0c-0.6-1.2-1.2-2.4-1.8-3.7c-0.4-0.9-0.9-1.8-1.3-2.8
		c-1.3-2.8-2.5-5.5-3.7-8.3c-0.7-1.6-1.4-3.3-2.1-4.9c-0.5-1.1-0.9-2.2-1.3-3.3c-0.9-2.2-1.7-4.4-2.5-6.7c-1.2-3.3-2.4-6.7-3.5-10.1
		c-0.7-2.2-1.4-4.5-2.1-6.8c-0.2-0.8-0.5-1.5-0.7-2.3c0-0.1,0-0.2-0.1-0.2c-0.2-0.7-0.4-1.3-0.6-2c-0.1-0.5-0.3-1-0.4-1.5
		c-0.1-0.5-0.3-1-0.4-1.6c-0.2-0.9-0.5-1.7-0.7-2.6c-0.6-2.3-1.1-4.6-1.6-6.9c-0.2-1.2-0.5-2.3-0.7-3.5c-2.8-13.9-4.4-28.1-4.6-42.7
		c4.7-8.5,10.3-16,18.1-22.2c19.5-15.3,49.5-14.5,69.7,6.6C224.4,499.7,228.5,547.7,206.3,579.2z"/>
	<path class="st5" d="M799.3,303.4c-3.2-31.2-14.7-58.7-35.6-82.2c-0.9-1-1.6-2.1-2.1-3.1v0c-0.2-0.4-0.3-0.8-0.4-1.2
		c-0.1-0.3-0.1-0.6-0.2-0.9c-0.1-0.7-0.1-1.5-0.1-2.3c0.8-9.6,1.4-19.3,0.9-28.9c0-1.1-0.1-2.1-0.1-3.2c-0.1-1.9-0.2-3.9-0.3-5.8
		c0-0.4-0.1-0.9-0.1-1.3c-0.1-0.8-0.1-1.6-0.2-2.5c0-0.5-0.1-1.1-0.1-1.6c-0.1-0.5-0.1-1-0.2-1.6c-0.1-0.5-0.1-1-0.2-1.5
		c-0.1-0.7-0.2-1.4-0.2-2.1c-0.1-0.6-0.2-1.2-0.2-1.9c-0.1-0.5-0.1-0.9-0.2-1.4c-0.1-0.9-0.3-1.8-0.4-2.6v0
		c-0.5-2.8-1.1-5.5-1.8-8.2v0c-0.6-2.3-1.3-4.5-2.1-6.8c-0.2-0.4-0.3-0.9-0.5-1.3c-0.2-0.4-0.3-0.9-0.5-1.3
		c-0.2-0.4-0.4-0.9-0.6-1.3c-0.5-1.2-1-2.2-1.5-3.2c-0.2-0.3-0.3-0.6-0.5-0.9c-0.2-0.4-0.5-0.8-0.7-1.2c-0.6-0.9-1.2-1.7-1.8-2.3
		c-0.2-0.3-0.5-0.5-0.8-0.7c-0.1-0.1-0.2-0.2-0.4-0.3c-0.1-0.1-0.3-0.2-0.4-0.3c-0.3-0.2-0.5-0.4-0.8-0.6c-0.1-0.1-0.3-0.2-0.4-0.2
		c-0.1-0.1-0.3-0.1-0.4-0.2c-0.1-0.1-0.3-0.1-0.4-0.2c-0.4-0.2-0.9-0.3-1.3-0.5c-0.3-0.1-0.6-0.1-0.9-0.2c-0.8-0.1-1.7-0.2-2.7-0.1
		c-0.2,0-0.5,0-0.7,0.1c-0.1,0-0.2,0-0.3,0c-0.2,0-0.3,0-0.5,0.1c-0.1,0-0.3,0-0.4,0.1c-0.1,0-0.3,0-0.4,0.1c-0.1,0-0.3,0.1-0.4,0.1
		c-0.2,0-0.3,0.1-0.5,0.1c-0.2,0-0.3,0.1-0.5,0.1c-0.2,0.1-0.5,0.1-0.7,0.2c-0.6,0.2-1.2,0.4-1.8,0.6c-0.9,0.3-1.8,0.7-2.7,1.1
		c-0.5,0.2-1.1,0.5-1.6,0.7c-1,0.5-2,1-3,1.5c-0.5,0.3-1,0.6-1.5,0.9c-1,0.6-1.9,1.2-2.8,1.8c0,0,0,0,0,0c-0.7,0.5-1.4,0.9-2.1,1.4
		c-1.4,1-2.7,2-4,3c-0.7,0.5-1.3,1.1-1.9,1.6c-1.7,1.4-3.4,2.9-5.1,4.4c-1.2,1-2.3,2-3.4,3.1c-1.1,1-2.2,2.1-3.3,3.2
		c-5.2,5.1-10,10.5-14.5,16.3c-0.8,1-1.5,1.9-2.2,2.9c-0.5,0.6-0.9,1.3-1.4,1.9c0,0,0,0,0,0c0.8,0.3,1.6,0.6,2.5,0.9
		c0.8,0.3,1.7,0.5,2.5,0.8c0.6,0.2,1.1,0.3,1.6,0.5c0.5,0.2,1.1,0.3,1.6,0.5c0.5,0.2,1.1,0.4,1.6,0.5c0.5,0.2,1,0.4,1.6,0.6
		c0.5,0.2,1,0.4,1.5,0.7c0,0,0,0,0,0c1.3,0.6,2.6,1.4,3.7,2.2c0.5,0.4,0.9,0.7,1.4,1.1c0.2,0.2,0.4,0.4,0.7,0.6c0.3,0,0.5,0,0.8,0
		c0.1,0,0.2,0,0.4,0c0,0,0,0,0,0c0.2,0,0.3,0,0.5,0c0.2,0,0.3,0,0.5,0.1c0.1,0,0.1,0,0.1,0c0.1,0,0.2,0,0.3,0.1
		c0.2,0,0.4,0.1,0.5,0.1c0.2,0.1,0.5,0.1,0.7,0.2c0.2,0.1,0.4,0.2,0.6,0.3c0.2,0.1,0.4,0.2,0.6,0.3h0c0.4,0.2,0.8,0.5,1.1,0.8
		c0.2,0.2,0.4,0.3,0.5,0.5s0.3,0.4,0.5,0.5c0.2,0.2,0.3,0.4,0.5,0.6c0.3,0.4,0.6,0.9,0.9,1.3c0.1,0.2,0.3,0.5,0.4,0.7
		s0.3,0.5,0.4,0.8c4.5,9,10.2,17.4,13.4,27.1c1.4,4.4,3.1,8.8,2.4,13.5c-0.2,1.2-0.4,2.5-1,3.5c-0.1,0.1-0.1,0.3-0.2,0.4
		c-0.1,0.1-0.2,0.3-0.3,0.4c-0.1,0.1-0.2,0.2-0.3,0.3c-0.1,0.1-0.2,0.2-0.3,0.3c-0.1,0.1-0.2,0.2-0.4,0.3c-0.1,0.1-0.3,0.2-0.4,0.2
		c-0.2,0.1-0.3,0.1-0.5,0.2c-0.2,0-0.3,0.1-0.5,0.1c-0.8,0.2-1.6,0.3-2.4,0.2c-0.1,0-0.2,0-0.3,0c-0.2,0-0.3,0-0.4,0
		c-0.2,0-0.4-0.1-0.6-0.1c-0.7-0.2-1.3-0.4-1.9-0.8c-0.2-0.1-0.5-0.3-0.7-0.5c-0.2-0.2-0.5-0.4-0.7-0.6c-0.2-0.2-0.3-0.3-0.5-0.5
		c-0.2-0.2-0.3-0.4-0.4-0.5c-1.3-1.7-2.6-3.5-3.4-5.5c-5.8-15.7-13.7-30.1-25.4-42.3c-0.5-0.5-0.7-1.5-1-2.2
		c-1.1-0.5-2.3-0.9-3.4-1.3c-2.1-0.6-4.3-0.9-6.5-0.9c1.5,1.3,2.9,2.6,4.2,4c0.3,0.3,0.7,0.7,1,1c0.7,0.7,1.3,1.4,1.9,2.1
		c2.8,3.2,5.4,6.6,7.7,10.1c0.5,0.8,1,1.6,1.5,2.4c0.2,0.4,0.5,0.8,0.7,1.2c0.5,0.8,0.9,1.6,1.3,2.5c0.6,1.1,1.2,2.3,1.7,3.5
		c1,2.2,1.9,4.5,2.7,6.9c0.5,1.4,0.9,2.8,1.4,4.3c0.1,0.4,0.2,0.9,0.3,1.3c0.1,0.5,0.2,0.9,0.3,1.3c0.1,0.4,0.2,0.9,0.4,1.3
		s0.3,0.9,0.5,1.2c2.6,5.5,1.4,10.3-2.7,14.5c7.7,16.9,18.1,31.9,32,44.5c1.4-1,2.8-2.1,4.1-3.2c0.7-0.5,1.4-1,2.1-1.5
		c0.4-0.2,0.7-0.5,1.1-0.7c0.2-0.1,0.4-0.2,0.6-0.3c0.2-0.1,0.4-0.2,0.6-0.3c6.6-3.3,12.7-4.3,18.2-3.7c0.2,0,0.3,0,0.5,0.1
		c0.6,0.1,1.2,0.2,1.8,0.3c1,0.2,2,0.4,2.9,0.7c0.2,0,0.3,0.1,0.4,0.1c0.4,0.1,0.8,0.2,1.2,0.4c1.1,0.4,2.2,0.9,3.2,1.4c0,0,0,0,0,0
		c0.5,0.3,1,0.5,1.6,0.8c0.5,0.3,1,0.6,1.5,0.9c0.7,0.4,1.3,0.9,1.9,1.4c0.6,0.5,1.2,1,1.8,1.5c0,0,0,0,0,0c0.6,0.5,1.2,1,1.7,1.6
		c1.4,1.4,2.7,2.8,3.8,4.3c0.4,0.5,0.8,1.1,1.2,1.6c1.1,1.6,2.1,3.3,2.9,5c0.9,1.9,1.7,3.8,2.4,5.7c0.1,0.3,0.2,0.6,0.3,0.9
		c0.5,1.5,0.9,2.9,1.2,4.4c0.2,1.1,0.4,2.2,0.6,3.3c0.5,3.1,0.6,6.3,0.4,9.5c-0.1,0.9-0.1,1.8-0.2,2.6c0,0,0,0,0,0
		c-0.1,0.9-0.2,1.8-0.4,2.6c0,0,0,0,0,0c-0.1,0.9-0.3,1.8-0.5,2.6c-0.1,0.5-0.2,0.9-0.3,1.4c-0.2,0.9-0.4,1.8-0.7,2.6c0,0,0,0,0,0
		c-0.6,2.2-1.4,4.5-2.3,6.7c3.4,2.9,7.6,4.5,11.8,6C800.3,329.2,800.7,316.4,799.3,303.4z M718.7,190.6c-0.2-0.1-0.3-0.3-0.5-0.4
		c-0.2-0.2-0.3-0.4-0.4-0.6c0-0.1-0.1-0.1-0.1-0.2c0,0-0.1-0.1-0.1-0.1c0-0.1-0.1-0.1-0.1-0.2c0-0.1-0.1-0.3-0.1-0.4
		c0-0.1,0-0.3-0.1-0.5c0-0.1,0-0.2,0-0.3c0-0.1,0-0.2,0-0.4c0-0.1,0-0.2,0-0.3c0-0.1,0-0.1,0-0.2c0-0.1,0.1-0.3,0.1-0.4
		s0.1-0.3,0.1-0.4c0.2-0.7,0.4-1.4,0.6-2c0.1-0.3,0.2-0.7,0.3-1c0.1-0.3,0.2-0.7,0.3-1c0.2-0.8,0.5-1.5,0.7-2.3
		c0.3-0.8,0.5-1.6,0.8-2.5c0.2-0.7,0.5-1.5,0.8-2.2c0.2-0.6,0.5-1.3,0.7-2c0.1-0.1,0.1-0.3,0.2-0.5c0.2-0.5,0.4-1.1,0.6-1.6
		c0.2-0.4,0.3-0.7,0.5-1.1c0.4-1,0.8-1.9,1.2-2.8c0.1-0.3,0.2-0.5,0.4-0.8c0.6-1.2,1.1-2.4,1.7-3.5c0.2-0.5,0.5-0.9,0.7-1.4
		c0.2-0.4,0.4-0.8,0.7-1.2c0.2-0.4,0.5-0.8,0.7-1.2c0.2-0.3,0.3-0.5,0.5-0.8c0.1-0.1,0.1-0.2,0.2-0.2c0.3-0.5,0.6-1,0.9-1.5
		c0.4-0.6,0.8-1.3,1.3-1.9c0.4-0.6,0.9-1.3,1.3-1.9c0.3-0.4,0.6-0.8,0.9-1.2c0.2-0.2,0.3-0.4,0.5-0.5c0.2-0.2,0.4-0.3,0.6-0.5
		c0.2-0.1,0.4-0.3,0.6-0.4s0.4-0.2,0.7-0.4c0.2-0.1,0.5-0.2,0.7-0.3s0.5-0.1,0.8-0.2c0.6,0.2,1,0.4,1.4,0.7c0.1,0,0.1,0.1,0.2,0.1
		c0.1,0,0.1,0.1,0.1,0.1c0.2,0.2,0.3,0.4,0.4,0.6v0c0.2,0.5,0.2,1.1-0.1,1.7c-0.1,0.1-0.1,0.2-0.2,0.4c0,0.1-0.1,0.1-0.1,0.2
		c0,0.1-0.1,0.1-0.2,0.2c-0.1,0.2-0.2,0.3-0.4,0.5c-0.3,0.3-0.5,0.7-0.8,1c-0.2,0.2-0.3,0.5-0.5,0.7c-0.4,0.6-0.8,1.2-1.2,1.8
		c-0.2,0.3-0.4,0.6-0.6,0.9c-0.2,0.3-0.4,0.6-0.6,1c-0.2,0.3-0.3,0.6-0.5,0.9c-0.3,0.6-0.7,1.1-1,1.7c-0.3,0.6-0.6,1.1-0.9,1.7
		c-0.3,0.5-0.5,1-0.8,1.5c-0.3,0.7-0.7,1.4-1,2.1c-0.3,0.7-0.6,1.4-0.9,2.1c-0.3,0.7-0.6,1.4-0.9,2.1c-0.3,0.7-0.6,1.4-0.8,2.1
		c-0.2,0.5-0.4,1.1-0.6,1.6c-0.4,1.1-0.8,2.1-1.2,3.2c-0.1,0.3-0.2,0.6-0.3,0.9c-0.7,2-1.2,3.4-1.5,4.5c-0.1,0.2-0.1,0.4-0.1,0.6
		c0,0.1,0,0.3-0.1,0.4c0,0.1,0,0.3,0,0.4c0,0.1,0,0.3,0,0.4c0,0,0,0,0,0.1c0,0.1,0,0.2,0.1,0.3c0,0,0,0.1,0,0.1
		c0,0.1,0.1,0.2,0.1,0.2c0,0.1,0.1,0.2,0.1,0.3s0.1,0.2,0.2,0.3c0.1,0.1,0.2,0.3,0.4,0.4c0,0,0.1,0,0.1,0.1c0.3,0.3,0.7,0.6,1.2,0.9
		c0.6,0.4,1.4,0.8,2.3,1.3c0.5,0.2,0.9,0.5,1.5,0.8c2.1,1.1,4,2.4,5.9,3.7c0.2,0.1,0.4,0.3,0.5,0.4c0.1,0.1,0.3,0.3,0.4,0.4
		c0.1,0.1,0.1,0.2,0.2,0.2c0.1,0.1,0.1,0.2,0.2,0.3c0.1,0.2,0.1,0.4,0.1,0.6c0,0.4-0.2,0.9-0.5,1.4c-0.1,0.2-0.3,0.3-0.4,0.5
		c-0.1,0-0.1,0.1-0.2,0.1c-0.1,0-0.1,0.1-0.2,0.1c-0.1,0-0.1,0-0.2,0.1c-0.1,0-0.1,0-0.2,0.1c-0.6,0.2-1.3,0.1-2-0.3
		c-4.8-2.3-9.6-4.5-14.4-6.9c-0.1,0-0.2-0.1-0.3-0.2C718.9,190.7,718.8,190.7,718.7,190.6z M737.8,252.1c-0.2,0.1-0.5,0.2-0.7,0.3
		c-0.1,0-0.2,0.1-0.4,0.1s-0.2,0.1-0.4,0.1c-0.2,0-0.4,0.1-0.6,0c-0.1,0-0.1,0-0.1,0c-0.1,0-0.1,0-0.2-0.1c-0.1,0-0.1,0-0.2-0.1
		c-0.1-0.1-0.3-0.2-0.4-0.3c-0.1,0-0.1-0.1-0.1-0.2c-0.1,0-0.1-0.1-0.1-0.2c0-0.1-0.1-0.1-0.1-0.2c-0.8-1.6,0.3-2.5,1.4-3.2
		c0.2-0.1,0.4-0.3,0.6-0.4c0.3-0.2,0.7-0.4,1-0.6s0.7-0.4,1-0.5c0.3-0.2,0.7-0.3,1-0.5c0.3-0.1,0.7-0.3,1-0.4
		c0.3-0.1,0.5-0.2,0.8-0.3c0.3-0.1,0.5-0.2,0.8-0.2c0.3-0.1,0.6-0.1,0.8-0.2c0.8-0.2,1.6-0.3,2.5-0.4c0.2,0,0.4,0,0.7,0
		c0.4,0,0.9,0,1.3,0c1.2,0.1,2.3,0.1,3.4,0.3c0.2,0,0.4,0.1,0.6,0.1c0.2,0,0.4,0.1,0.6,0.2c0.1,0,0.2,0.1,0.3,0.1
		c0.1,0,0.3,0.1,0.4,0.2c0.1,0,0.2,0.1,0.4,0.2c0.7,0.4,1.1,1,1,2c0,0.1,0,0.1,0,0.2c-0.3,2.3-2.2,2-3.9,1.7
		C745.8,248.9,741.7,250.2,737.8,252.1z"/>
	<path class="st3" d="M24.6,156.1c3.7-17.1,5.9-34.4,5.1-52c12-3.3,23.6-8.2,36-10.3c7.9-1.3,15.8-3.4,22.6-8
		c2.8,10.8,2.5,21.7,1.6,32.6c-1.1,14-3.3,28-6.9,41.6c-1.7-0.5-3.6-0.9-5.2-1.6c-15.4-7.5-31.2-8.7-47.5-3.4
		C28.5,155.6,26.5,155.7,24.6,156.1z"/>
	<path class="st5" d="M17.3,268c-3.5-17.6-4.5-35.3-3.2-53.1c0.4-5.3,1.4-10.5,2.2-15.8c1.9,0.1,3.5-0.5,5.3-1.2
		c16.1-7.1,32.5-8.2,49.3-2.5c1.4,0.5,2.9,0.5,4.4,0.7c-0.8,11.9-2.7,23.6-2.1,35.6c0.2,4.8,0.6,9.6,0.9,14.3
		c-13.7-0.7-26.5,2-38.7,8.4C28.5,258,23.2,263.3,17.3,268z"/>
	<path class="st4" d="M82.2,281c5.6,13.1,12.4,25.5,21.1,36.8c-0.8,1.9-2.6,2.4-4.2,3.2c-13.4,7-23.1,17.4-28.8,31.5
		c-1.5,3.8-1.7,8.1-4.2,11.5c-15.1-15.5-26.8-33.3-35.3-53.1c-0.4-0.9-0.4-1.9-0.6-2.9c1.7,0.1,2.1-1.4,3-2.3
		c9.8-11.4,21.4-19.7,36.6-22.3C73.8,282.6,78,281.8,82.2,281z"/>
	<path class="st5" d="M21.9,68.7C17,58.4,11.1,48.5,8.4,37.3c-3.3-14,3.5-26,15.9-28.8c6.7-1.5,13.4-0.4,19.3,2.9
		c12.5,7,22,17,28.8,29.6c-4.2,1.8-4.6,6.9-8.6,9.4c-8.3,5.1-17.5,7.9-26.3,11.6C32.3,64.1,26.3,64.7,21.9,68.7z"/>
	<path class="st6" d="M21.9,68.7c4.4-4.1,10.4-4.6,15.6-6.8c8.9-3.6,18.1-6.4,26.3-11.6c3.9-2.4,4.3-7.6,8.6-9.4
		c8.9,13.6,14.3,28.5,15.8,44.8c-6.8,4.6-14.7,6.7-22.6,8c-12.5,2.1-24,7-36,10.3C28.6,92,25.7,80.3,21.9,68.7z"/>
	<path class="st6" d="M75.2,196c-1.5-0.2-3-0.2-4.4-0.7c-16.8-5.7-33.2-4.5-49.3,2.5c-1.7,0.8-3.4,1.3-5.3,1.2
		c0.5-11.2,3.8-22,6-32.9c0.7-3.4,1.5-6.7,2.3-10.1c1.9-0.4,4-0.5,5.8-1.1c16.3-5.3,32.1-4.1,47.5,3.4c1.6,0.8,3.4,1.1,5.2,1.6
		c-2.6,10.9-5,21.8-6.9,32.8C76,193.9,75.5,195,75.2,196z"/>
	<path class="st6" d="M82.2,281c-4.2,0.8-8.4,1.6-12.6,2.4c-15.1,2.6-26.8,10.9-36.6,22.3c-0.8,1-1.3,2.4-3,2.3
		c-5.5-9.6-8-20.3-10.9-30.9c-0.8-3-1.3-6.1-1.9-9.2c5.9-4.7,11.2-10,18-13.6c12.2-6.4,25-9.1,38.7-8.4
		C75.2,258,78.2,269.6,82.2,281z"/>
	<path class="st6" d="M66.1,364.1c2.6-3.4,2.7-7.7,4.2-11.5c5.7-14.1,15.4-24.5,28.8-31.5c1.6-0.8,3.5-1.3,4.2-3.2
		c7.1,8.6,15.2,16.2,24,23c-7.1,3-12.5,8.3-17.3,13.9c-8.5,9.8-14.5,21-14.9,34.4C84.4,381.9,74.4,373.9,66.1,364.1z"/>
	<path class="st5" d="M95.1,389.1c0.5-13.4,6.4-24.5,14.9-34.4c4.9-5.6,10.2-10.9,17.3-13.9c5.5,3.3,11,6.8,16.7,9.9
		c2.1,1.2,2.8,1.9,0.8,3.9c-12.5,12.5-21.7,27.2-28.5,43.4c-1,2.4-1.9,2.9-4.3,1.5C106.2,396.2,100.2,393.4,95.1,389.1z"/>
	<path class="st7" d="M662.3,242.1C662.3,242.1,662.3,242.1,662.3,242.1c-6.5,0-11.1-2.6-14.6-8.4c-0.3-0.5-0.6-1-0.9-1.5
		c-0.3-0.5-0.6-1-0.8-1.5c-0.8-1.5-1.6-3.1-2.2-4.7c0,0,0,0,0,0c-1.2-2.6-2.2-5.3-3.3-8c-0.4-1.1-0.9-2.1-1.4-3.2
		c-0.5-1.1-0.9-2.1-1.5-3.1c0,0,0,0,0,0c-0.5-1-1.1-2.1-1.6-3.1c-1.3-2.3-2.6-4.5-4.1-6.6c-0.6-0.9-1.1-1.7-1.7-2.5
		c-0.6-0.8-1.2-1.6-1.8-2.4c-0.6-0.8-1.2-1.6-1.9-2.4c-1-1.1-1.9-2.3-3-3.4c-0.3-0.4-0.7-0.7-1-1.1c-0.4-0.4-0.8-0.8-1.2-1.2
		c-1.9-1.9-4-3.7-6.1-5.5c-0.1,0-0.1-0.1-0.2-0.2c-0.2-0.2-0.3-0.4-0.4-0.6v0c-0.2-0.3-0.3-0.6-0.5-0.9h0c8.1-2.5,16.5-3.1,24.9-2.9
		c15.1,15.2,24.1,33.4,26.3,54.8C665.6,236.9,665.4,240.1,662.3,242.1z"/>
	<path class="st8" d="M495.7,262c6.4,4.7,13.6,7.5,21.1,9.7c5.8,1.7,11.1,4.3,16.4,7.2c4,2.2,6.7,5.1,6.7,9.7c0,4.2-4.4,9-9.2,10
		c-10.6,2.2-21,1.9-31.4-1.5c-4.2-1.3-8.3-3.5-12.9-3C488.4,283.1,490.7,272.2,495.7,262z"/>
	<path class="st8" d="M607.9,182.9c12.1,13.6,20.3,29.3,25.2,46.8c0.4,1.6,0.9,3.2,0.9,4.8c0,4-1.2,7.8-5.5,9.1
		c-4.2,1.3-7.8-0.4-10.5-3.8c-2.9-3.9-4.9-8.3-6.8-12.7c-3.9-9.2-8.5-18-14.6-25.9c-2.4-3.2-3.2-6.5-2.6-10.2c4.1,1.2,7.1,0.9,6-4.6
		c-0.3-1.6,0.7-2,1.9-2.2C604,183.7,606,183.3,607.9,182.9z"/>
	<path class="st7" d="M700.1,238.7c-5.9,0.2-9-3.4-11.2-8.2c-6.1-12.7-13.2-24.8-21.6-36.2c-4.2-5.6-9.2-10.4-14.1-15.3
		c0.5,0,1-0.1,1.5-0.1c7.6-0.4,15.1,0.2,22.5,2.1h0c1.5,1.3,2.9,2.6,4.2,4c0.3,0.3,0.7,0.7,1,1c0.7,0.7,1.3,1.4,1.9,2.1
		c2.8,3.2,5.4,6.6,7.7,10.1c0.5,0.8,1,1.6,1.5,2.4c0.2,0.4,0.5,0.8,0.7,1.2c0.5,0.8,0.9,1.6,1.3,2.5c0.6,1.1,1.2,2.3,1.7,3.5
		c1,2.2,1.9,4.5,2.7,6.9c0.5,1.4,0.9,2.8,1.4,4.3c0.1,0.4,0.2,0.9,0.3,1.3c0.1,0.5,0.2,0.9,0.3,1.3c0.1,0.4,0.2,0.9,0.4,1.3
		c0.1,0.4,0.3,0.9,0.5,1.2C705.3,229.7,704.2,234.5,700.1,238.7z"/>
	<path class="st8" d="M703.5,182.9c4.7,0,7.3,2.2,9.4,6.5c4.5,9,10.2,17.4,13.4,27.1c1.4,4.4,3.1,8.8,2.4,13.5c-0.3,2.4-1,5.1-4,5.8
		c-3.2,0.8-6-0.2-8-2.8c-1.3-1.7-2.6-3.5-3.4-5.5c-5.8-15.7-13.7-30.1-25.4-42.3c-0.5-0.5-0.7-1.5-1-2.2c3.4-0.6,6.4,1,9.5,2.1
		C699.8,186.3,701.8,185.5,703.5,182.9z"/>
	<path class="st9" d="M645.3,294.2c-0.6-0.4-1.1-0.7-1.6-1.1c-1.1-0.9-2.3-1.8-3.4-2.6c-0.4-0.3-0.8-0.5-1.2-0.8
		c-0.5-0.3-1.1-0.7-1.6-1c-0.3-0.2-0.6-0.4-0.9-0.5c-1.7-0.9-3.3-1.7-5.1-2.3c-0.6-0.2-1.2-0.4-1.7-0.6c-7.7-2.5-15.8-2.9-23.5-1
		c-0.7,0.2-1.5,0.4-2.2,0.6h0c-0.7,0.2-1.4,0.5-2.2,0.7c-0.4,0.1-0.7,0.3-1.1,0.4c-0.7,0.3-1.4,0.6-2.1,0.9c-0.7,0.3-1.4,0.7-2.1,1
		c-1,0.5-2,1.1-3,1.7c-0.3,0.2-0.7,0.4-1,0.6c-0.6,0.4-1.1,0.8-1.7,1.2c-1.1,0.8-2.2,1.7-3.2,2.6c-0.5,0.5-1,1-1.5,1.5
		c-0.8,0.9-1.7,1.8-2.5,2.7c-14.1,16.8-16.8,40.9-1.4,61.2c0.6,0.6,1.2,1.1,1.8,1.7c20.6,21.4,58.2,15.1,70.7-11.8
		C664,329.7,660.8,311.3,645.3,294.2z M649.8,315.1c-0.5-0.2-0.9-0.3-1.4-0.5c-1.9-0.7-3.7-1.5-5.5-1.9c-0.4-0.1-0.9-0.2-1.3-0.3
		c-0.4-0.1-0.9-0.1-1.4-0.2c-0.2,0-0.4,0-0.7,0c-1.4,0-2.7,0.1-4.1,0.4c-0.8,0.2-1.5,0.4-2.2,0.6c-0.2,0.1-0.5,0.2-0.7,0.3
		c-0.5,0.2-1,0.4-1.4,0.6c-0.2,0.1-0.5,0.2-0.7,0.4c-0.2,0.1-0.4,0.2-0.6,0.3c-0.2,0.1-0.4,0.2-0.6,0.4c-0.2,0.1-0.5,0.3-0.7,0.5
		c-0.1,0.1-0.3,0.2-0.4,0.3c-0.2,0.1-0.4,0.3-0.6,0.4c-0.6,0.4-1.1,0.8-1.6,1.3c-0.5,0.4-0.9,0.8-1.4,1.2c-0.1,0.1-0.3,0.3-0.4,0.4
		c-0.3,0.3-0.6,0.6-0.8,0.9c-0.2,0.3-0.5,0.5-0.7,0.8c-0.1,0.1-0.1,0.1-0.2,0.2c-0.2,0.3-0.5,0.6-0.7,0.9c-0.1,0.1-0.2,0.3-0.3,0.4
		c-0.4,0.5-0.7,1-1,1.5c-0.2,0.4-0.4,0.7-0.7,1.1c-0.3,0.6-0.7,1.2-0.9,1.8c-0.1,0.2-0.2,0.5-0.3,0.7c-0.2,0.4-0.4,0.9-0.5,1.3
		c-0.1,0.2-0.2,0.4-0.2,0.7c-0.1,0.2-0.2,0.4-0.2,0.7c-0.1,0.3-0.2,0.5-0.2,0.8c-0.1,0.3-0.2,0.5-0.2,0.8c-0.1,0.6-0.3,1.1-0.4,1.7
		c0,0.2-0.1,0.4-0.1,0.6c0,0.2-0.1,0.3-0.1,0.5c-0.1,0.4-0.1,0.8-0.2,1.2c0,0.3-0.1,0.6-0.1,0.9c0,0.4-0.1,0.8-0.1,1.2
		c0,0.1,0,0.2,0,0.3c0,0.2,0,0.5-0.1,0.7c0,0.4,0,0.7-0.1,1c0,0.1,0,0.2,0,0.4c0,0.2,0,0.5,0,0.8c0,0.5,0,0.9,0,1.4
		c0,0.4,0,0.8,0.1,1.2c0.1,1.6,0.4,3.1,0.8,4.6c0,0.1,0.1,0.3,0.1,0.4c0.2,0.7,0.5,1.5,0.8,2.2c0.1,0.2,0.2,0.5,0.3,0.8
		c0.1,0.3,0.2,0.5,0.4,0.8s0.3,0.5,0.4,0.8c0.1,0.3,0.3,0.5,0.4,0.8c0.2,0.3,0.3,0.5,0.5,0.8c0.3,0.4,0.6,0.9,0.9,1.3c0,0,0,0,0,0
		c0.3,0.4,0.7,0.8,1,1.2c0.3,0.4,0.7,0.8,1.1,1.2c0.5,0.5,1.1,1,1.6,1.5c0.6,0.5,1.2,1,1.8,1.4c0.4,0.3,0.9,0.6,1.3,0.9
		c0.5,0.3,0.9,0.7,1.4,1.1c0,0,0,0,0,0c0.2,0.1,0.3,0.3,0.5,0.4c0,0,0,0,0,0c-0.3,0.1-0.5,0.3-0.8,0.4c-0.5,0.3-1.1,0.5-1.6,0.8
		c-0.3,0.1-0.6,0.2-0.8,0.4c-0.6,0.2-1.1,0.4-1.7,0.6c-0.2,0.1-0.4,0.1-0.5,0.2c-0.2,0-0.4,0.1-0.6,0.2c-0.4,0.1-0.7,0.2-1.1,0.3
		c-0.7,0.2-1.5,0.3-2.2,0.4c-0.4,0-0.8,0.1-1.1,0.1c-0.4,0-0.8,0.1-1.2,0.1c-1.7,0.1-3.4,0.1-5.2,0c-0.5,0-1-0.1-1.4-0.1
		c-0.7-0.1-1.4-0.2-2.1-0.3c-0.3-0.1-0.7-0.1-1-0.2c-0.5-0.1-1.1-0.2-1.6-0.4c-0.4-0.1-0.8-0.2-1.1-0.3c-0.4-0.1-0.9-0.3-1.3-0.4
		c-0.4-0.1-0.8-0.2-1.2-0.4c-0.3-0.1-0.7-0.3-1-0.4c-0.3-0.1-0.7-0.3-1-0.4c-0.3-0.1-0.7-0.3-1-0.4c-0.7-0.3-1.3-0.6-1.9-1
		c-0.6-0.3-1.3-0.7-1.9-1.1c-0.1,0-0.1,0-0.2-0.1c-0.3-0.2-0.6-0.3-0.8-0.5c-0.3-0.2-0.6-0.4-0.8-0.6c-0.6-0.4-1.2-0.8-1.8-1.3
		c-0.3-0.2-0.6-0.5-0.9-0.7c-0.2-0.2-0.4-0.4-0.7-0.6c-0.3-0.2-0.6-0.5-0.9-0.8c-0.3-0.2-0.5-0.5-0.8-0.8c-0.2-0.2-0.5-0.5-0.8-0.8
		c-0.2-0.2-0.5-0.5-0.7-0.8c-0.7-0.8-1.4-1.7-2-2.5c-0.9-1.3-1.8-2.7-2.5-4.2c-3.2-6.5-4.5-13.4-4.3-20c0-0.4,0-0.7,0.1-1.1
		c0-0.2,0-0.5,0.1-0.7c0-0.3,0-0.5,0.1-0.8c0-0.3,0.1-0.5,0.1-0.8c0.1-1.1,0.3-2.2,0.5-3.3s0.5-2.1,0.8-3.2c0.2-0.5,0.3-1,0.5-1.6
		c0.1-0.3,0.2-0.7,0.3-1c0.1-0.3,0.2-0.6,0.3-0.9c0-0.1,0.1-0.2,0.1-0.2c0.1-0.3,0.2-0.6,0.3-0.8c0.3-0.6,0.6-1.3,0.9-1.9
		c0.2-0.3,0.3-0.6,0.5-0.9c0.3-0.6,0.7-1.2,1-1.8l0.5-0.9c0.2-0.3,0.4-0.6,0.6-0.9c0.2-0.2,0.3-0.5,0.5-0.7c0.2-0.3,0.5-0.7,0.7-1
		c0.2-0.3,0.4-0.5,0.6-0.8c0.4-0.6,0.9-1.1,1.3-1.6c0.2-0.2,0.4-0.4,0.6-0.6c0.3-0.3,0.6-0.6,0.8-0.9c0.6-0.6,1.2-1.3,1.9-1.9
		c0.3-0.3,0.7-0.6,1.1-1c0.4-0.3,0.8-0.6,1.1-0.9c0.7-0.6,1.5-1.1,2.2-1.6c0.4-0.3,0.8-0.5,1.2-0.8c0.3-0.2,0.6-0.3,0.8-0.5
		c0.3-0.2,0.6-0.3,0.8-0.5c0.3-0.2,0.6-0.3,0.9-0.5c0.3-0.1,0.5-0.3,0.8-0.4c0.8-0.4,1.6-0.8,2.5-1.1l0,0c0.5-0.2,1.1-0.4,1.6-0.6
		c0.3-0.1,0.6-0.2,0.8-0.3c0.3-0.1,0.6-0.2,0.8-0.3c0.6-0.2,1.1-0.3,1.7-0.5c0.6-0.1,1.1-0.3,1.7-0.4c2.2-0.4,4.5-0.6,6.7-0.6
		c0.4,0,0.7,0,1.1,0c1,0,2,0.1,3,0.2c0.9,0.1,1.8,0.3,2.7,0.4c0.4,0.1,0.7,0.2,1.1,0.2c0.2,0,0.4,0.1,0.7,0.2
		c0.6,0.1,1.2,0.3,1.8,0.5c0.2,0.1,0.4,0.1,0.7,0.2c0.7,0.2,1.4,0.5,2.1,0.8c0.2,0.1,0.4,0.2,0.6,0.2c0.6,0.2,1.2,0.5,1.8,0.8
		c0.4,0.2,0.8,0.4,1.3,0.7c0.4,0.2,0.9,0.5,1.3,0.8c0.2,0.1,0.3,0.2,0.5,0.3c0.7,0.4,1.4,0.9,2,1.4c0.8,0.5,1.5,1.1,2.2,1.7
		c1.3,1.1,2.6,2.4,3.8,3.7c0.2,0.2,0.4,0.5,0.6,0.7c0.2,0.3,0.5,0.6,0.7,0.9c0.1,0.2,0.2,0.3,0.4,0.5c0,0,0.1,0.1,0.1,0.1
		c0.2,0.2,0.4,0.5,0.6,0.8c0.2,0.3,0.4,0.6,0.6,0.9c0.1,0.2,0.2,0.4,0.3,0.5c0.2,0.3,0.4,0.6,0.5,0.9c0.5,0.9,1,1.8,1.5,2.7
		c0.1,0.2,0.2,0.4,0.3,0.6c0.1,0.1,0.1,0.2,0.1,0.3c0.2,0.3,0.3,0.6,0.4,1c0,0.1,0.1,0.1,0.1,0.2c0.1,0.1,0.1,0.3,0.2,0.4
		c0.1,0.2,0.2,0.5,0.3,0.7c0.1,0.2,0.2,0.4,0.2,0.6c0.2,0.4,0.3,0.9,0.4,1.3C650.3,315.2,650.1,315.1,649.8,315.1z"/>
	<path class="st9" d="M789.5,307.8c-0.2-1.1-0.4-2.2-0.6-3.3c-0.3-1.5-0.7-3-1.2-4.4c-0.1-0.3-0.2-0.6-0.3-0.9
		c-0.7-1.9-1.4-3.8-2.4-5.7c-0.8-1.7-1.8-3.4-2.9-5c-0.4-0.5-0.8-1.1-1.2-1.6c-1.1-1.5-2.4-3-3.8-4.3c-0.6-0.5-1.1-1-1.7-1.6
		c0,0,0,0,0,0c-0.6-0.5-1.2-1-1.8-1.5c-0.6-0.5-1.3-0.9-1.9-1.4c-0.5-0.3-1-0.6-1.5-0.9c-0.5-0.3-1-0.6-1.6-0.8c0,0,0,0,0,0
		c-1-0.5-2.1-1-3.2-1.4c-0.4-0.1-0.8-0.3-1.2-0.4c-0.1,0-0.3-0.1-0.4-0.1c-1-0.3-1.9-0.5-2.9-0.7c-0.6-0.1-1.2-0.2-1.8-0.3
		c-0.2,0-0.3,0-0.5-0.1c-5.5-0.6-11.6,0.4-18.2,3.7c-0.2,0.1-0.4,0.2-0.6,0.3c-0.2,0.1-0.4,0.2-0.6,0.3c-0.4,0.2-0.8,0.5-1.1,0.7
		c-0.7,0.5-1.4,1-2.1,1.5c-1.4,1-2.7,2.2-4.1,3.2c-10.9,12.2-15.2,26.5-13.2,42.8c2.7,20.8,21,35.5,40.2,31.6
		c12.4-2.6,20.8-10.5,26.5-21.6c0.9-2.2,1.7-4.4,2.3-6.7c0,0,0,0,0,0c0.2-0.9,0.5-1.8,0.7-2.6c0.1-0.5,0.2-0.9,0.3-1.4
		c0.2-0.9,0.3-1.8,0.5-2.6c0,0,0,0,0,0c0.1-0.9,0.3-1.8,0.4-2.6c0,0,0,0,0,0c0.1-0.9,0.2-1.8,0.2-2.6
		C790.1,314.1,790,311,789.5,307.8z M777.4,304.5c-0.2-0.1-0.4-0.1-0.6-0.2c-0.3-0.1-0.6-0.2-0.8-0.3c-0.2-0.1-0.4-0.1-0.7-0.2
		s-0.5-0.1-0.7-0.2c-0.2,0-0.4-0.1-0.6-0.1c-1.2-0.3-2.4-0.5-3.6-0.5c-0.3,0-0.6,0-0.8,0c-0.3,0-0.6,0-0.8,0c0,0-0.1,0-0.1,0
		c-0.2,0-0.5,0-0.7,0.1c-0.2,0-0.4,0-0.7,0.1c-0.3,0-0.7,0.1-1,0.2c-0.3,0.1-0.6,0.1-0.9,0.2c-0.2,0-0.4,0.1-0.5,0.2
		c-0.2,0.1-0.5,0.1-0.7,0.2c-0.2,0.1-0.4,0.1-0.5,0.2c-0.2,0.1-0.3,0.1-0.5,0.2c-0.4,0.2-0.8,0.4-1.1,0.6c-0.8,0.4-1.5,0.9-2.2,1.5
		c-0.2,0.1-0.4,0.3-0.5,0.4c-0.3,0.2-0.5,0.5-0.8,0.7c-0.2,0.2-0.5,0.5-0.7,0.7c-0.2,0.2-0.3,0.4-0.5,0.5c-0.2,0.2-0.4,0.4-0.5,0.7
		c-0.1,0.2-0.3,0.3-0.4,0.5c-0.1,0.1-0.2,0.3-0.3,0.4c-0.2,0.3-0.4,0.6-0.6,0.9c-0.4,0.5-0.7,1.1-1.1,1.7c-0.2,0.3-0.3,0.6-0.5,0.9
		c-0.2,0.3-0.3,0.6-0.5,1c-0.2,0.5-0.5,1.1-0.7,1.6c-0.4,1.1-0.8,2.2-1.2,3.3c0,0.1-0.1,0.3-0.1,0.4c-0.1,0.2-0.1,0.4-0.2,0.6
		c-0.1,0.4-0.2,0.8-0.3,1.1c-0.1,0.4-0.2,0.7-0.2,1.1c-0.1,0.4-0.2,0.8-0.2,1.2c-0.1,0.4-0.1,0.7-0.2,1.1c0,0.1,0,0.1,0,0.2
		c0,0.3-0.1,0.6-0.1,1c0,0.3-0.1,0.6-0.1,0.9c0,0.3,0,0.6-0.1,0.9c0,0.1,0,0.3,0,0.4c0,0.2,0,0.4,0,0.5c0,0.4,0,0.8,0,1.2
		c0,0.1,0,0.2,0,0.3c0,0.4,0.1,0.7,0.1,1.1c0.1,0.9,0.2,1.7,0.4,2.6c0,0,0,0,0,0c0.1,0.3,0.1,0.6,0.2,0.9c0.1,0.2,0.1,0.4,0.2,0.7
		s0.1,0.4,0.2,0.7c0.1,0.2,0.1,0.4,0.2,0.6s0.2,0.4,0.2,0.6c0.3,0.7,0.5,1.4,0.8,2c0,0,0,0,0,0c0.2,0.4,0.4,0.9,0.7,1.3c0,0,0,0,0,0
		c0.4,0.8,0.9,1.5,1.4,2.2c0.5,0.7,1,1.4,1.6,2.1c0,0,0,0,0,0c0.5,0.6,1,1.2,1.6,1.7c0.9,0.9,2,1.8,3.1,2.7c0,0,0,0,0,0
		c-7.5,2.4-14.3,1.6-20.7-2c-9.3-5.1-13.6-13.5-14.9-23.5c-0.3-2.6-0.4-5.1-0.4-7.6c0-0.5,0-1,0.1-1.5c0,0,0,0,0,0c0,0,0-0.1,0-0.1
		c0-0.1,0-0.2,0-0.3c0-0.4,0.1-0.8,0.1-1.2c0-0.4,0.1-0.7,0.1-1s0.1-0.7,0.1-1c0.1-0.4,0.1-0.7,0.2-1c0-0.2,0.1-0.4,0.1-0.5
		c0-0.2,0.1-0.4,0.1-0.5c0-0.1,0-0.2,0.1-0.3c0.1-0.2,0.1-0.5,0.2-0.7c0,0,0,0,0-0.1c0,0,0-0.1,0-0.2c0,0,0,0,0,0
		c0.1-0.4,0.2-0.8,0.3-1.2c0.1-0.4,0.2-0.8,0.3-1.2c0.1-0.4,0.2-0.8,0.4-1.2c0.1-0.5,0.3-0.9,0.5-1.4c0.2-0.4,0.3-0.9,0.5-1.3
		c0-0.1,0-0.1,0.1-0.2c0.1-0.2,0.1-0.3,0.2-0.5c0.2-0.4,0.3-0.7,0.5-1.1c0.2-0.4,0.4-0.9,0.6-1.3c0.1-0.3,0.3-0.6,0.4-0.8
		c0.4-0.7,0.8-1.4,1.2-2.1c0.1-0.2,0.3-0.5,0.4-0.7c0.6-1,1.2-1.9,1.9-2.8c0.2-0.3,0.5-0.7,0.8-1c0.2-0.2,0.4-0.5,0.6-0.7
		c0.2-0.2,0.4-0.5,0.6-0.7c0.4-0.5,0.8-0.9,1.2-1.3c0.3-0.3,0.6-0.5,0.8-0.8c0.8-0.8,1.7-1.5,2.7-2.2c0.3-0.2,0.6-0.5,0.9-0.7
		s0.6-0.4,0.9-0.6c0.3-0.2,0.6-0.4,0.9-0.5c0.2-0.1,0.3-0.2,0.5-0.3s0.3-0.2,0.5-0.3c0.3-0.2,0.7-0.4,1-0.5c0.3-0.1,0.5-0.2,0.8-0.4
		c0.3-0.1,0.6-0.3,0.9-0.4c0.3-0.1,0.7-0.2,1-0.4c0.3-0.1,0.6-0.2,0.9-0.3c0.3-0.1,0.6-0.2,1-0.3c0.3-0.1,0.6-0.1,0.9-0.2
		c0.1,0,0.2,0,0.3-0.1c0.3-0.1,0.7-0.1,1-0.2c0.8-0.1,1.5-0.2,2.3-0.3c0.3,0,0.5,0,0.8,0c0.3,0,0.5,0,0.8,0c0.3,0,0.7,0,1,0
		c0.3,0,0.6,0,0.8,0c0.4,0,0.8,0.1,1.2,0.1c0.3,0,0.5,0.1,0.8,0.1c0.4,0.1,0.8,0.1,1.2,0.2c0.2,0,0.5,0.1,0.7,0.2
		c0.3,0,0.6,0.1,0.8,0.2c1.6,0.4,3.1,1,4.5,1.8c0,0,0.1,0,0.1,0.1c0.3,0.1,0.6,0.3,0.9,0.5c0.3,0.2,0.6,0.4,0.9,0.5
		c0.3,0.2,0.6,0.4,0.9,0.6c0.6,0.4,1.1,0.8,1.7,1.3c0.2,0.2,0.5,0.4,0.7,0.6c1.7,1.5,3.3,3.3,4.7,5.2c0.2,0.2,0.3,0.4,0.5,0.7
		c0.2,0.2,0.3,0.5,0.5,0.7c0.2,0.3,0.4,0.6,0.6,1c0.3,0.5,0.5,0.9,0.8,1.4c0.2,0.3,0.3,0.7,0.5,1s0.3,0.7,0.5,1
		c0.2,0.5,0.4,0.9,0.6,1.4c0.1,0.2,0.1,0.3,0.2,0.5c0.1,0.2,0.1,0.3,0.2,0.5c0.1,0.1,0.1,0.3,0.2,0.4c0.1,0.2,0.1,0.3,0.2,0.5
		c0,0.1,0.1,0.3,0.1,0.4c0,0.1,0.1,0.3,0.1,0.4c0.1,0.4,0.2,0.8,0.3,1.2c0.1,0.5,0.2,1,0.3,1.4c0,0.1,0.1,0.3,0.1,0.4
		c0.1,0.6,0.2,1.2,0.2,1.9C780.3,305.8,778.9,305.1,777.4,304.5z"/>
	<path class="st0" d="M728.8,382c-6.3,8.8-14.7,10.3-23.1,3.8c-2.5-1.9-3.5-1.5-5.6,0.4c-9.7,8.8-21.7,7.9-29.8-2
		c-0.5-0.6-1-1.3-1.4-2c-1.1-1.9-1.4-3.9,0.8-5.2c2-1.2,3.3,0,4.5,1.7c5.1,7,10.7,8.9,17.5,5.8c7.3-3.4,11.3-11.4,9.6-19
		c-0.4-1.7-1.6-1.9-2.7-2.5c-2.5-1.5-5.7-2.2-6.4-5.7v0c3-0.9,5.2,0.7,7.2,2.4c0.8,0.7,1.6,1.2,2.3,1.6c0.3,0.1,0.5,0.2,0.8,0.2
		c0.1,0,0.1,0,0.2,0c1.5,0.3,2.9-0.1,4.3-1.1c0.3-0.2,0.6-0.5,0.9-0.7c0.2-0.2,0.4-0.4,0.6-0.6c0.1-0.1,0.2-0.2,0.3-0.3
		c0.1-0.1,0.2-0.2,0.3-0.3c0,0,0.1-0.1,0.1-0.1c0,0,0.1-0.1,0.1-0.1c0.1-0.1,0.2-0.2,0.3-0.3c0.1-0.1,0.2-0.2,0.3-0.3
		c0.1-0.1,0.2-0.2,0.3-0.3c0.2-0.2,0.4-0.3,0.6-0.5c0.8-0.7,1.8-1.1,3.1-1.1c0.7,2.9-1.4,4.9-3.2,5.6c-3.6,1.5-3.8,4.1-3.6,7.2
		c0.1,1.5,0.2,3.1-0.2,4.5c-1.6,4.8,0.9,7.5,4.7,9.5c4.4,2.2,8,0.6,11.3-2.5c0.6-0.6,1.1-1.3,1.6-1.9c1.4-1.9,2.1-5.6,5.2-3.5
		C733,376.9,730.4,379.8,728.8,382z"/>
	<path class="st4" d="M713.8,355.8c-1.2,0-2.2,0.4-3.1,1.1c-0.2,0.2-0.4,0.3-0.6,0.5c-0.1,0.1-0.2,0.2-0.3,0.3
		c-0.1,0.1-0.2,0.2-0.3,0.3c-0.1,0.1-0.2,0.2-0.3,0.3c-0.1,0-0.1,0.1-0.1,0.1c-0.1,0-0.1,0.1-0.1,0.1c-0.1,0.1-0.2,0.2-0.3,0.3
		c-0.1,0.1-0.2,0.2-0.3,0.3c-0.2,0.2-0.4,0.4-0.6,0.5c-0.3,0.3-0.6,0.5-0.9,0.7c-1.4,1-2.8,1.4-4.3,1.1c-0.1,0-0.1,0-0.2,0
		c-0.2-0.1-0.5-0.1-0.8-0.2c-0.8-0.3-1.5-0.8-2.3-1.6c-1.9-1.8-4.2-3.3-7.2-2.4c-3.2-2.8-3.2-5,0.4-6.5c5.7-2.4,11.7-2.4,17.6-1.3
		C713.3,350.1,714.8,352.4,713.8,355.8z"/>
	<path class="st9" d="M562.1,199.6c0.2,2.4-1.4,3.7-3.2,4.6c-6.2,3.2-12,7-17.2,11.8c-1,0.9-2.2,2.4-3.8,0.6c-1.3-1.5-1-3.1,0.2-4.5
		c3.7-4.5,8.3-7.8,13.4-10.2c4.3-2,4.3-4.1,2.4-7.9c-5.4-10.3-11-20.5-19.5-28.7c-1.3-1.3-2.8-2.8-1.1-4.7c1.4-1.6,3.2-1,4.4,0.2
		c11.3,10.5,19,23.3,24.2,37.8C562.1,198.9,562.1,199.2,562.1,199.6z"/>
	<path class="st0" d="M618.3,254.2c3.2-0.2,6.3,0.3,9.3,1.1c1.9,0.5,3.5,1.6,2.7,3.9c-0.7,2.2-2.3,1.6-4.1,1.1
		c-6.6-2-13.1-1.7-19.4,1c-1.3,0.6-2.9,1.7-3.9-0.2c-1-1.9,0.5-3.2,1.9-4C609,254.7,613.6,254.2,618.3,254.2z"/>
	<path class="st9" d="M737.5,149.4c2.7,0.9,2.7,2.5,1.1,4.5c-5.8,7.2-9.2,15.7-12.4,24.3c-0.1,0.3-0.2,0.6-0.3,0.9
		c-2.7,7.5-2.7,7.4,4.3,11c2.1,1.1,4,2.4,5.9,3.7c1.2,0.8,1.7,2,0.8,3.4c-0.8,1.1-2,1.1-3.1,0.5c-4.8-2.3-9.6-4.5-14.4-6.9
		c-2-1-2.2-2.8-1.7-4.7c3.2-12,7.8-23.3,15.1-33.4C733.9,151.2,735.4,149.9,737.5,149.4z"/>
	<path class="st0" d="M747.4,244.8c1.2,0.1,2.3,0.1,3.4,0.3c1.6,0.4,3.5,0.9,3.2,3c-0.3,2.3-2.2,2-3.9,1.7
		c-4.4-0.8-8.5,0.5-12.4,2.3c-1.2,0.6-2.5,1.2-3.4-0.4c-0.8-1.6,0.3-2.5,1.4-3.2C739.3,246,743.1,244.7,747.4,244.8z"/>
	<path class="st10" d="M650.6,315.3c-4.1-1.3-7.3-3.1-11-3.1c-10.2-0.2-20.8,9.1-23.1,21.4c-2.2,11.6,0.1,21.9,10.8,28.8
		c0.6,0.4,1.2,0.9,1.9,1.5c-14.9,8.7-38.2,0.7-46.2-15.6c-10.4-21.3-1.1-46.9,20.3-55.6C622.3,284.8,644,294.9,650.6,315.3z"/>
	<path class="st10" d="M781.8,306.7c-12.9-7.4-23.5-3.6-29.1,9.9c-5.4,13.2-2.7,25.3,8,33.6c-7.5,2.4-14.3,1.6-20.7-2
		c-9.3-5.1-13.6-13.5-14.9-23.5c-1.4-11.6,0.8-22.5,7.9-32.1c7.1-9.7,18.1-14,28.7-11.2C771.9,284,780.7,294.9,781.8,306.7z"/>
</g>
</svg>
