<?xml version="1.0" encoding="utf-8"?>
<!-- Generator: Adobe Illustrator 25.4.1, SVG Export Plug-In . SVG Version: 6.00 Build 0)  -->
<svg version="1.1" id="Capa_1" xmlns="http://www.w3.org/2000/svg" xmlns:xlink="http://www.w3.org/1999/xlink" x="0px" y="0px"
	 viewBox="0 0 1920 1080" style="enable-background:new 0 0 1920 1080;" xml:space="preserve">
<style type="text/css">
	.st0{fill:#100E0D;}
	.st1{fill:#FFFFFF;}
	.st2{fill:#DA8321;}
	.st3{fill:#DA8421;}
	.st4{fill:#DA8422;}
	.st5{fill:#D88221;}
	.st6{fill:#AB5F16;}
	.st7{fill:#9F5C1D;}
	.st8{fill:#A05916;}
	.st9{fill:#0A0904;}
	.st10{fill:#BFCE46;}
</style>
<g>
	<path class="st0" d="M1294.09,317.14c-1.38-1.69-1.97-3.09-1.77-5.3c0.61-6.8,0.88-13.62,1.23-19.47
		c-0.61-20.16-1.73-39.24-9.5-57.19c-4.99-11.6-14.93-15.95-26.91-12.1c-3.35,1.08-6.46,2.63-9.46,4.41
		c-17.93,10.65-32.03,25.39-44.4,41.89c-1.98,2.64-3.62,3.41-6.9,3.01c-25.21-3.09-50.21-2.02-74.77,4.83
		c-2.97,0.83-4.4,0.26-6.18-1.99c-9.72-12.33-20.36-23.81-32.66-33.62c-7.29-5.82-14.75-11.51-24.18-13.5
		c-9.31-1.97-17.11,0.57-23.07,8.18c-5.79,7.39-8.59,16.12-10.84,25.01c-6.22,24.63-7.73,49.61-5.08,74.87
		c0.27,2.55,0.88,5.08-0.53,7.77c-12.65,24.04-18.89,49.69-18.38,76.87c0.06,3.41-1.02,4.62-4.22,5.15
		c-11.34,1.89-22.59,1.14-33.82-0.67c-22.39-3.61-44.16-10.01-66.37-14.44c-41-8.18-82.14-11.11-123.69-4.46
		c-34.23,5.47-66.27,16.16-93.61,38.31c-2.55,2.06-4.29,0.83-6.27-0.12c-20.88-10.08-36.82-25.63-48.78-45.23
		c-19.97-32.73-22.56-68.27-16.18-105.13c3.91-22.59,10.41-44.68,12.9-67.56c3.76-34.56-1.42-67.13-21.61-96.21
		c-8.85-12.76-19.71-23.52-34.94-28.59c-21.02-7.01-40.57,7.24-40.19,29.27c0.15,8.45,2.65,16.39,6.69,23.77
		c15.93,29.11,18.66,59.77,11.68,91.87c-4.3,19.79-9.17,39.51-11.32,59.7c-4.64,43.59,3.16,84.82,24.26,123.33
		c17.45,31.84,41.93,56.97,73.47,75.07c7.01,4.03,7.08,3.83,4.81,11.31c-0.92,3.03-1.72,6.1-2.41,9.18
		c-6.39,28.43-6.28,57.13-3.65,85.95c0.18,1.94,0.84,3.88-0.39,5.81c-9.43,14.78-19.98,28.97-36.79,35.43
		c-16.21,6.23-25.88,17.3-31.34,33.08c-9.08,26.24-17.23,52.76-21.53,80.25c-1.69,10.79-1.51,21.83,5.73,31.05
		c8.89,11.32,21.15,14.08,34.55,11.44c13.92-2.74,23.59-13.21,25.35-27.44c1.26-10.19,5.04-19.13,10.36-27.66
		c2.78-4.46,6.53-7.34,11.82-8.36c10.93-2.1,22.01-3.71,32.53-7.55c3.04-1.11,3.69-0.49,3.47,2.62c-0.56,7.93,1.82,15.11,6.12,21.72
		c13.55,20.84,28.71,40.45,45.26,58.98c3.64,4.07,7.26,8.49,12.37,10.75c18.88,8.34,38.53,9.37,58.06,3.46
		c14.88-4.5,20.6-17.28,15.24-31.22c-3.09-8.04-9.26-14.06-17.38-16.08c-7.88-1.96-10.68-6.8-12.35-13.58
		c-0.55-2.25-1.4-4.44-2.17-6.63c-2.73-7.72-0.99-14.18,4.86-19.97c7.57-7.49,15.39-14.81,21.16-23.89c1.62-2.54,3.27-1.36,5.09-0.7
		c27.91,10.13,56.84,15.24,86.37,17.28c29.06,2.01,57.9,0.16,86.58-4.8c6.69-1.15,6.68-1.04,4.8,5.65
		c-4.98,17.78-10.01,35.56-11.9,53.99c-1.78,17.37,4.54,30.63,17.7,36.42c16.3,7.18,33.51,7.84,50.4,3.26
		c19.77-5.36,24.29-26.71,9.05-40.4c-2.43-2.18-2.06-3.35-0.49-5.5c9.23-12.63,18.41-25.29,27.48-38.04c1.77-2.5,3.01-2.7,5.37-0.66
		c9.07,7.84,18.33,15.46,27.48,23.21c18.29,15.51,35.46,32.35,54.62,46.8c20.88,15.73,50.31,14.01,69.41-3.71
		c10.07-9.33,14.71-20.54,9.63-34.15c-4.32-11.58-13.69-17.09-25.16-19.68c-1.95-0.44-3.73-0.57-4.9-2.73
		c-14.87-27.54-30.44-54.69-46.54-81.53c-1.56-2.6-0.94-4.04,0.84-5.97c11.08-12.01,21.43-24.64,30.47-38.26
		c16.95-25.52,30.86-52.49,38.12-82.49c0.62-2.55,1.94-3.45,4.12-4.23c14.95-5.32,29.12-12.18,42.21-21.27
		c23.46-16.28,42.12-36.65,50.85-64.17C1340.96,408.28,1329.31,360.14,1294.09,317.14z M618.97,489.19L618.97,489.19l-0.01-0.01
		c-0.33-0.22-0.66-0.44-0.99-0.67c-0.7-0.47-1.39-0.95-2.08-1.44c-2.07-1.45-4.12-2.93-6.12-4.47c-0.68-0.51-1.35-1.03-2.01-1.55
		c-0.36-0.29-0.73-0.58-1.09-0.87c-1.99-1.6-3.95-3.25-5.85-4.97c-0.64-0.57-1.27-1.15-1.89-1.73c-0.4-0.38-0.8-0.76-1.2-1.14
		c-0.4-0.37-0.79-0.76-1.18-1.15c-0.57-0.56-1.13-1.13-1.69-1.7c-0.01,0-0.01,0-0.01-0.01c-1.11-1.15-2.2-2.32-3.27-3.52
		c-0.53-0.6-1.06-1.21-1.58-1.83v-0.01h-0.01v-0.01c-1.88-1.94-3.71-3.92-5.49-5.92c-1.78-2.01-3.51-4.05-5.18-6.13
		c-3.36-4.16-6.5-8.45-9.44-12.88c-0.74-1.11-1.46-2.23-2.17-3.35c-0.72-1.13-1.41-2.26-2.09-3.4c-0.69-1.13-1.36-2.28-2.02-3.43
		c0-0.01,0-0.01,0-0.01c-0.67-1.16-1.31-2.32-1.94-3.5c-0.56-1.03-1.1-2.06-1.64-3.1c-0.54-1.05-1.07-2.12-1.59-3.19
		c-0.22-0.43-0.43-0.87-0.64-1.31c-1.09-2.27-2.14-4.57-3.14-6.9c-0.38-0.89-0.43-1.92-0.63-2.89c-5.53-9.61-8-20.3-10.86-30.85
		c-0.82-3.03-1.29-6.15-1.92-9.23c-3.49-17.55-4.51-35.26-3.22-53.08c0.38-5.28,1.43-10.51,2.17-15.77
		c0.55-11.24,3.8-21.98,6.02-32.92c0.69-3.38,1.51-6.72,2.27-10.08v-0.01c3.69-17.13,5.89-34.4,5.1-51.98c0-0.01,0-0.01,0-0.02
		v-0.01c-0.39-4.44-1.03-8.81-1.88-13.15c-0.13-0.68-0.27-1.36-0.41-2.03c-0.05-0.25-0.1-0.5-0.16-0.75
		c-0.19-0.94-0.4-1.88-0.63-2.81c-0.15-0.7-0.32-1.4-0.49-2.1c-0.12-0.48-0.24-0.97-0.37-1.45c-0.37-1.47-0.76-2.92-1.17-4.38
		c-0.4-1.45-0.82-2.89-1.27-4.33c-0.01-0.01-0.01-0.01-0.01-0.02c-0.43-1.45-0.89-2.88-1.36-4.32c0-0.01-0.01-0.01-0.01-0.02
		c-4.89-10.31-10.84-20.24-13.46-31.45c-3.27-14.02,3.49-25.98,15.94-28.75c0.25-0.06,0.5-0.11,0.75-0.16
		c0.48-0.09,0.97-0.17,1.46-0.25h0.03c1.75-0.24,3.49-0.31,5.21-0.21c0.25,0.01,0.5,0.03,0.75,0.06c0.21,0.02,0.42,0.04,0.63,0.06
		c0.26,0.02,0.52,0.06,0.78,0.1c0.28,0.03,0.56,0.08,0.84,0.13c0.5,0.08,0.99,0.18,1.48,0.3c0.57,0.13,1.14,0.28,1.7,0.46
		c0.28,0.08,0.55,0.17,0.83,0.26c0.45,0.15,0.9,0.32,1.35,0.5c0.37,0.14,0.73,0.3,1.09,0.46c0.38,0.17,0.75,0.34,1.12,0.53
		c0.06,0.03,0.12,0.06,0.17,0.09c0.37,0.18,0.73,0.38,1.09,0.58c0.78,0.44,1.55,0.88,2.3,1.35c0.01,0,0.01,0.01,0.02,0.01
		c0.75,0.45,1.48,0.92,2.21,1.41h0.01c0.73,0.48,1.44,0.97,2.15,1.48c0.59,0.42,1.17,0.85,1.75,1.3c0.22,0.16,0.44,0.33,0.65,0.5
		c0.13,0.09,0.26,0.19,0.38,0.3c0.4,0.3,0.8,0.62,1.19,0.95c0.19,0.16,0.39,0.32,0.57,0.48c0.3,0.25,0.6,0.5,0.88,0.76
		c0.09,0.07,0.18,0.15,0.27,0.24c0.2,0.16,0.39,0.33,0.58,0.51c0.03,0.02,0.05,0.03,0.06,0.05c0.56,0.5,1.11,1.01,1.65,1.54
		c0.62,0.59,1.23,1.2,1.83,1.82c4.8,4.94,8.89,10.6,12.3,16.89c8.91,13.64,14.29,28.52,15.81,44.76c0.1,0.4,0.2,0.79,0.29,1.19
		c0.19,0.81,0.37,1.61,0.53,2.42c0.16,0.81,0.3,1.61,0.43,2.42c0.06,0.42,0.12,0.84,0.19,1.25c0.11,0.79,0.21,1.59,0.29,2.39
		c0.11,1.05,0.2,2.09,0.27,3.14c0.07,1.04,0.13,2.09,0.16,3.14c0.01,0.36,0.02,0.73,0.03,1.11c0.01,0.39,0.02,0.77,0.02,1.15
		c0.01,0.95,0.01,1.91,0,2.86c-0.04,3.84-0.27,7.69-0.57,11.52c-1.09,14.03-3.34,27.96-6.9,41.63c-0.64,2.71-1.28,5.43-1.91,8.15
		c-0.93,4.08-1.83,8.17-2.67,12.28c-0.55,2.73-1.08,5.47-1.58,8.21c-0.01,0,0,0.01,0,0.01c-0.24,1.38-0.48,2.75-0.71,4.13
		c-0.18,1.11-0.63,2.17-0.96,3.26c-0.78,11.86-2.72,23.64-2.09,35.58c0.25,4.78,0.58,9.56,0.88,14.33v0.01
		c1.24,12.03,4.22,23.64,8.25,35.01c0.26,0.62,0.52,1.23,0.79,1.84c0.26,0.61,0.53,1.22,0.81,1.83c0.36,0.8,0.73,1.6,1.1,2.4
		c0.48,1.04,0.97,2.07,1.47,3.1c0.28,0.57,0.56,1.14,0.85,1.71c0.3,0.59,0.6,1.18,0.9,1.77c0.44,0.87,0.89,1.74,1.36,2.59
		c0.27,0.51,0.54,1.01,0.82,1.51c0.84,1.56,1.72,3.1,2.62,4.62c0.29,0.5,0.59,0.99,0.89,1.49c0.1,0.17,0.2,0.33,0.31,0.5
		c0.4,0.66,0.81,1.32,1.22,1.98c0.39,0.61,0.79,1.23,1.18,1.84c0.22,0.36,0.45,0.71,0.69,1.06c0.27,0.43,0.56,0.85,0.85,1.28
		c0.15,0.23,0.31,0.46,0.47,0.68c0.21,0.32,0.43,0.64,0.66,0.96c0.88,1.27,1.79,2.54,2.71,3.79c0.47,0.63,0.94,1.25,1.41,1.87
		c6.24,7.5,13.17,14.27,20.71,20.44c0,0.01,0.01,0,0.01,0c1.07,0.87,2.16,1.74,3.26,2.6h0.01c5.54,3.33,11.03,6.75,16.65,9.93
		c0.4,0.23,0.75,0.44,1.04,0.65c0.08,0.05,0.15,0.11,0.21,0.16c0.1,0.08,0.19,0.16,0.27,0.25c0.03,0.02,0.05,0.04,0.06,0.06
		c0.05,0.05,0.09,0.1,0.13,0.16c0.05,0.06,0.09,0.12,0.12,0.18c0.09,0.16,0.14,0.33,0.14,0.52c0,0.13-0.02,0.26-0.07,0.4
		c-0.04,0.14-0.11,0.29-0.21,0.45c-0.1,0.16-0.22,0.33-0.37,0.5c-0.06,0.09-0.14,0.18-0.24,0.28c-0.07,0.09-0.17,0.19-0.27,0.29
		c-0.3,0.29-0.59,0.59-0.88,0.88c-0.29,0.29-0.58,0.59-0.86,0.89c-1.15,1.19-2.26,2.4-3.35,3.63c-1.09,1.23-2.15,2.47-3.18,3.74
		c-1.03,1.27-2.03,2.55-3.01,3.85c-0.49,0.65-0.97,1.31-1.45,1.97c-0.12,0.16-0.24,0.32-0.35,0.49c-0.43,0.6-0.86,1.21-1.28,1.83
		c-0.45,0.65-0.89,1.3-1.33,1.96c-0.33,0.49-0.65,0.99-0.97,1.49c-0.49,0.75-0.96,1.51-1.43,2.27c-0.01,0.02-0.03,0.04-0.04,0.07
		c-0.42,0.67-0.82,1.35-1.22,2.03c-0.04,0.06-0.07,0.12-0.1,0.18c-0.26,0.43-0.51,0.86-0.75,1.29c-0.41,0.7-0.81,1.41-1.2,2.12
		c-0.53,0.95-1.04,1.91-1.54,2.88c-1.01,1.92-1.98,3.88-2.91,5.86c-0.93,1.98-1.81,3.98-2.67,6.01c-0.16,0.37-0.31,0.7-0.48,0.98
		c-0.08,0.15-0.16,0.27-0.24,0.39c-0.09,0.12-0.17,0.23-0.26,0.32c-0.08,0.1-0.17,0.18-0.27,0.25c-0.09,0.08-0.19,0.14-0.29,0.18
		c-0.2,0.1-0.42,0.14-0.66,0.14c-0.1,0-0.21-0.01-0.33-0.03c-0.19-0.02-0.39-0.08-0.62-0.17c-0.08-0.02-0.17-0.06-0.27-0.11
		c-0.14-0.06-0.29-0.13-0.44-0.21c-0.16-0.08-0.32-0.17-0.49-0.27C630.13,496.29,624.12,493.45,618.97,489.19z M657.85,729.49
		c-10.37,3.85-21.18,5.72-31.99,7.53c-9.07,1.52-15.65,5.94-19.9,14.12c-4.2,8.07-8.96,15.68-9.54,25.35
		c-0.42,7.08-3.29,13.88-8.95,18.92c-0.42,0.35-0.72,1.2-1.41,0.63c-0.7-0.56,0.04-1.06,0.28-1.56c0.54-2.6,1.23-5.17,1.02-7.87
		c-0.1-1.22-0.24-2.44-1.81-2.49c-1.52-0.05-1.87,1.1-2.04,2.33c-0.33,2.46-0.47,4.89-1.55,7.26c-3.58,7.83-8.28,9.73-19.04,7.05
		c4.05-3.06,7.55-6.3,8.86-11.15c0.35-1.27,0.83-2.62,0.71-3.88c-0.18-1.83,0.74-4.78-1.85-5.07c-3.16-0.36-1.84,2.75-2.32,4.45
		c-0.54,1.91-0.88,3.95-1.78,5.68c-4.62,8.83-12.44,9.2-17.76,0.81c-5.44-8.58-5.13-18-3.47-27.51
		c4.69-26.9,12.61-52.92,21.89-78.53c4.29-11.85,11.7-20.68,24.33-25.27c14.13-5.13,24.67-15.49,33.67-27.35
		c1.4-1.85,2.75-3.72,4.53-6.13c2.11,8.31,4.04,16.07,6.07,23.8c5.34,20.38,15.02,39.09,22.62,58.61c1.76,4.53,2.79,9.23,3.42,14.04
		C662.26,726.51,661.2,728.25,657.85,729.49z M1061.69,746.11c-10.2,14.37-21.53,27.9-30.86,42.91c-2.4,3.87-2.3,5.78,1.83,8.2
		c10.24,5.99,12.31,19.03,4.49,25.92c-0.22,0.21-0.57,0.62-0.64,0.62c-0.55-0.36-0.38-0.82-0.04-1.25
		c0.68-5.14,0.16-9.99-3.49-14.02c-1-1.11-2.31-2.35-3.88-1.24c-1.8,1.27-0.51,2.46,0.39,3.73c1.05,1.47,2.25,3.07,2.61,4.77
		c1.77,8.46-0.85,14.31-14.45,13.18c1.16-3.99,2.44-7.94,1.26-12.16c-0.83-2.98-2.04-5.67-4.58-7.51c-1.18-0.86-2.65-1.85-4.04-0.43
		c-1.53,1.56-0.21,2.72,0.89,3.74c3.87,3.61,4.51,7.93,2.91,12.78c-0.94,2.85-2.62,4.36-5.9,4.09c-6.48-0.54-12.95-1.15-19.17-3.11
		c-13.33-4.19-20.51-16.25-18.49-30.84c2.84-20.49,8.35-40.36,13.79-60.25c0.54-1.98,1.53-2.91,3.64-3.4
		c14.24-3.31,28.43-6.88,42.15-12.01c2.41-0.91,4.02-0.24,5.83,1.19c8.36,6.6,16.68,13.26,25.23,19.6
		C1063.87,742.62,1063.29,743.86,1061.69,746.11z M1321.28,442.03c-3.75,23.9-15.2,43.86-32.03,60.76
		c-19.18,19.26-42.54,31.69-68.22,40.01c-1.76,0.57-3.5,1.08-4.79,2.5c-1.33,1.46-1.73,3.52,0,4.29c4.25,1.89,2.37,4.65,1.52,7.27
		c-13.32,41.01-35.06,77.08-63.94,108.97c-1.89,2.09-3.09,2.66-4.49-0.3c-0.85-1.8-1.89-3.53-3.03-5.16
		c-1.24-1.78-2.93-2.86-5.1-1.56c-2.02,1.22-1.72,3.29-0.9,4.89c2.2,4.29,4.6,8.48,7.08,12.62c16.95,28.27,33.19,56.95,49.27,85.72
		c2.27,4.07,5.01,6.54,9.76,7.5c8.77,1.78,16.23,5.78,20.22,14.52c2.26,4.94,2.76,9.8,0.38,15.4c-1.48-2.58-2.63-4.83-4.01-6.93
		c-1.76-2.68-4.02-4.84-7-6.22c-1.79-0.83-3.78-1.58-4.75,0.58c-0.98,2.2,1.39,2.54,2.78,3.27c3.87,2.05,6.29,5.27,7.92,9.28
		c1.78,4.39,1.04,7.98-2.48,11.23c-2.59,2.4-5.24,4.57-8.68,5.71c-1.29-1.67-0.53-3.58-0.78-5.32c-0.92-6.37-5.55-11.91-11.23-13.37
		c-1.59-0.4-3.15-0.69-3.85,1.03c-0.77,1.9,0.78,2.51,2.26,3.13c5.47,2.3,8.21,6.52,8.4,12.41c0.12,3.65-1.51,5.7-5.17,6.71
		c-16.96,4.7-31.98,0.94-45.22-10.26c-28.85-24.41-56.55-50.17-86.28-73.56c-14.79-11.63-29.67-23.15-45.09-33.96
		c-2.59-1.82-5.27-3.5-7.94-5.2c-1.91-1.23-3.83-1.44-5.2,0.72c-1.35,2.12-0.42,3.81,1.42,5.12c3.65,2.61,7.33,5.2,10.99,7.8
		c0.65,0.47,1.51,0.78,1.39,2.24c-11.76,4.03-23.9,7.29-36.19,10c-36.33,8.01-73.05,11.33-110.18,8.18
		c-25.78-2.19-51.01-7.29-75.61-15.45c-3.32-1.1-4.1-2.25-2.02-5.44c5.32-8.15,8.63-17.24,11.36-26.53c0.66-2.23,1.6-4.94-1.49-5.96
		c-3.28-1.09-4.19,1.5-4.98,4.04c-7.32,23.59-21.91,42.36-39.24,59.35c-7.55,7.4-10.74,15.91-7.24,26.64
		c2.12,6.48,4.61,12.78,7,19.15c1.2,3.21,3.81,3.8,6.6,4.52c8.77,2.26,16.29,6.23,19.05,15.66c1.59,5.41,1.64,10.78-3.37,15.51
		c-0.4-3.12-0.59-5.79-1.11-8.4c-0.57-2.83-2.02-5.32-4.17-7.25c-1.41-1.27-3.13-3.28-5.05-1.06c-1.73,2,0.92,2.73,1.81,3.85
		c1.23,1.57,2.82,2.93,3.34,4.91c2.5,9.44,0.82,14.23-13.64,14.16c2.4-6.48,1.44-12.37-3.25-17.44c-0.89-0.96-1.99-1.77-3.07-2.52
		c-1.33-0.93-2.86-1.44-3.86,0.32c-0.88,1.54,0.46,2.26,1.5,3.17c5.22,4.54,6.78,10.17,4.28,14.99c-0.6,1.16-1.03,2.48-2.77,2.43
		c-16.09-0.47-32.13-0.77-43.78-14.78c-6.82-8.19-13.88-16.18-20.33-24.66c-8.36-10.99-16.92-21.84-24.27-33.57
		c-3.91-6.24-6.13-13.05-4.91-20.41c1.95-11.78-0.36-22.81-4.79-33.62c-0.88-2.14-1.51-4.37-2.25-6.56v-0.01
		c-0.6-1.22-1.19-2.44-1.78-3.66c-0.44-0.91-0.87-1.83-1.3-2.75c-1.28-2.75-2.52-5.51-3.73-8.29c-0.71-1.64-1.41-3.29-2.09-4.94
		c-0.46-1.1-0.9-2.21-1.34-3.31c-0.88-2.21-1.73-4.43-2.55-6.65c-1.24-3.34-2.4-6.7-3.5-10.07c-0.73-2.25-1.43-4.5-2.1-6.77
		c-0.23-0.76-0.45-1.53-0.67-2.3c-0.03-0.08-0.05-0.16-0.07-0.25c-0.2-0.67-0.38-1.34-0.57-2.01c-0.14-0.52-0.28-1.03-0.42-1.55
		c-0.14-0.52-0.27-1.03-0.41-1.56c-0.23-0.86-0.45-1.71-0.66-2.57c-0.57-2.29-1.11-4.59-1.62-6.89c-0.25-1.16-0.49-2.31-0.73-3.47
		c-2.83-13.89-4.42-28.09-4.56-42.67c-0.8-30.86,1.73-61.15,14.79-89.74c14.82-32.45,39.15-54.94,71.79-68.74
		c24-10.15,49.15-15.38,75.08-17.13h0.01c3.41-0.32,6.81-0.58,10.2-0.77c7.34-0.41,14.66-0.52,21.95-0.36
		c1.02,0.02,2.03,0.05,3.05,0.08c2.8,0.08,5.6,0.21,8.39,0.38c0.83,0.04,1.66,0.1,2.49,0.15c0.74,0.05,1.48,0.1,2.22,0.16
		c0.42,0.03,0.84,0.05,1.25,0.09c1.51,0.11,3.03,0.24,4.54,0.38c0.96,0.08,1.92,0.17,2.88,0.27c3.4,0.33,6.8,0.71,10.19,1.15
		c0.85,0.1,1.69,0.21,2.53,0.32c1.04,0.14,2.08,0.28,3.11,0.43c1.04,0.15,2.07,0.3,3.11,0.45c1.95,0.29,3.9,0.59,5.85,0.91
		c0.97,0.16,1.94,0.32,2.92,0.49c0.7,0.11,1.4,0.23,2.1,0.36c0.82,0.14,1.63,0.29,2.45,0.44c1.05,0.18,2.1,0.37,3.14,0.57
		c0.83,0.16,1.66,0.32,2.49,0.48c1.45,0.28,2.91,0.57,4.37,0.86c2.92,0.59,5.83,1.2,8.74,1.83c0.1,0.01,0.2,0.03,0.29,0.06
		c0.88,0.18,1.76,0.38,2.63,0.58c1.45,0.32,2.9,0.65,4.35,0.99c1.45,0.33,2.9,0.67,4.35,1.02c2.4,0.57,4.81,1.14,7.22,1.69
		c3.61,0.84,7.23,1.66,10.84,2.46c13.27,2.92,26.6,5.5,40.08,7.32c8.77-0.3,17.61,0.25,26.24-1.88c2.25-0.56,1.92,1.1,2.14,2.28
		c0.83,4.4,1.61,8.81,2.42,13.21c0.45,2.42,1.77,4.24,4.36,3.68c2.61-0.57,2.87-2.79,2.47-5.18c-1.14-6.85-2.68-13.67-1.73-20.7
		v-0.01c-2.05-10.68-0.06-21.23,1.09-31.8c1.12-5.79,2.31-11.57,3.9-17.22c0.23-0.8,0.47-1.61,0.71-2.41
		c0.14-0.46,0.28-0.92,0.43-1.37c0.15-0.46,0.3-0.92,0.45-1.37c0.44-1.31,0.92-2.63,1.42-3.93l0.01-0.01
		c0.51-1.3,1.05-2.59,1.62-3.87c0.29-0.64,0.59-1.28,0.9-1.91l0.01-0.01c0.2-0.65,0.41-1.29,0.63-1.94
		c0.22-0.66,0.45-1.31,0.69-1.96c0.26-0.71,0.53-1.42,0.81-2.12c0.13-0.31,0.25-0.62,0.38-0.92c0.17-0.41,0.34-0.81,0.53-1.21
		c0.18-0.42,0.38-0.82,0.57-1.23c0.61-1.28,1.29-2.53,2.04-3.75c0,0,0,0,0.01-0.01c0.36-0.58,0.73-1.15,1.11-1.71
		c0.42-0.61,0.73-1.22,0.94-1.84c0.28-0.79,0.42-1.58,0.47-2.37c0.01-0.13,0.02-0.26,0.01-0.39c0.02-0.33,0.02-0.66,0-0.99
		c0-0.2-0.01-0.4-0.03-0.59c-0.03-0.36-0.06-0.73-0.1-1.09c-0.01-0.03-0.01-0.07-0.01-0.11c-0.03-0.26-0.06-0.52-0.09-0.78
		c-1.83-15.74-2.32-31.47-0.67-47.25c0.02-0.2,0.04-0.39,0.06-0.58c0.01-0.2,0.03-0.4,0.06-0.59c0.04-0.39,0.08-0.78,0.13-1.17
		c0.08-0.78,0.17-1.56,0.28-2.34c0.19-1.56,0.39-3.11,0.62-4.67c0.33-2.23,0.69-4.45,1.1-6.67c0.13-0.75,0.28-1.49,0.43-2.24
		c0.15-0.74,0.3-1.48,0.46-2.22c0.29-1.34,0.58-2.67,0.91-4c0.64-2.62,1.35-5.23,2.16-7.81c0.22-0.72,0.46-1.44,0.7-2.16
		c0.24-0.74,0.5-1.48,0.76-2.22c0.97-2.72,2.05-5.42,3.25-8.08c2.73-6.03,6.23-9.76,10.49-11.25c0.35-0.12,0.71-0.23,1.08-0.32
		c0.25-0.07,0.5-0.12,0.75-0.17c0.32-0.06,0.65-0.11,0.99-0.16c0.52-0.07,1.06-0.1,1.6-0.1h0.13c0.33,0,0.66,0.01,1,0.04h0.04
		c0.35,0.02,0.7,0.06,1.05,0.11c1.47,0.18,3,0.57,4.6,1.15c0.4,0.14,0.8,0.3,1.21,0.47s0.82,0.35,1.24,0.54
		c0.47,0.22,0.95,0.46,1.44,0.71c0.01,0,0.01,0,0.01,0c0.26,0.13,0.52,0.27,0.78,0.41c16.82,9.17,29.67,22.86,41.95,37.14
		c4.22,4.91,7.95,10.23,11.9,15.36c2.07,0.59,3.85,0.81,4.97,0.17c0.16-0.08,0.3-0.19,0.43-0.31c0.13-0.13,0.24-0.27,0.34-0.43
		c0.08-0.14,0.16-0.29,0.22-0.46c0.03-0.07,0.05-0.13,0.07-0.2c0.05-0.17,0.1-0.36,0.13-0.57c0.12-0.74,0.08-1.67-0.15-2.84
		c-0.09-0.47-0.07-0.83,0.03-1.11c0.02-0.06,0.04-0.11,0.07-0.15c0.04-0.07,0.08-0.14,0.14-0.2c0.03-0.04,0.06-0.07,0.1-0.1
		c0.04-0.05,0.09-0.09,0.15-0.12c0.06-0.05,0.11-0.08,0.17-0.11c0.09-0.07,0.2-0.12,0.31-0.15c0.29-0.13,0.62-0.2,0.96-0.27
		c0.97-0.19,1.93-0.39,2.89-0.59c0.97-0.2,1.94-0.41,2.9-0.61h0.01c2.05-0.34,4.1-0.68,6.14-1.01c8.12-2.54,16.47-3.07,24.91-2.94
		c4.72-0.99,9.43-0.59,14.14,0.12c0.49-0.04,0.98-0.07,1.47-0.09c7.58-0.41,15.07,0.21,22.46,2.08h0.01
		c2.25-0.06,4.42,0.25,6.53,0.85c1.17,0.33,2.32,0.75,3.46,1.24c3.42-0.58,6.45,1.06,9.46,2.08c1.82,0.62,3.25,0.65,4.47,0.11
		c0.13-0.06,0.26-0.13,0.38-0.2c0.09-0.04,0.17-0.1,0.25-0.15c0.09-0.06,0.17-0.12,0.25-0.18c0.17-0.12,0.33-0.26,0.48-0.4
		c0.44-0.39,0.85-0.89,1.24-1.48c0.01,0,0.01-0.01,0.01-0.01c-0.22-0.22-0.43-0.44-0.66-0.63c-0.44-0.42-0.89-0.8-1.36-1.14
		c-1.16-0.88-2.41-1.6-3.71-2.23c-0.01,0.01-0.01,0.01-0.01,0c-0.5-0.24-1-0.46-1.52-0.67c-0.51-0.21-1.03-0.41-1.55-0.6
		c-0.53-0.18-1.06-0.37-1.6-0.54c-0.54-0.19-1.08-0.36-1.62-0.52c-0.54-0.17-1.08-0.34-1.64-0.51c-0.82-0.25-1.64-0.51-2.47-0.79
		c-0.82-0.28-1.64-0.57-2.46-0.88c0.46-0.63,0.93-1.26,1.41-1.89c0.74-0.98,1.49-1.95,2.25-2.9c4.55-5.81,9.37-11.25,14.54-16.32
		c1.09-1.07,2.2-2.13,3.33-3.17c1.12-1.04,2.27-2.06,3.43-3.07c1.7-1.47,3.4-2.94,5.13-4.38c0.64-0.53,1.29-1.07,1.95-1.59
		c1.31-1.05,2.64-2.07,4-3.04c0.68-0.49,1.37-0.96,2.07-1.43c0,0,0,0,0.01-0.01c0.93-0.62,1.87-1.22,2.83-1.78
		c0.48-0.29,0.98-0.57,1.47-0.85c0.98-0.54,1.98-1.06,3.01-1.53c0.51-0.24,1.03-0.48,1.56-0.7c0.95-0.4,1.86-0.76,2.74-1.07
		c0.61-0.22,1.2-0.41,1.78-0.57c0.24-0.07,0.49-0.14,0.73-0.2c0.16-0.04,0.31-0.08,0.46-0.11c0.17-0.04,0.33-0.08,0.5-0.12
		c0.14-0.03,0.28-0.05,0.42-0.08c0.14-0.03,0.28-0.05,0.41-0.07c0.14-0.03,0.27-0.05,0.4-0.07c0.17-0.03,0.34-0.05,0.51-0.07
		c0.11-0.01,0.23-0.02,0.34-0.03c0.24-0.03,0.47-0.05,0.71-0.06c0.95-0.05,1.84,0,2.69,0.14c0.32,0.05,0.63,0.12,0.93,0.21
		c0.46,0.13,0.9,0.28,1.33,0.47c0.15,0.05,0.29,0.12,0.43,0.2c0.14,0.06,0.28,0.14,0.42,0.21c0.14,0.08,0.27,0.16,0.41,0.24
		c0.27,0.17,0.54,0.35,0.8,0.55c0.13,0.1,0.26,0.21,0.39,0.31c0.13,0.11,0.25,0.22,0.38,0.33c0.26,0.23,0.51,0.47,0.75,0.73
		c0.64,0.68,1.25,1.45,1.85,2.34c0.24,0.37,0.49,0.76,0.73,1.16c0.18,0.3,0.35,0.62,0.53,0.95c0.54,0.97,1.05,2.04,1.55,3.21
		c0.19,0.44,0.37,0.89,0.55,1.34c0.18,0.44,0.35,0.88,0.52,1.33c0.18,0.45,0.34,0.89,0.5,1.34c0.81,2.23,1.51,4.49,2.12,6.76v0.01
		c0.72,2.73,1.32,5.48,1.81,8.25v0.01c0.16,0.88,0.3,1.77,0.43,2.65c0.07,0.45,0.14,0.9,0.2,1.35c0.09,0.63,0.17,1.25,0.25,1.88
		c0.1,0.7,0.18,1.39,0.25,2.08c0.06,0.49,0.11,0.98,0.16,1.47c0.06,0.53,0.11,1.06,0.16,1.58c0.05,0.53,0.1,1.06,0.14,1.59
		c0.07,0.82,0.14,1.65,0.19,2.47c0.04,0.42,0.07,0.84,0.1,1.27c0.12,1.93,0.23,3.87,0.33,5.81c0.06,1.06,0.11,2.12,0.15,3.18
		c0.41,9.65-0.16,19.29-0.95,28.91c-0.07,0.83-0.05,1.61,0.05,2.35c0.05,0.29,0.1,0.58,0.17,0.86c0.1,0.42,0.24,0.83,0.42,1.24v0.01
		c0.47,1.07,1.15,2.09,2.07,3.13c20.9,23.46,32.41,51.01,35.59,82.2C1324.59,416.44,1324.2,429.29,1321.28,442.03z"/>
	<path class="st1" d="M1030.83,789.02c-2.4,3.87-2.3,5.78,1.83,8.2c10.24,5.99,12.31,19.03,4.49,25.92
		c-0.22,0.21-0.57,0.62-0.64,0.62c-0.55-0.36-0.38-0.82-0.04-1.25c0.68-5.14,0.16-9.99-3.49-14.02c-1-1.11-2.31-2.35-3.88-1.24
		c-1.8,1.27-0.51,2.46,0.39,3.73c1.05,1.47,2.25,3.07,2.61,4.77c1.77,8.46-0.85,14.31-14.45,13.18c1.16-3.99,2.44-7.94,1.26-12.16
		c-0.83-2.98-2.04-5.67-4.58-7.51c-1.18-0.86-2.65-1.85-4.04-0.43c-1.53,1.56-0.21,2.72,0.89,3.74c3.87,3.61,4.51,7.93,2.91,12.78
		c-0.94,2.85-2.62,4.36-5.9,4.09c-6.48-0.54-12.95-1.15-19.17-3.11c-13.33-4.19-20.51-16.25-18.49-30.84
		c2.84-20.49,8.35-40.36,13.79-60.25c0.54-1.98,1.53-2.91,3.64-3.4c14.24-3.31,28.43-6.88,42.15-12.01
		c2.41-0.91,4.02-0.24,5.83,1.19c8.36,6.6,16.68,13.26,25.23,19.6c2.7,2,2.12,3.24,0.52,5.49
		C1051.49,760.48,1040.16,774.01,1030.83,789.02z"/>
	<path class="st1" d="M657.85,729.49c-10.37,3.85-21.18,5.72-31.99,7.53c-9.07,1.52-15.65,5.94-19.9,14.12
		c-4.2,8.07-8.96,15.68-9.54,25.35c-0.42,7.08-3.29,13.88-8.95,18.92c-0.42,0.35-0.72,1.2-1.41,0.63c-0.7-0.56,0.04-1.06,0.28-1.56
		c0.54-2.6,1.23-5.17,1.02-7.87c-0.1-1.22-0.24-2.44-1.81-2.49c-1.52-0.05-1.87,1.1-2.04,2.33c-0.33,2.46-0.47,4.89-1.55,7.26
		c-3.58,7.83-8.28,9.73-19.04,7.05c4.05-3.06,7.55-6.3,8.86-11.15c0.35-1.27,0.83-2.62,0.71-3.88c-0.18-1.83,0.74-4.78-1.85-5.07
		c-3.16-0.36-1.84,2.75-2.32,4.45c-0.54,1.91-0.88,3.95-1.78,5.68c-4.62,8.83-12.44,9.2-17.76,0.81c-5.44-8.58-5.13-18-3.47-27.51
		c4.69-26.9,12.61-52.92,21.89-78.53c4.29-11.85,11.7-20.68,24.33-25.27c14.13-5.13,24.67-15.49,33.67-27.35
		c1.4-1.85,2.75-3.72,4.53-6.13c2.11,8.31,4.04,16.07,6.07,23.8c5.34,20.38,15.02,39.09,22.62,58.61c1.76,4.53,2.79,9.23,3.42,14.04
		C662.26,726.51,661.2,728.25,657.85,729.49z"/>
	<path class="st1" d="M1323.26,403.45c-3.18-31.19-14.69-58.74-35.59-82.2c-0.92-1.04-1.6-2.06-2.07-3.13
		c0.45,1.08,1.14,2.1,2.06,3.14c20.9,23.46,32.41,51.01,35.59,82.2c1.32,12.99,0.93,25.84-1.98,38.58
		c-4.19-1.49-8.32-3.12-11.77-6.03c0.9-2.23,1.67-4.45,2.3-6.68c-0.65,2.22-1.42,4.44-2.31,6.66c-5.67,11.09-14.13,19.04-26.5,21.6
		c-19.22,3.98-37.55-10.73-40.21-31.57c-2.08-16.27,2.26-30.5,13.15-42.75c-13.83-12.56-24.22-27.58-31.96-44.5
		c4.1-4.24,5.27-8.98,2.68-14.51c-0.19-0.4-0.35-0.82-0.49-1.25c0.13,0.43,0.29,0.85,0.48,1.25c2.59,5.53,1.42,10.27-2.68,14.51
		c-5.88,0.2-8.96-3.41-11.24-8.18c-6.08-12.73-13.21-24.82-21.59-36.19c-4.16-5.64-9.22-10.38-14.13-15.29
		c0.49-0.04,0.98-0.07,1.47-0.1c-0.49,0.02-0.98,0.05-1.47,0.09c-4.71-0.71-9.42-1.11-14.14-0.12c-8.44-0.13-16.79,0.4-24.91,2.94
		v0.01c8.12-2.54,16.47-3.07,24.91-2.94c15.12,15.22,24.07,33.41,26.32,54.8c0.34,3.19,0.16,6.34-2.98,8.37
		c0.87,19.5-5.62,36.6-16.98,52.11c-0.55-0.36-1.13-0.68-1.64-1.1c-1.11-0.93-2.26-1.79-3.44-2.59c1.18,0.81,2.33,1.67,3.44,2.6
		c0.5,0.42,1.09,0.74,1.64,1.1c15.46,17.05,18.66,35.44,9.59,55.11c-12.43,26.96-50.09,33.26-70.67,11.84
		c-0.58-0.59-1.21-1.13-1.82-1.7c-38.71,12.16-78.58-4.78-97.26-33.56c-0.95,7.03,0.59,13.85,1.73,20.7
		c0.4,2.39,0.14,4.61-2.47,5.18c-2.59,0.56-3.91-1.26-4.36-3.68c-0.81-4.4-1.59-8.81-2.42-13.21c-0.22-1.18,0.11-2.84-2.14-2.28
		c-8.63,2.13-17.47,1.58-26.24,1.88c-7.08,13.36-9.37,27.98-11.02,42.73c-2.37,21.11-7.81,41.19-20.04,58.87
		c-17.97,25.98-43.35,37.17-74.37,35.14c-34.43-2.26-61.24-18.56-77.77-48.7c-20.38-37.15-20.26-74.37,5.04-109.94
		c0.19-0.27,0.29-0.59,0.43-0.89h-0.01c-25.93,1.75-51.08,6.98-75.08,17.13c-32.64,13.8-56.97,36.29-71.79,68.74
		c-13.06,28.59-15.59,58.88-14.79,89.74c4.71-8.46,10.26-16.02,18.08-22.17c19.47-15.31,49.5-14.47,69.72,6.63
		c26.75,27.92,30.87,75.92,8.62,107.43c-15.56,22.04-41.33,30.71-68.32,17.83c0.74,2.19,1.37,4.42,2.25,6.56
		c4.43,10.81,6.74,21.84,4.79,33.62c-1.22,7.36,1,14.17,4.91,20.41c7.35,11.73,15.91,22.58,24.27,33.57
		c6.45,8.48,13.51,16.47,20.33,24.66c11.65,14.01,27.69,14.31,43.78,14.78c1.74,0.05,2.17-1.27,2.77-2.43
		c2.5-4.82,0.94-10.45-4.28-14.99c-1.04-0.91-2.38-1.63-1.5-3.17c1-1.76,2.53-1.25,3.86-0.32c1.08,0.75,2.18,1.56,3.07,2.52
		c4.69,5.07,5.65,10.96,3.25,17.44c14.46,0.07,16.14-4.72,13.64-14.16c-0.52-1.98-2.11-3.34-3.34-4.91
		c-0.89-1.12-3.54-1.85-1.81-3.85c1.92-2.22,3.64-0.21,5.05,1.06c2.15,1.93,3.6,4.42,4.17,7.25c0.52,2.61,0.71,5.28,1.11,8.4
		c5.01-4.73,4.96-10.1,3.37-15.51c-2.76-9.43-10.28-13.4-19.05-15.66c-2.79-0.72-5.4-1.31-6.6-4.52c-2.39-6.37-4.88-12.67-7-19.15
		c-3.5-10.73-0.31-19.24,7.24-26.64c17.33-16.99,31.92-35.76,39.24-59.35c0.79-2.54,1.7-5.13,4.98-4.04
		c3.09,1.02,2.15,3.73,1.49,5.96c-2.73,9.29-6.04,18.38-11.36,26.53c-2.08,3.19-1.3,4.34,2.02,5.44
		c24.6,8.16,49.83,13.26,75.61,15.45c37.13,3.15,73.85-0.17,110.18-8.18c12.29-2.71,24.43-5.97,36.19-10
		c0.12-1.46-0.74-1.77-1.39-2.24c-3.66-2.6-7.34-5.19-10.99-7.8c-1.84-1.31-2.77-3-1.42-5.12c1.37-2.16,3.29-1.95,5.2-0.72
		c2.67,1.7,5.35,3.38,7.94,5.2c15.42,10.81,30.3,22.33,45.09,33.96c29.73,23.39,57.43,49.15,86.28,73.56
		c13.24,11.2,28.26,14.96,45.22,10.26c3.66-1.01,5.29-3.06,5.17-6.71c-0.19-5.89-2.93-10.11-8.4-12.41
		c-1.48-0.62-3.03-1.23-2.26-3.13c0.7-1.72,2.26-1.43,3.85-1.03c5.68,1.46,10.31,7,11.23,13.37c0.25,1.74-0.51,3.65,0.78,5.32
		c3.44-1.14,6.09-3.31,8.68-5.71c3.52-3.25,4.26-6.84,2.48-11.23c-1.63-4.01-4.05-7.23-7.92-9.28c-1.39-0.73-3.76-1.07-2.78-3.27
		c0.97-2.16,2.96-1.41,4.75-0.58c2.98,1.38,5.24,3.54,7,6.22c1.38,2.1,2.53,4.35,4.01,6.93c2.38-5.6,1.88-10.46-0.38-15.4
		c-3.99-8.74-11.45-12.74-20.22-14.52c-4.75-0.96-7.49-3.43-9.76-7.5c-16.08-28.77-32.32-57.45-49.27-85.72
		c-2.48-4.14-4.88-8.33-7.08-12.62c-0.82-1.6-1.12-3.67,0.9-4.89c2.17-1.3,3.86-0.22,5.1,1.56c1.14,1.63,2.18,3.36,3.03,5.16
		c1.4,2.96,2.6,2.39,4.49,0.3c28.88-31.89,50.62-67.96,63.94-108.97c0.85-2.62,2.73-5.38-1.52-7.27c-1.73-0.77-1.33-2.83,0-4.29
		c1.29-1.42,3.03-1.93,4.79-2.5c25.68-8.32,49.04-20.75,68.22-40.01c16.83-16.9,28.28-36.86,32.03-60.76
		C1324.2,429.29,1324.59,416.44,1323.26,403.45z M1252.73,482.06c-6.35,8.81-14.71,10.29-23.13,3.82c-2.46-1.89-3.5-1.52-5.6,0.39
		c-9.65,8.8-21.7,7.88-29.75-2.02c-0.52-0.64-1.03-1.32-1.44-2.03c-1.12-1.94-1.37-3.88,0.82-5.21c2.04-1.24,3.29-0.01,4.5,1.66
		c5.08,7.03,10.74,8.85,17.5,5.77c7.35-3.35,11.32-11.35,9.61-18.96c-0.38-1.68-1.6-1.85-2.71-2.51c-2.48-1.49-5.7-2.18-6.43-5.67
		c-3.19-2.83-3.16-4.98,0.36-6.48c5.66-2.42,11.65-2.43,17.56-1.28c3.2,0.61,4.67,2.97,3.72,6.37c0.66,2.86-1.39,4.87-3.22,5.64
		c-3.62,1.53-3.8,4.08-3.64,7.19c0.07,1.49,0.24,3.1-0.22,4.47c-1.61,4.84,0.86,7.53,4.73,9.49c4.38,2.21,8.02,0.6,11.29-2.47
		c0.6-0.56,1.08-1.26,1.58-1.93c1.36-1.85,2.06-5.64,5.25-3.53C1256.86,476.98,1254.31,479.88,1252.73,482.06z"/>
	<path class="st2" d="M973.16,434.56c-7.08,13.36-9.37,27.98-11.02,42.73c-2.37,21.11-7.81,41.19-20.04,58.87
		c-17.97,25.98-43.35,37.17-74.37,35.14c-34.43-2.26-61.24-18.56-77.77-48.7c-20.38-37.15-20.26-74.37,5.04-109.94
		c0.19-0.27,0.29-0.59,0.43-0.89c3.41-0.32,6.81-0.58,10.2-0.77c7.34-0.41,14.66-0.52,21.95-0.36c1.02,0.02,2.03,0.05,3.05,0.08
		c2.8,0.08,5.6,0.21,8.39,0.38c0.83,0.04,1.66,0.1,2.49,0.15c0.74,0.05,1.48,0.1,2.22,0.16c0.42,0.03,0.84,0.05,1.25,0.09
		c1.51,0.11,3.03,0.24,4.54,0.38c0.96,0.08,1.92,0.17,2.88,0.27c3.4,0.33,6.8,0.71,10.19,1.15c0.85,0.1,1.69,0.21,2.53,0.32
		c1.04,0.14,2.08,0.28,3.11,0.43c1.04,0.15,2.07,0.3,3.11,0.45c1.95,0.29,3.9,0.59,5.85,0.91c0.97,0.16,1.94,0.32,2.92,0.49
		c0.7,0.11,1.4,0.23,2.1,0.36c0.82,0.14,1.63,0.29,2.45,0.44c1.05,0.18,2.1,0.37,3.14,0.57c0.83,0.16,1.66,0.32,2.49,0.48
		c1.45,0.28,2.91,0.57,4.37,0.86c2.92,0.59,5.83,1.2,8.74,1.83c0.1,0.01,0.2,0.03,0.29,0.06c0.88,0.19,1.75,0.38,2.63,0.58
		c1.45,0.32,2.9,0.65,4.35,0.99c1.45,0.33,2.91,0.67,4.36,1.01c2.4,0.57,4.81,1.14,7.21,1.7c3.61,0.84,7.23,1.66,10.84,2.46
		C946.35,430.16,959.68,432.74,973.16,434.56z"/>
	<path class="st3" d="M1186.2,342.16c-6.5,0.03-11.09-2.57-14.62-8.38c-0.3-0.5-0.6-1-0.89-1.51c-0.29-0.51-0.57-1.02-0.83-1.54
		c-0.81-1.55-1.55-3.12-2.24-4.7c0-0.01,0-0.01,0-0.01c-1.16-2.65-2.22-5.34-3.33-8.01c-0.45-1.07-0.9-2.14-1.36-3.2
		c-0.47-1.06-0.95-2.11-1.46-3.14c0-0.01,0-0.01,0-0.01c-0.51-1.04-1.04-2.08-1.61-3.09c-1.27-2.26-2.61-4.46-4.06-6.58
		c-0.54-0.85-1.12-1.69-1.74-2.52c-0.58-0.81-1.18-1.62-1.79-2.41c-0.61-0.8-1.23-1.58-1.87-2.35c-0.96-1.15-1.95-2.28-2.97-3.39
		c-0.34-0.36-0.68-0.73-1.03-1.09c-0.4-0.42-0.8-0.83-1.21-1.23c-1.92-1.93-3.96-3.75-6.12-5.48c-0.06-0.05-0.12-0.1-0.17-0.15
		c-0.16-0.17-0.3-0.37-0.44-0.58v-0.01c-0.17-0.28-0.32-0.58-0.51-0.85v-0.01c-2.04,0.33-4.09,0.67-6.14,1.01
		c0.76,0.85,1.5,1.71,2.22,2.58c0.35,0.44,0.72,0.87,1.08,1.32c0.72,0.87,1.41,1.75,2.09,2.64c0.14,0.2,0.3,0.41,0.46,0.62
		c0.29,0.38,0.58,0.77,0.86,1.16c0.44,0.6,0.88,1.21,1.3,1.81c0.52,0.74,1.04,1.49,1.54,2.24s0.99,1.51,1.48,2.27
		c0.96,1.53,1.89,3.07,2.78,4.63c1.06,1.85,2.07,3.74,3,5.65c0.51,0.99,0.99,1.99,1.44,3c0.47,1.01,0.92,2.03,1.36,3.05
		c0.23,0.51,0.44,1.02,0.64,1.54c0.22,0.51,0.42,1.03,0.63,1.55c0.35,0.91,0.7,1.82,1.04,2.74c0.15,0.39,0.29,0.79,0.43,1.18
		c0.28,0.79,0.55,1.59,0.82,2.39c0.19,0.53,0.36,1.06,0.52,1.6c0.17,0.54,0.34,1.08,0.51,1.62c0.33,1.07,0.65,2.16,0.95,3.25
		c0.06,0.19,0.11,0.39,0.16,0.59c0.1,0.4,0.21,0.8,0.31,1.2c0.25,1.01,0.44,2.04,0.43,3.05c-0.01,0.76-0.05,1.51-0.16,2.24
		c-0.02,0.12-0.03,0.25-0.06,0.37c0,0.04-0.01,0.07-0.02,0.11c-0.02,0.16-0.05,0.32-0.09,0.48c-0.12,0.57-0.28,1.11-0.49,1.62
		c-0.04,0.12-0.09,0.24-0.15,0.35c-0.14,0.35-0.32,0.68-0.52,0.99c-0.1,0.17-0.21,0.33-0.34,0.48c-0.02,0.03-0.05,0.07-0.08,0.1
		c-0.21,0.26-0.43,0.51-0.68,0.74l-0.39,0.33c-0.27,0.23-0.57,0.43-0.89,0.6c-0.15,0.08-0.3,0.16-0.46,0.24
		c-0.06,0.04-0.11,0.06-0.17,0.08c-0.12,0.05-0.26,0.11-0.39,0.16v0.01c0,0.01,0,0.01-0.01,0c-0.02,0.01-0.04,0.03-0.07,0.03
		c-0.16,0.07-0.33,0.12-0.5,0.17c-4.25,1.32-7.84-0.34-10.47-3.82c-0.55-0.72-1.06-1.47-1.55-2.23c-2.1-3.31-3.66-6.92-5.2-10.5
		c-3.92-9.18-8.55-17.96-14.55-25.94c-2.39-3.17-3.18-6.44-2.56-10.22v-0.01c-3.95-5.13-7.68-10.46-11.9-15.36
		c-12.28-14.28-25.13-27.96-41.95-37.14c-0.26-0.14-0.52-0.28-0.77-0.42c0,0,0,0-0.01,0c-0.49-0.25-0.97-0.49-1.44-0.71
		c-0.42-0.19-0.83-0.37-1.24-0.54c-0.4-0.17-0.81-0.32-1.21-0.47c-1.6-0.57-3.13-0.96-4.6-1.15c-0.35-0.05-0.7-0.09-1.05-0.11h-0.04
		c-0.34-0.03-0.67-0.04-1-0.04h-0.13c-0.55,0-1.07,0.04-1.6,0.1c-0.34,0.05-0.67,0.1-0.99,0.16c-0.25,0.05-0.5,0.1-0.75,0.17
		c-0.37,0.09-0.73,0.2-1.08,0.32c-4.26,1.49-7.76,5.22-10.49,11.25c-1.2,2.66-2.28,5.36-3.25,8.08c-0.26,0.74-0.52,1.48-0.76,2.22
		c-0.24,0.72-0.48,1.44-0.7,2.16c-0.81,2.58-1.52,5.19-2.16,7.81c-0.33,1.33-0.62,2.66-0.91,4c-0.16,0.74-0.31,1.48-0.46,2.22
		c-0.15,0.75-0.3,1.49-0.43,2.24c-0.41,2.22-0.77,4.44-1.1,6.67c-0.23,1.56-0.43,3.11-0.62,4.67c-0.1,0.78-0.19,1.56-0.28,2.34
		c-0.05,0.39-0.09,0.78-0.13,1.17c-0.03,0.19-0.05,0.39-0.06,0.59c-0.03,0.2-0.05,0.4-0.07,0.59c-1.65,15.78-1.16,31.51,0.67,47.25
		c0.03,0.26,0.06,0.51,0.1,0.77c0,0.04,0,0.08,0.01,0.11c0.04,0.36,0.08,0.72,0.1,1.09c0.02,0.19,0.03,0.39,0.03,0.59
		c0.02,0.33,0.02,0.66,0,0.99c0.01,0.13,0,0.26-0.01,0.39c-0.05,0.79-0.19,1.58-0.47,2.37c-0.21,0.62-0.52,1.23-0.94,1.84
		c-0.38,0.56-0.75,1.13-1.11,1.71c-0.01,0.01-0.01,0.01-0.01,0.01c-0.75,1.22-1.43,2.47-2.04,3.75c-0.19,0.41-0.39,0.81-0.57,1.23
		c-0.19,0.4-0.36,0.8-0.53,1.21c-0.13,0.3-0.25,0.61-0.38,0.92c-0.28,0.7-0.55,1.41-0.81,2.12c-0.24,0.65-0.47,1.3-0.69,1.96
		c-0.22,0.65-0.43,1.3-0.64,1.95c6.35,4.74,13.63,7.52,21.13,9.74c5.79,1.71,11.1,4.31,16.36,7.23c0.5,0.28,0.98,0.57,1.44,0.87
		c0.45,0.3,0.88,0.62,1.29,0.95c0.18,0.13,0.35,0.27,0.51,0.43c0.07,0.05,0.13,0.11,0.19,0.17c0.12,0.1,0.22,0.2,0.33,0.31
		c0.37,0.38,0.72,0.77,1.02,1.17c0.09,0.11,0.17,0.23,0.24,0.34c0.08,0.11,0.16,0.22,0.23,0.34c0.26,0.41,0.49,0.84,0.68,1.29
		c0.09,0.23,0.18,0.46,0.26,0.7c0.08,0.23,0.15,0.47,0.2,0.72c0.13,0.49,0.21,1.01,0.25,1.55c0.02,0.27,0.03,0.55,0.03,0.84
		c0,4.24-4.44,8.96-9.25,9.95c-10.57,2.17-21.03,1.87-31.44-1.46c-0.47-0.15-0.94-0.31-1.41-0.48c-0.7-0.25-1.41-0.52-2.12-0.78
		c-0.47-0.17-0.94-0.34-1.41-0.51c-1.19-0.42-2.4-0.79-3.63-1.03c-0.48-0.1-0.97-0.18-1.47-0.24c-0.94-0.1-1.89-0.12-2.87-0.01
		h-0.01c-1.16,10.57-3.15,21.12-1.09,31.8c0,0,0,0.01,0.01,0.01c18.68,28.78,58.55,45.72,97.26,33.56
		c-15.34-20.3-12.7-44.4,1.42-61.16c0.79-0.94,1.62-1.84,2.47-2.7c0.5-0.5,1-0.98,1.52-1.45c1.03-0.94,2.09-1.82,3.19-2.64
		c0.55-0.41,1.1-0.81,1.67-1.19c0.32-0.21,0.65-0.43,0.97-0.64c0.98-0.63,1.98-1.21,3-1.74c0.68-0.35,1.37-0.69,2.06-1.01
		c0.7-0.32,1.39-0.61,2.1-0.9c0.35-0.13,0.71-0.27,1.07-0.4c0.71-0.26,1.43-0.5,2.15-0.72h0.01c0.72-0.22,1.45-0.42,2.18-0.6
		c7.68-1.89,15.83-1.59,23.48,0.96c0.58,0.2,1.16,0.41,1.74,0.63c1.73,0.66,3.43,1.44,5.08,2.34c0.31,0.17,0.62,0.34,0.93,0.52
		c0.54,0.31,1.08,0.64,1.6,0.97c0.4,0.26,0.79,0.52,1.18,0.78c1.18,0.8,2.33,1.66,3.44,2.59c0.51,0.42,1.09,0.74,1.64,1.1
		C1180.58,378.76,1187.07,361.66,1186.2,342.16z M1082.79,304.25c-0.67,0.34-1.34,0.7-2,1.06c-0.25,0.13-0.5,0.27-0.75,0.41
		c-0.62,0.34-1.24,0.69-1.85,1.06c-0.05,0.02-0.09,0.05-0.14,0.08c-0.65,0.38-1.29,0.78-1.93,1.18c-0.1,0.06-0.2,0.12-0.3,0.19
		c-0.48,0.3-0.95,0.61-1.42,0.94c-0.01-0.01-0.03,0-0.04,0.02c-0.29,0.18-0.57,0.37-0.85,0.57c-0.41,0.28-0.81,0.56-1.21,0.85
		c-0.37,0.26-0.74,0.53-1.1,0.81c-0.37,0.27-0.73,0.54-1.09,0.83c-0.52,0.4-1.04,0.81-1.55,1.23c-0.46,0.37-0.91,0.75-1.35,1.14
		c-0.55,0.46-1.09,0.95-1.63,1.44c-0.33,0.3-0.69,0.67-1.07,0.97l-0.21,0.15c-0.15,0.11-0.32,0.2-0.49,0.26
		c-0.07,0.03-0.13,0.05-0.2,0.06c-0.02,0.01-0.04,0.01-0.06,0.01c-0.09,0.02-0.17,0.03-0.26,0.03c-0.07,0-0.14-0.01-0.21-0.02
		c-0.08-0.01-0.16-0.03-0.24-0.06c-0.05-0.02-0.1-0.04-0.16-0.07c-0.21-0.1-0.43-0.25-0.65-0.48c-0.07-0.06-0.14-0.13-0.21-0.21
		c-0.07-0.08-0.14-0.16-0.2-0.25c0-0.01-0.01-0.01-0.01-0.01c-0.12-0.16-0.23-0.34-0.31-0.5c-0.11-0.22-0.19-0.43-0.24-0.64
		c-0.03-0.1-0.05-0.21-0.06-0.31c-0.01-0.1-0.02-0.21-0.02-0.31c0-0.12,0.01-0.23,0.03-0.35c0-0.07,0.01-0.14,0.03-0.2
		c0.02-0.09,0.04-0.19,0.07-0.28c0.02-0.08,0.05-0.16,0.08-0.24c0.14-0.37,0.36-0.74,0.62-1.11c0.07-0.1,0.15-0.2,0.23-0.3
		c0.23-0.28,0.46-0.55,0.71-0.82c0.16-0.2,0.34-0.39,0.52-0.58c0.07-0.07,0.13-0.15,0.2-0.22c0.33-0.35,0.66-0.69,1-1.02
		c0.32-0.32,0.65-0.62,0.98-0.92c0.23-0.21,0.46-0.42,0.7-0.62c0.33-0.29,0.67-0.57,1.02-0.85c0.26-0.21,0.52-0.41,0.79-0.61
		c0.22-0.16,0.44-0.33,0.66-0.49c0.22-0.16,0.44-0.32,0.67-0.47c0.22-0.16,0.45-0.31,0.67-0.46c0.33-0.22,0.66-0.43,1-0.64
		c0.75-0.47,1.51-0.91,2.29-1.33c0.24-0.14,0.5-0.27,0.75-0.4c0.02,0,0.03-0.01,0.04-0.02c0.47-0.25,0.96-0.48,1.44-0.71
		c0.35-0.16,0.67-0.33,0.96-0.5c0.15-0.09,0.29-0.17,0.43-0.26c0.13-0.08,0.26-0.16,0.38-0.25c0.09-0.07,0.18-0.13,0.27-0.2
		c0.18-0.14,0.35-0.28,0.5-0.44c0.08-0.08,0.16-0.16,0.23-0.24c0,0,0.01,0,0.01-0.01c0.14-0.17,0.27-0.33,0.37-0.5
		c0,0,0.01,0,0.01-0.01c0.1-0.17,0.19-0.35,0.26-0.52c0.07-0.18,0.12-0.36,0.15-0.55c0.21-1.21-0.27-2.63-1.21-4.42
		c-0.38-0.73-0.76-1.45-1.15-2.18c-0.77-1.44-1.54-2.88-2.33-4.32c-0.4-0.71-0.8-1.42-1.2-2.13c-0.42-0.76-0.85-1.51-1.3-2.25
		c-0.2-0.33-0.39-0.66-0.59-0.99c-0.19-0.33-0.38-0.65-0.59-0.97c-0.43-0.7-0.86-1.39-1.3-2.07c-0.22-0.35-0.45-0.7-0.68-1.04
		c-0.23-0.38-0.48-0.75-0.73-1.11c-0.34-0.5-0.68-0.99-1.02-1.47c-0.29-0.43-0.59-0.84-0.91-1.25c-0.23-0.33-0.47-0.66-0.72-0.98
		c-0.01-0.02-0.03-0.04-0.05-0.06c-0.34-0.47-0.7-0.93-1.07-1.39c-0.9-1.14-1.83-2.25-2.81-3.34c-0.48-0.54-0.98-1.08-1.49-1.61
		c-0.51-0.53-1.03-1.05-1.56-1.57c-0.22-0.23-0.45-0.45-0.66-0.67c-0.1-0.11-0.2-0.22-0.29-0.33c-0.12-0.13-0.22-0.26-0.32-0.39
		c-0.07-0.1-0.14-0.21-0.2-0.31c-0.16-0.26-0.28-0.53-0.35-0.81c-0.02-0.07-0.03-0.14-0.04-0.21c-0.01-0.09-0.02-0.18-0.02-0.27
		c0-0.2,0.03-0.4,0.1-0.61c0.04-0.14,0.09-0.28,0.18-0.42c0.1-0.22,0.26-0.44,0.46-0.67h0.01c0.07-0.08,0.14-0.16,0.22-0.23
		c0.14-0.13,0.28-0.24,0.42-0.33c0.03-0.02,0.07-0.04,0.1-0.06c0.1-0.07,0.21-0.12,0.32-0.17c0.08-0.03,0.16-0.06,0.24-0.08
		c0.1-0.03,0.2-0.05,0.31-0.07c0.02-0.01,0.04-0.01,0.05-0.01c0.1-0.01,0.21-0.02,0.32-0.02c0.87,0,1.74,0.45,2.47,1.13
		c0.7,0.66,1.39,1.32,2.06,2c0.32,0.32,0.64,0.64,0.95,0.96c0.94,0.97,1.85,1.95,2.72,2.94c0.56,0.63,1.11,1.28,1.65,1.92
		c0.06,0.06,0.1,0.11,0.14,0.17c0.27,0.33,0.54,0.66,0.81,0.99c0.27,0.33,0.53,0.66,0.79,0.99c2.17,2.77,4.16,5.66,5.99,8.65
		c0.47,0.75,0.92,1.5,1.34,2.26c0.43,0.74,0.85,1.49,1.26,2.25c0.03,0.04,0.06,0.09,0.07,0.13c0.4,0.75,0.79,1.5,1.18,2.26
		c0.79,1.57,1.55,3.17,2.27,4.79c0.36,0.81,0.71,1.63,1.06,2.45c0.35,0.82,0.68,1.65,1,2.48c0.32,0.84,0.63,1.68,0.94,2.52
		c0.03,0.08,0.05,0.15,0.06,0.23c0.01,0.07,0.02,0.13,0.01,0.19c0.01,0.07,0.01,0.13,0.01,0.19c0.01,0.13,0.01,0.26,0.02,0.38
		C1086.16,302.02,1084.6,303.32,1082.79,304.25z M1154.23,359.38c-0.73,2.22-2.32,1.63-4.06,1.1c-6.57-1.99-13.07-1.73-19.43,0.99
		c-0.91,0.39-1.93,1.04-2.8,0.8c-0.14-0.04-0.26-0.1-0.39-0.18c-0.11-0.07-0.21-0.16-0.31-0.28c-0.05-0.05-0.09-0.1-0.13-0.16
		c-0.09-0.11-0.17-0.24-0.25-0.39c-0.23-0.44-0.33-0.84-0.33-1.21c0-0.09,0.01-0.19,0.02-0.28c0.02-0.1,0.04-0.19,0.06-0.28
		c0.02-0.06,0.04-0.13,0.07-0.19c0.11-0.28,0.27-0.54,0.48-0.78c0.07-0.08,0.13-0.15,0.2-0.22s0.14-0.14,0.22-0.21
		c0.18-0.16,0.38-0.31,0.58-0.45c0.14-0.09,0.28-0.18,0.41-0.27c0.07-0.05,0.14-0.09,0.21-0.13c4.11-2.49,8.72-2.95,13.41-2.94
		c3.18-0.22,6.29,0.32,9.33,1.15C1153.42,355.97,1154.99,357.06,1154.23,359.38z"/>
	<path class="st4" d="M730.18,679.27c-15.56,22.04-41.33,30.71-68.32,17.83v-0.01h-0.01c-0.6-1.22-1.19-2.44-1.77-3.66
		c-0.44-0.91-0.87-1.83-1.3-2.75c-1.29-2.75-2.53-5.51-3.73-8.29c-0.71-1.64-1.41-3.29-2.09-4.94c-0.46-1.1-0.9-2.21-1.34-3.31
		c-0.88-2.21-1.73-4.43-2.55-6.65c-1.24-3.34-2.4-6.7-3.5-10.07c-0.73-2.25-1.43-4.5-2.1-6.77c-0.23-0.76-0.45-1.53-0.67-2.3
		c-0.03-0.08-0.05-0.16-0.07-0.25c-0.2-0.67-0.38-1.34-0.57-2.01c-0.14-0.52-0.28-1.03-0.42-1.55c-0.14-0.52-0.27-1.03-0.41-1.56
		c-0.23-0.86-0.45-1.71-0.66-2.57c-0.57-2.29-1.11-4.59-1.62-6.89c-0.25-1.16-0.49-2.31-0.73-3.47
		c-2.83-13.89-4.42-28.09-4.56-42.67c4.71-8.46,10.26-16.02,18.08-22.17c19.47-15.31,49.5-14.47,69.72,6.63
		C748.31,599.76,752.43,647.76,730.18,679.27z"/>
	<path class="st5" d="M1323.25,403.46c-3.18-31.19-14.69-58.74-35.59-82.2c-0.92-1.04-1.61-2.06-2.06-3.14v-0.01
		c-0.18-0.41-0.32-0.82-0.42-1.24c-0.07-0.28-0.13-0.57-0.17-0.86c-0.11-0.73-0.13-1.51-0.06-2.34c0.79-9.62,1.36-19.26,0.95-28.91
		c-0.04-1.06-0.09-2.13-0.14-3.19c-0.1-1.94-0.21-3.88-0.33-5.81c-0.03-0.43-0.06-0.85-0.1-1.27c-0.05-0.82-0.12-1.65-0.19-2.47
		c-0.04-0.53-0.09-1.06-0.14-1.59c-0.05-0.52-0.1-1.05-0.16-1.58c-0.05-0.49-0.1-0.98-0.16-1.47c-0.07-0.69-0.15-1.38-0.25-2.08
		c-0.08-0.63-0.16-1.25-0.25-1.88c-0.06-0.45-0.13-0.9-0.2-1.35c-0.13-0.88-0.27-1.77-0.43-2.65v-0.01
		c-0.49-2.77-1.09-5.52-1.81-8.25v-0.01c-0.61-2.27-1.31-4.53-2.12-6.76c-0.17-0.45-0.33-0.9-0.5-1.34
		c-0.17-0.45-0.34-0.89-0.52-1.33c-0.18-0.45-0.37-0.89-0.56-1.33c-0.5-1.17-1.02-2.24-1.54-3.22c-0.18-0.33-0.35-0.65-0.53-0.95
		c-0.24-0.4-0.49-0.79-0.73-1.16c-0.6-0.89-1.21-1.66-1.85-2.34c-0.24-0.26-0.49-0.5-0.75-0.73c-0.13-0.11-0.25-0.22-0.38-0.33
		c-0.13-0.1-0.26-0.21-0.39-0.31c-0.26-0.19-0.53-0.38-0.8-0.55c-0.14-0.08-0.27-0.16-0.41-0.24c-0.14-0.07-0.28-0.15-0.42-0.21
		c-0.14-0.07-0.28-0.14-0.43-0.2c-0.43-0.19-0.87-0.34-1.33-0.47c-0.3-0.08-0.61-0.15-0.93-0.21c-0.85-0.14-1.74-0.19-2.69-0.14
		c-0.24,0.01-0.47,0.03-0.71,0.06c-0.11,0.01-0.23,0.02-0.34,0.03c-0.17,0.02-0.34,0.04-0.51,0.07c-0.13,0.02-0.26,0.04-0.4,0.07
		c-0.13,0.02-0.27,0.04-0.41,0.07c-0.14,0.03-0.28,0.05-0.42,0.08c-0.17,0.04-0.33,0.08-0.5,0.12c-0.15,0.03-0.3,0.07-0.46,0.11
		c-0.24,0.06-0.49,0.13-0.73,0.2c-0.58,0.17-1.17,0.36-1.78,0.57c-0.88,0.31-1.79,0.67-2.74,1.07c-0.53,0.22-1.05,0.46-1.56,0.7
		c-1.03,0.48-2.03,1-3.01,1.53c-0.49,0.28-0.99,0.56-1.47,0.85c-0.96,0.57-1.9,1.17-2.83,1.78c-0.01,0.01-0.01,0.01-0.01,0.01
		c-0.7,0.47-1.39,0.94-2.07,1.43c-1.36,0.98-2.69,2-4,3.04c-0.66,0.52-1.31,1.06-1.95,1.59c-1.73,1.44-3.43,2.91-5.13,4.38
		c-1.16,1.01-2.31,2.03-3.43,3.07c-1.13,1.04-2.24,2.1-3.33,3.17c-5.17,5.07-9.99,10.51-14.54,16.32c-0.76,0.95-1.51,1.92-2.25,2.9
		c-0.48,0.63-0.95,1.26-1.41,1.89c-0.01,0-0.01,0.01-0.01,0.01c0.82,0.31,1.64,0.6,2.47,0.87c0.83,0.28,1.65,0.54,2.47,0.79
		c0.56,0.17,1.1,0.34,1.64,0.51c0.54,0.16,1.08,0.33,1.62,0.52c0.54,0.17,1.07,0.36,1.6,0.54c0.52,0.19,1.04,0.39,1.55,0.6
		c0.52,0.21,1.02,0.43,1.52,0.67c0,0.01,0,0.01,0.01,0c1.3,0.63,2.55,1.35,3.71,2.23c0.47,0.35,0.92,0.73,1.36,1.14
		c0.22,0.21,0.44,0.42,0.65,0.64c0.27,0,0.54,0.01,0.8,0.03c0.12,0,0.24,0.01,0.36,0.03c0.01-0.01,0.02-0.01,0.03,0
		c0.17,0,0.33,0.02,0.49,0.05c0.17,0.02,0.33,0.04,0.48,0.08c0.05,0,0.1,0.01,0.14,0.03c0.11,0.02,0.22,0.04,0.33,0.07
		c0.18,0.03,0.36,0.08,0.53,0.13c0.23,0.07,0.46,0.15,0.67,0.24c0.22,0.08,0.43,0.17,0.64,0.28c0.21,0.1,0.41,0.21,0.61,0.34h0.01
		c0.39,0.23,0.75,0.5,1.1,0.81c0.18,0.16,0.36,0.33,0.53,0.5c0.17,0.17,0.34,0.35,0.49,0.54c0.17,0.18,0.33,0.38,0.47,0.58
		c0.3,0.41,0.59,0.85,0.88,1.32c0.14,0.23,0.28,0.48,0.42,0.73c0.14,0.25,0.28,0.5,0.41,0.77c4.46,9.04,10.23,17.43,13.41,27.13
		c1.45,4.42,3.06,8.84,2.44,13.53c-0.16,1.19-0.42,2.47-1.02,3.53c-0.06,0.13-0.14,0.26-0.22,0.38c-0.09,0.13-0.18,0.26-0.28,0.38
		c-0.09,0.12-0.2,0.24-0.31,0.34c-0.1,0.11-0.22,0.21-0.34,0.3c-0.12,0.1-0.25,0.2-0.39,0.28c-0.13,0.1-0.28,0.17-0.43,0.24
		c-0.15,0.08-0.3,0.14-0.47,0.2c-0.17,0.05-0.35,0.11-0.53,0.15c-0.82,0.2-1.63,0.28-2.39,0.24c-0.1,0-0.2-0.01-0.29-0.02
		c-0.15-0.01-0.29-0.03-0.43-0.05c-0.21-0.03-0.42-0.07-0.63-0.11c-0.69-0.16-1.34-0.42-1.95-0.77c-0.24-0.14-0.48-0.3-0.71-0.47
		c-0.23-0.18-0.46-0.36-0.68-0.57c-0.16-0.16-0.31-0.32-0.47-0.49c-0.15-0.17-0.3-0.35-0.44-0.53c-1.32-1.68-2.63-3.51-3.37-5.49
		c-5.84-15.7-13.71-30.14-25.45-42.28c-0.53-0.54-0.66-1.46-0.98-2.21c-1.13-0.5-2.28-0.92-3.45-1.26c-2.11-0.6-4.28-0.91-6.53-0.85
		c1.47,1.29,2.88,2.61,4.23,3.97c0.34,0.33,0.68,0.68,1.01,1.03c0.67,0.69,1.31,1.39,1.95,2.09c2.85,3.19,5.41,6.56,7.68,10.11
		c0.51,0.79,1,1.59,1.47,2.4c0.24,0.41,0.47,0.81,0.7,1.22c0.46,0.82,0.9,1.65,1.34,2.48c0.59,1.15,1.16,2.32,1.7,3.51
		c1.01,2.22,1.92,4.51,2.74,6.85c0.49,1.41,0.95,2.84,1.37,4.29c0.13,0.44,0.23,0.88,0.34,1.32c0.1,0.45,0.21,0.89,0.32,1.34
		c0.11,0.44,0.23,0.88,0.37,1.31c0.14,0.43,0.3,0.85,0.49,1.25c2.59,5.53,1.42,10.27-2.68,14.51c7.74,16.92,18.13,31.94,31.96,44.5
		c1.42-1,2.75-2.11,4.12-3.16c0.69-0.53,1.38-1.04,2.11-1.52c0.36-0.24,0.73-0.47,1.11-0.69c0.19-0.12,0.38-0.23,0.58-0.32
		c0.19-0.1,0.39-0.2,0.59-0.3c6.55-3.26,12.66-4.27,18.18-3.7c0.16,0.01,0.32,0.03,0.48,0.06c0.6,0.06,1.2,0.16,1.78,0.27
		c1.01,0.18,1.98,0.42,2.94,0.71c0.15,0.04,0.29,0.08,0.43,0.13c0.39,0.12,0.78,0.25,1.16,0.4c1.1,0.39,2.16,0.85,3.19,1.37
		c0,0,0,0,0.01,0.01c0.53,0.27,1.04,0.54,1.55,0.83c0.5,0.29,1,0.6,1.49,0.91c0.66,0.43,1.3,0.88,1.93,1.36
		c0.62,0.47,1.22,0.95,1.8,1.45c0,0,0.01,0,0.01,0.01c0.59,0.51,1.15,1.03,1.7,1.56c1.38,1.35,2.65,2.8,3.79,4.32
		c0.4,0.53,0.79,1.07,1.17,1.61c1.1,1.62,2.07,3.29,2.89,4.98c0.93,1.9,1.72,3.8,2.38,5.7c0.11,0.3,0.21,0.61,0.31,0.92
		c0.48,1.47,0.89,2.94,1.21,4.42c0.25,1.09,0.45,2.18,0.61,3.28c0.47,3.15,0.6,6.31,0.43,9.47c-0.05,0.88-0.12,1.76-0.22,2.64
		c0,0.01,0,0.02,0,0.02c-0.1,0.88-0.22,1.76-0.36,2.64c-0.01,0.01,0,0.02,0,0.02c-0.14,0.88-0.31,1.76-0.5,2.65
		c-0.1,0.45-0.2,0.9-0.3,1.35c-0.21,0.88-0.44,1.76-0.7,2.64c-0.01,0.01,0,0.02,0,0.02c-0.63,2.23-1.4,4.45-2.3,6.68
		c3.45,2.91,7.58,4.54,11.77,6.03C1324.18,429.3,1324.57,416.45,1323.25,403.46z M1242.64,290.69c-0.17-0.13-0.33-0.26-0.47-0.4
		c-0.19-0.19-0.34-0.39-0.45-0.6c-0.04-0.06-0.07-0.13-0.1-0.2c-0.03-0.05-0.05-0.09-0.06-0.14c-0.04-0.06-0.06-0.13-0.08-0.2
		c-0.04-0.14-0.08-0.28-0.1-0.43c-0.03-0.15-0.04-0.3-0.05-0.45c-0.01-0.09-0.01-0.19-0.01-0.28c0-0.12,0.01-0.24,0.02-0.36
		c0-0.09,0.01-0.18,0.03-0.26c0-0.06,0.01-0.13,0.02-0.19c0.02-0.14,0.05-0.28,0.08-0.42s0.06-0.28,0.1-0.42
		c0.18-0.68,0.37-1.36,0.57-2.04c0.09-0.34,0.19-0.67,0.29-1.01c0.09-0.34,0.19-0.68,0.3-1.02c0.23-0.77,0.47-1.55,0.72-2.32
		c0.26-0.82,0.53-1.64,0.81-2.46c0.24-0.72,0.5-1.45,0.76-2.17c0.24-0.65,0.48-1.3,0.74-1.95c0.06-0.15,0.12-0.31,0.18-0.46
		c0.2-0.54,0.42-1.07,0.64-1.61c0.15-0.36,0.3-0.73,0.46-1.1c0.39-0.95,0.81-1.9,1.25-2.84c0.12-0.26,0.25-0.53,0.37-0.8
		c0.55-1.18,1.13-2.35,1.74-3.5c0.24-0.46,0.49-0.91,0.74-1.37c0.21-0.39,0.43-0.78,0.65-1.17c0.23-0.42,0.47-0.84,0.72-1.25
		c0.15-0.26,0.31-0.53,0.47-0.79c0.05-0.09,0.1-0.17,0.15-0.25c0.29-0.5,0.6-0.98,0.91-1.46c0.42-0.65,0.84-1.3,1.28-1.94
		c0.44-0.64,0.88-1.28,1.34-1.91c0.3-0.41,0.62-0.8,0.95-1.17c0.17-0.18,0.35-0.36,0.53-0.52c0.18-0.17,0.36-0.32,0.56-0.47
		c0.2-0.15,0.4-0.29,0.61-0.42c0.21-0.13,0.43-0.25,0.66-0.35c0.23-0.11,0.46-0.2,0.71-0.28c0.25-0.08,0.5-0.15,0.77-0.2
		c0.57,0.2,1.02,0.42,1.37,0.68c0.06,0.04,0.11,0.08,0.16,0.13c0.05,0.04,0.1,0.09,0.14,0.14c0.18,0.18,0.31,0.37,0.4,0.57v0.01
		c0.2,0.49,0.15,1.06-0.12,1.67c-0.06,0.12-0.12,0.25-0.19,0.37c-0.04,0.08-0.09,0.15-0.14,0.23c-0.04,0.08-0.09,0.15-0.15,0.23
		c-0.11,0.16-0.23,0.32-0.36,0.48c-0.27,0.34-0.54,0.68-0.81,1.03c-0.17,0.23-0.35,0.46-0.51,0.69c-0.43,0.58-0.85,1.17-1.24,1.76
		c-0.2,0.29-0.39,0.59-0.59,0.89c-0.21,0.32-0.42,0.65-0.61,0.97c-0.18,0.28-0.35,0.57-0.51,0.85c-0.35,0.57-0.67,1.14-0.98,1.72
		c-0.32,0.57-0.63,1.15-0.93,1.73c-0.26,0.5-0.51,1-0.76,1.5c-0.34,0.7-0.67,1.4-0.99,2.1c-0.31,0.68-0.62,1.37-0.92,2.06
		c-0.3,0.7-0.59,1.39-0.88,2.09c-0.29,0.7-0.57,1.4-0.85,2.1c-0.22,0.53-0.42,1.06-0.63,1.59c-0.42,1.07-0.83,2.13-1.24,3.2
		c-0.12,0.31-0.21,0.63-0.32,0.94c-0.72,1.97-1.24,3.42-1.5,4.55c-0.05,0.21-0.09,0.4-0.11,0.59c-0.02,0.14-0.04,0.27-0.05,0.4
		c-0.02,0.15-0.03,0.3-0.02,0.43c0,0.15,0.01,0.28,0.04,0.41c-0.01,0.02,0,0.05,0.01,0.07c0.01,0.12,0.04,0.23,0.08,0.34
		c0,0.03,0.01,0.06,0.02,0.08c0.03,0.08,0.06,0.16,0.1,0.24c0.04,0.09,0.09,0.18,0.14,0.27c0.05,0.09,0.11,0.17,0.18,0.26
		c0.1,0.14,0.22,0.28,0.37,0.41c0.02,0.02,0.05,0.05,0.09,0.08c0.31,0.28,0.69,0.56,1.15,0.85c0.61,0.39,1.36,0.81,2.27,1.28
		c0.46,0.24,0.95,0.49,1.49,0.77c2.06,1.07,4.01,2.36,5.93,3.66c0.2,0.14,0.38,0.28,0.53,0.44c0.14,0.13,0.26,0.27,0.36,0.42
		c0.06,0.08,0.11,0.16,0.15,0.24c0.06,0.11,0.11,0.22,0.15,0.34c0.06,0.19,0.09,0.37,0.09,0.57c0,0.44-0.16,0.92-0.52,1.42
		c-0.13,0.18-0.27,0.33-0.41,0.45c-0.06,0.05-0.11,0.1-0.17,0.13c-0.05,0.04-0.11,0.07-0.16,0.1c-0.05,0.02-0.1,0.04-0.15,0.07
		c-0.06,0.03-0.13,0.05-0.19,0.07c-0.63,0.2-1.33,0.06-2.04-0.28c-4.8-2.28-9.62-4.53-14.39-6.87c-0.11-0.05-0.21-0.11-0.31-0.16
		C1242.82,290.81,1242.73,290.75,1242.64,290.69z M1261.71,352.16c-0.24,0.12-0.49,0.23-0.73,0.33c-0.12,0.05-0.24,0.1-0.36,0.14
		s-0.24,0.07-0.36,0.1c-0.21,0.05-0.42,0.07-0.61,0.04c-0.05,0-0.1-0.01-0.14-0.02c-0.07-0.01-0.14-0.03-0.21-0.06
		c-0.07-0.02-0.13-0.04-0.19-0.08c-0.14-0.07-0.28-0.18-0.41-0.33c-0.05-0.05-0.09-0.1-0.13-0.16c-0.05-0.05-0.09-0.11-0.13-0.18
		c-0.04-0.06-0.08-0.13-0.12-0.2c-0.84-1.57,0.27-2.47,1.38-3.24c0.21-0.15,0.43-0.29,0.64-0.43c0.32-0.21,0.65-0.41,0.98-0.6
		c0.33-0.19,0.67-0.37,1-0.54c0.34-0.17,0.68-0.33,1.02-0.48c0.34-0.15,0.69-0.29,1.04-0.42c0.27-0.1,0.53-0.2,0.8-0.28
		c0.26-0.09,0.53-0.17,0.8-0.24c0.28-0.07,0.57-0.15,0.85-0.21c0.81-0.19,1.64-0.32,2.49-0.39c0.22-0.02,0.43-0.03,0.65-0.04
		c0.44-0.04,0.89-0.05,1.34-0.04c1.15,0.1,2.32,0.08,3.44,0.33c0.19,0.04,0.38,0.09,0.58,0.14c0.19,0.05,0.38,0.1,0.57,0.16
		c0.11,0.03,0.22,0.07,0.32,0.12c0.13,0.04,0.26,0.09,0.38,0.16c0.12,0.05,0.24,0.12,0.36,0.19c0.66,0.43,1.11,1.05,1.04,2.05
		c0,0.06,0,0.13-0.01,0.19c-0.29,2.3-2.18,1.99-3.87,1.67C1269.68,349.01,1265.63,350.3,1261.71,352.16z"/>
	<path class="st3" d="M548.46,256.16c3.69-17.14,5.89-34.42,5.11-52c12.04-3.28,23.58-8.2,36.02-10.29
		c7.86-1.32,15.76-3.41,22.59-8.03c2.79,10.75,2.48,21.73,1.63,32.59c-1.1,14.04-3.34,27.96-6.9,41.63
		c-1.73-0.53-3.56-0.85-5.16-1.64c-15.39-7.49-31.19-8.68-47.49-3.36C552.41,255.67,550.4,255.81,548.46,256.16z"/>
	<path class="st5" d="M541.24,368.02c-3.49-17.55-4.51-35.26-3.22-53.08c0.38-5.28,1.43-10.51,2.17-15.77
		c1.87,0.09,3.55-0.45,5.26-1.2c16.09-7.09,32.51-8.22,49.28-2.54c1.37,0.47,2.91,0.47,4.37,0.68c-0.78,11.86-2.72,23.64-2.09,35.58
		c0.25,4.78,0.58,9.56,0.88,14.33c-13.65-0.67-26.52,2.04-38.67,8.44C552.44,358.03,547.11,363.35,541.24,368.02z"/>
	<path class="st4" d="M606.13,381.04c5.58,13.11,12.44,25.48,21.11,36.82c-0.76,1.93-2.63,2.41-4.22,3.24
		c-13.41,7.02-23.06,17.43-28.8,31.51c-1.55,3.8-1.65,8.11-4.22,11.51c-15.06-15.53-26.81-33.26-35.35-53.13
		c-0.38-0.89-0.43-1.92-0.63-2.89c1.67,0.09,2.13-1.37,2.96-2.34c9.76-11.41,21.42-19.71,36.56-22.34
		C597.74,382.68,601.93,381.83,606.13,381.04z"/>
	<path class="st5" d="M545.81,168.8c-4.89-10.32-10.85-20.25-13.47-31.47c-3.27-14.01,3.49-25.98,15.94-28.75
		c6.71-1.5,13.38-0.41,19.3,2.92c12.45,7,21.97,17.02,28.78,29.58c-4.23,1.82-4.64,6.94-8.56,9.37
		c-8.29,5.14-17.47,7.91-26.35,11.55C556.2,164.16,550.24,164.73,545.81,168.8z"/>
	<path class="st6" d="M545.81,168.8c4.42-4.06,10.39-4.64,15.64-6.79c8.88-3.64,18.07-6.41,26.35-11.55
		c3.92-2.43,4.33-7.56,8.56-9.37c8.91,13.63,14.29,28.51,15.81,44.75c-6.83,4.62-14.73,6.71-22.59,8.03
		c-12.45,2.09-23.98,7.01-36.02,10.29C552.49,192.05,549.6,180.32,545.81,168.8z"/>
	<path class="st6" d="M599.09,296.11c-1.46-0.22-2.99-0.22-4.37-0.68c-16.77-5.68-33.18-4.55-49.28,2.54
		c-1.71,0.75-3.4,1.29-5.26,1.2c0.54-11.24,3.79-21.99,6.02-32.93c0.69-3.37,1.51-6.72,2.27-10.08c1.94-0.35,3.95-0.49,5.8-1.1
		c16.3-5.33,32.09-4.13,47.49,3.36c1.61,0.78,3.44,1.1,5.16,1.64c-2.57,10.87-5.04,21.75-6.87,32.78
		C599.86,293.96,599.42,295.02,599.09,296.11z"/>
	<path class="st6" d="M606.13,381.04c-4.2,0.8-8.38,1.65-12.59,2.38c-15.14,2.64-26.8,10.93-36.56,22.34
		c-0.83,0.97-1.29,2.43-2.96,2.34c-5.53-9.61-8-20.3-10.86-30.85c-0.82-3.03-1.29-6.15-1.92-9.23c5.87-4.68,11.2-9.99,17.97-13.55
		c12.15-6.4,25.02-9.12,38.67-8.44C599.11,358.05,602.09,369.67,606.13,381.04z"/>
	<path class="st6" d="M589.99,464.12c2.57-3.4,2.68-7.72,4.22-11.51c5.74-14.07,15.39-24.49,28.8-31.51
		c1.59-0.83,3.47-1.32,4.22-3.24c7.13,8.59,15.18,16.22,24,23.04c-7.12,2.97-12.45,8.26-17.35,13.9
		c-8.55,9.84-14.47,20.97-14.92,34.39C608.31,481.99,598.34,473.99,589.99,464.12z"/>
	<path class="st5" d="M618.97,489.19c0.45-13.42,6.37-24.55,14.92-34.39c4.9-5.64,10.24-10.93,17.35-13.9
		c5.54,3.33,11.03,6.75,16.65,9.93c2.07,1.17,2.77,1.94,0.8,3.9c-12.53,12.48-21.67,27.22-28.52,43.44c-1,2.36-1.89,2.92-4.34,1.47
		C630.13,496.29,624.12,493.45,618.97,489.19z"/>
	<path class="st7" d="M1186.2,342.16c0,0.01-0.01,0.01-0.01,0.01c-6.5,0.03-11.09-2.57-14.62-8.38c-0.3-0.5-0.6-1.01-0.88-1.52
		c-0.29-0.51-0.57-1.02-0.83-1.54c-0.81-1.55-1.55-3.12-2.24-4.7c0-0.01,0-0.01,0-0.01c-1.17-2.65-2.23-5.34-3.33-8.01
		c-0.45-1.07-0.9-2.14-1.36-3.2c-0.47-1.06-0.95-2.11-1.46-3.14c0-0.01,0-0.01,0-0.01c-0.51-1.04-1.05-2.07-1.62-3.08
		c-1.28-2.26-2.63-4.46-4.05-6.59c-0.56-0.85-1.14-1.7-1.74-2.52c-0.58-0.81-1.18-1.62-1.79-2.41c-0.61-0.8-1.23-1.58-1.87-2.35
		c-0.96-1.15-1.95-2.28-2.97-3.39c-0.34-0.36-0.68-0.73-1.03-1.09c-0.4-0.42-0.8-0.83-1.21-1.23c-1.93-1.91-3.97-3.74-6.13-5.47
		c-0.06-0.04-0.11-0.09-0.16-0.16c-0.17-0.16-0.31-0.37-0.44-0.58v-0.01c-0.18-0.28-0.34-0.58-0.52-0.85h0.01
		c8.12-2.54,16.47-3.07,24.91-2.94c15.12,15.22,24.07,33.41,26.32,54.8C1189.52,336.98,1189.34,340.13,1186.2,342.16z"/>
	<path class="st8" d="M1019.59,362.07c6.35,4.74,13.63,7.52,21.13,9.74c5.79,1.71,11.1,4.31,16.36,7.23
		c4.01,2.23,6.66,5.14,6.67,9.68c0,4.24-4.44,8.96-9.25,9.95c-10.57,2.17-21.03,1.87-31.44-1.46c-4.18-1.34-8.27-3.55-12.92-3.05
		C1012.26,383.16,1014.64,372.23,1019.59,362.07z"/>
	<path class="st8" d="M1131.8,282.94c12.11,13.62,20.32,29.33,25.15,46.84c0.44,1.58,0.91,3.23,0.9,4.84
		c-0.03,4.04-1.2,7.77-5.47,9.1c-4.24,1.32-7.84-0.35-10.47-3.82c-2.92-3.87-4.86-8.32-6.75-12.73
		c-3.92-9.18-8.54-17.97-14.55-25.94c-2.39-3.17-3.17-6.45-2.56-10.23c4.1,1.17,7.08,0.87,6.01-4.64c-0.31-1.61,0.71-1.96,1.93-2.21
		C1127.94,283.75,1129.87,283.34,1131.8,282.94z"/>
	<path class="st7" d="M1223.96,338.77c-5.88,0.2-8.96-3.41-11.24-8.18c-6.08-12.73-13.21-24.82-21.59-36.19
		c-4.16-5.64-9.22-10.38-14.13-15.29c0.49-0.04,0.98-0.07,1.47-0.1c7.58-0.41,15.07,0.21,22.46,2.08h0.01
		c1.47,1.29,2.88,2.61,4.23,3.97c0.34,0.34,0.68,0.68,1.01,1.03c0.66,0.69,1.31,1.39,1.95,2.09c2.85,3.19,5.41,6.56,7.68,10.11
		c0.5,0.79,0.99,1.59,1.47,2.4c0.24,0.41,0.47,0.81,0.7,1.22c0.46,0.82,0.9,1.65,1.34,2.48c0.59,1.15,1.16,2.32,1.7,3.51
		c1.01,2.22,1.92,4.51,2.74,6.85c0.48,1.41,0.94,2.84,1.36,4.29c0.13,0.44,0.24,0.88,0.35,1.32c0.1,0.45,0.21,0.89,0.32,1.34
		c0.11,0.44,0.23,0.88,0.37,1.31c0.13,0.43,0.29,0.85,0.48,1.25C1229.23,329.79,1228.06,334.53,1223.96,338.77z"/>
	<path class="st8" d="M1227.44,282.96c4.67-0.02,7.28,2.25,9.39,6.53c4.46,9.05,10.23,17.43,13.41,27.13
		c1.45,4.42,3.06,8.84,2.44,13.53c-0.32,2.38-1.02,5.11-3.97,5.8c-3.17,0.75-5.99-0.2-8.01-2.77c-1.32-1.69-2.63-3.51-3.37-5.49
		c-5.84-15.7-13.72-30.13-25.45-42.28c-0.53-0.54-0.66-1.47-0.98-2.21c3.42-0.58,6.45,1.05,9.46,2.08
		C1223.67,286.4,1225.68,285.58,1227.44,282.96z"/>
	<path class="st9" d="M1169.22,394.28c-0.55-0.36-1.14-0.68-1.64-1.1c-1.11-0.93-2.26-1.79-3.44-2.6c-0.39-0.26-0.78-0.52-1.18-0.78
		c-0.52-0.33-1.06-0.66-1.6-0.97c-0.31-0.18-0.62-0.35-0.93-0.52c-1.65-0.9-3.35-1.68-5.08-2.34c-0.58-0.22-1.16-0.43-1.74-0.63
		c-7.65-2.55-15.8-2.85-23.48-0.96c-0.73,0.18-1.46,0.38-2.18,0.6h-0.01c-0.72,0.22-1.44,0.46-2.15,0.72
		c-0.36,0.13-0.72,0.27-1.07,0.4c-0.71,0.29-1.4,0.58-2.1,0.9c-0.69,0.32-1.38,0.66-2.06,1.01c-1.01,0.54-2.02,1.12-3,1.74
		c-0.32,0.21-0.65,0.43-0.97,0.64c-0.57,0.38-1.12,0.78-1.67,1.19c-1.1,0.82-2.16,1.7-3.19,2.64c-0.52,0.47-1.02,0.95-1.52,1.45
		c-0.85,0.86-1.68,1.76-2.47,2.7c-14.12,16.76-16.76,40.86-1.42,61.16c0.61,0.57,1.24,1.11,1.82,1.7
		c20.58,21.42,58.24,15.12,70.67-11.84C1187.88,429.72,1184.68,411.33,1169.22,394.28z M1173.74,415.13
		c-0.46-0.16-0.92-0.32-1.37-0.48c-1.94-0.7-3.71-1.45-5.51-1.92c-0.44-0.12-0.88-0.22-1.33-0.3c-0.45-0.09-0.9-0.15-1.36-0.18
		c-0.22-0.02-0.45-0.04-0.68-0.04c-1.37-0.02-2.74,0.12-4.1,0.43c-0.75,0.16-1.49,0.38-2.23,0.64c-0.25,0.08-0.5,0.17-0.74,0.27
		c-0.49,0.19-0.97,0.4-1.45,0.63c-0.24,0.11-0.48,0.23-0.72,0.36c-0.21,0.11-0.41,0.22-0.62,0.33c-0.21,0.12-0.42,0.24-0.63,0.37
		c-0.25,0.14-0.48,0.29-0.72,0.45c-0.14,0.09-0.28,0.18-0.41,0.27c-0.2,0.13-0.39,0.27-0.59,0.41c-0.56,0.4-1.11,0.83-1.64,1.29
		c-0.47,0.4-0.93,0.81-1.37,1.25c-0.14,0.13-0.28,0.27-0.41,0.41c-0.28,0.28-0.56,0.58-0.82,0.88c-0.25,0.27-0.48,0.54-0.71,0.83
		c-0.07,0.06-0.12,0.13-0.17,0.2c-0.23,0.28-0.46,0.57-0.68,0.87c-0.1,0.13-0.2,0.27-0.3,0.41c-0.37,0.49-0.71,0.99-1.02,1.51
		c-0.22,0.35-0.44,0.7-0.65,1.06c-0.34,0.6-0.66,1.21-0.95,1.83c-0.11,0.23-0.21,0.46-0.32,0.7c-0.2,0.42-0.38,0.86-0.54,1.3
		c-0.09,0.22-0.17,0.44-0.24,0.66c-0.09,0.22-0.17,0.44-0.23,0.67c-0.09,0.27-0.17,0.54-0.25,0.82c-0.08,0.27-0.16,0.54-0.23,0.82
		c-0.14,0.56-0.27,1.12-0.38,1.68c-0.04,0.22-0.08,0.43-0.12,0.64c-0.04,0.16-0.06,0.32-0.08,0.48c-0.07,0.4-0.13,0.8-0.19,1.2
		c-0.04,0.3-0.08,0.6-0.12,0.9c-0.04,0.41-0.09,0.81-0.12,1.21c-0.01,0.09-0.02,0.18-0.02,0.27c-0.02,0.24-0.04,0.48-0.05,0.73
		c-0.03,0.35-0.04,0.7-0.05,1.05c-0.01,0.13-0.01,0.25-0.01,0.38c-0.01,0.25-0.01,0.5-0.01,0.76c0,0.46,0.01,0.91,0.04,1.37
		c0.01,0.41,0.04,0.82,0.08,1.22c0.13,1.57,0.39,3.1,0.8,4.58c0.04,0.15,0.08,0.29,0.12,0.43c0.21,0.74,0.46,1.47,0.75,2.18
		c0.1,0.25,0.21,0.5,0.32,0.75c0.12,0.27,0.25,0.54,0.38,0.81c0.13,0.27,0.27,0.54,0.42,0.8c0.14,0.27,0.29,0.53,0.45,0.79
		c0.15,0.26,0.31,0.51,0.48,0.77c0.29,0.43,0.58,0.85,0.9,1.26c0,0-0.01,0,0,0.01c0.32,0.41,0.65,0.82,1,1.22
		c0.34,0.4,0.71,0.8,1.11,1.19c0.51,0.51,1.05,1.01,1.62,1.5c0.58,0.48,1.18,0.96,1.82,1.42c0.43,0.3,0.87,0.6,1.32,0.9
		c0.48,0.31,0.94,0.67,1.43,1.06c0,0.01,0,0.01,0.01,0c0.16,0.13,0.33,0.26,0.51,0.39c0,0-0.01,0-0.01,0.01
		c-0.26,0.15-0.53,0.3-0.79,0.44c-0.53,0.29-1.07,0.55-1.63,0.8c-0.27,0.12-0.55,0.23-0.83,0.35c-0.56,0.21-1.12,0.42-1.69,0.6
		c-0.18,0.06-0.36,0.11-0.54,0.17c-0.18,0.05-0.37,0.1-0.55,0.16c-0.36,0.1-0.73,0.19-1.1,0.28c-0.74,0.17-1.49,0.31-2.25,0.43
		c-0.37,0.05-0.75,0.1-1.13,0.15c-0.39,0.04-0.77,0.07-1.15,0.1c-1.71,0.12-3.45,0.11-5.2-0.04c-0.48-0.04-0.96-0.09-1.44-0.15
		c-0.69-0.09-1.38-0.2-2.07-0.32c-0.34-0.06-0.68-0.13-1.02-0.2c-0.52-0.11-1.05-0.24-1.57-0.38c-0.37-0.09-0.75-0.2-1.12-0.31
		c-0.43-0.13-0.87-0.26-1.3-0.41c-0.39-0.12-0.78-0.25-1.17-0.4c-0.34-0.13-0.68-0.26-1.01-0.39c-0.34-0.13-0.67-0.27-1.01-0.42
		c-0.33-0.14-0.66-0.29-0.99-0.44c-0.66-0.31-1.31-0.63-1.95-0.97c-0.64-0.34-1.27-0.7-1.89-1.08c-0.06-0.02-0.11-0.05-0.16-0.09
		c-0.28-0.16-0.55-0.34-0.82-0.52c-0.29-0.19-0.57-0.38-0.85-0.57c-0.59-0.41-1.18-0.84-1.75-1.28c-0.31-0.23-0.62-0.48-0.91-0.73
		c-0.22-0.18-0.45-0.37-0.66-0.57c-0.31-0.25-0.61-0.53-0.9-0.81c-0.26-0.24-0.52-0.49-0.78-0.75c-0.25-0.25-0.5-0.51-0.75-0.77
		c-0.24-0.25-0.47-0.51-0.7-0.77c-0.73-0.81-1.41-1.67-2.03-2.55c-0.95-1.33-1.79-2.73-2.51-4.2c-3.18-6.48-4.52-13.36-4.26-20.03
		c0.01-0.35,0.03-0.71,0.06-1.06c0.01-0.23,0.03-0.45,0.05-0.68c0.02-0.27,0.04-0.53,0.07-0.8c0.03-0.27,0.06-0.53,0.09-0.79
		c0.14-1.1,0.32-2.19,0.54-3.27s0.48-2.14,0.78-3.2c0.16-0.53,0.32-1.05,0.49-1.57c0.11-0.34,0.22-0.67,0.35-1
		c0.1-0.29,0.21-0.58,0.32-0.86c0.03-0.09,0.06-0.17,0.1-0.25c0.11-0.28,0.22-0.56,0.34-0.83c0.26-0.65,0.55-1.29,0.86-1.91
		c0.15-0.31,0.31-0.63,0.47-0.94c0.32-0.62,0.65-1.23,1-1.83l0.54-0.9c0.18-0.3,0.37-0.59,0.56-0.88c0.15-0.25,0.32-0.5,0.49-0.74
		c0.23-0.33,0.46-0.66,0.7-0.98c0.2-0.28,0.41-0.55,0.62-0.82c0.43-0.57,0.88-1.12,1.34-1.65c0.19-0.22,0.38-0.44,0.58-0.65
		c0.28-0.31,0.56-0.61,0.85-0.91c0.6-0.64,1.24-1.26,1.9-1.85c0.35-0.33,0.71-0.64,1.08-0.95c0.37-0.32,0.75-0.62,1.13-0.92
		c0.72-0.56,1.46-1.1,2.23-1.6c0.38-0.26,0.77-0.51,1.16-0.75c0.27-0.18,0.55-0.34,0.83-0.49c0.27-0.18,0.55-0.33,0.82-0.48
		c0.3-0.17,0.61-0.34,0.92-0.49c0.26-0.14,0.52-0.27,0.78-0.39c0.8-0.41,1.62-0.78,2.46-1.12l0.01-0.01
		c0.54-0.22,1.08-0.43,1.62-0.61c0.28-0.1,0.55-0.19,0.82-0.28c0.28-0.1,0.55-0.18,0.83-0.26c0.55-0.16,1.1-0.32,1.65-0.45
		c0.55-0.14,1.1-0.26,1.65-0.37c2.24-0.43,4.49-0.64,6.71-0.64c0.36,0,0.72,0.01,1.08,0.02c1.01,0.03,2.02,0.11,3.02,0.23
		c0.91,0.11,1.83,0.26,2.73,0.44c0.36,0.08,0.73,0.16,1.08,0.24c0.22,0.05,0.45,0.11,0.67,0.17c0.62,0.15,1.23,0.33,1.83,0.52
		c0.23,0.07,0.45,0.14,0.68,0.22c0.72,0.24,1.43,0.5,2.13,0.8c0.2,0.08,0.39,0.16,0.59,0.25c0.61,0.25,1.2,0.53,1.79,0.83
		c0.42,0.21,0.84,0.43,1.26,0.66c0.44,0.24,0.87,0.49,1.3,0.75c0.16,0.1,0.32,0.2,0.48,0.29c0.69,0.43,1.37,0.89,2.03,1.37
		c0.75,0.54,1.49,1.12,2.2,1.73c1.33,1.14,2.59,2.37,3.75,3.71c0.2,0.23,0.41,0.46,0.6,0.71c0.25,0.29,0.48,0.58,0.72,0.88
		c0.12,0.16,0.25,0.33,0.37,0.5c0.04,0.04,0.07,0.07,0.08,0.11c0.2,0.25,0.39,0.51,0.57,0.78c0.23,0.31,0.44,0.62,0.64,0.94
		c0.12,0.18,0.24,0.36,0.35,0.54c0.19,0.28,0.36,0.57,0.53,0.86c0.53,0.86,1.01,1.75,1.46,2.67c0.11,0.19,0.2,0.4,0.29,0.6
		c0.05,0.1,0.1,0.2,0.14,0.3c0.15,0.32,0.3,0.65,0.43,0.98c0.04,0.08,0.07,0.15,0.1,0.23c0.06,0.14,0.11,0.28,0.17,0.41
		c0.1,0.24,0.19,0.48,0.28,0.72c0.09,0.21,0.17,0.42,0.24,0.64c0.16,0.42,0.3,0.85,0.44,1.28
		C1174.24,415.29,1173.99,415.21,1173.74,415.13z"/>
	<path class="st9" d="M1313.45,407.88c-0.16-1.1-0.36-2.19-0.61-3.28c-0.32-1.48-0.73-2.95-1.21-4.42c-0.1-0.31-0.2-0.62-0.31-0.92
		c-0.66-1.9-1.45-3.8-2.38-5.7c-0.82-1.69-1.79-3.36-2.89-4.98c-0.38-0.54-0.77-1.08-1.17-1.61c-1.14-1.52-2.41-2.97-3.79-4.32
		c-0.55-0.53-1.11-1.05-1.7-1.56c0-0.01-0.01-0.01-0.01-0.01c-0.58-0.5-1.18-0.98-1.8-1.45c-0.63-0.48-1.27-0.93-1.93-1.36
		c-0.49-0.31-0.99-0.62-1.49-0.91c-0.51-0.29-1.02-0.56-1.55-0.83c-0.01-0.01-0.01-0.01-0.01-0.01c-1.03-0.52-2.09-0.98-3.19-1.37
		c-0.38-0.15-0.77-0.28-1.16-0.4c-0.14-0.05-0.28-0.09-0.43-0.13c-0.96-0.29-1.93-0.53-2.94-0.71c-0.58-0.11-1.18-0.21-1.78-0.27
		c-0.16-0.03-0.32-0.05-0.48-0.06c-5.52-0.58-11.63,0.42-18.19,3.68c-0.2,0.1-0.39,0.2-0.58,0.32c-0.2,0.09-0.39,0.2-0.58,0.32
		c-0.38,0.22-0.75,0.45-1.11,0.69c-0.73,0.48-1.42,0.99-2.11,1.52c-1.37,1.05-2.7,2.16-4.12,3.16
		c-10.89,12.25-15.23,26.48-13.15,42.75c2.66,20.84,20.99,35.55,40.21,31.57c12.37-2.56,20.83-10.51,26.5-21.6
		c0.89-2.22,1.66-4.44,2.31-6.66c0,0-0.01-0.01,0-0.02c0.25-0.88,0.48-1.76,0.7-2.64c0.1-0.45,0.2-0.9,0.3-1.35
		c0.18-0.88,0.35-1.77,0.5-2.65c0,0-0.01-0.01,0-0.02c0.14-0.88,0.26-1.76,0.36-2.64c0,0,0-0.01,0-0.02
		c0.09-0.88,0.17-1.76,0.22-2.64C1314.05,414.19,1313.92,411.03,1313.45,407.88z M1301.31,404.58c-0.2-0.07-0.39-0.15-0.58-0.22
		c-0.29-0.1-0.57-0.2-0.85-0.29c-0.23-0.07-0.45-0.14-0.68-0.21s-0.46-0.13-0.69-0.19c-0.19-0.05-0.38-0.1-0.57-0.14
		c-1.21-0.28-2.4-0.45-3.55-0.51c-0.28-0.01-0.56-0.02-0.84-0.02c-0.29,0-0.57,0.01-0.85,0.02c-0.04,0.01-0.09,0.01-0.13,0.01
		c-0.24,0.01-0.47,0.03-0.71,0.06c-0.21,0.02-0.43,0.05-0.65,0.08c-0.33,0.05-0.65,0.1-0.98,0.17c-0.31,0.07-0.62,0.15-0.92,0.23
		c-0.19,0.05-0.37,0.1-0.54,0.16c-0.23,0.07-0.46,0.15-0.68,0.24c-0.18,0.06-0.36,0.13-0.53,0.21c-0.15,0.06-0.31,0.13-0.47,0.2
		c-0.38,0.17-0.75,0.36-1.12,0.57c-0.77,0.43-1.51,0.93-2.22,1.5c-0.18,0.14-0.36,0.29-0.53,0.44c-0.28,0.24-0.54,0.49-0.81,0.74
		c-0.24,0.24-0.48,0.48-0.71,0.74c-0.17,0.17-0.33,0.35-0.49,0.54c-0.18,0.22-0.37,0.44-0.54,0.66c-0.13,0.17-0.27,0.33-0.39,0.51
		c-0.11,0.13-0.2,0.27-0.3,0.41c-0.2,0.28-0.4,0.57-0.59,0.86c-0.37,0.55-0.72,1.13-1.05,1.74c-0.17,0.3-0.33,0.6-0.49,0.91
		c-0.16,0.32-0.32,0.64-0.47,0.97c-0.25,0.52-0.49,1.06-0.72,1.62c-0.45,1.1-0.85,2.19-1.18,3.27c-0.04,0.14-0.08,0.27-0.12,0.4
		c-0.07,0.22-0.14,0.43-0.19,0.65c-0.11,0.37-0.21,0.75-0.3,1.12c-0.09,0.36-0.17,0.72-0.25,1.07c-0.08,0.39-0.16,0.77-0.22,1.16
		c-0.06,0.37-0.12,0.74-0.17,1.1c-0.02,0.07-0.02,0.14-0.03,0.21c-0.04,0.32-0.08,0.64-0.11,0.96c-0.03,0.31-0.06,0.63-0.08,0.94
		c-0.02,0.31-0.03,0.63-0.05,0.94c0,0.14-0.01,0.27-0.01,0.41c0,0.18-0.01,0.36-0.01,0.53c0,0.4,0.01,0.8,0.03,1.2
		c0,0.1,0.01,0.21,0.01,0.31c0.03,0.37,0.06,0.74,0.09,1.1c0.09,0.87,0.22,1.72,0.39,2.56c0,0,0,0.01,0,0.02
		c0.06,0.3,0.13,0.6,0.2,0.89c0.06,0.22,0.11,0.44,0.17,0.66c0.06,0.22,0.13,0.44,0.19,0.66c0.07,0.21,0.14,0.43,0.21,0.65
		c0.07,0.22,0.15,0.44,0.23,0.65c0.26,0.68,0.54,1.36,0.85,2.02c0,0-0.01,0.01,0,0.01c0.22,0.44,0.44,0.87,0.67,1.3
		c-0.01,0.01,0,0.01,0,0.01c0.42,0.75,0.88,1.49,1.38,2.22c0.5,0.72,1.04,1.43,1.63,2.11c-0.01,0.01-0.01,0.01,0,0.01
		c0.51,0.59,1.04,1.16,1.6,1.72c0.95,0.94,1.97,1.83,3.09,2.69c-0.01,0-0.01,0-0.02,0c-7.53,2.41-14.27,1.57-20.72-1.95
		c-9.29-5.06-13.63-13.51-14.86-23.5c-0.31-2.56-0.45-5.09-0.4-7.58c0.01-0.5,0.03-1.01,0.06-1.51c-0.01-0.01-0.01-0.02,0-0.03
		c-0.01-0.04-0.01-0.08,0-0.12c0-0.11,0.01-0.22,0.02-0.32c0.04-0.4,0.06-0.81,0.1-1.21c0.03-0.35,0.06-0.7,0.1-1.05
		s0.08-0.7,0.14-1.05c0.05-0.35,0.1-0.7,0.16-1.04c0.02-0.18,0.05-0.35,0.09-0.52c0.03-0.18,0.06-0.35,0.09-0.52
		c0.01-0.1,0.03-0.19,0.05-0.29c0.05-0.23,0.08-0.47,0.15-0.7c-0.01-0.02,0-0.04,0.01-0.06c0-0.05,0.02-0.11,0.03-0.16
		c0,0,0-0.01,0.01-0.02c0.09-0.41,0.18-0.82,0.29-1.23c0.09-0.4,0.2-0.81,0.32-1.21c0.11-0.41,0.23-0.81,0.36-1.21
		c0.14-0.47,0.3-0.94,0.47-1.41c0.15-0.43,0.31-0.85,0.48-1.27c0.02-0.06,0.04-0.11,0.07-0.17c0.06-0.18,0.14-0.34,0.21-0.52
		c0.15-0.37,0.31-0.74,0.48-1.11c0.2-0.44,0.41-0.87,0.62-1.3c0.13-0.28,0.27-0.56,0.42-0.83c0.36-0.72,0.76-1.43,1.19-2.14
		c0.14-0.24,0.29-0.49,0.44-0.73c0.59-0.95,1.22-1.88,1.9-2.81c0.24-0.33,0.49-0.66,0.75-0.98c0.19-0.24,0.38-0.48,0.58-0.71
		c0.19-0.23,0.39-0.46,0.59-0.69c0.4-0.45,0.8-0.89,1.22-1.31c0.27-0.28,0.55-0.55,0.84-0.82c0.85-0.8,1.74-1.54,2.65-2.22
		c0.31-0.23,0.61-0.45,0.92-0.66s0.63-0.42,0.94-0.62c0.29-0.18,0.58-0.35,0.87-0.52c0.17-0.1,0.34-0.2,0.51-0.29
		c0.17-0.09,0.34-0.18,0.51-0.27c0.34-0.18,0.68-0.35,1.03-0.51c0.27-0.13,0.54-0.25,0.82-0.37c0.32-0.13,0.64-0.26,0.95-0.38
		c0.34-0.13,0.67-0.25,1.01-0.36c0.3-0.1,0.61-0.2,0.91-0.29c0.32-0.1,0.64-0.19,0.97-0.27c0.3-0.08,0.6-0.15,0.91-0.21
		c0.1-0.03,0.2-0.05,0.3-0.06c0.34-0.07,0.69-0.13,1.04-0.19c0.76-0.12,1.53-0.21,2.3-0.26c0.26-0.02,0.53-0.04,0.79-0.04
		c0.26-0.01,0.53-0.01,0.79-0.01c0.33,0,0.67,0.01,1,0.02c0.28,0.01,0.57,0.03,0.85,0.05c0.41,0.03,0.81,0.07,1.21,0.12
		c0.26,0.03,0.53,0.07,0.79,0.11c0.38,0.06,0.77,0.13,1.15,0.2c0.24,0.04,0.48,0.09,0.71,0.16c0.28,0.05,0.55,0.12,0.82,0.19
		c1.55,0.4,3.06,1.01,4.52,1.78c0.03,0.03,0.07,0.04,0.11,0.06c0.3,0.15,0.6,0.32,0.89,0.5c0.29,0.17,0.58,0.35,0.87,0.54
		c0.29,0.17,0.58,0.37,0.86,0.57c0.57,0.39,1.13,0.82,1.67,1.27c0.25,0.19,0.49,0.4,0.73,0.62c1.73,1.51,3.32,3.27,4.7,5.2
		c0.16,0.22,0.32,0.44,0.47,0.67c0.16,0.23,0.31,0.46,0.46,0.69c0.21,0.32,0.41,0.65,0.61,0.98c0.28,0.47,0.54,0.94,0.79,1.41
		c0.18,0.34,0.35,0.68,0.52,1.02s0.33,0.69,0.48,1.04c0.2,0.45,0.39,0.91,0.57,1.37c0.06,0.17,0.12,0.34,0.18,0.5
		c0.07,0.17,0.13,0.34,0.18,0.51c0.06,0.14,0.1,0.28,0.15,0.43c0.05,0.16,0.1,0.32,0.15,0.47c0.04,0.13,0.08,0.27,0.12,0.39
		c0.04,0.13,0.08,0.26,0.11,0.39c0.11,0.41,0.22,0.82,0.32,1.24c0.12,0.48,0.22,0.95,0.3,1.43c0.03,0.14,0.05,0.27,0.07,0.4
		c0.11,0.62,0.19,1.24,0.25,1.86C1304.24,405.85,1302.76,405.14,1301.31,404.58z"/>
	<path class="st0" d="M1252.73,482.06c-6.35,8.81-14.71,10.29-23.13,3.82c-2.46-1.89-3.5-1.52-5.6,0.39
		c-9.65,8.8-21.7,7.88-29.75-2.02c-0.52-0.64-1.03-1.32-1.44-2.03c-1.12-1.94-1.37-3.88,0.82-5.21c2.04-1.24,3.29-0.01,4.5,1.66
		c5.08,7.03,10.74,8.85,17.5,5.77c7.35-3.35,11.32-11.35,9.61-18.96c-0.38-1.68-1.6-1.85-2.71-2.51c-2.48-1.49-5.7-2.18-6.43-5.67
		v-0.01c2.96-0.86,5.24,0.66,7.19,2.44c0.81,0.73,1.59,1.25,2.34,1.57c0.26,0.11,0.51,0.19,0.76,0.25c0.06,0.02,0.13,0.04,0.2,0.04
		c1.49,0.32,2.91-0.12,4.31-1.12c0.3-0.22,0.6-0.46,0.91-0.72c0.2-0.18,0.4-0.36,0.6-0.56c0.09-0.09,0.19-0.18,0.28-0.27
		c0.09-0.09,0.18-0.19,0.28-0.28c0.04-0.05,0.09-0.09,0.14-0.14c0.04-0.05,0.09-0.1,0.14-0.15c0.09-0.1,0.18-0.19,0.28-0.28
		c0.09-0.1,0.18-0.19,0.28-0.28c0.1-0.1,0.2-0.19,0.29-0.28c0.19-0.17,0.39-0.34,0.59-0.5c0.84-0.66,1.8-1.12,3.05-1.1
		c0.66,2.86-1.39,4.87-3.22,5.64c-3.62,1.53-3.8,4.08-3.64,7.19c0.07,1.49,0.24,3.1-0.22,4.47c-1.61,4.84,0.86,7.53,4.73,9.49
		c4.38,2.21,8.02,0.6,11.29-2.47c0.6-0.56,1.08-1.26,1.58-1.93c1.36-1.85,2.06-5.64,5.25-3.53
		C1256.86,476.98,1254.31,479.88,1252.73,482.06z"/>
	<path class="st4" d="M1237.74,455.91c-1.25-0.02-2.21,0.44-3.05,1.1c-0.2,0.16-0.4,0.33-0.59,0.5c-0.09,0.09-0.19,0.18-0.29,0.28
		c-0.09,0.08-0.18,0.18-0.28,0.28c-0.09,0.08-0.18,0.18-0.28,0.28c-0.05,0.05-0.1,0.1-0.14,0.15c-0.05,0.05-0.1,0.09-0.14,0.14
		c-0.1,0.09-0.19,0.19-0.28,0.28c-0.09,0.1-0.19,0.19-0.28,0.28c-0.2,0.2-0.4,0.38-0.6,0.55c-0.31,0.26-0.61,0.5-0.91,0.72
		c-1.4,1-2.82,1.44-4.31,1.12c-0.07,0-0.14-0.02-0.2-0.04c-0.25-0.06-0.5-0.14-0.76-0.25c-0.76-0.31-1.54-0.82-2.34-1.56
		c-1.95-1.78-4.23-3.3-7.19-2.44c-3.19-2.83-3.16-4.98,0.36-6.48c5.66-2.42,11.65-2.43,17.56-1.28
		C1237.22,450.15,1238.69,452.51,1237.74,455.91z"/>
	<path class="st9" d="M1085.99,299.63c0.17,2.39-1.39,3.69-3.2,4.62c-6.25,3.2-12.03,7.05-17.21,11.81
		c-1.01,0.92-2.19,2.44-3.75,0.64c-1.34-1.54-0.96-3.06,0.22-4.5c3.66-4.46,8.35-7.75,13.43-10.16c4.29-2.04,4.35-4.14,2.37-7.9
		c-5.42-10.33-11.03-20.48-19.5-28.73c-1.32-1.28-2.82-2.78-1.14-4.69c1.37-1.56,3.15-1.05,4.45,0.16
		c11.26,10.54,19.01,23.34,24.24,37.76C1086,298.94,1085.96,299.3,1085.99,299.63z"/>
	<path class="st0" d="M1142.19,354.3c3.18-0.22,6.29,0.32,9.33,1.15c1.9,0.52,3.47,1.61,2.71,3.93c-0.73,2.22-2.32,1.63-4.06,1.1
		c-6.57-1.99-13.07-1.73-19.43,0.99c-1.33,0.57-2.88,1.69-3.88-0.21c-1-1.92,0.49-3.16,1.92-4.02
		C1132.89,354.75,1137.5,354.29,1142.19,354.3z"/>
	<path class="st9" d="M1261.45,249.51c2.69,0.92,2.72,2.52,1.11,4.51c-5.84,7.22-9.17,15.74-12.45,24.28
		c-0.12,0.31-0.21,0.63-0.32,0.94c-2.72,7.47-2.7,7.43,4.26,11.04c2.06,1.07,4,2.36,5.93,3.66c1.24,0.84,1.74,2.05,0.76,3.42
		c-0.82,1.14-1.97,1.09-3.12,0.55c-4.8-2.28-9.62-4.53-14.39-6.87c-2.01-0.98-2.18-2.75-1.66-4.7c3.22-11.96,7.77-23.32,15.09-33.42
		C1257.85,251.28,1259.31,249.93,1261.45,249.51z"/>
	<path class="st0" d="M1271.31,344.83c1.15,0.1,2.32,0.08,3.44,0.33c1.63,0.36,3.51,0.9,3.24,3.01c-0.29,2.3-2.18,1.99-3.87,1.67
		c-4.44-0.83-8.49,0.46-12.41,2.32c-1.25,0.59-2.51,1.21-3.39-0.42c-0.84-1.57,0.27-2.47,1.38-3.24
		C1263.19,346.09,1267.03,344.77,1271.31,344.83z"/>
	<path class="st10" d="M1174.5,415.37c-4.1-1.26-7.29-3.08-11.02-3.15c-10.19-0.19-20.78,9.13-23.12,21.35
		c-2.22,11.61,0.14,21.88,10.84,28.82c0.64,0.42,1.24,0.91,1.95,1.45c-14.91,8.71-38.22,0.7-46.23-15.63
		c-10.43-21.28-1.11-46.86,20.26-55.6C1146.19,384.82,1167.93,394.99,1174.5,415.37z"/>
	<path class="st10" d="M1305.75,406.72c-12.86-7.37-23.53-3.63-29.09,9.87c-5.43,13.2-2.7,25.34,8.01,33.56
		c-7.54,2.4-14.28,1.57-20.74-1.95c-9.28-5.06-13.63-13.51-14.86-23.5c-1.43-11.58,0.8-22.5,7.87-32.13
		c7.14-9.73,18.06-14.01,28.72-11.18C1295.81,384.07,1304.6,395.01,1305.75,406.72z"/>
</g>
</svg>
