<?xml version="1.0" encoding="utf-8"?>
<!-- Generator: Adobe Illustrator 25.4.1, SVG Export Plug-In . SVG Version: 6.00 Build 0)  -->
<svg version="1.1" id="Capa_1" xmlns="http://www.w3.org/2000/svg" xmlns:xlink="http://www.w3.org/1999/xlink" x="0px" y="0px"
	 viewBox="0 0 1920 1080" style="enable-background:new 0 0 1920 1080;" xml:space="preserve">
<style type="text/css">
	.st0{fill:#0D0C0B;}
	.st1{fill:#FFFFFF;}
	.st2{fill:#8CAB9E;}
	.st3{fill:#DE8322;}
	.st4{fill:#DE8423;}
	.st5{fill:#DE8221;}
	.st6{fill:#89A99B;}
	.st7{fill:#B3641A;}
</style>
<g>
	<path class="st0" d="M1315.18,537.33c-5.56-47.77-27.93-84.69-70.57-108.35c-1.62-0.9-2.96-1.75-3.64-3.75
		c-2.37-6.95-5.68-13.49-9.6-19.7c-1.07-1.71-1.69-3.24-0.97-5.54c5.78-18.5,8.98-37.5,10.22-56.82
		c0.88-13.85,0.39-27.63-3.72-41.03c-3.38-11.02-11.38-17.01-22.83-17.52c-7.96-0.36-15.57,1.27-23.01,3.84
		c-19.23,6.63-36.61,16.7-52.54,29.22c-3.57,2.81-6.51,3.45-10.68,1.52c-7.55-3.48-15.48-6.03-23.58-7.98
		c-1.59-0.39-3.23-0.52-4.18-2.3c-3.92-7.38-9.57-13.57-14.28-20.42c-5.04-5.54-10.09-11.08-15.14-16.62
		c-2.24-1.46-4.26-3.15-5.84-5.33c-3.62-3.17-7.24-6.33-10.86-9.49c-0.36-0.27-0.72-0.53-1.08-0.8c-4.28-2.97-8.9-5.54-12.04-9.9
		c-1.25-0.16-2.2-0.78-2.9-1.82c-4.09-1.15-6.91-4.48-10.65-6.22c-0.8-0.68-1.59-1.36-2.39-2.04c-5.6-2.87-11.21-5.74-16.82-8.62
		c-2.21-2.23-5.58-2.05-8.02-3.83c-2.86-0.89-5.59-2.05-8.1-3.7c-7.04-2.78-14.09-5.56-21.13-8.35c-4-1.44-8-2.89-12-4.34
		c-4.97-1.48-9.94-2.96-14.91-4.45c-2.23-0.64-4.45-1.27-6.68-1.91c-4.08-1.04-8.16-2.08-12.24-3.12
		c-3.74-0.67-7.54-1.13-11.06-2.72c-1.36-0.24-2.71-0.49-4.06-0.74c-2.67-0.3-5.36-0.49-7.87-1.56c-6-1.01-12-2.01-18-3.01
		c-2.43,0.32-4.69-0.51-6.99-1.03c-2.42,0.33-4.72-0.28-7.01-0.92c-1.72,0.28-3.39,0.21-4.97-0.6c-0.74,0.35-1.42,0.21-2.05-0.27
		c-0.66-0.04-1.32-0.09-1.98-0.13c-3.33-0.3-6.66-0.6-10-0.89c-4.37,0.16-8.69-0.26-12.99-1.02c-3.02,0.35-6.02,0.32-9.01-0.26
		c-1.32-0.06-2.65-0.12-3.98-0.18c-1.68,0.31-3.35,0.32-4.99-0.24c-6.35,0.39-12.69,0.6-19.04,0.1c-0.99,0.09-1.99,0.17-2.98,0.25
		c-2,0.09-4,0.18-6,0.27c-1.33,0.03-2.66,0.05-4,0.08c-0.65,0.03-1.3,0.07-1.96,0.1c-1.28,0.73-2.65,0.76-4.05,0.45
		c-2.28,0.84-4.64,0.64-6.99,0.49c-3.58,1.17-7.32,1.18-11.02,1.5c-0.99,0.14-1.98,0.27-2.97,0.4c-0.67,0.06-1.33,0.12-2,0.18
		c-5.33,0.89-10.67,1.78-16,2.67c-0.66,0.08-1.32,0.16-1.98,0.23c-2.72,1.16-5.57,1.72-8.51,1.83c-3.78-0.52-6.61,2.97-10.39,2.46
		c-1.38,2.04-3.55-1.22-4.94,0.72c-5.2,3.45-11.39,4.01-17.12,5.91c-6.21,2.45-12.4,4.94-19.05,5.95c-0.98,0.72-1.14,2.63-3,2.03
		c-0.67,0.01-1.33,0.02-2,0.03c-0.95,2.11-2.91,2.58-4.9,2.96c-3.58,1.47-7.48,2.26-10.48,4.94c-3.82,1.87-7.64,3.75-11.45,5.63
		c-1.26,0.79-2.49,1.65-3.79,2.37c-42.14,23.31-77.03,54.48-103,95.26c-6.34,9.96-11.65,20.49-17.08,30.95
		c-2.23,5.32-4.47,10.63-6.7,15.95c-0.27,0.7-0.53,1.39-0.8,2.09c-1.56,4.28-3.12,8.56-4.69,12.83c0.19,1.91-0.8,3.5-1.43,5.18
		c-0.32,1-0.64,2-0.96,2.99c-0.73,2.67-1.46,5.34-2.18,8.01c-0.34,1.28-0.68,2.57-1.02,3.86c-0.25,0.98-0.5,1.97-0.75,2.96
		c-0.08,3.11-0.95,6.06-1.87,9c0.23,4.48-1.29,7.6-5.63,9.83c-8.06,4.17-14.98,10.1-22.06,15.74c-2.76,2.64-5.52,5.28-8.27,7.92
		c-0.82,0.56-1.63,1.12-2.45,1.68c-1.39,4.05-4.6,6.7-7.47,9.61c-0.34,0.4-0.68,0.81-1.01,1.21c0.28,1.14-0.51,1.68-1.26,2.25
		c-0.46,0.6-0.92,1.2-1.39,1.79c-0.81,1.86-1.76,3.61-3.33,4.96c-0.63,1.01-1.27,2.02-1.9,3.03c-0.19,1.29-0.89,2.26-1.9,3.03
		c-0.25,1.42-0.86,2.66-1.93,3.65c-0.75,2.27-1.78,4.39-3.24,6.28c-3.31,9-6.63,18-9.94,27c-3.7,15.6-5.81,31.44-7.22,47.38
		c-0.05,1.97-0.1,3.94-0.15,5.91c-0.01,0.48-0.02,0.96-0.03,1.44c0.08,8.43,0.16,16.85,0.24,25.28c0.8,2.61,1,5.28,0.72,7.98
		c0.1,1.34,0.2,2.68,0.29,4.01c0.46,0.63,0.61,1.29,0.26,2.02c1.59,9.3,3.19,18.6,4.78,27.9c0.25,0.92,0.51,1.85,0.76,2.78
		c0.23,1.05,0.46,2.1,0.7,3.15c2.5,7.38,5,14.75,7.5,22.12c1.08,1.15,1.58,2.44,1.04,4c0.1,0.31,0.21,0.63,0.31,0.94
		c2.4,0.82,2.29,3.14,3,4.97c4.54,10.16,11.08,19.09,17.33,28.2c3.16,5.11,7.46,9.25,11.47,13.63c6.08,5.98,12.21,11.91,18.21,17.96
		c1.17,1.18,3.21,0.95,3.88,2.72c3.63,2.78,7.27,5.56,10.9,8.34c10.42,7.09,20.82,14.2,31.95,20.14c0.84,0.44,1.17,1.09,1.25,1.96
		c0.7,0.08,1.5-0.08,1.83,0.81c5.19,0.84,9.24,4.11,13.72,6.45c0.82,0.38,1.65,0.75,2.47,1.13c4.29,1.99,8.57,3.99,12.85,5.98
		c21.41,9.1,43.42,16.56,65.53,23.76c5.42,1.16,10.86,2.24,15.95,4.57c1.62-0.22,3.11,0.14,4.5,0.96
		c8.64,2.08,17.29,4.16,25.93,6.24c0.97,0.13,1.93,0.26,2.9,0.39c1.72,0.36,3.43,0.73,5.15,1.09c1.69,0.35,3.39,0.7,5.08,1.04
		c3.07,0.64,6.13,1.28,9.2,1.91c0.48,0.06,0.97,0.13,1.46,0.19c9.37,1.55,18.74,3.1,28.11,4.65c3.05,0,6.05,0.35,8.99,1.19
		c3.38,0.38,6.85,0.24,10.11,1.47c3.68,0.03,7.36,0.17,10.9,1.37c0.66,0.02,1.33,0.04,1.99,0.07c13.07,1,26.14,2,39.21,3
		c21.55,1.65,43.15,1.91,64.75,2.04c1.65,0.01,3.29,0.16,4.94,0.25c3.43-0.5,6.87-0.54,10.31-0.17c4.92-0.51,9.85-0.64,14.78-0.24
		c2.97-0.08,5.94-0.17,8.92-0.25c1-0.62,2.04-0.6,3.1-0.18c1.95-0.7,3.95-0.72,5.97-0.36c8.66-0.51,17.33-1.03,25.99-1.54
		c0.92-0.59,1.91-0.59,2.93-0.37c1.67-0.51,3.35-0.72,5.08-0.33c1.64-0.26,3.26-0.64,4.91-0.76c22.56-1.7,44.96-4.76,67.28-8.34
		c11.3-1.81,22.53-4.01,33.79-6.04c0.54-0.59,1.2-0.86,2-0.67c1.29-0.29,2.57-0.57,3.85-0.85c18.72-4.63,37.46-9.14,55.85-15.06
		c38.87-12.51,76.08-28.38,109.38-52.45c36.97-26.72,62.6-61.62,76.17-105.28C1316.83,607.41,1319.29,572.63,1315.18,537.33z
		 M509.4,453.33c2.03-37.76,12.15-73.39,29.38-106.98c21.88-42.65,53.56-76.36,93.93-102.02c0.7-0.44,1.49-0.72,2.23-1.07
		c24.89-16.2,51.92-27.6,80.35-35.83c45.17-13.08,91.23-15.76,137.87-11.57c6.12,0.55,12.26,0.82,18.26,2.31
		c21.1,1.99,41.76,6.39,62.17,11.92c31.96,8.66,62.7,20.34,90.96,37.89c24.31,15.08,45.62,33.47,62.23,56.97
		c0.37,0.52,0.67,1.09,1.36,2.23c-6.58-0.84-12.59-1.64-18.6-2.37c-28.68-3.5-56.86-0.98-84.46,7.5c-3.76,1.15-5.99,0.45-8.64-2.31
		c-8.91-9.29-18.87-17.35-29.73-24.3c-4.08-2.61-8.31-4.92-12.84-6.65c-18.68-7.1-31.33-2.48-40.83,15.19
		c-9.37,17.44-13.21,36.52-15.94,55.87c-1.77,12.57-2.15,25.22-1.91,37.89c0.04,2.41-0.54,4.3-2.03,6.37
		c-24.01,33.56-36.64,70.34-31.12,112.1c0.91,6.94,2.72,13.68,5.19,20.24c0.84,2.25,2.16,4.02,4.76,3.3c2.85-0.8,3.07-2.96,2.35-5.6
		c-1.87-6.9-3.56-13.86-3.88-21.05c-1.71-12.14-0.91-24.23,0.72-36.3c2.29-12.14,5.13-24.11,11.08-35.11
		c2.99-10,8.66-18.61,14.22-27.27c0.52-0.81,1.21-1.59,2.44-1.27c5.36,1.43,5.27-2.2,5.22-5.7c-0.2-13.81-0.85-27.65,0.87-41.4
		c2.52-20.2,6.38-40.11,15.86-58.38c6.96-13.4,16.52-16.53,30.34-10.42c15.02,6.65,27.35,17.1,38.86,28.5
		c7.19,7.13,14.53,14.21,20.02,22.88c1.83,2.12,3.64,4.27,5.52,6.35c1.3,1.44,2.8,2.52,4.74,1.05c1.93-1.45,2.78-3.19,1.45-5.58
		c-3.24-5.85-7.44-11-11.89-15.92c-2.77-3.07-2.72-4.41,1.63-5.19c5.2-0.93,10.32-2.31,15.48-3.5c2.62-0.43,5.18-1.45,7.91-0.85
		c10.55-2.38,21.22-3.22,32.01-2.6c6.29,0.06,12.62-0.51,18.78,1.36c12.14,0.23,23.95,2.49,35.62,5.66c3.09,0.59,6.1,1.4,8.82,3.02
		c12.2,3.01,23.62,7.74,33.83,15.18c0.1,0.03,0.19,0.06,0.28,0.1c0.06,0.02,0.12,0.05,0.18,0.08c0.1,0.05,0.19,0.1,0.27,0.18
		c0.04,0.03,0.08,0.07,0.11,0.11c0.04,0.04,0.07,0.08,0.09,0.13c0.03,0.05,0.05,0.1,0.07,0.16c0.02,0.04,0.03,0.07,0.03,0.11
		c0.01,0.02,0.01,0.05,0.02,0.08v0.03c1.89,0.68,3.75,1.45,5.22-0.81c1.41-2.16,0.29-3.77-1.03-5.36c-0.43-0.51-0.92-0.97-1.42-1.4
		c-6.04-5.25-6.03-5.24,0.72-10.04c16.5-11.71,33.82-21.79,53.66-26.84c1.61-0.4,3.24-0.73,4.88-1.03
		c12.63-2.25,19.95,2.9,22.77,15.52c3.64,16.2,2.42,32.43,0.59,48.63c-1.61,14.22-4.5,28.24-9.02,41.85
		c-1.13,3.4-0.18,6.05,1.52,8.9c10.84,18.28,16.77,38.23,19.73,59.15c0.11,0.8-0.06,1.65-0.1,2.48c1.28,9.02,2.37,18.05,0.38,27.12
		c-0.19,8.96-1.86,17.59-4.35,26.05c-1.13,3.85-2.43,7.65-3.82,11.44c-7.82,19.9-19.97,36.69-36.25,50.57
		c-3.6,3.07-7.5,5.26-12.01,6.79c-30.32,10.31-58.33,25.17-84.56,43.45c-3.04,2.12-5.97,2.98-9.69,2.78
		c-28.79-1.55-57.14,2.4-85.42,7.15c-3.6,0.61-7.28,0.75-10.9,1.24c-3.01,0.41-2.64-2.07-2.95-3.58
		c-1.62-7.88-4.02-15.44-8.08-22.45c-10.13-17.51-25.55-29.18-42.88-38.6c-26.01-14.16-53.88-22.83-83.12-27.18
		c-2.3-0.35-4.64-0.5-6.96-0.6c-2.17-0.09-4.18,0.58-4.51,3c-0.35,2.65,1.36,3.87,3.84,4.23c11.71,1.7,23.18,4.5,34.53,7.79
		c25.74,7.47,50.54,17.01,71.87,33.76c12.59,9.88,22.33,21.91,25.75,38.08c0.38,1.78,0.49,3.62,0.7,5.43c0.22,1.9-0.3,3.08-2.5,3.46
		c-32.28,5.62-64.36,12.41-97.1,15.05c-0.44,0.04-0.9-0.14-1.74-0.28c7.17-11.74,7.85-23.74,1.3-35.61
		c-6.17-11.18-16.34-17.68-27.98-22.18c-14.72-5.69-30.14-6.89-45.68-7.01c-4.2-0.03-4.84-0.86-3.56-4.95
		c6.2-19.91,9.01-40.23,6.2-61.08c-0.05-0.33-0.11-0.66-0.14-0.99c-0.18-2.7-0.92-5.38-4.09-5.22c-3.45,0.17-3.27,3.08-3.08,5.69
		c0.95,12.52,0.27,24.97-1.74,37.35c-1.44,8.89-3.36,17.64-6.74,26.04c-0.87,2.15-1.9,3.03-4.32,3.1
		c-27.99,0.86-55.96,1.22-83.79-2.71c-0.64-0.09-1.26-0.38-1.88-0.59c-31.25-4.28-60.73-13.61-87.31-30.97
		c-22.07-14.4-38.51-33.66-48.58-58.12c-1.55-3.78-3.36-5.65-7.44-3.79c-1.07,2.65-0.48,5.17,0.64,7.63
		c2.71,5.98,5.44,11.96,8.16,17.93c6.79,11.86,15.86,21.88,25.38,31.54c7.57,5.53,14.71,11.66,22.91,16.32
		c4.67,2.67,9.31,5.4,13.96,8.1c14.42,6,28.97,11.59,44.05,15.73c12.35,2.39,24.65,5.07,37.19,6.32c5.6,0.56,11.2,1.19,16.8,1.79
		c18.35,1.67,36.71,0.56,55.07,0.43c22.64-0.94,45.26-1.56,66.93,6.79c6.42,2.48,12.2,6.06,16.96,11.15
		c13.8,14.75,8.39,35.65-10.82,41.67c-10.21,3.2-20.78,4.48-31.36,5.42c-14.88,1.33-29.75,3.17-44.74,2.39
		c-19.79,0.58-39.5-0.54-59.13-3.03c-21.53-2.31-42.71-6.55-63.62-12.12c-0.45-0.12-0.83-0.53-1.24-0.8
		c-18.25-4.65-35.6-11.57-52.1-20.64c-16.4-8.15-31.3-18.47-44.48-31.2c-1.57-1.52-4.11-2.26-4.59-4.84
		c-13.79-12.97-24.29-28.24-32.01-45.47c-3.03-3.67-4.34-8.18-5.94-12.5C510.87,516.17,507.69,485.05,509.4,453.33z M1293.52,650.18
		c-11.07,29.68-28.29,55.37-52.6,75.85c-5.9,4.97-11.22,10.85-18.29,14.4c0,0-0.02,0.01-0.04,0.03c-0.02,0.02-0.05,0.04-0.09,0.07
		c-0.03,0.03-0.07,0.05-0.09,0.07l-0.04,0.04c-0.03,0.23-0.16,0.34-0.39,0.32c-1.64,1.09-3.28,2.17-4.91,3.26
		c-3.43,2.33-6.44,5.33-10.55,6.57c-0.92,1.14-1.97,2.09-3.49,2.33c-14.38,7.68-28.56,15.59-43.83,21.74
		c-16.1,6.48-32.19,12.82-48.79,17.78c-20.54,6.15-41.21,11.85-62.42,15.25l-0.43,0.26h-0.5c-17.11,4.04-34.56,6.12-51.93,8.58
		c-14.92,2.12-29.89,3.92-44.96,4.61c-35.38,3.12-70.83,3.83-106.32,3.01c-57.09-1.33-113.6-7.59-169.26-20.53
		c-50.68-11.79-99.62-28.24-144.2-55.82c-29-17.93-54.22-39.79-71.5-69.74c-12.08-20.94-18.7-43.71-21.66-67.52
		c-4.02-32.31-3.7-64.47,5.21-96.12c8.88-31.54,26.14-57.33,52.72-76.69c1.73-1.26,3.71-2.18,5.57-3.26
		c0.26-0.14,0.51-0.27,0.77-0.4c0.03,0.4,0.06,0.8,0.09,1.2c-2.38,23.35-2.28,46.65,0.85,69.94c1.44,10.7,4.46,21.05,6.68,31.57
		c2.28,6.14,4.56,12.29,7.25,19.54c-6.97-4.2-12.89-7.83-19.3-10.48c-2.65,0.41-6.49-2.62-7.71,1.75c-1.26,4.49,3.21,4.77,5.87,5.94
		c10.79,4.79,20.01,11.87,28.93,19.41c1.11,0.94,2.02,2.22,2.78,3.48c21.47,35.53,52.13,60.49,89.43,77.83
		c32.92,15.31,67.76,23.64,103.59,28.24c30.13,3.87,60.37,5.19,90.71,2.95c14.28-1.05,28.85-1.33,42.54-5.38
		c19.35-5.72,39.32-6.16,58.97-9.15c26.63-4.05,53.11-8.93,79.61-13.75c32.1-5.85,64.29-11.17,97.09-10.39
		c11.13,0.27,22.26,1.16,33.23,3.26c2.39,0.46,4.97,0.83,5.78-2.18c0.87-3.23-1.55-4.42-4.11-5.14c-3.77-1.06-7.56-2.01-12.07-3.2
		c10.64-7.46,21.22-13.66,32.1-19.36c24.12-12.61,49.14-22.92,75.72-29.15c0.78-0.18,1.62-0.09,2.43-0.13
		c0.64-0.09,1.28-0.18,1.92-0.27c1.28-0.97,2.56-1.95,3.84-2.92c0.17-4.8-1.04-5.93-5.54-5.21c-2.25,0.36-4.5,0.7-6.76,1.05
		c-0.68,0.38-1.39,0.71-1.98-0.05c-0.05-0.07,0.71-0.76,1.1-1.17c37.8-40.87,45.25-88.7,31.88-141.82c5.61,2.66,9.95,5.95,14.1,9.41
		c25.03,20.85,39.52,47.72,44.49,79.69C1311.39,570.83,1308.08,611.12,1293.52,650.18z"/>
	<path class="st1" d="M1227.25,536.88c-20.62,8.5-41.14,8.03-61.56-0.67c-1.49-0.63-3.18-1.08-4.1-2.65
		c-10.44-0.9-20.14-3.65-28.03-11.06c-2.44-2.29-4.6-4.78-6.18-7.72c-2.26-4.21-1.19-6.48,3.62-7.94
		c-8.25-15.69-14.19-32.23-18.38-49.42c-3.64-14.89-5.53-30.1-7.88-45.23c-5.23-1.44-6.52-5.76-7.26-10.29
		c-1.91-11.61-3.63-23.25-6.8-34.62c-5.35-19.17-13.3-37.07-24.96-53.27c-6.16-1.87-12.49-1.3-18.78-1.36
		c11.56,17.81,16.8,37.7,19.24,58.51c1.23,10.43,1.22,20.84,0.01,31.29c-0.49,4.27-2.08,7.61-5.92,9.71
		c-2.78,26.71-11.88,51.27-25.57,74.2c-3.56,5.97-7.68,11.61-11.55,17.4c2.28-0.63,4.38-0.47,5.68,1.77
		c1.47,2.53,0.55,4.89-1.1,6.93c-8.15,10.09-19.1,14.52-31.73,15.42c-2.49,0.17-4.99,0.1-7.48,0.15
		c-10.96,6.65-23.07,10.08-35.58,11.87c-24.47,3.49-47.99,0.29-70.1-11.27c-10.23-5.34-19.44-12.06-27.41-20.46
		c-1.59-1.67-3.31-3.21-4.97-4.81c0.32,7.19,2.01,14.15,3.88,21.05c0.72,2.64,0.5,4.8-2.35,5.6c-2.6,0.72-3.92-1.05-4.76-3.3
		c-2.47-6.56-4.28-13.3-5.19-20.24c-5.52-41.76,7.11-78.54,31.12-112.1c1.49-2.07,2.07-3.96,2.03-6.37
		c-0.24-12.67,0.14-25.32,1.91-37.89c2.73-19.35,6.57-38.43,15.94-55.87c9.5-17.67,22.15-22.29,40.83-15.19
		c4.53,1.73,8.76,4.04,12.84,6.65c10.86,6.95,20.82,15.01,29.73,24.3c2.65,2.76,4.88,3.46,8.64,2.31c27.6-8.48,55.78-11,84.46-7.5
		c6.01,0.73,12.02,1.53,18.6,2.37c-0.69-1.14-0.99-1.71-1.36-2.23c-16.61-23.5-37.92-41.89-62.23-56.97
		c-28.26-17.55-59-29.23-90.96-37.89c-20.41-5.53-41.07-9.93-62.17-11.92c-8.66,33.87-16.73,67.92-37.5,97.15
		c-25.11,35.31-58.12,58.4-101.53,64.23c-26.54,3.56-52.36-0.26-75.09-15.59c-23.86-16.09-34.25-38.88-31.6-67.71
		c1.08-11.64,5.06-22.31,9.24-32.99c-0.74,0.35-1.53,0.63-2.23,1.07c-40.37,25.66-72.05,59.37-93.93,102.02
		c-17.23,33.59-27.35,69.22-29.38,106.98c-1.71,31.72,1.47,62.84,12.58,92.84c1.6,4.32,2.91,8.83,5.94,12.5
		c8.68-19.37,23.83-28.9,44.84-29.55c-2.72-5.97-5.45-11.95-8.16-17.93c-1.12-2.46-1.71-4.98-0.64-7.63
		c-6.71-15.22-7.47-30.89-2.98-46.76c8.3-29.28,33.62-50.62,64.25-53.68c41.01-4.1,72.23,13.12,92.34,47.76
		c26.28,45.29,23.26,91.25-3.12,135.98c-2.01,3.41-4.76,6.4-7.16,9.58c0.62,0.21,1.24,0.5,1.88,0.59
		c27.83,3.93,55.8,3.57,83.79,2.71c2.42-0.07,3.45-0.95,4.32-3.1c3.38-8.4,5.3-17.15,6.74-26.04c2.01-12.38,2.69-24.83,1.74-37.35
		c-0.19-2.61-0.37-5.52,3.08-5.69c3.17-0.16,3.91,2.52,4.09,5.22c0.03,0.33,0.09,0.66,0.14,0.99c2.81,20.85,0,41.17-6.2,61.08
		c-1.28,4.09-0.64,4.92,3.56,4.95c15.54,0.12,30.96,1.32,45.68,7.01c11.64,4.5,21.81,11,27.98,22.18
		c6.55,11.87,5.87,23.87-1.3,35.61c0.84,0.14,1.3,0.32,1.74,0.28c32.74-2.64,64.82-9.43,97.1-15.05c2.2-0.38,2.72-1.56,2.5-3.46
		c-0.21-1.81-0.32-3.65-0.7-5.43c-3.42-16.17-13.16-28.2-25.75-38.08c-21.33-16.75-46.13-26.29-71.87-33.76
		c-11.35-3.29-22.82-6.09-34.53-7.79c-2.48-0.36-4.19-1.58-3.84-4.23c0.33-2.42,2.34-3.09,4.51-3c2.32,0.1,4.66,0.25,6.96,0.6
		c29.24,4.35,57.11,13.02,83.12,27.18c17.33,9.42,32.75,21.09,42.88,38.6c4.06,7.01,6.46,14.57,8.08,22.45
		c0.31,1.51-0.06,3.99,2.95,3.58c3.62-0.49,7.3-0.63,10.9-1.24c28.28-4.75,56.63-8.7,85.42-7.15c3.72,0.2,6.65-0.66,9.69-2.78
		c26.23-18.28,54.24-33.14,84.56-43.45c4.51-1.53,8.41-3.72,12.01-6.79c16.28-13.88,28.43-30.67,36.25-50.57
		C1231.98,534.4,1229.69,535.88,1227.25,536.88z M1119.64,571.34c-9.48,15.21-27.18,16.73-37.68,6.94
		c-3.87-3.61-5.78-2.55-9.19-0.16c-11.99,8.39-27.3,6.45-36.55-4.31c-0.65-0.76-1.37-1.51-1.8-2.39c-1.44-2.89-4.21-6.29-0.13-8.7
		c3.9-2.31,4.88,1.76,6.36,4.23c3.87,6.45,12.27,9.62,20.57,7.8c8.74-1.91,13.43-7.12,14.99-15.08c1.14-5.76,0.34-9.64-5.45-12.38
		c-2.84-1.34-6.29-3.61-4.85-8.12c-1.19-3.34,1.03-4.64,3.52-5.37c7.36-2.14,14.73-1.83,22,0.48c2.29,0.73,4.28,1.96,3.96,4.92
		c2.23,5.23-2.41,6.82-5.03,9.49c-1.8,1.84-5.95,0.99-6.13,4.27c-0.28,5.21-3.39,10.51-0.91,15.58c3.58,7.35,14.75,9.83,22.9,5.63
		c3.04-1.56,5.46-3.79,7.2-6.73c1.33-2.24,3.13-3.81,5.69-2.27C1121.78,566.78,1120.9,569.31,1119.64,571.34z"/>
	<path class="st2" d="M1260.35,660.33c0.53-0.39,1.39-0.55,1.66-1.05c1.29-2.34,6.94,0.6,5.61-5.43
		c-1.44-6.56-2.03-12.98-10.49-13.88c-2.05-0.22-3.62-1.16-3.93-3.17c-0.36-2.22,1.52-2.37,3.17-2.94
		c5.21-1.8,9.19-10.67,7.15-15.61c-0.35-0.86-1.01-2.46-1.92-1.78c-4.7,3.54-9.32-1.65-14.28,0.29c-3.97,1.56-8.38,1.58-10.86,5.94
		c-1.32,2.32-3.66,3.78-5.92,5.24c-5.56,3.6-5.6,3.67-9.09-2.07c-0.95-1.56-2.38-2.2-3.79-3.07c-6.59-4.04-7.94-8.56-4.44-15.59
		c1.56-3.13-0.78-5.08-1.89-7.26c-1.45-2.84-0.82-3.9,2.04-5.07c2.88-1.18,6.89-0.01,8.59-3.81c-0.81,0.04-1.65-0.05-2.43,0.13
		c-26.58,6.23-51.6,16.54-75.72,29.15c-10.88,5.7-21.46,11.9-32.1,19.36c4.51,1.19,8.3,2.14,12.07,3.2
		c2.56,0.72,4.98,1.91,4.11,5.14c-0.81,3.01-3.39,2.64-5.78,2.18c-10.97-2.1-22.1-2.99-33.23-3.26
		c-32.8-0.78-64.99,4.54-97.09,10.39c-26.5,4.82-52.98,9.7-79.61,13.75c-19.65,2.99-39.62,3.43-58.97,9.15
		c-13.69,4.05-28.26,4.33-42.54,5.38c-30.34,2.24-60.58,0.92-90.71-2.95c-35.83-4.6-70.67-12.93-103.59-28.24
		c-37.3-17.34-67.96-42.3-89.43-77.83c-0.76-1.26-1.67-2.54-2.78-3.48c-8.92-7.54-18.14-14.62-28.93-19.41
		c-2.66-1.17-7.13-1.45-5.87-5.94c1.22-4.37,5.06-1.34,7.71-1.75c1.51-5.22,6.57-9.02,12.05-9.06c-2.22-10.52-5.24-20.87-6.68-31.57
		c-3.13-23.29-3.23-46.59-0.85-69.94c-0.29-0.27-0.57-0.53-0.86-0.8c-1.86,1.08-3.84,2-5.57,3.26
		c-26.58,19.36-43.84,45.15-52.72,76.69c-8.91,31.65-9.23,63.81-5.21,96.12c2.96,23.81,9.58,46.58,21.66,67.52
		c17.28,29.95,42.5,51.81,71.5,69.74c44.58,27.58,93.52,44.03,144.2,55.82c55.66,12.94,112.17,19.2,169.26,20.53
		c35.49,0.82,70.94,0.11,106.32-3.01c-3.36-1.92-2.81-3.6,0.32-5.1c0.9-0.43,1.83-1.21,2.72-1.17c8.2,0.36,12.92-5.14,16.8-10.89
		c3.74-5.54,8.78-6.23,14.44-6.2c3.68,0.02,7.29-0.04,10.73-1.59c1.9-0.85,3.49-0.32,4.91,1.21c5.37,5.78,11.52,9.58,19.85,7.3
		c2.14-0.58,4.19-0.4,6.31,0.01c5.77,1.11,10.19-3.26,15.55-3.96c1.41-0.19,2.76-1.27,4.29-0.94c2.29,0.49,4.18,1.6,1.68,3.87
		c-1.63,1.48-1.62,2.65-0.71,4.27h0.5l0.43-0.26c2.56-2.45,5.13-4.89,7.68-7.34c1.2-1.15,2.94-2.11,3.48-3.51
		c3.2-8.33,11.09-10.28,17.97-13.58c2.71-1.29,5.47-0.52,7.25,1.7c1.73,2.15,3.83,2.24,5.79,1.49c4.2-1.61,8.96-1.82,10.94-7.75
		c1.09-3.25,1.59-4.54-1.38-6.11c-1.1-0.57-2.15-1.62-1.43-2.78c1.08-1.75,2.64-0.31,3.33,0.41c4.28,4.45,10.68,5.07,15.4,8.78
		c2.28,1.79,4.9,0.03,5.72-2.11c1.74-4.55,6.94-6.13,8.49-10.74c0.36-1.07,1.8-1.31,3.03-1.42c0.95-0.09,2.35-0.2,2.73-0.82
		c7.03-11.22,19.15-8.9,29.52-10.98c2.58-0.52,5.48,0.83,8.34,0.91c4.3,0.12,8.4-1.37,11.67-3.32c2.85-1.7,5.9-0.85,8.35-2.41
		c4.43-2.84,3.74,2.94,6.14,3.51c0.73,0.18,1.35,0.85,2.02,1.3c1.52-0.24,2.57-1.19,3.49-2.33c-0.57-2.27-1.83-3.76-4.25-4.29
		c-1.11-0.23-2.13-0.94-2.21-2.37c-0.1-1.7,1.13-2.22,2.33-2.84c7.68-3.93,9.92-3.49,14.68,2.93c1.63-1.09,3.27-2.17,4.91-3.26
		c-0.11-0.21-0.21-0.42-0.32-0.64c0.24,0.1,0.47,0.21,0.71,0.31c0,0,0.02-0.01,0.04-0.03c0.02-0.02,0.06-0.04,0.09-0.07
		c0.04-0.03,0.07-0.05,0.09-0.07c0.02-0.02,0.04-0.03,0.04-0.03c-0.95-2.44-2.72-3.97-5.03-5.24c-3.87-2.12-3.94-4.47-0.52-6.96
		c4.6-3.35,4.5-4.74,0.03-7.87c-2.99-2.09-5.22-4.9-5.88-9.79c4.8,4.87,7.32-0.11,10.62-1.28c0.96-0.34,1.45-1.78,0.8-2.57
		c-2.15-2.66-0.34-5.03-0.21-7.64c0.36-7.16,6.26-8.78,10.46-11.19c5.06-2.91,10.77-0.12,15.49,2.63c6.64,3.86,13.52,0.8,14.48-6.86
		c0.26-2.17-0.99-3.33-2.51-4.49C1249.57,670.94,1249.58,668.12,1260.35,660.33z M1195.34,600.77c1.85-1.33,3.73-2.47,6.3-2.23
		c-0.39,2.46-2.3,3.74-3.46,5.42c-1.03,1.51-3.06,1.54-4.31,0.11C1192.32,602.3,1194.15,601.63,1195.34,600.77z M1197.25,701.95
		c-1.33,2.33-0.52,4.75-3.24,4.79c-0.85,0.01-1.7-0.69-1.64-1.53C1192.53,702.88,1194.48,702.75,1197.25,701.95z M1190.17,743.5
		c-3.21-1.31-5.43,0.4-7.62,2.31c-1.52,1.33-3.44,1.85-4.93,0.45c-1.32-1.24-0.66-3.07,0.05-4.64c2.21-4.92,9.85-7.83,14.58-5.54
		c0.15,0.07,0.33,0.12,0.45,0.22c1.46,1.28,4.86-0.34,4.82,3.07C1197.51,740.78,1192.09,743.64,1190.17,743.5z M1208.44,730.8
		c-2.13,0.29-4.23,0.51-6.27,1.22c-1.5,0.52-3.27,1.71-4.46-0.15c-1.04-1.62-1.71-3.72-1.14-5.58c0.59-1.89,2.45-2.55,4.48-2.35
		c2.38,0.46,4.59,0.81,7-0.65c1.44-0.88,2.74,0.72,2.83,2.43C1211,727.82,1211.48,730.38,1208.44,730.8z"/>
	<path class="st3" d="M1045.93,399.53c-3.1-15.23-4.98-30.74-10.4-45.44c-4.68-12.69-10.56-24.73-19.23-35.24
		c-0.9-1.09-1.46-2.19-1.37-3.6c-2.73-0.6-5.29,0.42-7.91,0.85c-0.29,2.16,0.81,3.92,1.87,5.57c8.28,12.89,13.37,27.03,16.39,41.94
		c2.42,11.92,3.4,23.99,2.64,36.14c-0.33,5.29-4.62,10.47-8.62,11.03c-4.32,0.61-9.32-2.8-10.97-8.41
		c-2.19-7.47-3.88-15.09-5.56-22.7c-2.67-12.04-7.92-23.23-11.4-35c-0.56-1.89-1.64-3.69-1.28-5.78
		c-5.49-8.67-12.83-15.75-20.02-22.88c-11.51-11.4-23.84-21.85-38.86-28.5c-13.82-6.11-23.38-2.98-30.34,10.42
		c-9.48,18.27-13.34,38.18-15.86,58.38c-1.72,13.75-1.07,27.59-0.87,41.4c0.05,3.5,0.14,7.13-5.22,5.7
		c-1.23-0.32-1.92,0.46-2.44,1.27c-5.56,8.66-11.23,17.27-14.22,27.27c4.32,1.46,6.42,5.58,9.8,8.22
		c9.01,7.02,20.13,10.15,29.43,16.58c4.87,3.37,10.55,5.98,10.58,13.28c0.02,4.64-2.1,7.35-6.37,8.98
		c-9.55,3.63-18.93,1.56-28.38-0.36c-8.11-1.64-15.31-5.27-22.26-9.57c-1.23-0.76-2.16-2.18-3.88-2.02
		c-1.63,12.07-2.43,24.16-0.72,36.3c1.66,1.6,3.38,3.14,4.97,4.81c7.97,8.4,17.18,15.12,27.41,20.46
		c22.11,11.56,45.63,14.76,70.1,11.27c12.51-1.79,24.62-5.22,35.58-11.87c-7.46-1.62-14.84-3.37-21.37-7.67
		c-5.51-3.63-10.12-8.05-13.29-13.86c-1.37-2.5-1.21-4.88,1.35-6.52c2.48-1.59,4.6-1.01,6.56,1.24c18.3,20.91,40.2,21.79,61.38,2.54
		c3.87-5.79,7.99-11.43,11.55-17.4c13.69-22.93,22.79-47.49,25.57-74.2C1051.29,411.78,1047.75,408.48,1045.93,399.53z
		 M953.61,366.03c-7.29,2.05-13.62,6.08-19.61,10.65c-1.63,1.25-3.45,3.45-5.56,1.07c-2.08-2.35-0.26-4.35,1.43-6.01
		c4.97-4.87,11.31-7.52,17.43-10.51c1.16-0.57,2.58-0.79,2.7-2.78c-1.91-4.21-3.56-8.78-5.95-12.94
		c-5.22-9.08-10.57-18.12-18.35-25.38c-1.45-1.34-3.29-2.99-1.42-5.06c2.11-2.33,4.25-0.92,6.07,0.72
		c4.09,3.69,7.68,7.85,10.91,12.3c6.79,9.33,11.88,19.58,16.27,30.21C959.22,362.4,958.13,364.76,953.61,366.03z M1017.07,442.26
		c-1.07,2.25-2.83,1.53-4.67,0.83c-6.68-2.54-13.31-2.09-19.8,0.76c-1.88,0.82-3.95,1.93-5.09-0.64c-1.05-2.39,1-3.55,2.76-4.55
		c4.28-2.45,8.91-3.48,13.82-3.35c3.68,0.04,7.29,0.47,10.57,2.26C1016.47,438.56,1018.21,439.85,1017.07,442.26z"/>
	<path class="st4" d="M871.42,198.17c-8.66,33.87-16.73,67.92-37.5,97.15c-25.11,35.31-58.12,58.4-101.53,64.23
		c-26.54,3.56-52.36-0.26-75.09-15.59c-23.86-16.09-34.25-38.88-31.6-67.71c1.08-11.64,5.06-22.31,9.24-32.99
		c24.89-16.2,51.92-27.6,80.35-35.83c45.17-13.08,91.23-15.76,137.87-11.57C859.28,196.41,865.42,196.68,871.42,198.17z"/>
	<path class="st4" d="M714.45,586.86c-2.01,3.41-4.76,6.4-7.16,9.58c-31.25-4.28-60.73-13.61-87.31-30.97
		c-22.07-14.4-38.51-33.66-48.58-58.12c-1.55-3.78-3.36-5.65-7.44-3.79c-6.71-15.22-7.47-30.89-2.98-46.76
		c8.3-29.28,33.62-50.62,64.25-53.68c41.01-4.1,72.23,13.12,92.34,47.76C743.85,496.17,740.83,542.13,714.45,586.86z"/>
	<path class="st5" d="M1226.63,495.93c-3.76-1.12-7.35-2.6-8.43-6.87c-0.96-3.75,1.06-6.68,3.89-8.53
		c6.44-4.22,12.96-8.42,20.47-10.63c0.04-0.83,0.21-1.68,0.1-2.48c-2.96-20.92-8.89-40.87-19.73-59.15c-1.7-2.85-2.65-5.5-1.52-8.9
		c4.52-13.61,7.41-27.63,9.02-41.85c1.83-16.2,3.05-32.43-0.59-48.63c-2.82-12.62-10.14-17.77-22.77-15.52
		c-1.64,0.3-3.27,0.63-4.88,1.03c-19.84,5.05-37.16,15.13-53.66,26.84c-6.75,4.8-6.76,4.79-0.72,10.04c0.5,0.43,0.99,0.89,1.42,1.4
		c1.32,1.59,2.44,3.2,1.03,5.36c-1.47,2.26-3.33,1.49-5.22,0.81v0.03c-0.01,0.04-0.01,0.07-0.01,0.11c-0.01,0.01-0.01,0.01,0,0.03
		c-0.01,0.02-0.01,0.04-0.01,0.06c-0.02,0.15-0.03,0.3-0.03,0.45c-0.05,0.81-0.01,1.6,0.09,2.37c0.04,0.38,0.1,0.75,0.17,1.12
		c0.07,0.37,0.15,0.74,0.24,1.1c0.4,1.65,0.96,3.27,1.46,4.91c5.24,17.32,7.77,34.92,5.02,52.99c-0.49,3.21-2.19,5.89-4.58,8.11
		c-4.68,4.38-10.21,3.46-13.05-2.4c-2.27-4.68-2.98-9.81-3.35-14.95c-1.42-20.15-5.03-39.66-14.78-57.77
		c-2.14-3.97-5.19-7.65-6.05-12.32c-2.72-1.62-5.73-2.43-8.82-3.02c-1.36,0.81-1.03,1.67-0.36,2.88c7.07,12.88,12.49,26.38,14.65,41
		c1.84,12.45,3.79,24.92,1.39,37.58c-1.67,8.85-3.5,10.64-12.28,11.06c2.35,15.13,4.24,30.34,7.88,45.23
		c4.19,17.19,10.13,33.73,18.38,49.42c2.3,0.41,3.63,2.04,5.07,3.73c13.79,16.2,37.47,16.5,51.72,0.68
		c2.23-2.48,4.65-5.13,7.92-2.28c3.03,2.64,1.42,5.81-0.58,8.46c-7.06,9.32-16.77,13.87-28.1,15.41c-1.81,0.24-3.62,0.48-5.44,0.72
		c0.92,1.57,2.61,2.02,4.1,2.65c20.42,8.7,40.94,9.17,61.56,0.67c2.44-1,4.73-2.48,7.52-2.37h0.01c1.39-3.79,2.69-7.59,3.81-11.44
		c2.49-8.46,4.16-17.09,4.35-26.05C1237.5,496.77,1231.98,497.51,1226.63,495.93z M1174.53,448.9c-1.37,2.37-3.2,1.31-5.07,0.21
		c-5.44-3.2-11.27-3.57-17.26-1.88c-1.87,0.54-3.74,1.03-4.66-1.19c-1.05-2.52,0.87-3.59,2.76-4.41c2.62-1.13,5.37-1.63,7.76-1.39
		c5.38-0.16,10,0.94,14.24,3.41C1174.29,444.81,1175.92,446.48,1174.53,448.9z M1206.86,323.52c-2.4,2.05-4.88,4.02-7.19,6.16
		c-6.88,6.38-12.33,13.92-17.61,21.62c-1.95,2.85-2.55,4.9,1.26,6.92c4.29,2.28,7.47,6.06,10.66,9.68c1.05,1.19,1.48,2.61,0.89,4.17
		c-0.39,1-1.2,1.56-2.24,1.78c-1.31-0.01-2.08-0.94-2.93-1.71c-4.69-4.25-9.53-8.29-15-11.51c-2.81-1.65-3.45-4.09-1.87-6.8
		c7.49-12.89,16.47-24.56,28.3-33.83c0.78-0.6,1.69-1.06,2.6-1.47c1.65-0.75,3.32-0.83,4.47,0.81
		C1209.5,321.2,1208.17,322.4,1206.86,323.52z"/>
	<path class="st6" d="M1222.63,740.43c-0.95-2.45-2.72-3.97-5.03-5.24c-3.87-2.12-3.94-4.47-0.52-6.96c4.6-3.35,4.5-4.74,0.03-7.87
		c-2.99-2.09-5.22-4.9-5.88-9.79c4.8,4.87,7.32-0.1,10.62-1.27c0.96-0.34,1.45-1.78,0.81-2.58c-2.15-2.65-0.34-5.03-0.21-7.63
		c0.35-7.16,6.26-8.78,10.45-11.19c5.06-2.91,10.77-0.12,15.5,2.63c6.64,3.86,13.52,0.8,14.47-6.86c0.27-2.17-0.98-3.33-2.51-4.5
		c-10.79-8.22-10.78-11.05-0.01-18.84c0.54-0.39,1.39-0.55,1.67-1.05c1.29-2.34,6.94,0.6,5.61-5.43
		c-1.44-6.57-2.03-12.98-10.49-13.88c-2.05-0.22-3.62-1.16-3.94-3.17c-0.35-2.23,1.52-2.37,3.17-2.94c5.21-1.8,9.2-10.67,7.16-15.61
		c-0.35-0.86-1.01-2.46-1.92-1.78c-4.7,3.54-9.33-1.65-14.28,0.29c-3.97,1.55-8.38,1.58-10.85,5.94c-1.32,2.32-3.67,3.78-5.92,5.24
		c-5.56,3.6-5.61,3.67-9.09-2.07c-0.95-1.56-2.38-2.21-3.78-3.07c-6.59-4.04-7.95-8.56-4.44-15.59c1.56-3.13-0.78-5.08-1.89-7.26
		c-1.45-2.84-0.82-3.9,2.04-5.07c2.88-1.18,6.89-0.01,8.59-3.81c0.64-0.09,1.28-0.18,1.92-0.26c2.58,3.29,4.53,7.07,2.47,11.01
		c-2.31,4.43,0.3,5.12,3.41,5.95c2.89,0.77,5.53-0.73,8.28-1.11c1.88-0.26,2.33-2.08,0.52-3.2c-2.13-1.31-4.19-3.38-4.16-5.28
		c0.08-5.22-3.42-7.55-6.68-10.29c0.16-4.79-1.04-5.92-5.54-5.2c-2.25,0.36-4.51,0.7-6.76,1.05c-0.3-0.41-0.59-0.81-0.89-1.22
		c37.8-40.87,45.26-88.71,31.88-141.82c5.61,2.66,9.95,5.95,14.1,9.41c25.02,20.85,39.52,47.72,44.49,79.69
		c6.38,41.06,3.07,81.34-11.49,120.4c-11.07,29.69-28.29,55.38-52.6,75.85C1235.02,731,1229.7,736.88,1222.63,740.43z"/>
	<path class="st5" d="M788.12,609.35c22.64-0.95,45.25-1.57,66.93,6.79c6.42,2.47,12.19,6.06,16.95,11.15
		c13.8,14.76,8.39,35.66-10.81,41.67c-10.21,3.2-20.78,4.48-31.36,5.42c-14.88,1.33-29.75,3.17-44.75,2.39
		c-0.2-0.97-0.33-1.96-0.6-2.91c-4.22-14.69-5.65-29.45-2.56-44.64C783.33,622.32,786.26,616.03,788.12,609.35z"/>
	<path class="st3" d="M725.96,673.74c-21.54-2.31-42.71-6.54-63.62-12.11c-0.45-0.12-0.83-0.53-1.24-0.81
		c-0.77-17.95,2.06-35.01,11.73-50.59c1.99-3.21,5.37-5.49,6.24-9.41c12.35,2.39,24.65,5.07,37.19,6.32
		c5.6,0.56,11.2,1.19,16.8,1.79c0.19,1.58-0.44,2.94-1.15,4.27c-6.97,13.13-9.03,27.36-8.71,41.93
		C723.33,661.34,724.99,667.53,725.96,673.74z"/>
	<path class="st7" d="M725.96,673.74c-0.97-6.2-2.63-12.39-2.77-18.62c-0.32-14.57,1.74-28.8,8.71-41.93
		c0.71-1.33,1.34-2.69,1.15-4.27c18.35,1.67,36.71,0.56,55.07,0.43c-1.86,6.68-4.79,12.97-6.2,19.86
		c-3.09,15.19-1.66,29.95,2.56,44.64c0.27,0.95,0.4,1.94,0.6,2.91C765.3,677.35,745.59,676.23,725.96,673.74z"/>
	<path class="st7" d="M679.06,600.81c-0.87,3.92-4.24,6.2-6.24,9.41c-9.66,15.58-12.5,32.65-11.73,50.59
		c-18.25-4.65-35.6-11.57-52.09-20.63c0.34-2.28,0.89-4.55,1-6.84c0.51-10.64,3.98-20.25,9.36-29.37
		c4.23-7.18,10.34-12.68,15.66-18.89C649.43,591.08,663.98,596.67,679.06,600.81z"/>
	<path class="st3" d="M635.01,585.08c-5.32,6.21-11.43,11.72-15.66,18.89c-5.38,9.12-8.85,18.73-9.36,29.37
		c-0.11,2.29-0.65,4.56-1,6.84c-16.41-8.15-31.31-18.47-44.48-31.2c-1.58-1.52-4.11-2.26-4.6-4.84c1.1-2.76,2.27-5.49,3.28-8.28
		c3.78-10.48,9.64-19.34,18.58-26.31c5.04-3.93,11.1-5.6,16.36-8.9c7.57,5.53,14.71,11.66,22.9,16.33
		C625.72,579.65,630.36,582.38,635.01,585.08z"/>
	<path class="st7" d="M598.14,560.66c-5.26,3.3-11.31,4.96-16.36,8.89c-8.94,6.97-14.8,15.83-18.57,26.31
		c-1.01,2.79-2.19,5.52-3.28,8.28c-13.79-12.97-24.29-28.24-32.01-45.47c8.68-19.37,23.83-28.9,44.84-29.55
		C579.55,540.98,588.62,551,598.14,560.66z"/>
	<path class="st7" d="M1066.19,402.45c-0.49,4.27-2.08,7.61-5.92,9.71c-8.98-0.38-12.52-3.68-14.34-12.63
		c-3.1-15.23-4.98-30.74-10.4-45.44c-4.68-12.69-10.56-24.73-19.23-35.24c-0.9-1.09-1.46-2.19-1.37-3.6
		c10.55-2.38,21.22-3.22,32.01-2.6c11.56,17.81,16.8,37.7,19.24,58.51C1067.41,381.59,1067.4,392,1066.19,402.45z"/>
	<path class="st7" d="M1117.02,401.13c-1.67,8.85-3.5,10.64-12.28,11.06c-5.23-1.44-6.52-5.76-7.26-10.29
		c-1.91-11.61-3.63-23.25-6.8-34.62c-5.35-19.17-13.3-37.07-24.96-53.27c12.14,0.23,23.95,2.49,35.62,5.66
		c-1.36,0.81-1.03,1.67-0.36,2.88c7.07,12.88,12.49,26.38,14.65,41C1117.47,376,1119.42,388.47,1117.02,401.13z"/>
	<path class="st6" d="M1047.99,807.89c2.56-2.44,5.13-4.89,7.69-7.34c1.2-1.15,2.94-2.1,3.48-3.51c3.2-8.33,11.09-10.28,17.97-13.57
		c2.7-1.29,5.46-0.52,7.25,1.7c1.73,2.15,3.83,2.24,5.79,1.49c4.2-1.61,8.96-1.82,10.94-7.75c1.09-3.25,1.58-4.54-1.39-6.11
		c-1.09-0.58-2.15-1.63-1.43-2.79c1.08-1.74,2.64-0.31,3.33,0.41c4.28,4.45,10.68,5.07,15.4,8.78c2.28,1.79,4.9,0.03,5.72-2.11
		c1.74-4.55,6.95-6.13,8.5-10.74c0.36-1.07,1.79-1.3,3.02-1.42c0.95-0.09,2.35-0.2,2.74-0.82c7.03-11.22,19.15-8.91,29.52-10.98
		c2.58-0.52,5.48,0.83,8.34,0.91c4.31,0.12,8.4-1.37,11.67-3.32c2.85-1.7,5.91-0.85,8.36-2.41c4.43-2.83,3.74,2.94,6.14,3.51
		c0.74,0.17,1.35,0.85,2.02,1.3c-14.39,7.69-28.56,15.6-43.83,21.74c-16.1,6.48-32.19,12.82-48.79,17.78
		C1089.87,798.79,1069.2,804.49,1047.99,807.89z"/>
	<path class="st7" d="M1007.02,316.1c-0.29,2.16,0.81,3.92,1.87,5.57c8.28,12.89,13.37,27.03,16.39,41.94
		c2.42,11.92,3.4,23.99,2.64,36.14c-0.33,5.28-4.62,10.47-8.62,11.03c-4.33,0.61-9.32-2.8-10.97-8.42
		c-2.19-7.47-3.89-15.09-5.57-22.69c-2.67-12.05-7.92-23.23-11.4-35.01c-0.56-1.89-1.64-3.68-1.28-5.78
		c1.84,2.12,3.65,4.27,5.53,6.36c1.3,1.44,2.79,2.52,4.74,1.05c1.93-1.45,2.78-3.19,1.45-5.59c-3.24-5.85-7.44-11-11.89-15.92
		c-2.78-3.07-2.72-4.41,1.63-5.19C996.74,318.67,1001.86,317.29,1007.02,316.1z"/>
	<path class="st7" d="M1145.04,338.85c-0.4,3.59,0.9,6.84,1.91,10.18c5.25,17.32,7.77,34.92,5.02,52.99
		c-0.49,3.21-2.19,5.88-4.58,8.11c-4.68,4.37-10.21,3.45-13.05-2.41c-2.27-4.68-2.98-9.81-3.34-14.95
		c-1.42-20.15-5.03-39.66-14.78-57.77c-2.14-3.97-5.2-7.66-6.05-12.32c12.2,3.01,23.62,7.74,33.83,15.18
		c0.35,0.38,0.71,0.76,1.06,1.14L1145.04,338.85z"/>
	<path class="st7" d="M862.26,431.95c4.32,1.45,6.42,5.58,9.8,8.21c9.01,7.03,20.13,10.15,29.43,16.58
		c4.88,3.37,10.55,5.98,10.58,13.29c0.02,4.64-2.09,7.35-6.37,8.98c-9.55,3.63-18.92,1.56-28.37-0.35
		c-8.11-1.64-15.31-5.28-22.26-9.57c-1.23-0.76-2.16-2.19-3.88-2.02C853.47,454.92,856.31,442.95,862.26,431.95z"/>
	<path class="st6" d="M950.17,821.34c-3.36-1.92-2.8-3.6,0.33-5.1c0.9-0.43,1.83-1.21,2.72-1.17c8.21,0.36,12.92-5.14,16.8-10.89
		c3.74-5.54,8.78-6.24,14.44-6.2c3.68,0.02,7.29-0.04,10.73-1.59c1.9-0.85,3.49-0.32,4.91,1.21c5.37,5.78,11.52,9.58,19.85,7.3
		c2.14-0.58,4.19-0.4,6.31,0.01c5.77,1.11,10.19-3.25,15.55-3.96c1.41-0.19,2.76-1.26,4.29-0.94c2.28,0.49,4.18,1.6,1.68,3.87
		c-1.63,1.48-1.63,2.65-0.71,4.27c-17.11,4.05-34.56,6.13-51.93,8.59C980.21,818.85,965.24,820.65,950.17,821.34z"/>
	<path class="st7" d="M1242.94,497.02c-5.45-0.24-10.96,0.5-16.31-1.09c-3.76-1.11-7.35-2.6-8.43-6.87
		c-0.95-3.75,1.06-6.68,3.89-8.53c6.45-4.22,12.96-8.43,20.48-10.63C1243.84,478.92,1244.93,487.95,1242.94,497.02z"/>
	<path class="st6" d="M497.07,546.04c1.51-5.22,6.57-9.01,12.06-9.05c2.28,6.14,4.56,12.28,7.25,19.54
		C509.4,552.32,503.48,548.69,497.07,546.04z"/>
	<path class="st2" d="M1227.72,587.88c3.25,2.74,6.75,5.07,6.68,10.29c-0.03,1.9,2.03,3.97,4.16,5.28c1.81,1.12,1.36,2.94-0.52,3.2
		c-2.75,0.39-5.39,1.89-8.28,1.11c-3.11-0.83-5.72-1.52-3.41-5.95c2.05-3.94,0.11-7.72-2.47-11.01
		C1225.16,589.83,1226.44,588.85,1227.72,587.88z"/>
	<path class="st6" d="M1206.52,750.79c-0.56-2.27-1.83-3.76-4.25-4.29c-1.1-0.24-2.13-0.94-2.21-2.38c-0.1-1.7,1.14-2.22,2.34-2.84
		c7.67-3.93,9.92-3.49,14.67,2.93C1213.64,746.55,1210.63,749.55,1206.52,750.79z"/>
	<path class="st6" d="M1215.42,583.72c-0.68,0.38-1.4,0.71-1.98-0.06c-0.05-0.07,0.71-0.76,1.09-1.16
		C1214.83,582.91,1215.13,583.32,1215.42,583.72z"/>
	<path class="st6" d="M1221.97,740.96c-0.1-0.21-0.21-0.43-0.31-0.64c0.24,0.1,0.47,0.2,0.71,0.31
		C1222.34,740.87,1222.21,740.98,1221.97,740.96z"/>
	<path class="st5" d="M1145.05,339.01c-0.35-0.38-0.71-0.76-1.06-1.14C1144.57,338.04,1145.05,338.3,1145.05,339.01z"/>
	<path class="st2" d="M500.73,434.67c0.26-0.13,0.52-0.27,0.78-0.4c0.03,0.4,0.06,0.8,0.09,1.2
		C501.3,435.2,501.02,434.94,500.73,434.67z"/>
	<path class="st0" d="M1119.64,571.34c-9.48,15.21-27.18,16.73-37.68,6.94c-3.87-3.61-5.78-2.55-9.19-0.16
		c-11.99,8.39-27.3,6.45-36.55-4.31c-0.65-0.76-1.37-1.51-1.8-2.39c-1.44-2.89-4.21-6.29-0.13-8.7c3.9-2.31,4.88,1.76,6.36,4.23
		c3.87,6.45,12.27,9.62,20.57,7.8c8.74-1.91,13.43-7.12,14.99-15.08c1.14-5.76,0.34-9.64-5.45-12.38c-2.84-1.34-6.29-3.61-4.85-8.12
		c4.03,1.23,7.18,4.05,10.69,6.16c3.13,1.88,5.76,2.11,8.74,0.2c3.34-2.14,6.7-4.22,10.05-6.33c2.23,5.23-2.41,6.82-5.03,9.49
		c-1.8,1.84-5.95,0.99-6.13,4.27c-0.28,5.21-3.39,10.51-0.91,15.58c3.58,7.35,14.75,9.83,22.9,5.63c3.04-1.56,5.46-3.79,7.2-6.73
		c1.33-2.24,3.13-3.81,5.69-2.27C1121.78,566.78,1120.9,569.31,1119.64,571.34z"/>
	<path class="st0" d="M1027.73,512.46c-8.15,10.09-19.1,14.52-31.73,15.42c-2.49,0.17-4.99,0.1-7.48,0.15
		c-7.46-1.62-14.84-3.37-21.37-7.67c-5.51-3.63-10.12-8.05-13.29-13.86c-1.37-2.5-1.21-4.88,1.35-6.52c2.48-1.59,4.6-1.01,6.56,1.24
		c18.3,20.91,40.2,21.79,61.38,2.54c2.28-0.63,4.38-0.47,5.68,1.77C1030.3,508.06,1029.38,510.42,1027.73,512.46z"/>
	<path class="st0" d="M1195.13,517.43c-7.06,9.32-16.77,13.87-28.1,15.41c-1.81,0.24-3.62,0.48-5.44,0.72
		c-10.44-0.9-20.14-3.65-28.03-11.06c-2.44-2.29-4.6-4.78-6.18-7.72c-2.26-4.21-1.19-6.48,3.62-7.94c2.3,0.41,3.63,2.04,5.07,3.73
		c13.79,16.2,37.47,16.5,51.72,0.68c2.23-2.48,4.65-5.13,7.92-2.28C1198.74,511.61,1197.13,514.78,1195.13,517.43z"/>
	<path class="st4" d="M1095.39,539.2c-3.35,2.11-6.71,4.19-10.05,6.33c-2.98,1.91-5.61,1.68-8.74-0.2
		c-3.51-2.11-6.66-4.93-10.69-6.16c-1.19-3.34,1.03-4.64,3.52-5.37c7.36-2.14,14.73-1.83,22,0.48
		C1093.72,535.01,1095.71,536.24,1095.39,539.2z"/>
	<path class="st6" d="M1190.17,743.5c-3.21-1.31-5.43,0.4-7.61,2.31c-1.52,1.33-3.44,1.84-4.93,0.45c-1.32-1.24-0.66-3.07,0.05-4.64
		c2.21-4.92,9.86-7.83,14.59-5.54c0.15,0.07,0.32,0.12,0.44,0.22c1.46,1.28,4.86-0.34,4.82,3.06
		C1197.51,740.78,1192.09,743.64,1190.17,743.5z"/>
	<path class="st6" d="M1201.05,723.94c2.38,0.46,4.6,0.81,7-0.66c1.44-0.88,2.74,0.73,2.83,2.44c0.12,2.1,0.6,4.66-2.44,5.08
		c-2.13,0.29-4.23,0.51-6.27,1.22c-1.5,0.52-3.27,1.71-4.47-0.15c-1.04-1.62-1.7-3.72-1.13-5.58
		C1197.16,724.4,1199.02,723.74,1201.05,723.94z"/>
	<path class="st6" d="M1201.64,598.54c-0.39,2.47-2.3,3.74-3.46,5.42c-1.04,1.51-3.06,1.54-4.31,0.11
		c-1.55-1.76,0.28-2.44,1.47-3.29C1197.19,599.44,1199.07,598.3,1201.64,598.54z"/>
	<path class="st6" d="M1197.25,701.95c-1.33,2.33-0.52,4.76-3.24,4.79c-0.85,0.01-1.7-0.69-1.64-1.53
		C1192.53,702.88,1194.48,702.75,1197.25,701.95z"/>
	<path class="st0" d="M950,358.45c-1.9-4.2-3.56-8.78-5.94-12.93c-5.22-9.08-10.57-18.12-18.36-25.38
		c-1.44-1.34-3.28-2.99-1.41-5.06c2.1-2.33,4.24-0.92,6.07,0.72c4.09,3.69,7.68,7.85,10.91,12.3c6.79,9.33,11.88,19.59,16.27,30.21
		c1.69,4.1,0.6,6.45-3.92,7.73c-7.28,2.05-13.62,6.08-19.61,10.65c-1.63,1.25-3.45,3.45-5.56,1.07c-2.08-2.35-0.26-4.35,1.43-6.01
		c4.97-4.87,11.3-7.53,17.42-10.52C948.46,360.66,949.88,360.44,950,358.45z"/>
	<path class="st0" d="M1004.09,435.31c3.68,0.04,7.29,0.47,10.57,2.26c1.81,0.98,3.55,2.28,2.41,4.69
		c-1.06,2.24-2.83,1.53-4.66,0.83c-6.68-2.54-13.31-2.09-19.8,0.75c-1.88,0.83-3.95,1.93-5.09-0.64c-1.06-2.39,1-3.55,2.75-4.55
		C994.55,436.21,999.18,435.18,1004.09,435.31z"/>
	<path class="st0" d="M1192.63,373.85c-1.31-0.01-2.08-0.94-2.93-1.71c-4.69-4.25-9.53-8.29-15-11.51c-2.81-1.65-3.44-4.08-1.87-6.8
		c7.49-12.89,16.47-24.56,28.3-33.83c0.78-0.61,1.69-1.07,2.59-1.48c1.65-0.75,3.32-0.83,4.47,0.81c1.31,1.86-0.03,3.06-1.34,4.18
		c-2.4,2.05-4.88,4.01-7.19,6.16c-6.87,6.38-12.33,13.92-17.6,21.61c-1.96,2.85-2.55,4.91,1.26,6.93c4.29,2.27,7.46,6.05,10.65,9.67
		c1.05,1.19,1.48,2.61,0.89,4.17C1194.48,373.07,1193.67,373.63,1192.63,373.85z"/>
	<path class="st0" d="M1158.06,440.24c5.38-0.15,10,0.94,14.25,3.41c1.99,1.16,3.61,2.84,2.23,5.25c-1.37,2.38-3.2,1.31-5.07,0.21
		c-5.43-3.2-11.27-3.56-17.25-1.87c-1.88,0.53-3.74,1.02-4.66-1.19c-1.05-2.52,0.87-3.59,2.76-4.41
		C1152.92,440.5,1155.67,440,1158.06,440.24z"/>
</g>
</svg>
