<?xml version="1.0" encoding="utf-8"?>
<!-- Generator: Adobe Illustrator 25.4.1, SVG Export Plug-In . SVG Version: 6.00 Build 0)  -->
<svg version="1.1" id="Capa_1" xmlns="http://www.w3.org/2000/svg" xmlns:xlink="http://www.w3.org/1999/xlink" x="0px" y="0px"
	 viewBox="0 0 891.3 650" style="enable-background:new 0 0 891.3 650;" xml:space="preserve">
<style type="text/css">
	.st0{fill:#0D0C0B;}
	.st1{fill:#FFFFFF;}
	.st2{fill:#8CAB9E;}
	.st3{fill:#DE8322;}
	.st4{fill:#DE8423;}
	.st5{fill:#DE8221;}
	.st6{fill:#89A99B;}
	.st7{fill:#B3641A;}
</style>
<g>
	<path class="st0" d="M889.4,352.9c-5.6-47.8-27.9-84.7-70.6-108.4c-1.6-0.9-3-1.8-3.6-3.8c-2.4-7-5.7-13.5-9.6-19.7
		c-1.1-1.7-1.7-3.2-1-5.5c5.8-18.5,9-37.5,10.2-56.8c0.9-13.9,0.4-27.6-3.7-41c-3.4-11-11.4-17-22.8-17.5c-8-0.4-15.6,1.3-23,3.8
		c-19.2,6.6-36.6,16.7-52.5,29.2c-3.6,2.8-6.5,3.5-10.7,1.5c-7.6-3.5-15.5-6-23.6-8c-1.6-0.4-3.2-0.5-4.2-2.3
		c-3.9-7.4-9.6-13.6-14.3-20.4c-5-5.5-10.1-11.1-15.1-16.6c-2.2-1.5-4.3-3.1-5.8-5.3c-3.6-3.2-7.2-6.3-10.9-9.5
		c-0.4-0.3-0.7-0.5-1.1-0.8c-4.3-3-8.9-5.5-12-9.9c-1.2-0.2-2.2-0.8-2.9-1.8c-4.1-1.1-6.9-4.5-10.7-6.2c-0.8-0.7-1.6-1.4-2.4-2
		c-5.6-2.9-11.2-5.7-16.8-8.6c-2.2-2.2-5.6-2.1-8-3.8c-2.9-0.9-5.6-2.1-8.1-3.7c-7-2.8-14.1-5.6-21.1-8.4c-4-1.4-8-2.9-12-4.3
		c-5-1.5-9.9-3-14.9-4.4c-2.2-0.6-4.5-1.3-6.7-1.9c-4.1-1-8.2-2.1-12.2-3.1c-3.7-0.7-7.5-1.1-11.1-2.7c-1.4-0.2-2.7-0.5-4.1-0.7
		c-2.7-0.3-5.4-0.5-7.9-1.6c-6-1-12-2-18-3c-2.4,0.3-4.7-0.5-7-1c-2.4,0.3-4.7-0.3-7-0.9c-1.7,0.3-3.4,0.2-5-0.6
		c-0.7,0.4-1.4,0.2-2-0.3c-0.7,0-1.3-0.1-2-0.1c-3.3-0.3-6.7-0.6-10-0.9c-4.4,0.2-8.7-0.3-13-1c-3,0.4-6,0.3-9-0.3
		c-1.3-0.1-2.7-0.1-4-0.2c-1.7,0.3-3.3,0.3-5-0.2c-6.3,0.4-12.7,0.6-19,0.1c-1,0.1-2,0.2-3,0.2c-2,0.1-4,0.2-6,0.3
		c-1.3,0-2.7,0.1-4,0.1c-0.7,0-1.3,0.1-2,0.1c-1.3,0.7-2.7,0.8-4,0.4c-2.3,0.8-4.6,0.6-7,0.5c-3.6,1.2-7.3,1.2-11,1.5
		c-1,0.1-2,0.3-3,0.4c-0.7,0.1-1.3,0.1-2,0.2c-5.3,0.9-10.7,1.8-16,2.7c-0.7,0.1-1.3,0.2-2,0.2c-2.7,1.2-5.6,1.7-8.5,1.8
		c-3.8-0.5-6.6,3-10.4,2.5c-1.4,2-3.5-1.2-4.9,0.7c-5.2,3.4-11.4,4-17.1,5.9c-6.2,2.4-12.4,4.9-19,5.9c-1,0.7-1.1,2.6-3,2
		c-0.7,0-1.3,0-2,0c-1,2.1-2.9,2.6-4.9,3c-3.6,1.5-7.5,2.3-10.5,4.9c-3.8,1.9-7.6,3.8-11.5,5.6c-1.3,0.8-2.5,1.6-3.8,2.4
		c-42.1,23.3-77,54.5-103,95.3c-6.3,10-11.7,20.5-17.1,31c-2.2,5.3-4.5,10.6-6.7,16c-0.3,0.7-0.5,1.4-0.8,2.1
		c-1.6,4.3-3.1,8.6-4.7,12.8c0.2,1.9-0.8,3.5-1.4,5.2c-0.3,1-0.6,2-1,3c-0.7,2.7-1.5,5.3-2.2,8c-0.3,1.3-0.7,2.6-1,3.9
		c-0.2,1-0.5,2-0.8,3c-0.1,3.1-1,6.1-1.9,9c0.2,4.5-1.3,7.6-5.6,9.8c-8.1,4.2-15,10.1-22.1,15.7c-2.8,2.6-5.5,5.3-8.3,7.9
		c-0.8,0.6-1.6,1.1-2.5,1.7c-1.4,4-4.6,6.7-7.5,9.6c-0.3,0.4-0.7,0.8-1,1.2c0.3,1.1-0.5,1.7-1.3,2.2c-0.5,0.6-0.9,1.2-1.4,1.8
		c-0.8,1.9-1.8,3.6-3.3,5c-0.6,1-1.3,2-1.9,3c-0.2,1.3-0.9,2.3-1.9,3c-0.2,1.4-0.9,2.7-1.9,3.6c-0.8,2.3-1.8,4.4-3.2,6.3
		c-3.3,9-6.6,18-9.9,27C3.7,344.2,1.6,360,0.2,376c0,2-0.1,3.9-0.1,5.9c0,0.5,0,1,0,1.4c0.1,8.4,0.2,16.8,0.2,25.3
		c0.8,2.6,1,5.3,0.7,8c0.1,1.3,0.2,2.7,0.3,4c0.5,0.6,0.6,1.3,0.3,2c1.6,9.3,3.2,18.6,4.8,27.9c0.2,0.9,0.5,1.8,0.8,2.8
		c0.2,1,0.5,2.1,0.7,3.2c2.5,7.4,5,14.8,7.5,22.1c1.1,1.2,1.6,2.4,1,4c0.1,0.3,0.2,0.6,0.3,0.9c2.4,0.8,2.3,3.1,3,5
		c4.5,10.2,11.1,19.1,17.3,28.2c3.2,5.1,7.5,9.2,11.5,13.6c6.1,6,12.2,11.9,18.2,18c1.2,1.2,3.2,1,3.9,2.7c3.6,2.8,7.3,5.6,10.9,8.3
		c10.4,7.1,20.8,14.2,32,20.1c0.8,0.4,1.2,1.1,1.2,2c0.7,0.1,1.5-0.1,1.8,0.8c5.2,0.8,9.2,4.1,13.7,6.5c0.8,0.4,1.7,0.8,2.5,1.1
		c4.3,2,8.6,4,12.8,6c21.4,9.1,43.4,16.6,65.5,23.8c5.4,1.2,10.9,2.2,16,4.6c1.6-0.2,3.1,0.1,4.5,1c8.6,2.1,17.3,4.2,25.9,6.2
		c1,0.1,1.9,0.3,2.9,0.4c1.7,0.4,3.4,0.7,5.2,1.1c1.7,0.3,3.4,0.7,5.1,1c3.1,0.6,6.1,1.3,9.2,1.9c0.5,0.1,1,0.1,1.5,0.2
		c9.4,1.5,18.7,3.1,28.1,4.7c3,0,6,0.3,9,1.2c3.4,0.4,6.8,0.2,10.1,1.5c3.7,0,7.4,0.2,10.9,1.4c0.7,0,1.3,0,2,0.1
		c13.1,1,26.1,2,39.2,3c21.5,1.7,43.2,1.9,64.8,2c1.7,0,3.3,0.2,4.9,0.2c3.4-0.5,6.9-0.5,10.3-0.2c4.9-0.5,9.8-0.6,14.8-0.2
		c3-0.1,5.9-0.2,8.9-0.2c1-0.6,2-0.6,3.1-0.2c2-0.7,4-0.7,6-0.4c8.7-0.5,17.3-1,26-1.5c0.9-0.6,1.9-0.6,2.9-0.4
		c1.7-0.5,3.3-0.7,5.1-0.3c1.6-0.3,3.3-0.6,4.9-0.8c22.6-1.7,45-4.8,67.3-8.3c11.3-1.8,22.5-4,33.8-6c0.5-0.6,1.2-0.9,2-0.7
		c1.3-0.3,2.6-0.6,3.8-0.8c18.7-4.6,37.5-9.1,55.8-15.1c38.9-12.5,76.1-28.4,109.4-52.5c37-26.7,62.6-61.6,76.2-105.3
		C891.1,423,893.5,388.2,889.4,352.9z M83.6,268.9c2-37.8,12.1-73.4,29.4-107c21.9-42.6,53.6-76.4,93.9-102c0.7-0.4,1.5-0.7,2.2-1.1
		c24.9-16.2,51.9-27.6,80.3-35.8C334.7,10,380.8,7.3,427.4,11.5c6.1,0.6,12.3,0.8,18.3,2.3c21.1,2,41.8,6.4,62.2,11.9
		c32,8.7,62.7,20.3,91,37.9c24.3,15.1,45.6,33.5,62.2,57c0.4,0.5,0.7,1.1,1.4,2.2c-6.6-0.8-12.6-1.6-18.6-2.4
		c-28.7-3.5-56.9-1-84.5,7.5c-3.8,1.1-6,0.5-8.6-2.3c-8.9-9.3-18.9-17.4-29.7-24.3c-4.1-2.6-8.3-4.9-12.8-6.6
		c-18.7-7.1-31.3-2.5-40.8,15.2c-9.4,17.4-13.2,36.5-15.9,55.9c-1.8,12.6-2.2,25.2-1.9,37.9c0,2.4-0.5,4.3-2,6.4
		c-24,33.6-36.6,70.3-31.1,112.1c0.9,6.9,2.7,13.7,5.2,20.2c0.8,2.2,2.2,4,4.8,3.3c2.8-0.8,3.1-3,2.3-5.6c-1.9-6.9-3.6-13.9-3.9-21
		c-1.7-12.1-0.9-24.2,0.7-36.3c2.3-12.1,5.1-24.1,11.1-35.1c3-10,8.7-18.6,14.2-27.3c0.5-0.8,1.2-1.6,2.4-1.3
		c5.4,1.4,5.3-2.2,5.2-5.7c-0.2-13.8-0.8-27.6,0.9-41.4c2.5-20.2,6.4-40.1,15.9-58.4c7-13.4,16.5-16.5,30.3-10.4
		c15,6.6,27.3,17.1,38.9,28.5c7.2,7.1,14.5,14.2,20,22.9c1.8,2.1,3.6,4.3,5.5,6.4c1.3,1.4,2.8,2.5,4.7,1c1.9-1.5,2.8-3.2,1.5-5.6
		c-3.2-5.9-7.4-11-11.9-15.9c-2.8-3.1-2.7-4.4,1.6-5.2c5.2-0.9,10.3-2.3,15.5-3.5c2.6-0.4,5.2-1.5,7.9-0.9c10.5-2.4,21.2-3.2,32-2.6
		c6.3,0.1,12.6-0.5,18.8,1.4c12.1,0.2,23.9,2.5,35.6,5.7c3.1,0.6,6.1,1.4,8.8,3c12.2,3,23.6,7.7,33.8,15.2c0.1,0,0.2,0.1,0.3,0.1
		c0.1,0,0.1,0,0.2,0.1c0.1,0,0.2,0.1,0.3,0.2c0,0,0.1,0.1,0.1,0.1c0,0,0.1,0.1,0.1,0.1c0,0,0.1,0.1,0.1,0.2c0,0,0,0.1,0,0.1
		c0,0,0,0,0,0.1v0c1.9,0.7,3.8,1.5,5.2-0.8c1.4-2.2,0.3-3.8-1-5.4c-0.4-0.5-0.9-1-1.4-1.4c-6-5.2-6-5.2,0.7-10
		c16.5-11.7,33.8-21.8,53.7-26.8c1.6-0.4,3.2-0.7,4.9-1c12.6-2.2,19.9,2.9,22.8,15.5c3.6,16.2,2.4,32.4,0.6,48.6
		c-1.6,14.2-4.5,28.2-9,41.9c-1.1,3.4-0.2,6,1.5,8.9c10.8,18.3,16.8,38.2,19.7,59.1c0.1,0.8-0.1,1.6-0.1,2.5c1.3,9,2.4,18,0.4,27.1
		c-0.2,9-1.9,17.6-4.3,26.1c-1.1,3.8-2.4,7.7-3.8,11.4c-7.8,19.9-20,36.7-36.2,50.6c-3.6,3.1-7.5,5.3-12,6.8
		c-30.3,10.3-58.3,25.2-84.6,43.5c-3,2.1-6,3-9.7,2.8c-28.8-1.5-57.1,2.4-85.4,7.2c-3.6,0.6-7.3,0.8-10.9,1.2c-3,0.4-2.6-2.1-3-3.6
		c-1.6-7.9-4-15.4-8.1-22.5c-10.1-17.5-25.5-29.2-42.9-38.6c-26-14.2-53.9-22.8-83.1-27.2c-2.3-0.3-4.6-0.5-7-0.6
		c-2.2-0.1-4.2,0.6-4.5,3c-0.3,2.7,1.4,3.9,3.8,4.2c11.7,1.7,23.2,4.5,34.5,7.8c25.7,7.5,50.5,17,71.9,33.8
		c12.6,9.9,22.3,21.9,25.8,38.1c0.4,1.8,0.5,3.6,0.7,5.4c0.2,1.9-0.3,3.1-2.5,3.5c-32.3,5.6-64.4,12.4-97.1,15
		c-0.4,0-0.9-0.1-1.7-0.3c7.2-11.7,7.8-23.7,1.3-35.6c-6.2-11.2-16.3-17.7-28-22.2c-14.7-5.7-30.1-6.9-45.7-7c-4.2,0-4.8-0.9-3.6-5
		c6.2-19.9,9-40.2,6.2-61.1c0-0.3-0.1-0.7-0.1-1c-0.2-2.7-0.9-5.4-4.1-5.2c-3.5,0.2-3.3,3.1-3.1,5.7c1,12.5,0.3,25-1.7,37.3
		c-1.4,8.9-3.4,17.6-6.7,26c-0.9,2.2-1.9,3-4.3,3.1c-28,0.9-56,1.2-83.8-2.7c-0.6-0.1-1.3-0.4-1.9-0.6c-31.2-4.3-60.7-13.6-87.3-31
		c-22.1-14.4-38.5-33.7-48.6-58.1c-1.5-3.8-3.4-5.6-7.4-3.8c-1.1,2.6-0.5,5.2,0.6,7.6c2.7,6,5.4,12,8.2,17.9
		c6.8,11.9,15.9,21.9,25.4,31.5c7.6,5.5,14.7,11.7,22.9,16.3c4.7,2.7,9.3,5.4,14,8.1c14.4,6,29,11.6,44,15.7
		c12.3,2.4,24.7,5.1,37.2,6.3c5.6,0.6,11.2,1.2,16.8,1.8c18.3,1.7,36.7,0.6,55.1,0.4c22.6-0.9,45.3-1.6,66.9,6.8
		c6.4,2.5,12.2,6.1,17,11.2c13.8,14.8,8.4,35.7-10.8,41.7c-10.2,3.2-20.8,4.5-31.4,5.4c-14.9,1.3-29.8,3.2-44.7,2.4
		c-19.8,0.6-39.5-0.5-59.1-3c-21.5-2.3-42.7-6.5-63.6-12.1c-0.5-0.1-0.8-0.5-1.2-0.8c-18.2-4.7-35.6-11.6-52.1-20.6
		c-16.4-8.2-31.3-18.5-44.5-31.2c-1.6-1.5-4.1-2.3-4.6-4.8c-13.8-13-24.3-28.2-32-45.5c-3-3.7-4.3-8.2-5.9-12.5
		C85.1,331.8,81.9,300.7,83.6,268.9z M867.8,465.8c-11.1,29.7-28.3,55.4-52.6,75.8c-5.9,5-11.2,10.8-18.3,14.4c0,0,0,0,0,0
		s-0.1,0-0.1,0.1c0,0-0.1,0-0.1,0.1l0,0c0,0.2-0.2,0.3-0.4,0.3c-1.6,1.1-3.3,2.2-4.9,3.3c-3.4,2.3-6.4,5.3-10.6,6.6
		c-0.9,1.1-2,2.1-3.5,2.3c-14.4,7.7-28.6,15.6-43.8,21.7c-16.1,6.5-32.2,12.8-48.8,17.8c-20.5,6.2-41.2,11.8-62.4,15.2l-0.4,0.3
		h-0.5c-17.1,4-34.6,6.1-51.9,8.6c-14.9,2.1-29.9,3.9-45,4.6c-35.4,3.1-70.8,3.8-106.3,3c-57.1-1.3-113.6-7.6-169.3-20.5
		c-50.7-11.8-99.6-28.2-144.2-55.8c-29-17.9-54.2-39.8-71.5-69.7c-12.1-20.9-18.7-43.7-21.7-67.5c-4-32.3-3.7-64.5,5.2-96.1
		c8.9-31.5,26.1-57.3,52.7-76.7c1.7-1.3,3.7-2.2,5.6-3.3c0.3-0.1,0.5-0.3,0.8-0.4c0,0.4,0.1,0.8,0.1,1.2
		c-2.4,23.4-2.3,46.6,0.9,69.9c1.4,10.7,4.5,21.1,6.7,31.6c2.3,6.1,4.6,12.3,7.2,19.5c-7-4.2-12.9-7.8-19.3-10.5
		c-2.6,0.4-6.5-2.6-7.7,1.8c-1.3,4.5,3.2,4.8,5.9,5.9c10.8,4.8,20,11.9,28.9,19.4c1.1,0.9,2,2.2,2.8,3.5
		c21.5,35.5,52.1,60.5,89.4,77.8c32.9,15.3,67.8,23.6,103.6,28.2c30.1,3.9,60.4,5.2,90.7,3c14.3-1,28.8-1.3,42.5-5.4
		c19.3-5.7,39.3-6.2,59-9.2c26.6-4,53.1-8.9,79.6-13.8c32.1-5.8,64.3-11.2,97.1-10.4c11.1,0.3,22.3,1.2,33.2,3.3
		c2.4,0.5,5,0.8,5.8-2.2c0.9-3.2-1.6-4.4-4.1-5.1c-3.8-1.1-7.6-2-12.1-3.2c10.6-7.5,21.2-13.7,32.1-19.4
		c24.1-12.6,49.1-22.9,75.7-29.2c0.8-0.2,1.6-0.1,2.4-0.1c0.6-0.1,1.3-0.2,1.9-0.3c1.3-1,2.6-2,3.8-2.9c0.2-4.8-1-5.9-5.5-5.2
		c-2.2,0.4-4.5,0.7-6.8,1c-0.7,0.4-1.4,0.7-2,0c-0.1-0.1,0.7-0.8,1.1-1.2c37.8-40.9,45.2-88.7,31.9-141.8c5.6,2.7,9.9,6,14.1,9.4
		c25,20.9,39.5,47.7,44.5,79.7C885.6,386.4,882.3,426.7,867.8,465.8z"/>
	<path class="st1" d="M801.5,352.5c-20.6,8.5-41.1,8-61.6-0.7c-1.5-0.6-3.2-1.1-4.1-2.7c-10.4-0.9-20.1-3.7-28-11.1
		c-2.4-2.3-4.6-4.8-6.2-7.7c-2.3-4.2-1.2-6.5,3.6-7.9c-8.2-15.7-14.2-32.2-18.4-49.4c-3.6-14.9-5.5-30.1-7.9-45.2
		c-5.2-1.4-6.5-5.8-7.3-10.3c-1.9-11.6-3.6-23.2-6.8-34.6c-5.3-19.2-13.3-37.1-25-53.3c-6.2-1.9-12.5-1.3-18.8-1.4
		c11.6,17.8,16.8,37.7,19.2,58.5c1.2,10.4,1.2,20.8,0,31.3c-0.5,4.3-2.1,7.6-5.9,9.7c-2.8,26.7-11.9,51.3-25.6,74.2
		c-3.6,6-7.7,11.6-11.5,17.4c2.3-0.6,4.4-0.5,5.7,1.8c1.5,2.5,0.6,4.9-1.1,6.9c-8.2,10.1-19.1,14.5-31.7,15.4
		c-2.5,0.2-5,0.1-7.5,0.2c-11,6.7-23.1,10.1-35.6,11.9c-24.5,3.5-48,0.3-70.1-11.3c-10.2-5.3-19.4-12.1-27.4-20.5
		c-1.6-1.7-3.3-3.2-5-4.8c0.3,7.2,2,14.1,3.9,21.1c0.7,2.6,0.5,4.8-2.3,5.6c-2.6,0.7-3.9-1-4.8-3.3c-2.5-6.6-4.3-13.3-5.2-20.2
		c-5.5-41.8,7.1-78.5,31.1-112.1c1.5-2.1,2.1-4,2-6.4c-0.2-12.7,0.1-25.3,1.9-37.9c2.7-19.4,6.6-38.4,15.9-55.9
		c9.5-17.7,22.2-22.3,40.8-15.2c4.5,1.7,8.8,4,12.8,6.6c10.9,7,20.8,15,29.7,24.3c2.7,2.8,4.9,3.5,8.6,2.3
		c27.6-8.5,55.8-11,84.5-7.5c6,0.7,12,1.5,18.6,2.4c-0.7-1.1-1-1.7-1.4-2.2c-16.6-23.5-37.9-41.9-62.2-57
		c-28.3-17.6-59-29.2-91-37.9c-20.4-5.5-41.1-9.9-62.2-11.9c-8.7,33.9-16.7,67.9-37.5,97.1c-25.1,35.3-58.1,58.4-101.5,64.2
		c-26.5,3.6-52.4-0.3-75.1-15.6c-23.9-16.1-34.2-38.9-31.6-67.7c1.1-11.6,5.1-22.3,9.2-33c-0.7,0.4-1.5,0.6-2.2,1.1
		c-40.4,25.7-72,59.4-93.9,102c-17.2,33.6-27.4,69.2-29.4,107c-1.7,31.7,1.5,62.8,12.6,92.8c1.6,4.3,2.9,8.8,5.9,12.5
		c8.7-19.4,23.8-28.9,44.8-29.5c-2.7-6-5.5-12-8.2-17.9c-1.1-2.5-1.7-5-0.6-7.6c-6.7-15.2-7.5-30.9-3-46.8
		c8.3-29.3,33.6-50.6,64.2-53.7c41-4.1,72.2,13.1,92.3,47.8c26.3,45.3,23.3,91.2-3.1,136c-2,3.4-4.8,6.4-7.2,9.6
		c0.6,0.2,1.2,0.5,1.9,0.6c27.8,3.9,55.8,3.6,83.8,2.7c2.4-0.1,3.5-1,4.3-3.1c3.4-8.4,5.3-17.2,6.7-26c2-12.4,2.7-24.8,1.7-37.3
		c-0.2-2.6-0.4-5.5,3.1-5.7c3.2-0.2,3.9,2.5,4.1,5.2c0,0.3,0.1,0.7,0.1,1c2.8,20.8,0,41.2-6.2,61.1c-1.3,4.1-0.6,4.9,3.6,5
		c15.5,0.1,31,1.3,45.7,7c11.6,4.5,21.8,11,28,22.2c6.5,11.9,5.9,23.9-1.3,35.6c0.8,0.1,1.3,0.3,1.7,0.3c32.7-2.6,64.8-9.4,97.1-15
		c2.2-0.4,2.7-1.6,2.5-3.5c-0.2-1.8-0.3-3.7-0.7-5.4c-3.4-16.2-13.2-28.2-25.8-38.1c-21.3-16.8-46.1-26.3-71.9-33.8
		c-11.3-3.3-22.8-6.1-34.5-7.8c-2.5-0.4-4.2-1.6-3.8-4.2c0.3-2.4,2.3-3.1,4.5-3c2.3,0.1,4.7,0.2,7,0.6c29.2,4.3,57.1,13,83.1,27.2
		c17.3,9.4,32.8,21.1,42.9,38.6c4.1,7,6.5,14.6,8.1,22.5c0.3,1.5-0.1,4,3,3.6c3.6-0.5,7.3-0.6,10.9-1.2c28.3-4.8,56.6-8.7,85.4-7.2
		c3.7,0.2,6.7-0.7,9.7-2.8c26.2-18.3,54.2-33.1,84.6-43.5c4.5-1.5,8.4-3.7,12-6.8c16.3-13.9,28.4-30.7,36.2-50.6
		C806.2,350,803.9,351.5,801.5,352.5z M693.9,387c-9.5,15.2-27.2,16.7-37.7,6.9c-3.9-3.6-5.8-2.5-9.2-0.2c-12,8.4-27.3,6.5-36.6-4.3
		c-0.7-0.8-1.4-1.5-1.8-2.4c-1.4-2.9-4.2-6.3-0.1-8.7c3.9-2.3,4.9,1.8,6.4,4.2c3.9,6.5,12.3,9.6,20.6,7.8c8.7-1.9,13.4-7.1,15-15.1
		c1.1-5.8,0.3-9.6-5.4-12.4c-2.8-1.3-6.3-3.6-4.8-8.1c-1.2-3.3,1-4.6,3.5-5.4c7.4-2.1,14.7-1.8,22,0.5c2.3,0.7,4.3,2,4,4.9
		c2.2,5.2-2.4,6.8-5,9.5c-1.8,1.8-5.9,1-6.1,4.3c-0.3,5.2-3.4,10.5-0.9,15.6c3.6,7.3,14.8,9.8,22.9,5.6c3-1.6,5.5-3.8,7.2-6.7
		c1.3-2.2,3.1-3.8,5.7-2.3C696,382.4,695.1,384.9,693.9,387z"/>
	<path class="st2" d="M834.6,475.9c0.5-0.4,1.4-0.5,1.7-1c1.3-2.3,6.9,0.6,5.6-5.4c-1.4-6.6-2-13-10.5-13.9
		c-2.1-0.2-3.6-1.2-3.9-3.2c-0.4-2.2,1.5-2.4,3.2-2.9c5.2-1.8,9.2-10.7,7.2-15.6c-0.3-0.9-1-2.5-1.9-1.8c-4.7,3.5-9.3-1.7-14.3,0.3
		c-4,1.6-8.4,1.6-10.9,5.9c-1.3,2.3-3.7,3.8-5.9,5.2c-5.6,3.6-5.6,3.7-9.1-2.1c-0.9-1.6-2.4-2.2-3.8-3.1c-6.6-4-7.9-8.6-4.4-15.6
		c1.6-3.1-0.8-5.1-1.9-7.3c-1.4-2.8-0.8-3.9,2-5.1c2.9-1.2,6.9,0,8.6-3.8c-0.8,0-1.7,0-2.4,0.1c-26.6,6.2-51.6,16.5-75.7,29.2
		c-10.9,5.7-21.5,11.9-32.1,19.4c4.5,1.2,8.3,2.1,12.1,3.2c2.6,0.7,5,1.9,4.1,5.1c-0.8,3-3.4,2.6-5.8,2.2c-11-2.1-22.1-3-33.2-3.3
		c-32.8-0.8-65,4.5-97.1,10.4c-26.5,4.8-53,9.7-79.6,13.8c-19.7,3-39.6,3.4-59,9.2c-13.7,4-28.3,4.3-42.5,5.4
		c-30.3,2.2-60.6,0.9-90.7-3c-35.8-4.6-70.7-12.9-103.6-28.2c-37.3-17.3-68-42.3-89.4-77.8c-0.8-1.3-1.7-2.5-2.8-3.5
		c-8.9-7.5-18.1-14.6-28.9-19.4c-2.7-1.2-7.1-1.5-5.9-5.9c1.2-4.4,5.1-1.3,7.7-1.8c1.5-5.2,6.6-9,12-9.1
		c-2.2-10.5-5.2-20.9-6.7-31.6c-3.1-23.3-3.2-46.6-0.9-69.9c-0.3-0.3-0.6-0.5-0.9-0.8c-1.9,1.1-3.8,2-5.6,3.3
		c-26.6,19.4-43.8,45.1-52.7,76.7c-8.9,31.7-9.2,63.8-5.2,96.1c3,23.8,9.6,46.6,21.7,67.5c17.3,30,42.5,51.8,71.5,69.7
		c44.6,27.6,93.5,44,144.2,55.8c55.7,12.9,112.2,19.2,169.3,20.5c35.5,0.8,70.9,0.1,106.3-3c-3.4-1.9-2.8-3.6,0.3-5.1
		c0.9-0.4,1.8-1.2,2.7-1.2c8.2,0.4,12.9-5.1,16.8-10.9c3.7-5.5,8.8-6.2,14.4-6.2c3.7,0,7.3,0,10.7-1.6c1.9-0.8,3.5-0.3,4.9,1.2
		c5.4,5.8,11.5,9.6,19.8,7.3c2.1-0.6,4.2-0.4,6.3,0c5.8,1.1,10.2-3.3,15.6-4c1.4-0.2,2.8-1.3,4.3-0.9c2.3,0.5,4.2,1.6,1.7,3.9
		c-1.6,1.5-1.6,2.7-0.7,4.3h0.5l0.4-0.3c2.6-2.5,5.1-4.9,7.7-7.3c1.2-1.2,2.9-2.1,3.5-3.5c3.2-8.3,11.1-10.3,18-13.6
		c2.7-1.3,5.5-0.5,7.2,1.7c1.7,2.2,3.8,2.2,5.8,1.5c4.2-1.6,9-1.8,10.9-7.8c1.1-3.2,1.6-4.5-1.4-6.1c-1.1-0.6-2.2-1.6-1.4-2.8
		c1.1-1.8,2.6-0.3,3.3,0.4c4.3,4.5,10.7,5.1,15.4,8.8c2.3,1.8,4.9,0,5.7-2.1c1.7-4.5,6.9-6.1,8.5-10.7c0.4-1.1,1.8-1.3,3-1.4
		c0.9-0.1,2.3-0.2,2.7-0.8c7-11.2,19.2-8.9,29.5-11c2.6-0.5,5.5,0.8,8.3,0.9c4.3,0.1,8.4-1.4,11.7-3.3c2.8-1.7,5.9-0.8,8.3-2.4
		c4.4-2.8,3.7,2.9,6.1,3.5c0.7,0.2,1.3,0.8,2,1.3c1.5-0.2,2.6-1.2,3.5-2.3c-0.6-2.3-1.8-3.8-4.2-4.3c-1.1-0.2-2.1-0.9-2.2-2.4
		c-0.1-1.7,1.1-2.2,2.3-2.8c7.7-3.9,9.9-3.5,14.7,2.9c1.6-1.1,3.3-2.2,4.9-3.3c-0.1-0.2-0.2-0.4-0.3-0.6c0.2,0.1,0.5,0.2,0.7,0.3
		c0,0,0,0,0,0s0.1,0,0.1-0.1c0,0,0.1,0,0.1-0.1s0,0,0,0c-0.9-2.4-2.7-4-5-5.2c-3.9-2.1-3.9-4.5-0.5-7c4.6-3.3,4.5-4.7,0-7.9
		c-3-2.1-5.2-4.9-5.9-9.8c4.8,4.9,7.3-0.1,10.6-1.3c1-0.3,1.4-1.8,0.8-2.6c-2.2-2.7-0.3-5-0.2-7.6c0.4-7.2,6.3-8.8,10.5-11.2
		c5.1-2.9,10.8-0.1,15.5,2.6c6.6,3.9,13.5,0.8,14.5-6.9c0.3-2.2-1-3.3-2.5-4.5C823.8,486.5,823.8,483.7,834.6,475.9z M769.6,416.4
		c1.8-1.3,3.7-2.5,6.3-2.2c-0.4,2.5-2.3,3.7-3.5,5.4c-1,1.5-3.1,1.5-4.3,0.1C766.6,417.9,768.4,417.2,769.6,416.4z M771.5,517.6
		c-1.3,2.3-0.5,4.8-3.2,4.8c-0.8,0-1.7-0.7-1.6-1.5C766.8,518.5,768.7,518.4,771.5,517.6z M764.4,559.1c-3.2-1.3-5.4,0.4-7.6,2.3
		c-1.5,1.3-3.4,1.8-4.9,0.5c-1.3-1.2-0.7-3.1,0.1-4.6c2.2-4.9,9.8-7.8,14.6-5.5c0.2,0.1,0.3,0.1,0.4,0.2c1.5,1.3,4.9-0.3,4.8,3.1
		C771.7,556.4,766.3,559.2,764.4,559.1z M782.7,546.4c-2.1,0.3-4.2,0.5-6.3,1.2c-1.5,0.5-3.3,1.7-4.5-0.2c-1-1.6-1.7-3.7-1.1-5.6
		c0.6-1.9,2.4-2.5,4.5-2.3c2.4,0.5,4.6,0.8,7-0.7c1.4-0.9,2.7,0.7,2.8,2.4C785.2,543.4,785.7,546,782.7,546.4z"/>
	<path class="st3" d="M620.2,215.1c-3.1-15.2-5-30.7-10.4-45.4c-4.7-12.7-10.6-24.7-19.2-35.2c-0.9-1.1-1.5-2.2-1.4-3.6
		c-2.7-0.6-5.3,0.4-7.9,0.9c-0.3,2.2,0.8,3.9,1.9,5.6c8.3,12.9,13.4,27,16.4,41.9c2.4,11.9,3.4,24,2.6,36.1
		c-0.3,5.3-4.6,10.5-8.6,11c-4.3,0.6-9.3-2.8-11-8.4c-2.2-7.5-3.9-15.1-5.6-22.7c-2.7-12-7.9-23.2-11.4-35c-0.6-1.9-1.6-3.7-1.3-5.8
		c-5.5-8.7-12.8-15.8-20-22.9c-11.5-11.4-23.8-21.9-38.9-28.5c-13.8-6.1-23.4-3-30.3,10.4c-9.5,18.3-13.3,38.2-15.9,58.4
		c-1.7,13.8-1.1,27.6-0.9,41.4c0,3.5,0.1,7.1-5.2,5.7c-1.2-0.3-1.9,0.5-2.4,1.3c-5.6,8.7-11.2,17.3-14.2,27.3
		c4.3,1.5,6.4,5.6,9.8,8.2c9,7,20.1,10.1,29.4,16.6c4.9,3.4,10.5,6,10.6,13.3c0,4.6-2.1,7.4-6.4,9c-9.5,3.6-18.9,1.6-28.4-0.4
		c-8.1-1.6-15.3-5.3-22.3-9.6c-1.2-0.8-2.2-2.2-3.9-2c-1.6,12.1-2.4,24.2-0.7,36.3c1.7,1.6,3.4,3.1,5,4.8c8,8.4,17.2,15.1,27.4,20.5
		c22.1,11.6,45.6,14.8,70.1,11.3c12.5-1.8,24.6-5.2,35.6-11.9c-7.5-1.6-14.8-3.4-21.4-7.7c-5.5-3.6-10.1-8-13.3-13.9
		c-1.4-2.5-1.2-4.9,1.3-6.5c2.5-1.6,4.6-1,6.6,1.2c18.3,20.9,40.2,21.8,61.4,2.5c3.9-5.8,8-11.4,11.6-17.4
		c13.7-22.9,22.8-47.5,25.6-74.2C625.5,227.4,622,224.1,620.2,215.1z M527.8,181.6c-7.3,2-13.6,6.1-19.6,10.6
		c-1.6,1.2-3.5,3.5-5.6,1.1c-2.1-2.4-0.3-4.4,1.4-6c5-4.9,11.3-7.5,17.4-10.5c1.2-0.6,2.6-0.8,2.7-2.8c-1.9-4.2-3.6-8.8-6-12.9
		c-5.2-9.1-10.6-18.1-18.3-25.4c-1.5-1.3-3.3-3-1.4-5.1c2.1-2.3,4.2-0.9,6.1,0.7c4.1,3.7,7.7,7.9,10.9,12.3
		c6.8,9.3,11.9,19.6,16.3,30.2C533.5,178,532.4,180.4,527.8,181.6z M591.3,257.9c-1.1,2.2-2.8,1.5-4.7,0.8
		c-6.7-2.5-13.3-2.1-19.8,0.8c-1.9,0.8-4,1.9-5.1-0.6c-1-2.4,1-3.5,2.8-4.5c4.3-2.5,8.9-3.5,13.8-3.4c3.7,0,7.3,0.5,10.6,2.3
		C590.7,254.2,592.4,255.5,591.3,257.9z"/>
	<path class="st4" d="M445.7,13.8c-8.7,33.9-16.7,67.9-37.5,97.2c-25.1,35.3-58.1,58.4-101.5,64.2c-26.5,3.6-52.4-0.3-75.1-15.6
		c-23.9-16.1-34.2-38.9-31.6-67.7c1.1-11.6,5.1-22.3,9.2-33c24.9-16.2,51.9-27.6,80.3-35.8C334.7,10,380.8,7.3,427.4,11.5
		C433.5,12,439.7,12.3,445.7,13.8z"/>
	<path class="st4" d="M288.7,402.5c-2,3.4-4.8,6.4-7.2,9.6c-31.2-4.3-60.7-13.6-87.3-31c-22.1-14.4-38.5-33.7-48.6-58.1
		c-1.5-3.8-3.4-5.6-7.4-3.8c-6.7-15.2-7.5-30.9-3-46.8c8.3-29.3,33.6-50.6,64.2-53.7c41-4.1,72.2,13.1,92.3,47.8
		C318.1,311.8,315.1,357.7,288.7,402.5z"/>
	<path class="st5" d="M800.9,311.5c-3.8-1.1-7.3-2.6-8.4-6.9c-1-3.8,1.1-6.7,3.9-8.5c6.4-4.2,13-8.4,20.5-10.6
		c0-0.8,0.2-1.7,0.1-2.5c-3-20.9-8.9-40.9-19.7-59.1c-1.7-2.9-2.7-5.5-1.5-8.9c4.5-13.6,7.4-27.6,9-41.9c1.8-16.2,3.1-32.4-0.6-48.6
		c-2.8-12.6-10.1-17.8-22.8-15.5c-1.6,0.3-3.3,0.6-4.9,1c-19.8,5-37.2,15.1-53.7,26.8c-6.8,4.8-6.8,4.8-0.7,10
		c0.5,0.4,1,0.9,1.4,1.4c1.3,1.6,2.4,3.2,1,5.4c-1.5,2.3-3.3,1.5-5.2,0.8v0c0,0,0,0.1,0,0.1c0,0,0,0,0,0c0,0,0,0,0,0.1
		c0,0.1,0,0.3,0,0.5c-0.1,0.8,0,1.6,0.1,2.4c0,0.4,0.1,0.8,0.2,1.1c0.1,0.4,0.2,0.7,0.2,1.1c0.4,1.6,1,3.3,1.5,4.9
		c5.2,17.3,7.8,34.9,5,53c-0.5,3.2-2.2,5.9-4.6,8.1c-4.7,4.4-10.2,3.5-13.1-2.4c-2.3-4.7-3-9.8-3.3-15c-1.4-20.1-5-39.7-14.8-57.8
		c-2.1-4-5.2-7.6-6.1-12.3c-2.7-1.6-5.7-2.4-8.8-3c-1.4,0.8-1,1.7-0.4,2.9c7.1,12.9,12.5,26.4,14.7,41c1.8,12.5,3.8,24.9,1.4,37.6
		c-1.7,8.9-3.5,10.6-12.3,11.1c2.3,15.1,4.2,30.3,7.9,45.2c4.2,17.2,10.1,33.7,18.4,49.4c2.3,0.4,3.6,2,5.1,3.7
		c13.8,16.2,37.5,16.5,51.7,0.7c2.2-2.5,4.7-5.1,7.9-2.3c3,2.6,1.4,5.8-0.6,8.5c-7.1,9.3-16.8,13.9-28.1,15.4
		c-1.8,0.2-3.6,0.5-5.4,0.7c0.9,1.6,2.6,2,4.1,2.7c20.4,8.7,40.9,9.2,61.6,0.7c2.4-1,4.7-2.5,7.5-2.4h0c1.4-3.8,2.7-7.6,3.8-11.4
		c2.5-8.5,4.2-17.1,4.3-26C811.7,312.4,806.2,313.1,800.9,311.5z M748.8,264.5c-1.4,2.4-3.2,1.3-5.1,0.2c-5.4-3.2-11.3-3.6-17.3-1.9
		c-1.9,0.5-3.7,1-4.7-1.2c-1.1-2.5,0.9-3.6,2.8-4.4c2.6-1.1,5.4-1.6,7.8-1.4c5.4-0.2,10,0.9,14.2,3.4
		C748.5,260.4,750.2,262.1,748.8,264.5z M781.1,139.1c-2.4,2-4.9,4-7.2,6.2c-6.9,6.4-12.3,13.9-17.6,21.6c-1.9,2.9-2.6,4.9,1.3,6.9
		c4.3,2.3,7.5,6.1,10.7,9.7c1.1,1.2,1.5,2.6,0.9,4.2c-0.4,1-1.2,1.6-2.2,1.8c-1.3,0-2.1-0.9-2.9-1.7c-4.7-4.2-9.5-8.3-15-11.5
		c-2.8-1.6-3.4-4.1-1.9-6.8c7.5-12.9,16.5-24.6,28.3-33.8c0.8-0.6,1.7-1.1,2.6-1.5c1.7-0.8,3.3-0.8,4.5,0.8
		C783.7,136.8,782.4,138,781.1,139.1z"/>
	<path class="st6" d="M796.9,556c-0.9-2.5-2.7-4-5-5.2c-3.9-2.1-3.9-4.5-0.5-7c4.6-3.3,4.5-4.7,0-7.9c-3-2.1-5.2-4.9-5.9-9.8
		c4.8,4.9,7.3-0.1,10.6-1.3c1-0.3,1.4-1.8,0.8-2.6c-2.2-2.7-0.3-5-0.2-7.6c0.3-7.2,6.3-8.8,10.4-11.2c5.1-2.9,10.8-0.1,15.5,2.6
		c6.6,3.9,13.5,0.8,14.5-6.9c0.3-2.2-1-3.3-2.5-4.5c-10.8-8.2-10.8-11,0-18.8c0.5-0.4,1.4-0.5,1.7-1c1.3-2.3,6.9,0.6,5.6-5.4
		c-1.4-6.6-2-13-10.5-13.9c-2.1-0.2-3.6-1.2-3.9-3.2c-0.3-2.2,1.5-2.4,3.2-2.9c5.2-1.8,9.2-10.7,7.2-15.6c-0.3-0.9-1-2.5-1.9-1.8
		c-4.7,3.5-9.3-1.7-14.3,0.3c-4,1.5-8.4,1.6-10.8,5.9c-1.3,2.3-3.7,3.8-5.9,5.2c-5.6,3.6-5.6,3.7-9.1-2.1c-0.9-1.6-2.4-2.2-3.8-3.1
		c-6.6-4-7.9-8.6-4.4-15.6c1.6-3.1-0.8-5.1-1.9-7.3c-1.4-2.8-0.8-3.9,2-5.1c2.9-1.2,6.9,0,8.6-3.8c0.6-0.1,1.3-0.2,1.9-0.3
		c2.6,3.3,4.5,7.1,2.5,11c-2.3,4.4,0.3,5.1,3.4,6c2.9,0.8,5.5-0.7,8.3-1.1c1.9-0.3,2.3-2.1,0.5-3.2c-2.1-1.3-4.2-3.4-4.2-5.3
		c0.1-5.2-3.4-7.5-6.7-10.3c0.2-4.8-1-5.9-5.5-5.2c-2.2,0.4-4.5,0.7-6.8,1c-0.3-0.4-0.6-0.8-0.9-1.2c37.8-40.9,45.3-88.7,31.9-141.8
		c5.6,2.7,9.9,6,14.1,9.4c25,20.9,39.5,47.7,44.5,79.7c6.4,41.1,3.1,81.3-11.5,120.4c-11.1,29.7-28.3,55.4-52.6,75.8
		C809.3,546.6,803.9,552.5,796.9,556z"/>
	<path class="st5" d="M362.4,425c22.6-1,45.2-1.6,66.9,6.8c6.4,2.5,12.2,6.1,17,11.2c13.8,14.8,8.4,35.7-10.8,41.7
		c-10.2,3.2-20.8,4.5-31.4,5.4c-14.9,1.3-29.8,3.2-44.8,2.4c-0.2-1-0.3-2-0.6-2.9c-4.2-14.7-5.7-29.5-2.6-44.6
		C357.6,437.9,360.5,431.6,362.4,425z"/>
	<path class="st3" d="M300.2,489.3c-21.5-2.3-42.7-6.5-63.6-12.1c-0.5-0.1-0.8-0.5-1.2-0.8c-0.8-18,2.1-35,11.7-50.6
		c2-3.2,5.4-5.5,6.2-9.4c12.3,2.4,24.7,5.1,37.2,6.3c5.6,0.6,11.2,1.2,16.8,1.8c0.2,1.6-0.4,2.9-1.2,4.3c-7,13.1-9,27.4-8.7,41.9
		C297.6,477,299.2,483.1,300.2,489.3z"/>
	<path class="st7" d="M300.2,489.3c-1-6.2-2.6-12.4-2.8-18.6c-0.3-14.6,1.7-28.8,8.7-41.9c0.7-1.3,1.3-2.7,1.2-4.3
		c18.3,1.7,36.7,0.6,55.1,0.4c-1.9,6.7-4.8,13-6.2,19.9c-3.1,15.2-1.7,30,2.6,44.6c0.3,1,0.4,1.9,0.6,2.9
		C339.5,493,319.8,491.8,300.2,489.3z"/>
	<path class="st7" d="M253.3,416.4c-0.9,3.9-4.2,6.2-6.2,9.4c-9.7,15.6-12.5,32.7-11.7,50.6c-18.2-4.7-35.6-11.6-52.1-20.6
		c0.3-2.3,0.9-4.5,1-6.8c0.5-10.6,4-20.2,9.4-29.4c4.2-7.2,10.3-12.7,15.7-18.9C223.7,406.7,238.2,412.3,253.3,416.4z"/>
	<path class="st3" d="M209.2,400.7c-5.3,6.2-11.4,11.7-15.7,18.9c-5.4,9.1-8.8,18.7-9.4,29.4c-0.1,2.3-0.7,4.6-1,6.8
		c-16.4-8.2-31.3-18.5-44.5-31.2c-1.6-1.5-4.1-2.3-4.6-4.8c1.1-2.8,2.3-5.5,3.3-8.3c3.8-10.5,9.6-19.3,18.6-26.3
		c5-3.9,11.1-5.6,16.4-8.9c7.6,5.5,14.7,11.7,22.9,16.3C200,395.3,204.6,398,209.2,400.7z"/>
	<path class="st7" d="M172.4,376.3c-5.3,3.3-11.3,5-16.4,8.9c-8.9,7-14.8,15.8-18.6,26.3c-1,2.8-2.2,5.5-3.3,8.3
		c-13.8-13-24.3-28.2-32-45.5c8.7-19.4,23.8-28.9,44.8-29.5C153.8,356.6,162.9,366.6,172.4,376.3z"/>
	<path class="st7" d="M640.4,218.1c-0.5,4.3-2.1,7.6-5.9,9.7c-9-0.4-12.5-3.7-14.3-12.6c-3.1-15.2-5-30.7-10.4-45.4
		c-4.7-12.7-10.6-24.7-19.2-35.2c-0.9-1.1-1.5-2.2-1.4-3.6c10.6-2.4,21.2-3.2,32-2.6c11.6,17.8,16.8,37.7,19.2,58.5
		C641.6,197.2,641.6,207.6,640.4,218.1z"/>
	<path class="st7" d="M691.3,216.7c-1.7,8.9-3.5,10.6-12.3,11.1c-5.2-1.4-6.5-5.8-7.3-10.3c-1.9-11.6-3.6-23.2-6.8-34.6
		c-5.3-19.2-13.3-37.1-25-53.3c12.1,0.2,23.9,2.5,35.6,5.7c-1.4,0.8-1,1.7-0.4,2.9c7.1,12.9,12.5,26.4,14.7,41
		C691.7,191.6,693.7,204.1,691.3,216.7z"/>
	<path class="st6" d="M622.2,623.5c2.6-2.4,5.1-4.9,7.7-7.3c1.2-1.2,2.9-2.1,3.5-3.5c3.2-8.3,11.1-10.3,18-13.6
		c2.7-1.3,5.5-0.5,7.2,1.7c1.7,2.2,3.8,2.2,5.8,1.5c4.2-1.6,9-1.8,10.9-7.8c1.1-3.2,1.6-4.5-1.4-6.1c-1.1-0.6-2.2-1.6-1.4-2.8
		c1.1-1.7,2.6-0.3,3.3,0.4c4.3,4.5,10.7,5.1,15.4,8.8c2.3,1.8,4.9,0,5.7-2.1c1.7-4.5,6.9-6.1,8.5-10.7c0.4-1.1,1.8-1.3,3-1.4
		c0.9-0.1,2.3-0.2,2.7-0.8c7-11.2,19.2-8.9,29.5-11c2.6-0.5,5.5,0.8,8.3,0.9c4.3,0.1,8.4-1.4,11.7-3.3c2.8-1.7,5.9-0.8,8.4-2.4
		c4.4-2.8,3.7,2.9,6.1,3.5c0.7,0.2,1.3,0.8,2,1.3c-14.4,7.7-28.6,15.6-43.8,21.7c-16.1,6.5-32.2,12.8-48.8,17.8
		C664.1,614.4,643.4,620.1,622.2,623.5z"/>
	<path class="st7" d="M581.3,131.7c-0.3,2.2,0.8,3.9,1.9,5.6c8.3,12.9,13.4,27,16.4,41.9c2.4,11.9,3.4,24,2.6,36.1
		c-0.3,5.3-4.6,10.5-8.6,11c-4.3,0.6-9.3-2.8-11-8.4c-2.2-7.5-3.9-15.1-5.6-22.7c-2.7-12-7.9-23.2-11.4-35c-0.6-1.9-1.6-3.7-1.3-5.8
		c1.8,2.1,3.7,4.3,5.5,6.4c1.3,1.4,2.8,2.5,4.7,1c1.9-1.5,2.8-3.2,1.5-5.6c-3.2-5.9-7.4-11-11.9-15.9c-2.8-3.1-2.7-4.4,1.6-5.2
		C571,134.3,576.1,132.9,581.3,131.7z"/>
	<path class="st7" d="M719.3,154.5c-0.4,3.6,0.9,6.8,1.9,10.2c5.2,17.3,7.8,34.9,5,53c-0.5,3.2-2.2,5.9-4.6,8.1
		c-4.7,4.4-10.2,3.5-13.1-2.4c-2.3-4.7-3-9.8-3.3-15c-1.4-20.1-5-39.7-14.8-57.8c-2.1-4-5.2-7.7-6.1-12.3c12.2,3,23.6,7.7,33.8,15.2
		c0.3,0.4,0.7,0.8,1.1,1.1L719.3,154.5z"/>
	<path class="st7" d="M436.5,247.6c4.3,1.5,6.4,5.6,9.8,8.2c9,7,20.1,10.1,29.4,16.6c4.9,3.4,10.5,6,10.6,13.3c0,4.6-2.1,7.4-6.4,9
		c-9.5,3.6-18.9,1.6-28.4-0.4c-8.1-1.6-15.3-5.3-22.3-9.6c-1.2-0.8-2.2-2.2-3.9-2C427.7,270.5,430.5,258.6,436.5,247.6z"/>
	<path class="st6" d="M524.4,637c-3.4-1.9-2.8-3.6,0.3-5.1c0.9-0.4,1.8-1.2,2.7-1.2c8.2,0.4,12.9-5.1,16.8-10.9
		c3.7-5.5,8.8-6.2,14.4-6.2c3.7,0,7.3,0,10.7-1.6c1.9-0.8,3.5-0.3,4.9,1.2c5.4,5.8,11.5,9.6,19.8,7.3c2.1-0.6,4.2-0.4,6.3,0
		c5.8,1.1,10.2-3.2,15.6-4c1.4-0.2,2.8-1.3,4.3-0.9c2.3,0.5,4.2,1.6,1.7,3.9c-1.6,1.5-1.6,2.7-0.7,4.3c-17.1,4-34.6,6.1-51.9,8.6
		C554.4,634.5,539.5,636.3,524.4,637z"/>
	<path class="st7" d="M817.2,312.6c-5.4-0.2-11,0.5-16.3-1.1c-3.8-1.1-7.3-2.6-8.4-6.9c-0.9-3.8,1.1-6.7,3.9-8.5
		c6.4-4.2,13-8.4,20.5-10.6C818.1,294.5,819.2,303.6,817.2,312.6z"/>
	<path class="st6" d="M71.3,361.6c1.5-5.2,6.6-9,12.1-9c2.3,6.1,4.6,12.3,7.2,19.5C83.6,367.9,77.7,364.3,71.3,361.6z"/>
	<path class="st2" d="M802,403.5c3.2,2.7,6.8,5.1,6.7,10.3c0,1.9,2,4,4.2,5.3c1.8,1.1,1.4,2.9-0.5,3.2c-2.8,0.4-5.4,1.9-8.3,1.1
		c-3.1-0.8-5.7-1.5-3.4-6c2.1-3.9,0.1-7.7-2.5-11C799.4,405.4,800.7,404.5,802,403.5z"/>
	<path class="st6" d="M780.8,566.4c-0.6-2.3-1.8-3.8-4.2-4.3c-1.1-0.2-2.1-0.9-2.2-2.4c-0.1-1.7,1.1-2.2,2.3-2.8
		c7.7-3.9,9.9-3.5,14.7,2.9C787.9,562.2,784.9,565.2,780.8,566.4z"/>
	<path class="st6" d="M789.7,399.3c-0.7,0.4-1.4,0.7-2-0.1c-0.1-0.1,0.7-0.8,1.1-1.2C789.1,398.5,789.4,398.9,789.7,399.3z"/>
	<path class="st6" d="M796.2,556.6c-0.1-0.2-0.2-0.4-0.3-0.6c0.2,0.1,0.5,0.2,0.7,0.3C796.6,556.5,796.4,556.6,796.2,556.6z"/>
	<path class="st5" d="M719.3,154.6c-0.3-0.4-0.7-0.8-1.1-1.1C718.8,153.6,719.3,153.9,719.3,154.6z"/>
	<path class="st2" d="M75,250.3c0.3-0.1,0.5-0.3,0.8-0.4c0,0.4,0.1,0.8,0.1,1.2C75.5,250.8,75.3,250.5,75,250.3z"/>
	<path class="st0" d="M693.9,387c-9.5,15.2-27.2,16.7-37.7,6.9c-3.9-3.6-5.8-2.5-9.2-0.2c-12,8.4-27.3,6.5-36.6-4.3
		c-0.7-0.8-1.4-1.5-1.8-2.4c-1.4-2.9-4.2-6.3-0.1-8.7c3.9-2.3,4.9,1.8,6.4,4.2c3.9,6.5,12.3,9.6,20.6,7.8c8.7-1.9,13.4-7.1,15-15.1
		c1.1-5.8,0.3-9.6-5.4-12.4c-2.8-1.3-6.3-3.6-4.8-8.1c4,1.2,7.2,4,10.7,6.2c3.1,1.9,5.8,2.1,8.7,0.2c3.3-2.1,6.7-4.2,10.1-6.3
		c2.2,5.2-2.4,6.8-5,9.5c-1.8,1.8-5.9,1-6.1,4.3c-0.3,5.2-3.4,10.5-0.9,15.6c3.6,7.3,14.8,9.8,22.9,5.6c3-1.6,5.5-3.8,7.2-6.7
		c1.3-2.2,3.1-3.8,5.7-2.3C696,382.4,695.1,384.9,693.9,387z"/>
	<path class="st0" d="M602,328.1c-8.2,10.1-19.1,14.5-31.7,15.4c-2.5,0.2-5,0.1-7.5,0.2c-7.5-1.6-14.8-3.4-21.4-7.7
		c-5.5-3.6-10.1-8-13.3-13.9c-1.4-2.5-1.2-4.9,1.3-6.5c2.5-1.6,4.6-1,6.6,1.2c18.3,20.9,40.2,21.8,61.4,2.5c2.3-0.6,4.4-0.5,5.7,1.8
		C604.5,323.7,603.6,326,602,328.1z"/>
	<path class="st0" d="M769.4,333c-7.1,9.3-16.8,13.9-28.1,15.4c-1.8,0.2-3.6,0.5-5.4,0.7c-10.4-0.9-20.1-3.7-28-11.1
		c-2.4-2.3-4.6-4.8-6.2-7.7c-2.3-4.2-1.2-6.5,3.6-7.9c2.3,0.4,3.6,2,5.1,3.7c13.8,16.2,37.5,16.5,51.7,0.7c2.2-2.5,4.7-5.1,7.9-2.3
		C773,327.2,771.4,330.4,769.4,333z"/>
	<path class="st4" d="M669.6,354.8c-3.3,2.1-6.7,4.2-10.1,6.3c-3,1.9-5.6,1.7-8.7-0.2c-3.5-2.1-6.7-4.9-10.7-6.2
		c-1.2-3.3,1-4.6,3.5-5.4c7.4-2.1,14.7-1.8,22,0.5C668,350.6,669.9,351.8,669.6,354.8z"/>
	<path class="st6" d="M764.4,559.1c-3.2-1.3-5.4,0.4-7.6,2.3c-1.5,1.3-3.4,1.8-4.9,0.5c-1.3-1.2-0.7-3.1,0.1-4.6
		c2.2-4.9,9.9-7.8,14.6-5.5c0.2,0.1,0.3,0.1,0.4,0.2c1.5,1.3,4.9-0.3,4.8,3.1C771.7,556.4,766.3,559.2,764.4,559.1z"/>
	<path class="st6" d="M775.3,539.5c2.4,0.5,4.6,0.8,7-0.7c1.4-0.9,2.7,0.7,2.8,2.4c0.1,2.1,0.6,4.7-2.4,5.1
		c-2.1,0.3-4.2,0.5-6.3,1.2c-1.5,0.5-3.3,1.7-4.5-0.2c-1-1.6-1.7-3.7-1.1-5.6C771.4,540,773.3,539.3,775.3,539.5z"/>
	<path class="st6" d="M775.9,414.1c-0.4,2.5-2.3,3.7-3.5,5.4c-1,1.5-3.1,1.5-4.3,0.1c-1.6-1.8,0.3-2.4,1.5-3.3
		C771.4,415,773.3,413.9,775.9,414.1z"/>
	<path class="st6" d="M771.5,517.6c-1.3,2.3-0.5,4.8-3.2,4.8c-0.8,0-1.7-0.7-1.6-1.5C766.8,518.5,768.7,518.4,771.5,517.6z"/>
	<path class="st0" d="M524.2,174.1c-1.9-4.2-3.6-8.8-5.9-12.9c-5.2-9.1-10.6-18.1-18.4-25.4c-1.4-1.3-3.3-3-1.4-5.1
		c2.1-2.3,4.2-0.9,6.1,0.7c4.1,3.7,7.7,7.9,10.9,12.3c6.8,9.3,11.9,19.6,16.3,30.2c1.7,4.1,0.6,6.5-3.9,7.7
		c-7.3,2-13.6,6.1-19.6,10.6c-1.6,1.2-3.5,3.5-5.6,1.1c-2.1-2.4-0.3-4.4,1.4-6c5-4.9,11.3-7.5,17.4-10.5
		C522.7,176.3,524.1,176,524.2,174.1z"/>
	<path class="st0" d="M578.3,250.9c3.7,0,7.3,0.5,10.6,2.3c1.8,1,3.5,2.3,2.4,4.7c-1.1,2.2-2.8,1.5-4.7,0.8
		c-6.7-2.5-13.3-2.1-19.8,0.8c-1.9,0.8-4,1.9-5.1-0.6c-1.1-2.4,1-3.5,2.8-4.5C568.8,251.8,573.4,250.8,578.3,250.9z"/>
	<path class="st0" d="M766.9,189.5c-1.3,0-2.1-0.9-2.9-1.7c-4.7-4.2-9.5-8.3-15-11.5c-2.8-1.6-3.4-4.1-1.9-6.8
		c7.5-12.9,16.5-24.6,28.3-33.8c0.8-0.6,1.7-1.1,2.6-1.5c1.7-0.8,3.3-0.8,4.5,0.8c1.3,1.9,0,3.1-1.3,4.2c-2.4,2-4.9,4-7.2,6.2
		c-6.9,6.4-12.3,13.9-17.6,21.6c-2,2.9-2.6,4.9,1.3,6.9c4.3,2.3,7.5,6,10.7,9.7c1.1,1.2,1.5,2.6,0.9,4.2
		C768.7,188.7,767.9,189.2,766.9,189.5z"/>
	<path class="st0" d="M732.3,255.8c5.4-0.1,10,0.9,14.2,3.4c2,1.2,3.6,2.8,2.2,5.2c-1.4,2.4-3.2,1.3-5.1,0.2
		c-5.4-3.2-11.3-3.6-17.2-1.9c-1.9,0.5-3.7,1-4.7-1.2c-1.1-2.5,0.9-3.6,2.8-4.4C727.2,256.1,729.9,255.6,732.3,255.8z"/>
</g>
</svg>
